<?xml version="1.0" encoding="UTF-8"?>
<svg width="15px" height="15px" viewBox="0 0 15 15" version="1.1" xmlns="http://www.w3.org/2000/svg" xmlns:xlink="http://www.w3.org/1999/xlink">
    <!-- Generator: Sketch 42 (36781) - http://www.bohemiancoding.com/sketch -->
    <title>health</title>
    <desc>Created with Sketch.</desc>
    <defs></defs>
    <g id="Page-1" stroke="none" stroke-width="1" fill="none" fill-rule="evenodd">
        <g id="health" transform="translate(1.000000, 1.000000)" fill-rule="nonzero" fill="#FFFFFF">
            <path d="M6,5.32907052e-15 C5,5.32907052e-15 5,0.0427181246 5,1 L5,5 L1,5 C0,5 0,5 0,6 L0,7 C0,8 0,8 1,8 L5,8 L5,12 C5,13 5,13 6,13 L7,13 C8,13 8,13 8,12 L8,8 L12,8 C13,8 13,8 13,7 L13,6 C13,5 13,5 12,5 L8,5 L8,1 C8,7.88860905e-31 8,7.88860905e-31 7,5.32907052e-15 L6,5.32907052e-15 Z" id="cross"></path>
        </g>
    </g>
</svg>