<?xml version="1.0" encoding="UTF-8"?>
<svg width="15px" height="15px" viewBox="0 0 15 15" version="1.1" xmlns="http://www.w3.org/2000/svg" xmlns:xlink="http://www.w3.org/1999/xlink">
    <!-- Generator: Sketch 42 (36781) - http://www.bohemiancoding.com/sketch -->
    <title>shopping</title>
    <desc>Created with Sketch.</desc>
    <defs></defs>
    <g id="Page-1" stroke="none" stroke-width="1" fill="none" fill-rule="evenodd">
        <g id="shopping" transform="translate(1.000000, 0.000000)" fill-rule="nonzero" fill="#FFFFFF">
            <path d="M10.5,1.5 C10.5,1.5 10,1.9177 10,3 L0.1992188,3 L1.59375,7.8144531 C1.8418219,8.4932375 2.4545469,8.9666406 3.1855469,8.9941406 C3.1885469,8.9954406 9.699219,9 9.699219,9 L10,9 C10,9 10,11 9,11 L2,11 C1,11 1,12 2,12 L8.3007812,12 C10,12 11,11 11,9 L11,3 C11,2.4764 11.228619,2 11.699219,2 L12.25,2 C12.6642,2 13,1.9142 13,1.5 C13,1.0858 12.4142,1 12,1 C12,1 11.0549,0.9588 10.5,1.5 Z M8.1992188,12 C7.5992188,12 7.1992188,12.4 7.1992188,13 C7.1992188,13.6 7.5992187,14 8.1992188,14 C8.7992187,14 9.199219,13.6 9.199219,13 C9.199219,12.4 8.7992188,12 8.1992188,12 Z M3.1992188,12 C2.5992188,12 2.1992188,12.4 2.1992188,13 C2.1992188,13.6 2.5992187,14 3.1992188,14 C3.7992188,14 4.1992188,13.6 4.1992188,13 C4.1992188,12.4 3.7992187,12 3.1992188,12 Z" id="cart"></path>
        </g>
    </g>
</svg>