<svg width="296" height="72" viewBox="0 0 296 72" xmlns="http://www.w3.org/2000/svg" xmlns:xlink="http://www.w3.org/1999/xlink"><defs><path d="M88.862 24.705h5.28c-.775 2.64-2.254 4.654-4.435 6.035-2.184 1.448-4.93 2.17-8.239 2.17-4.013 0-7.147-1.163-9.4-3.49-2.255-2.264-3.38-5.5-3.38-9.713 0-4.023 1.09-7.166 3.274-9.43 2.253-2.325 5.387-3.489 9.4-3.489 4.226 0 7.5 1.132 9.823 3.395 2.253 2.326 3.38 5.563 3.38 9.713v1.037c0 .315-.035.535-.105.66H76.187c.07 1.949.596 3.393 1.584 4.337.914 1.006 2.287 1.509 4.12 1.509 1.195 0 2.218-.219 3.062-.66a1.5 1.5 0 0 0 .582-.33l.581-.519c.07-.189.334-.44.793-.754.456-.313 1.107-.47 1.953-.47zm-12.675-7.354H86.96c-.142-1.698-.633-2.955-1.48-3.772-.915-.88-2.218-1.32-3.907-1.32-1.55 0-2.817.44-3.802 1.32-.987.88-1.516 2.137-1.585 3.772z" id="a"/><path d="M116.891 24.705h5.28c-.775 2.64-2.254 4.654-4.437 6.035-2.184 1.448-4.928 2.17-8.238 2.17-4.013 0-7.147-1.163-9.4-3.49-2.254-2.264-3.38-5.5-3.38-9.713 0-4.023 1.09-7.166 3.275-9.43 2.253-2.325 5.387-3.489 9.4-3.489 4.225 0 7.5 1.132 9.823 3.395 2.253 2.326 3.38 5.563 3.38 9.713v1.037c0 .315-.037.535-.106.66h-18.274c.07 1.949.597 3.393 1.585 4.337.915 1.006 2.287 1.509 4.119 1.509 1.196 0 2.218-.219 3.063-.66a1.5 1.5 0 0 0 .581-.33l.58-.519c.069-.189.334-.44.792-.754.459-.313 1.111-.47 1.957-.47zm-12.676-7.354h10.775c-.142-1.698-.633-2.955-1.48-3.772-.916-.88-2.218-1.32-3.908-1.32-1.548 0-2.817.44-3.802 1.32-.988.88-1.515 2.137-1.585 3.772z" id="b"/><path d="M214.325 40.737c-.663.613-1.58.954-2.534.943h-3.592V18.2c0-4.399 1.443-7.402 4.33-9.005 2.887-1.603 6.021-2.404 9.401-2.404 1.759 0 3.538.299 5.335.895 1.796.599 3.22 1.462 4.278 2.593 2.112 2.452 3.169 5.596 3.169 9.43 0 3.96-1.057 7.167-3.17 9.619-2.112 2.39-4.823 3.584-8.133 3.584-1.76 0-3.312-.284-4.647-.85-1.41-.627-2.536-1.603-3.38-2.923v9.334c0 .88-.353 1.635-1.057 2.264zm13.1-20.746c0-2.451-.528-4.338-1.584-5.658-1.058-1.32-2.572-1.98-4.542-1.98-1.9 0-3.38.66-4.436 1.98-.987 1.195-1.48 3.081-1.48 5.658 0 2.39.53 4.182 1.585 5.375 1.057 1.32 2.57 1.98 4.542 1.98 1.83 0 3.275-.659 4.33-1.98 1.057-1.32 1.585-3.112 1.585-5.375z" id="c"/><path d="M200.346 31.4a14.189 14.189 0 0 1-4.7 1.274 47.228 47.228 0 0 1-4.384.236c-2.534 0-4.752-.614-6.655-1.84-1.9-1.226-2.85-3.254-2.85-6.083 0-2.64.861-4.525 2.587-5.658 1.724-1.131 3.925-1.886 6.601-2.263.352 0 .774-.047 1.269-.141a19.174 19.174 0 0 1 1.689-.236c3.099-.378 4.647-1.194 4.647-2.452 0-.942-.545-1.556-1.637-1.839-1.092-.283-2.095-.425-3.01-.425-.986 0-1.866.127-2.64.378-.775.252-1.339.724-1.69 1.415h-7.077c.28-1.948 1.267-3.551 2.957-4.81 1.902-1.445 4.612-2.168 8.133-2.168 3.943 0 6.9.599 8.872 1.791 2.042 1.258 3.063 3.018 3.063 5.28v8.584c0 2.514-.513 4.478-1.531 5.893-1.021 1.414-2.236 2.437-3.644 3.065zm-1.69-11.598c-.986.441-2.36.849-4.119 1.226l-2.43.472c-1.267.315-2.184.724-2.746 1.226-.494.693-.74 1.383-.74 2.074 0 .942.317 1.697.951 2.263.633.504 1.547.755 2.746.755 1.972 0 3.521-.503 4.648-1.51 1.125-1.004 1.69-2.388 1.69-4.148v-2.358z" id="d"/><path d="M31.16 32.439h-7.394l-4.331-17.917-4.33 17.917H7.71L0 7.355h7.182l4.436 17.35 4.014-17.35h7.5l3.802 17.35 3.908-15.088c.423-1.508 1.548-2.262 3.38-2.262h4.648l-7.71 25.084z" id="e"/><path d="M57.876 14.427c-1.056-1.32-2.5-1.98-4.33-1.98-1.973 0-3.487.63-4.543 1.886-1.056 1.258-1.584 2.987-1.584 5.186v12.92h-7.182V0h3.591c.985 0 1.831.315 2.535.943.703.63 1.056 1.383 1.056 2.262v7.45c1.267-1.887 3.063-3.08 5.386-3.583 2.323-.503 4.542-.378 6.655.377a11.744 11.744 0 0 1 4.965 3.583c1.337 1.636 2.006 3.898 2.006 6.79v14.616h-7.077V19.425c0-.943-.088-1.806-.264-2.593-.176-.785-.58-1.587-1.214-2.405z" id="f"/><path d="M125.695 0h3.802c.985 0 1.83.3 2.536.895.703.599 1.056 1.337 1.056 2.216v29.327h-7.394V0z" id="g"/><path d="M154.257 32.439V16.407c0-1.509-.513-2.608-1.532-3.301a5.99 5.99 0 0 0-3.432-1.037c-1.227-.012-2.42.354-3.38 1.037-.986.693-1.479 1.792-1.479 3.301v16.03h-7.395v-14.71c0-4.275 1.25-7.134 3.75-8.581 2.498-1.446 5.263-2.231 8.291-2.358 1.62 0 3.203.158 4.752.472 1.558.319 3.007.966 4.227 1.887 1.055-.816 2.305-1.399 3.749-1.745a23.247 23.247 0 0 1 4.489-.612c3.098 0 5.95.723 8.556 2.168 2.604 1.447 3.908 4.37 3.908 8.77v14.71h-3.698c-1.056 0-1.918-.298-2.587-.896-.67-.597-1.003-1.367-1.003-2.311V16.407c0-1.509-.512-2.608-1.532-3.301a5.99 5.99 0 0 0-3.432-1.037c-1.267 0-2.413.346-3.432 1.037-1.02.693-1.531 1.792-1.531 3.301v16.032h-7.29z" id="h"/></defs><g fill="none" fill-rule="evenodd"><g transform="translate(60 17)"><use fill="#455668" xlink:href="#a"/><path stroke="#FFF" d="M76.717 22.092c.132 1.564.605 2.717 1.424 3.502.81.892 2.048 1.345 3.75 1.345 1.122 0 2.064-.203 2.924-.64a1 1 0 0 0 .387-.223l.506-.452c.15-.272.452-.541.918-.86.551-.378 1.299-.559 2.236-.559h5.949l-.188.641c-.81 2.756-2.364 4.87-4.64 6.31-2.27 1.506-5.111 2.254-8.515 2.254-4.142 0-7.406-1.212-9.755-3.637-2.356-2.366-3.526-5.729-3.526-10.066 0-4.146 1.135-7.413 3.416-9.778 2.354-2.429 5.619-3.64 9.76-3.64 4.347 0 7.747 1.174 10.182 3.546 2.35 2.427 3.52 5.79 3.52 10.06v1.038c0 .392-.047.685-.169.903l-.143.256H76.717zm.01-5.241h9.675c-.182-1.31-.608-2.275-1.267-2.911-.814-.783-1.993-1.181-3.56-1.181-1.432 0-2.58.399-3.47 1.193-.776.692-1.236 1.65-1.379 2.899z"/></g><g transform="translate(60 17)"><use fill="#455668" xlink:href="#b"/><path stroke="#FFF" d="M104.745 22.092c.132 1.564.605 2.717 1.423 3.502.812.892 2.05 1.345 3.75 1.345 1.122 0 2.065-.203 2.924-.64a1 1 0 0 0 .387-.222l.505-.452c.149-.272.45-.54.918-.862.554-.377 1.302-.558 2.24-.558h5.948l-.189.641c-.81 2.757-2.363 4.87-4.64 6.31-2.27 1.506-5.11 2.254-8.515 2.254-4.143 0-7.407-1.212-9.754-3.637-2.356-2.366-3.526-5.729-3.526-10.066 0-4.146 1.135-7.413 3.416-9.778 2.354-2.429 5.619-3.64 9.76-3.64 4.347 0 7.747 1.174 10.182 3.546 2.35 2.427 3.52 5.79 3.52 10.06v1.038c0 .392-.048.685-.17.903l-.143.256h-18.036zm.01-5.241h9.676c-.182-1.31-.608-2.275-1.266-2.911-.816-.783-1.995-1.181-3.563-1.181-1.43 0-2.58.4-3.47 1.193-.774.691-1.234 1.65-1.377 2.899z"/></g><g transform="translate(60 17)"><use fill="#455668" xlink:href="#c"/><path stroke="#FFF" d="M215.881 30.607v7.866c.002 1.024-.414 1.914-1.222 2.637l.006-.005c-.759.7-1.8 1.087-2.874 1.075h-4.092V18.2c0-4.568 1.526-7.742 4.588-9.442 2.96-1.645 6.178-2.467 9.643-2.467 1.812 0 3.644.307 5.493.92 1.872.625 3.368 1.531 4.499 2.742 2.194 2.547 3.29 5.808 3.29 9.756 0 4.074-1.095 7.397-3.295 9.95-2.209 2.498-5.057 3.753-8.508 3.753-1.823 0-3.44-.296-4.85-.893a8.057 8.057 0 0 1-2.678-1.912zm11.044-10.616c0-2.346-.498-4.124-1.475-5.346-.957-1.195-2.326-1.792-4.151-1.792-1.754 0-3.088.595-4.05 1.798-.9 1.09-1.365 2.868-1.365 5.34 0 2.277.494 3.953 1.475 5.063.958 1.196 2.326 1.793 4.151 1.793 1.683 0 2.982-.594 3.94-1.793.979-1.224 1.475-2.907 1.475-5.063z"/></g><g transform="translate(60 17)"><use fill="#455668" xlink:href="#d"/><path stroke="#FFF" d="M200.55 31.857l.009-.004a14.683 14.683 0 0 1-4.863 1.318c-1.471.148-2.95.228-4.434.239-2.627 0-4.939-.64-6.926-1.92-2.053-1.324-3.079-3.514-3.079-6.503 0-2.798.935-4.844 2.813-6.076 1.791-1.175 4.062-1.954 6.875-2.345.317 0 .708-.043 1.175-.132.502-.097 1.08-.177 1.722-.241 2.87-.35 4.208-1.056 4.208-1.956 0-.7-.379-1.126-1.262-1.355-1.053-.273-2.015-.409-2.885-.409-.934 0-1.762.12-2.486.353-.65.212-1.108.595-1.398 1.166l-.139.274h-7.962l.083-.572c.3-2.081 1.359-3.802 3.15-5.135 1.999-1.52 4.813-2.27 8.435-2.27 4.024 0 7.067.614 9.134 1.865 2.188 1.347 3.301 3.267 3.301 5.706v8.583c0 2.607-.537 4.673-1.626 6.185-1.072 1.486-2.355 2.565-3.845 3.23zm-2.394-11.312c-.931.346-2.102.669-3.524.974l-2.404.466c-1.164.29-1.997.655-2.493 1.078-.414.595-.614 1.171-.614 1.737 0 .804.26 1.422.763 1.871.533.425 1.339.647 2.434.647 1.856 0 3.287-.465 4.315-1.382 1.015-.906 1.523-2.153 1.523-3.776v-1.615z"/></g><g transform="translate(60 17)"><use fill="#455668" xlink:href="#e"/><path stroke="#FFF" d="M19.435 16.65l-3.937 16.289H7.341L-.677 6.855H7.57l4.024 15.737 3.64-15.737h8.3l3.44 15.7 3.387-13.072c.487-1.738 1.816-2.628 3.861-2.628h5.325l-8.018 26.084h-8.157L19.435 16.65z"/></g><g transform="translate(60 17)"><use fill="#455668" xlink:href="#f"/><path stroke="#FFF" d="M47.919 9.22c1.246-1.337 2.844-2.218 4.78-2.637 2.414-.523 4.728-.392 6.94.399 2.05.784 3.776 2.03 5.173 3.734 1.417 1.733 2.119 4.108 2.119 7.106v15.116h-8.077V19.425c0-.904-.084-1.731-.252-2.484-.16-.71-.531-1.447-1.121-2.207l.004.006c-.959-1.2-2.258-1.793-3.94-1.793-1.83 0-3.203.57-4.159 1.707-.974 1.16-1.467 2.776-1.467 4.865v13.42h-8.182V-.5h4.091c1.106 0 2.07.359 2.869 1.07.807.724 1.222 1.612 1.222 2.635V9.22z"/></g><g transform="translate(60 17)"><use fill="#455668" xlink:href="#g"/><path stroke="#FFF" d="M125.195-.5h4.302c1.1 0 2.061.34 2.86 1.015.814.693 1.232 1.57 1.232 2.596v29.827h-8.394V-.5z"/></g><g transform="translate(60 17)"><use fill="#455668" xlink:href="#h"/><path stroke="#FFF" d="M158.056 8.527c1.047-.744 2.26-1.282 3.636-1.612a23.768 23.768 0 0 1 4.605-.625c3.18 0 6.115.744 8.799 2.23 2.785 1.548 4.165 4.644 4.165 9.207v15.21h-4.198c-1.174 0-2.155-.339-2.92-1.022-.777-.692-1.17-1.598-1.17-2.684V16.407c0-1.35-.438-2.293-1.316-2.89a5.493 5.493 0 0 0-3.148-.948c-1.167 0-2.216.317-3.15.95-.876.595-1.313 1.536-1.313 2.888v16.532h-8.29V16.407c0-1.35-.438-2.293-1.315-2.89-.897-.62-2.005-.954-3.153-.948a5.247 5.247 0 0 0-3.088.946c-.843.593-1.266 1.537-1.266 2.892v16.53h-8.395v-15.21c0-4.436 1.324-7.464 4-9.014 2.567-1.486 5.41-2.294 8.541-2.425 1.651 0 3.268.161 4.853.482 1.502.308 2.91.907 4.123 1.757z"/></g><g fill-rule="nonzero" fill="#8BB847"><path d="M14.124 21.729c2.89 2.89 7.39 2.785 10.212-.038l-10.212.038zm14.208 31.433h-7.076v-5.759a1.804 1.804 0 1 0-3.607 0v5.759h-6.717a1.804 1.804 0 0 0 0 3.607h6.717v6.238a1.804 1.804 0 0 0 3.607 0v-6.238h7.075a1.804 1.804 0 0 0 .001-3.607zm22.521 6.312a1.8 1.8 0 0 0-2.27-1.162l-3.71 1.196-5.017-14.217a1.8 1.8 0 0 0-.97-1.048 1.798 1.798 0 0 0-1.428-.015l-3.397 1.425a17.45 17.45 0 0 0-6.89-6.459l-1.67-5.197a10.306 10.306 0 0 0-2.354-3.96h3.045c5.693 0 10.325-4.632 10.325-10.325v-8.477C36.517 5.541 31.885.91 26.192.91H12.269C6.575.909 1.942 5.541 1.942 11.235v8.477c0 4.008 2.297 7.487 5.643 9.198l-.457.146c-5.42 1.742-8.413 7.57-6.67 12.99l2.303 7.167a17.27 17.27 0 0 0-.856 5.37c0 9.554 7.772 17.326 17.325 17.326 9.553 0 17.326-7.772 17.326-17.326 0-1.984-.343-3.887-.96-5.663l1.495-.626 4.966 14.07a1.803 1.803 0 0 0 2.254 1.116l5.381-1.735a1.803 1.803 0 0 0 1.161-2.27zM5.55 19.712v-7.117h27.36v7.117a6.726 6.726 0 0 1-6.719 6.718H12.269a6.727 6.727 0 0 1-6.719-6.718zm-1.658 21.23a6.726 6.726 0 0 1 4.34-8.451l5.383-1.73a6.633 6.633 0 0 1 2.039-.322 6.71 6.71 0 0 1 6.413 4.66l.82 2.551a17.314 17.314 0 0 0-3.657-.391c-5.845 0-11.018 2.911-14.157 7.357l-1.181-3.674zm15.338 27.36c-7.564 0-13.718-6.154-13.718-13.719 0-7.564 6.154-13.717 13.718-13.717s13.718 6.153 13.718 13.717c0 7.565-6.154 13.718-13.718 13.718zm-4.526-49.805a1.8 1.8 0 1 1 0-3.601 1.8 1.8 0 0 1 0 3.601zm9.052 0a1.8 1.8 0 1 1 0-3.6 1.8 1.8 0 0 1 0 3.6z"/></g></g></svg>