<?xml version="1.0" encoding="UTF-8"?>
<svg width="27px" height="27px" viewBox="0 0 27 27" version="1.1" xmlns="http://www.w3.org/2000/svg" xmlns:xlink="http://www.w3.org/1999/xlink">
    <!-- Generator: Sketch 48.2 (47327) - http://www.bohemiancoding.com/sketch -->
    
    <desc>Created with Sketch.</desc>
    <defs></defs>
    <g id="Page-1" stroke="none" stroke-width="1" fill="none" fill-rule="evenodd">
        <g id="elevatorWorkingBig" fill="#000000">
            <g id="elevator" transform="translate(2.500000, 2.270457)">
                <path d="M1.46852104,1.49334128 L1.46852104,20.5841148 L11.9448053,20.5841148 L11.9448053,1.49334128 L1.46852104,1.49334128 Z M1.46852104,0.0248202431 L11.9448053,0.0248202431 C12.7558471,0.0248202431 13.4133264,0.682299507 13.4133264,1.49334128 L13.4133264,20.5841148 C13.4133264,21.3951566 12.7558471,22.0526358 11.9448053,22.0526358 L1.46852104,22.0526358 C0.657479264,22.0526358 2.60895978e-15,21.3951566 2.5096358e-15,20.5841148 L2.11263909e-16,1.49334128 C1.27771616e-16,0.682299507 0.657479264,0.0248202431 1.46852104,0.0248202431 Z" id="Cabin" fill-rule="nonzero"></path>
                <g id="Buttons" transform="translate(14.595441, 5.164644)">
                    <path d="M6.40921731,4.26122558 C6.64073638,4.4873779 7.00874753,4.48414361 7.23634572,4.2539563 C7.46394392,4.02376899 7.46714184,3.65157142 7.24353325,3.41741864 L4.08446146,0.234344915 C4.02911323,0.178225367 3.95396079,0.146685796 3.87558746,0.146685796 C3.79721412,0.146685796 3.72206168,0.178225367 3.66671345,0.234344915 L0.508821743,3.41741864 C0.285213149,3.65157142 0.288411066,4.02376899 0.516009266,4.2539563 C0.743607465,4.48414361 1.11161861,4.4873779 1.34313768,4.26122558 L3.87558746,1.672255 L6.40921731,4.26122558 Z" id="Arrow"></path>
                    <path d="M6.40921731,11.2558388 C6.64073638,11.4819911 7.00874753,11.4787568 7.23634572,11.2485695 C7.46394392,11.0183822 7.46714184,10.6461846 7.24353325,10.4120318 L4.08446146,7.22895812 C4.02911323,7.17283857 3.95396079,7.141299 3.87558746,7.141299 C3.79721412,7.141299 3.72206168,7.17283857 3.66671345,7.22895812 L0.508821743,10.4120318 C0.285213149,10.6461846 0.288411066,11.0183822 0.516009266,11.2485695 C0.743607465,11.4787568 1.11161861,11.4819911 1.34313768,11.2558388 L3.87558746,8.6668682 L6.40921731,11.2558388 Z" id="Arrow" transform="translate(3.876177, 9.282327) rotate(-180.000000) translate(-3.876177, -9.282327) "></path>
                </g>
                <path d="M8.87698441,18.5539558 L8.87698441,10.1034366 C8.87698441,9.05728935 7.89247836,8.20927177 6.6779537,8.20927177 C5.46342903,8.20927177 4.47892298,9.05728935 4.47892298,10.1034366 L4.47892298,18.5539558 L5.87408415,18.5539558 L5.87408415,15.785931 L7.34260519,15.785931 L7.34260519,18.5539558 L8.87698441,18.5539558 Z M6.6779537,3.11148375 C7.87642107,3.11148375 8.84791092,4.0829736 8.84791092,5.28144097 C8.84791092,6.47990834 7.87642107,7.45139819 6.6779537,7.45139819 C5.47948632,7.45139819 4.50799648,6.47990834 4.50799648,5.28144097 C4.50799648,4.0829736 5.47948632,3.11148375 6.6779537,3.11148375 Z" id="Shape" fill-rule="nonzero"></path>
            </g>
        </g>
    </g>
</svg>