<?xml version="1.0" encoding="UTF-8"?>
<svg width="27px" height="27px" viewBox="0 0 27 27" version="1.1" xmlns="http://www.w3.org/2000/svg" xmlns:xlink="http://www.w3.org/1999/xlink">
    <!-- Generator: Sketch 48.2 (47327) - http://www.bohemiancoding.com/sketch -->
    
    <desc>Created with Sketch.</desc>
    <defs></defs>
    <g id="Page-1" stroke="none" stroke-width="1" fill="none" fill-rule="evenodd">
        <g id="elevatorUnknownBig" fill="#000000">
            <g id="elevator" transform="translate(2.500000, 2.000000)">
                <path d="M1.46852104,1.49334128 L1.46852104,20.5841148 L11.9448053,20.5841148 L11.9448053,1.49334128 L1.46852104,1.49334128 Z M1.46852104,0.0248202431 L11.9448053,0.0248202431 C12.7558471,0.0248202431 13.4133264,0.682299507 13.4133264,1.49334128 L13.4133264,20.5841148 C13.4133264,21.3951566 12.7558471,22.0526358 11.9448053,22.0526358 L1.46852104,22.0526358 C0.657479264,22.0526358 2.60895978e-15,21.3951566 2.5096358e-15,20.5841148 L2.11263909e-16,1.49334128 C1.27771616e-16,0.682299507 0.657479264,0.0248202431 1.46852104,0.0248202431 Z" id="Cabin" fill-rule="nonzero" opacity="0.330502717"></path>
                <g id="Buttons" transform="translate(14.595441, 5.164644)">
                    <path d="M6.40921731,4.26122558 C6.64073638,4.4873779 7.00874753,4.48414361 7.23634572,4.2539563 C7.46394392,4.02376899 7.46714184,3.65157142 7.24353325,3.41741864 L4.08446146,0.234344915 C4.02911323,0.178225367 3.95396079,0.146685796 3.87558746,0.146685796 C3.79721412,0.146685796 3.72206168,0.178225367 3.66671345,0.234344915 L0.508821743,3.41741864 C0.285213149,3.65157142 0.288411066,4.02376899 0.516009266,4.2539563 C0.743607465,4.48414361 1.11161861,4.4873779 1.34313768,4.26122558 L3.87558746,1.672255 L6.40921731,4.26122558 Z" id="Arrow"></path>
                    <path d="M6.40921731,11.2558388 C6.64073638,11.4819911 7.00874753,11.4787568 7.23634572,11.2485695 C7.46394392,11.0183822 7.46714184,10.6461846 7.24353325,10.4120318 L4.08446146,7.22895812 C4.02911323,7.17283857 3.95396079,7.141299 3.87558746,7.141299 C3.79721412,7.141299 3.72206168,7.17283857 3.66671345,7.22895812 L0.508821743,10.4120318 C0.285213149,10.6461846 0.288411066,11.0183822 0.516009266,11.2485695 C0.743607465,11.4787568 1.11161861,11.4819911 1.34313768,11.2558388 L3.87558746,8.6668682 L6.40921731,11.2558388 Z" id="Arrow" transform="translate(3.876177, 9.282327) rotate(-180.000000) translate(-3.876177, -9.282327) "></path>
                </g>
                <path d="M6.50107569,14.1847526 L6.547974,14.1847526 C7.21277205,14.1847526 7.75169735,14.7236779 7.75169735,15.388476 L7.75169735,15.388476 C7.75169735,16.053274 7.21277205,16.5921993 6.547974,16.5921993 L6.50107569,16.5921993 C5.83627764,16.5921993 5.29735234,16.053274 5.29735234,15.388476 L5.29735234,15.388476 C5.29735234,14.7236779 5.83627764,14.1847526 6.50107569,14.1847526 Z M2.97086284,7.79913552 C3.0017121,7.67531962 3.03465199,7.56837243 3.06968251,7.47829395 C3.25206574,7.00930848 3.50739845,6.60286051 3.83568827,6.25893783 C4.1639781,5.91501515 4.56000433,5.64665527 5.02377885,5.45385014 C5.48755337,5.261045 6.00603508,5.16464388 6.57923955,5.16464388 C7.31919439,5.16464388 7.93668267,5.26625587 8.43172288,5.46948291 C8.9267631,5.67270994 9.32539477,5.92543721 9.62762985,6.22767229 C9.92986493,6.52990737 10.1461161,6.85558684 10.2763898,7.20472046 C10.4066636,7.55385409 10.4717995,7.87953356 10.4717995,8.18176864 C10.4717995,8.6820198 10.4066636,9.09367865 10.2763898,9.41675753 C10.1461161,9.7398364 9.98457908,10.0160126 9.79177394,10.2452944 C9.5989688,10.4745762 9.38532307,10.6699838 9.15083034,10.8315233 C8.9163376,10.9930627 8.69487557,11.1545997 8.48643758,11.3161392 C8.27799959,11.4776786 8.09301366,11.6626646 7.93147422,11.8711025 C7.76993478,12.0795405 7.66832278,12.3400841 7.62663519,12.6527411 L7.62663519,12.6527411 C7.62663519,12.9808232 7.36067205,13.2467864 7.0325899,13.2467864 L6.21968582,13.2467864 C5.83116748,13.2467864 5.51621113,12.93183 5.51621113,12.5433117 C5.54747683,12.09517 5.63345621,11.7199873 5.77415185,11.4177522 C5.91484749,11.1155171 6.07898994,10.857579 6.26658413,10.64393 C6.45417832,10.4302811 6.65219143,10.2452952 6.86062942,10.0889667 C7.0690674,9.93263818 7.26186965,9.77631204 7.43904194,9.61998355 C7.61621423,9.46365506 7.75951319,9.2916963 7.86894313,9.10410211 C7.97837308,8.91650792 8.02787636,8.68201871 8.01745446,8.40062743 C8.01745446,7.92122006 7.90020985,7.5668808 7.66571711,7.33759901 C7.43122438,7.10831723 7.10554491,6.99367806 6.68866894,6.99367806 C6.40727766,6.99367806 6.16497214,7.04839221 5.9617451,7.15782215 C5.75851806,7.26725209 5.59177018,7.41315649 5.46149643,7.59553973 C5.33122269,7.77792297 5.23482157,7.9915687 5.17229018,8.23648333 C5.17055591,8.24327589 5.16883967,8.2502413 5.16714148,8.25737956 L5.16714126,8.25737951 C5.05995413,8.70793429 4.6574218,9.02593826 4.19429255,9.02593826 L3.9294849,9.02593826 C3.38385076,9.02593826 2.9415269,8.58361439 2.9415269,8.03798026 C2.9415269,7.9574662 2.95136905,7.87725405 2.97083438,7.79912842 Z" id="Question-Mark"></path>
            </g>
        </g>
    </g>
</svg>