<?xml version="1.0" encoding="UTF-8"?>
<svg width="27px" height="27px" viewBox="0 0 27 27" version="1.1" xmlns="http://www.w3.org/2000/svg" xmlns:xlink="http://www.w3.org/1999/xlink">
    <!-- Generator: Sketch 48.2 (47327) - http://www.bohemiancoding.com/sketch -->
    
    <desc>Created with Sketch.</desc>
    <defs></defs>
    <g id="Page-1" stroke="none" stroke-width="1" fill="none" fill-rule="evenodd">
        <g id="escalatorWorkingBig" fill="#000000" fill-rule="nonzero">
            <g id="escalator" transform="translate(4.117614, 5.761976)">
                <path d="M8.71496799,7.02104171 L8.71496799,5.63318914 C8.71496799,4.86667816 8.0936264,4.24533657 7.32711542,4.24533657 C6.56060445,4.24533657 5.93926285,4.86667816 5.93926285,5.63318914 L5.93926285,9.79674685 L8.71496799,7.02104171 Z M5.45351445,12.6557231 L5.93926285,2.16355771 C5.93926285,1.39704674 6.56060445,0.77570514 7.32711542,0.77570514 C8.0936264,0.77570514 8.71496799,1.39704674 8.71496799,2.16355771 C8.71496799,2.93006868 8.0936264,3.55141028 7.32711542,3.55141028 C6.56060445,3.55141028 5.93926285,2.93006868 5.93926285,2.16355771 L5.45351445,12.6557231 Z" id="Shape"></path>
                <path d="M18.429936,5.32711542 C18.429936,6.0936264 17.8085944,6.71496799 17.0420834,6.71496799 L14.8492764,6.71496799 C14.4803851,6.71288621 14.1257888,6.85763923 13.863901,7.11744524 L6.3417401,14.6396062 C6.08318316,14.8959425 5.73427703,15.0405568 5.3702433,15.0420834 L1.77570514,15.0420834 C1.00919417,15.0420834 0.38785257,14.4207418 0.38785257,13.6542308 C0.38785257,12.8877199 1.00919417,12.2663783 1.77570514,12.2663783 L3.98239073,12.2663783 C4.34642446,12.2648516 4.69533059,12.1202374 4.95388753,11.863901 L12.4760485,4.3417401 C12.7379362,4.08193409 13.0925326,3.93718107 13.4614238,3.93926285 L17.0420834,3.93926285 C17.8085944,3.93926285 18.429936,4.56060445 18.429936,5.32711542 Z" id="Shape"></path>
            </g>
        </g>
    </g>
</svg>