<?xml version="1.0" encoding="UTF-8"?>
<svg width="27px" height="27px" viewBox="0 0 27 27" version="1.1" xmlns="http://www.w3.org/2000/svg" xmlns:xlink="http://www.w3.org/1999/xlink">
    <!-- Generator: Sketch 48.2 (47327) - http://www.bohemiancoding.com/sketch -->
    
    <desc>Created with Sketch.</desc>
    <defs></defs>
    <g id="Page-1" stroke="none" stroke-width="1" fill="none" fill-rule="evenodd">
        <g id="escalatorBrokenBig">
            <g id="escalator-copy" transform="translate(3.117614, 3.770457)">
                <path d="M7.71496799,10.0210417 L7.71496799,8.63318914 C7.71496799,7.86667816 7.0936264,7.24533657 6.32711542,7.24533657 C5.56060445,7.24533657 4.93926285,7.86667816 4.93926285,8.63318914 L4.93926285,12.7967468 L7.71496799,10.0210417 Z M4.45351445,15.6557231 L4.93926285,5.16355771 C4.93926285,4.39704674 5.56060445,3.77570514 6.32711542,3.77570514 C7.0936264,3.77570514 7.71496799,4.39704674 7.71496799,5.16355771 C7.71496799,5.93006868 7.0936264,6.55141028 6.32711542,6.55141028 C5.56060445,6.55141028 4.93926285,5.93006868 4.93926285,5.16355771 L4.45351445,15.6557231 Z" id="Shape" fill="#000000" fill-rule="nonzero"></path>
                <path d="M18.429936,7.32711542 C18.429936,8.0936264 17.8085944,8.71496799 17.0420834,8.71496799 L14.8492764,8.71496799 C14.4803851,8.71288621 14.1257888,8.85763923 13.863901,9.11744524 L6.3417401,16.6396062 C6.08318316,16.8959425 5.73427703,17.0405568 5.3702433,17.0420834 L1.77570514,17.0420834 C1.00919417,17.0420834 0.38785257,16.4207418 0.38785257,15.6542308 C0.38785257,14.8877199 1.00919417,14.2663783 1.77570514,14.2663783 L3.98239073,14.2663783 C4.34642446,14.2648516 4.69533059,14.1202374 4.95388753,13.863901 L12.4760485,6.3417401 C12.7379362,6.08193409 13.0925326,5.93718107 13.4614238,5.93926285 L17.0420834,5.93926285 C17.8085944,5.93926285 18.429936,6.56060445 18.429936,7.32711542 Z" id="Shape" fill="#000000" fill-rule="nonzero"></path>
                <path d="M15.8354131,7.26517437 L19.1446982,12.7727497 L16.3894343,14.4282793 L13.9604099,10.3857038 L11.5322857,14.426781 L8.7820088,12.7742479 L12.0888004,7.27082251 L8.77951529,1.76324719 L11.5347792,0.107717606 L13.9638036,4.15029311 L16.3919278,0.109215854 L19.1422047,1.76174894 L15.8354131,7.26517437 Z" id="cross" fill-opacity="0.800000012" fill="#F54B4B"></path>
            </g>
        </g>
    </g>
</svg>