<?xml version="1.0" encoding="UTF-8"?>
<svg width="27px" height="27px" viewBox="0 0 27 27" version="1.1" xmlns="http://www.w3.org/2000/svg" xmlns:xlink="http://www.w3.org/1999/xlink">
    <!-- Generator: Sketch 48.2 (47327) - http://www.bohemiancoding.com/sketch -->
    
    <desc>Created with Sketch.</desc>
    <defs></defs>
    <g id="Page-1" stroke="none" stroke-width="1" fill="none" fill-rule="evenodd">
        <g id="escalatorUnknownBig" fill="#000000">
            <g id="escalator" transform="translate(4.117614, 4.761976)">
                <path d="M18.429936,7.32711542 C18.429936,8.0936264 17.8085944,8.71496799 17.0420834,8.71496799 L14.8492764,8.71496799 C14.4803851,8.71288621 14.1257888,8.85763923 13.863901,9.11744524 L6.3417401,16.6396062 C6.08318316,16.8959425 5.73427703,17.0405568 5.3702433,17.0420834 L1.77570514,17.0420834 C1.00919417,17.0420834 0.38785257,16.4207418 0.38785257,15.6542308 C0.38785257,14.8877199 1.00919417,14.2663783 1.77570514,14.2663783 L3.98239073,14.2663783 C4.34642446,14.2648516 4.69533059,14.1202374 4.95388753,13.863901 L12.4760485,6.3417401 C12.7379362,6.08193409 13.0925326,5.93718107 13.4614238,5.93926285 L17.0420834,5.93926285 C17.8085944,5.93926285 18.429936,6.56060445 18.429936,7.32711542 Z" id="Shape" fill-rule="nonzero" opacity="0.326086957"></path>
                <path d="M3.94740136,9.24557172 L3.99429968,9.24557172 C4.65909773,9.24557172 5.19802303,9.78449702 5.19802303,10.4492951 L5.19802303,10.4492951 C5.19802303,11.1140931 4.65909773,11.6530184 3.99429968,11.6530184 L3.94740136,11.6530184 C3.28260331,11.6530184 2.74367801,11.1140931 2.74367801,10.4492951 L2.74367801,10.4492951 C2.74367801,9.78449702 3.28260331,9.24557172 3.94740136,9.24557172 Z M0.417188517,2.85995463 C0.448037771,2.73613873 0.480977659,2.62919154 0.516008179,2.53911306 C0.698391416,2.07012759 0.953724119,1.66367962 1.28201395,1.31975694 C1.61030377,0.975834263 2.00633001,0.707474381 2.47010453,0.514669244 C2.93387904,0.321864107 3.45236076,0.225462985 4.02556522,0.225462985 C4.76552007,0.225462985 5.38300834,0.327074979 5.87804855,0.530302015 C6.37308877,0.733529051 6.77172044,0.986256318 7.07395552,1.2884914 C7.3761906,1.59072648 7.59244176,1.91640594 7.72271551,2.26553957 C7.85298925,2.6146732 7.91812514,2.94035266 7.91812514,3.24258774 C7.91812514,3.74283891 7.85298925,4.15449776 7.72271551,4.47757664 C7.59244176,4.80065551 7.43090475,5.0768317 7.23809961,5.30611349 C7.04529447,5.53539527 6.83164874,5.73080295 6.59715601,5.89234239 C6.36266328,6.05388183 6.14120124,6.21541885 5.93276325,6.37695828 C5.72432527,6.53849772 5.53933933,6.72348366 5.37779989,6.93192165 C5.21626045,7.14035963 5.11464846,7.40090321 5.07296086,7.71356019 L5.07296086,7.71356019 C5.07296086,8.04164234 4.80699772,8.30760548 4.47891557,8.30760548 L3.66601149,8.30760548 C3.27749315,8.30760548 2.9625368,7.99264913 2.9625368,7.60413079 C2.9938025,7.15598912 3.07978188,6.78080637 3.22047752,6.47857129 C3.36117316,6.17633622 3.52531561,5.91839808 3.7129098,5.70474914 C3.90050399,5.49110021 4.09851711,5.30611427 4.30695509,5.14978578 C4.51539308,4.99345729 4.70819532,4.83713115 4.88536761,4.68080266 C5.0625399,4.52447417 5.20583886,4.35251541 5.31526881,4.16492122 C5.42469875,3.97732703 5.47420203,3.74283782 5.46378013,3.46144654 C5.46378013,2.98203917 5.34653552,2.62769991 5.11204279,2.39841812 C4.87755005,2.16913634 4.55187058,2.05449717 4.13499461,2.05449717 C3.85360333,2.05449717 3.61129781,2.10921132 3.40807077,2.21864126 C3.20484374,2.3280712 3.03809585,2.4739756 2.90782211,2.65635884 C2.77754837,2.83874208 2.68114724,3.05238781 2.61861585,3.29730244 C2.61688158,3.304095 2.61516535,3.31106041 2.61346715,3.31819867 L2.61346693,3.31819862 C2.5062798,3.7687534 2.10374747,4.08675737 1.64061823,4.08675737 L1.37581057,4.08675737 C0.830176434,4.08675737 0.38785257,3.6444335 0.38785257,3.09879936 C0.38785257,3.01828531 0.397694723,2.93807316 0.417160054,2.85994753 Z" id="Question-Mark-Copy"></path>
            </g>
        </g>
    </g>
</svg>