<?xml version="1.0" encoding="UTF-8"?>
<svg width="41px" height="16px" viewBox="0 0 41 16" version="1.1" xmlns="http://www.w3.org/2000/svg" xmlns:xlink="http://www.w3.org/1999/xlink">
    <!-- Generator: Sketch 57 (83077) - https://sketch.com -->
    <title>Group 6</title>
    <desc>Created with Sketch.</desc>
    <g id="Page-1" stroke="none" stroke-width="1" fill="none" fill-rule="evenodd">
        <g id="Wheelmap-Detail-Page-Copy-7" transform="translate(-133.000000, -134.000000)" fill="#3F6BD8">
            <g id="Group-6" transform="translate(131.000000, 126.000000)">
                <text id="+" font-family="SFProDisplay-Medium, SF Pro Display" font-size="24" font-weight="400" letter-spacing="0.00045">
                    <tspan x="0.564228125" y="23">+</tspan>
                </text>
                <path d="M25.44824,11.1304723 L27.33424,8.54863058 C27.58724,8.24584861 28.1236,8 28.5284,8 L34.4716,8 C34.87916,8 35.41368,8.24584861 35.66484,8.54863058 L37.55176,11.1304723 L41.51696,11.1304723 C42.33576,11.1304723 43,11.7515635 43,12.5193013 L43,22.611171 C43,23.3789088 42.33668,24 41.51788,24 L21.4812,24 C20.6631558,24 20,23.3782001 20,22.611171 L20,12.5201639 C20,11.7524261 20.66332,11.1304723 21.48212,11.1304723 L25.44732,11.1304723 L25.44824,11.1304723 Z M32,23 C34.7614237,23 37,20.7614237 37,18 C37,15.2385763 34.7614237,13 32,13 C29.2385763,13 27,15.2385763 27,18 C27,20.7614237 29.2385763,23 32,23 Z M32,22 C29.790861,22 28,20.209139 28,18 C28,15.790861 29.790861,14 32,14 C34.209139,14 36,15.790861 36,18 C36,20.209139 34.209139,22 32,22 Z M22,10.4990701 C22,9.6732796 22.3319901,9 22.749535,9 L24.250465,9 C24.6642901,9 25,9.66584005 25,10.5009299 L25,12 L22,12 L22,10.5009299 L22,10.4990701 Z M38.5,15 C39.3284271,15 40,14.3284271 40,13.5 C40,12.6715729 39.3284271,12 38.5,12 C37.6715729,12 37,12.6715729 37,13.5 C37,14.3284271 37.6715729,15 38.5,15 Z" id="Shape"></path>
            </g>
        </g>
    </g>
</svg>