<?xml version="1.0" encoding="UTF-8"?>
<svg width="15px" height="15px" viewBox="0 0 15 15" version="1.1" xmlns="http://www.w3.org/2000/svg" xmlns:xlink="http://www.w3.org/1999/xlink">
    <!-- Generator: Sketch 42 (36781) - http://www.bohemiancoding.com/sketch -->
    <title>search</title>
    <desc>Created with Sketch.</desc>
    <defs></defs>
    <g id="Page-1" stroke="none" stroke-width="1" fill="none" fill-rule="evenodd" opacity="0.283061594">
        <g id="search" fill="#000000">
            <path d="M6.97872796,10.0980108 L2.22203315,14.8759409 L0.0561607508,12.7003994 L4.83286488,7.90237072 C4.43647481,7.15103184 4.21196581,6.2941591 4.21196581,5.38461538 C4.21196581,2.41077442 6.61202568,0 9.57264957,0 C12.5332735,0 14.9333333,2.41077442 14.9333333,5.38461538 C14.9333333,8.35845635 12.5332735,10.7692308 9.57264957,10.7692308 C8.63170197,10.7692308 7.74737694,10.5257184 6.97872796,10.0980108 L6.97872796,10.0980108 Z M9.57264957,9.42307692 C11.7931175,9.42307692 13.5931624,7.6149961 13.5931624,5.38461538 C13.5931624,3.15423466 11.7931175,1.34615385 9.57264957,1.34615385 C7.35218166,1.34615385 5.55213675,3.15423466 5.55213675,5.38461538 C5.55213675,7.6149961 7.35218166,9.42307692 9.57264957,9.42307692 Z" id="Combined-Shape"></path>
        </g>
    </g>
</svg>