<?xml version="1.0" encoding="UTF-8" standalone="no"?>
<svg width="15px" height="15px" viewBox="0 0 15 15" version="1.1" xmlns="http://www.w3.org/2000/svg" xmlns:xlink="http://www.w3.org/1999/xlink">
    <!-- Generator: Sketch 41.2 (35397) - http://www.bohemiancoding.com/sketch -->
    <title>alcohol</title>
    <desc>Created with Sketch.</desc>
    <defs></defs>
    <g id="Page-1" stroke="none" stroke-width="1" fill="none" fill-rule="evenodd">
        <g id="alcohol" fill="#000000">
            <g id="alcohol-shop-15" transform="translate(1.000000, 1.000000)">
                <g id="Layer_1">
                    <path d="M13,4 L9,4 L9,7.44 L9,7.44 C9,7.44 9,7.44 9,7.5 C9.003,8.4096 9.6193,9.2026 10.5,9.43 L10.5,13 L10,13 C9.7239,13 9.5,13.2239 9.5,13.5 C9.5,13.7761 9.7239,14 10,14 L12,14 C12.2761,14 12.5,13.7761 12.5,13.5 C12.5,13.2239 12.2761,13 12,13 L11.5,13 L11.5,9.43 C12.3807,9.2026 12.997,8.4096 13,7.5 C13,7.5 13,7.5 13,7.44 L13,7.44 L13,4 Z M12,7.5 C12,8.0523 11.5523,8.5 11,8.5 C10.4477,8.5 10,8.0523 10,7.5 L10,5 L12,5 L12,7.5 Z M4.5,2.5 L4.5,2 C4.7761,2 5,1.7761 5,1.5 C5,1.2239 4.7761,1 4.5,1 L4.5,0.5 C4.5,0.2239 4.2761,0 4,0 L3,0 C2.7239,0 2.5,0.2239 2.5,0.5 L2.5,1 C2.2239,1 2,1.2239 2,1.5 C2,1.7761 2.2239,2 2.5,2 L2.5,2.5 C2.5,3.93 0,5.57 0,7 L0,13 C0,13.5523 0.4477,14 1,14 L6,14 C6.5318,13.9535 6.9535,13.5318 7,13 L7,7 C7,5.65 4.5,3.85 4.5,2.5 Z M3.5,12 C2.1193,12 1,10.8807 1,9.5 C1,8.1193 2.1193,7 3.5,7 C4.8807,7 6,8.1193 6,9.5 C6,10.8807 4.8807,12 3.5,12 Z" id="Shape"></path>
                </g>
            </g>
        </g>
    </g>
</svg>