<?xml version="1.0" encoding="UTF-8" standalone="no"?>
<svg width="15px" height="15px" viewBox="0 0 15 15" version="1.1" xmlns="http://www.w3.org/2000/svg" xmlns:xlink="http://www.w3.org/1999/xlink">
    <!-- Generator: Sketch 41.2 (35397) - http://www.bohemiancoding.com/sketch -->
    <title>art_gallery</title>
    <desc>Created with Sketch.</desc>
    <defs></defs>
    <g id="Page-1" stroke="none" stroke-width="1" fill="none" fill-rule="evenodd">
        <g id="art_gallery" fill="#000000">
            <g id="art-gallery-15" transform="translate(1.000000, 1.000000)">
                <g id="Layer_1">
                    <path d="M9.71,3 L6.85,0.15 C6.6555,-0.0461 6.339,-0.0474 6.1429,0.1471 C6.1419,0.1481 6.141,0.149 6.14,0.15 L3.29,3 L0.5,3 C0.2239,3 0,3.2239 0,3.5 L0,12.5 C0,12.7761 0.2239,13 0.5,13 L12.5,13 C12.7761,13 13,12.7761 13,12.5 L13,3.5 C13,3.2239 12.7761,3 12.5,3 L9.71,3 Z M6.5,1.21 L8.29,3 L4.71,3 L6.5,1.21 Z M12,12 L1,12 L1,4 L12,4 L12,12 Z M4,7 C3.4477,7 3,6.5523 3,6 C3,5.4477 3.4477,5 4,5 C4.5523,5 5,5.4477 5,6 C5,6.5523 4.5523,7 4,7 Z M11,11 L3.5,11 L5,8 L6.25,10.5 L8.5,6 L11,11 Z" id="Shape"></path>
                </g>
            </g>
        </g>
    </g>
</svg>