<?xml version="1.0" encoding="UTF-8" standalone="no"?>
<svg width="15px" height="15px" viewBox="0 0 15 15" version="1.1" xmlns="http://www.w3.org/2000/svg" xmlns:xlink="http://www.w3.org/1999/xlink">
    <!-- Generator: Sketch 41.2 (35397) - http://www.bohemiancoding.com/sketch -->
    <title>arts_center</title>
    <desc>Created with Sketch.</desc>
    <defs></defs>
    <g id="Page-1" stroke="none" stroke-width="1" fill="none" fill-rule="evenodd">
        <g id="arts_center" fill="#000000">
            <path d="M6.3527326,12 L4,12 L4,15 L11,15 L11,12 L6.73673809,12 C6.73673809,12 6.73673809,12 6.73673809,12 L12,12 L12,11 L7.07916117,11 C7.65905757,9.45773712 8.57711496,7.71857804 9.83333333,7.42105263 C12.1666667,6.86842105 8.66666667,6.31578947 8.08333333,5.76315789 C7.5,5.21052632 11,3 11,3 C11,3 6.91666667,4.10526316 5.75,5.21052632 C4.58333333,6.31578947 4,10.1842105 4,10.1842105 C4,10.1842105 7.5,6.31578947 6.91666667,6.86842105 C6.58735969,7.18039609 6.44395514,9.2535521 6.38150623,11 L3,11 L3,12 L6.3527326,12 C6.33333333,12.8713522 6.33333333,13.5 6.33333333,13.5 C6.33333333,13.5 6.46780158,12.8630451 6.73673809,12 Z M7,4 C7.55228475,4 8,3.55228475 8,3 C8,2.44771525 7.55228475,2 7,2 C6.44771525,2 6,2.44771525 6,3 C6,3.55228475 6.44771525,4 7,4 Z" id="Combined-Shape"></path>
        </g>
    </g>
</svg>