<?xml version="1.0" encoding="UTF-8" standalone="no"?>
<svg width="15px" height="15px" viewBox="0 0 15 15" version="1.1" xmlns="http://www.w3.org/2000/svg" xmlns:xlink="http://www.w3.org/1999/xlink">
    <!-- Generator: Sketch 41.2 (35397) - http://www.bohemiancoding.com/sketch -->
    <title>association</title>
    <desc>Created with Sketch.</desc>
    <defs></defs>
    <g id="Page-1" stroke="none" stroke-width="1" fill="none" fill-rule="evenodd">
        <g id="association" fill="#000000">
            <path d="M5.65,3 C4.43,3 3.48,4.38 3.11,4.82 C3.0365,4.9102 2.9975,5.0237 3,5.14 L3,9.54 C2.9884,9.7827 3.1758,9.9889 3.4185,10.0005 C3.528,10.0057 3.6355,9.9699 3.72,9.9 C4.1865,9.2736 4.8789,8.8539 5.65,8.73 C7.06,8.73 7.6,10 9.07,10 C10.0648,9.9024 11.0115,9.5244 11.8,8.91 C11.9272,8.8166 12.0016,8.6678 12,8.51 L12,3.45 C12.0275,3.2086 11.8541,2.9905 11.6126,2.963 C11.5332,2.954 11.4527,2.9668 11.38,3 C10.6987,3.5212 9.9094,3.8834 9.07,4.06 C7.6,4.08 7.12,3 5.65,3 Z M1.5,4 C0.9477,4 0.5,3.5523 0.5,3 C0.5,2.4477 0.9477,2 1.5,2 C2.0523,2 2.5,2.4477 2.5,3 C2.5,3.5523 2.0523,4 1.5,4 Z M2,5 L2,14.48 C2,14.7561 1.7761,14.98 1.5,14.98 C1.2239,14.98 1,14.7561 1,14.48 L1,5 C1,4.7239 1.2239,4.5 1.5,4.5 C1.7761,4.5 2,4.7239 2,5 Z" id="Shape"></path>
        </g>
    </g>
</svg>