<?xml version="1.0" encoding="UTF-8" standalone="no"?>
<svg width="15px" height="15px" viewBox="0 0 15 15" version="1.1" xmlns="http://www.w3.org/2000/svg" xmlns:xlink="http://www.w3.org/1999/xlink">
    <!-- Generator: Sketch 41.2 (35397) - http://www.bohemiancoding.com/sketch -->
    <title>bed_breakfast</title>
    <desc>Created with Sketch.</desc>
    <defs></defs>
    <g id="Page-1" stroke="none" stroke-width="1" fill="none" fill-rule="evenodd">
        <g id="bed_breakfast" fill="#010101">
            <g transform="translate(0.000000, 2.000000)" id="svg4619">
                <g>
                    <path d="M0.5,0.5 C0.2,0.5 0,0.7 0,1 L0,8.5 L0,10.5 C0,10.8 0.2,11 0.5,11 C0.8,11 1,10.8 1,10.5 L1,9 L14,9 L14,10.5 C14,10.8 14.2,11 14.5,11 C14.8,11 15,10.8 15,10.5 L15,8.5 C15,8.2 14.8,8 14.5,8 L1,8 L1,1 C1,0.7 0.8,0.5 0.5,0.5 Z M3.5,1 C2.7,1 2,1.7 2,2.5 L2,2.5 C2,3.3 2.7,4 3.5,4 L3.5,4 C4.3,4 5,3.3 5,2.5 L5,2.5 C5,1.7 4.3,1 3.5,1 L3.5,1 Z M7,2 C5.5,2 5.5,3.5 5.5,3.5 L5.5,5 L2.5,5 C2.2,5 2,5.2 2,5.5 L2,6.5 C2,6.8 2.2,7 2.5,7 L6,7 L15,7 L15,4.5 C15,2 12.5,2 12.5,2 L7,2 Z" id="rect6507"></path>
                </g>
            </g>
        </g>
    </g>
</svg>