<?xml version="1.0" encoding="UTF-8" standalone="no"?>
<svg width="15px" height="15px" viewBox="0 0 15 15" version="1.1" xmlns="http://www.w3.org/2000/svg" xmlns:xlink="http://www.w3.org/1999/xlink">
    <!-- Generator: Sketch 41.2 (35397) - http://www.bohemiancoding.com/sketch -->
    <title>bicycle_rental</title>
    <desc>Created with Sketch.</desc>
    <defs></defs>
    <g id="Page-1" stroke="none" stroke-width="1" fill="none" fill-rule="evenodd">
        <g id="bicycle_rental" fill="#000000">
            <g id="bicycle_store" transform="translate(0.000000, 2.000000)">
                <g id="svg4619">
                    <path d="M7.5,8.64380182e-17 C6.8239,-0.01 6.8239,1.0096 7.5,1 L9,1 L9,2.2656 L6.1973,4.5996 L5.2226,2 L5.5,2 C6.1761,2.01 6.1761,0.9904 5.5,1 L3.5,1 C2.8239,0.99 2.8239,2.0096 3.5,2 L4.1523,2 L5.043,4.375 C4.5752,4.1424 4.0559,4 3.5,4 C1.5729,4 0,5.5729 0,7.5 C0,9.4271 1.5729,11 3.5,11 C5.4271,11 7,9.4271 7,7.5 C7,6.8301 6.7997,6.2089 6.4707,5.6758 L9.291,3.3262 L9.7539,4.4864 C8.7114,5.0937 8,6.2112 8,7.5 C8,9.4271 9.5729,11 11.5,11 C13.4271,11 15,9.4271 15,7.5 C15,5.5729 13.4271,4 11.5,4 C11.2169,4 10.9456,4.0434 10.6816,4.1074 L10,2.4023 L10,0.5 C10,0.2239 9.7761,8.64380182e-17 9.5,8.64380182e-17 L7.5,8.64380182e-17 Z M3.5,5 C4.0923,5 4.6276,5.2119 5.0547,5.5527 L3.1797,7.1152 C2.6688,7.5425 3.3075,8.3097 3.8203,7.8847 L5.6953,6.3222 C5.8835,6.674 6,7.0711 6,7.5 C6,8.8866 4.8866,10 3.5,10 C2.1134,10 1,8.8866 1,7.5 C1,6.1134 2.1133,5 3.5,5 L3.5,5 Z M11.5,5 C12.8866,5 14,6.1134 14,7.5 C14,8.8866 12.8866,10 11.5,10 C10.1134,10 9,8.8866 9,7.5 C9,6.623 9.4468,5.8579 10.125,5.4121 L11.0352,7.6855 C11.2812,8.3086 12.2156,7.9356 11.9649,7.3144 L11.0567,5.0449 C11.2009,5.0193 11.3481,5 11.5,5 L11.5,5 Z" id="path4668"></path>
                </g>
            </g>
        </g>
    </g>
</svg>