<?xml version="1.0" encoding="UTF-8" standalone="no"?>
<svg width="15px" height="15px" viewBox="0 0 15 15" version="1.1" xmlns="http://www.w3.org/2000/svg" xmlns:xlink="http://www.w3.org/1999/xlink">
    <!-- Generator: Sketch 41.2 (35397) - http://www.bohemiancoding.com/sketch -->
    <title>bread</title>
    <desc>Created with Sketch.</desc>
    <defs></defs>
    <g id="Page-1" stroke="none" stroke-width="1" fill="none" fill-rule="evenodd">
        <g id="bread" fill="#000000">
            <g transform="translate(0.000000, 3.000000)" id="svg4619">
                <g>
                    <path d="M5.2941,1.3824 L6,6.5 C6,6.5 6,7.5 7,7.5 L8,7.5 C9,7.5 9,6.5 9,6.5 L9.7059,1.3824 C9.7059,0 7.5,0 7.5,0 C7.5,0 5.291,0 5.2941,1.3824 Z M3.5,2 C2,2 2,3 2,3 L3,7 L4.5,7 C5.255,7 5.2941,6.2353 5.2941,6.2353 L4.5,2 L3.5,2 Z M1.5,4.5 C1.5,4.5 0.8824,4.4706 0.4412,4.9118 C0,5.3529 0,5.7941 0,5.7941 L0,8 L0.8824,8 C2,8 2,7 2,7 L1.5,4.5 Z" id="path5230"></path>
                    <path d="M11.5,2 C13,2 13,3 13,3 L12,7 L10.5,7 C9.745,7 9.7059,6.2353 9.7059,6.2353 L10.5,2 L11.5,2 Z M13.5,4.5 C13.5,4.5 14.1176,4.4706 14.5588,4.9118 C15,5.3529 15,5.7941 15,5.7941 L15,8 L14.1176,8 C13,8 13,7 13,7 L13.5,4.5 Z" id="path5230-2"></path>
                </g>
            </g>
        </g>
    </g>
</svg>