<?xml version="1.0" encoding="UTF-8" standalone="no"?>
<svg width="15px" height="15px" viewBox="0 0 15 15" version="1.1" xmlns="http://www.w3.org/2000/svg" xmlns:xlink="http://www.w3.org/1999/xlink">
    <!-- Generator: Sketch 41.2 (35397) - http://www.bohemiancoding.com/sketch -->
    <title>cablecar</title>
    <desc>Created with Sketch.</desc>
    <defs></defs>
    <g id="Page-1" stroke="none" stroke-width="1" fill="none" fill-rule="evenodd">
        <g id="cablecar" fill="#000000">
            <g transform="translate(1.000000, 1.000000)" id="Layer_1">
                <g>
                    <path d="M12,5 L7,5 L7,2.6 C7.1854,2.4953 7.3325,2.3341 7.42,2.14 L12.5,1.5 C12.7761,1.5 13,1.2761 13,1 C13,0.7239 12.7761,0.5 12.5,0.5 L7.28,1.15 C7.0954,0.9037 6.8077,0.7562 6.5,0.75 C6.0963,0.752 5.7334,0.9966 5.58,1.37 L0.5,2 C0.2239,2 0,2.2239 0,2.5 C0,2.7761 0.2239,3 0.5,3 L5.72,2.35 C5.7967,2.4503 5.8917,2.5351 6,2.6 L6,5 L1,5 C0.4477,5 0,5.4477 0,6 L0,13 C0,13.5523 0.4477,14 1,14 L12,14 C12.5523,14 13,13.5523 13,13 L13,6 C13,5.4477 12.5523,5 12,5 Z M6,11 L2,11 L2,7 L6,7 L6,11 Z M11,11 L7,11 L7,7 L11,7 L11,11 Z" id="Shape"></path>
                </g>
            </g>
        </g>
    </g>
</svg>