<?xml version="1.0" encoding="UTF-8" standalone="no"?>
<svg width="15px" height="15px" viewBox="0 0 15 15" version="1.1" xmlns="http://www.w3.org/2000/svg" xmlns:xlink="http://www.w3.org/1999/xlink">
    <!-- Generator: Sketch 41.2 (35397) - http://www.bohemiancoding.com/sketch -->
    <title>car_rental</title>
    <desc>Created with Sketch.</desc>
    <defs></defs>
    <g id="Page-1" stroke="none" stroke-width="1" fill="none" fill-rule="evenodd" transform="translate(0, -1)">
        <g id="car_rental" fill="#000000">
            <path d="M14,8 C13.996,7.3096 13.5213,6.7111 12.85,6.55 L11.46,3.31 L11.46,3.31 L11.46,3.31 L11.46,3.31 C11.3833,3.1233 11.2019,3.001 11,3 L4,3 C3.8124,3.0034 3.6425,3.1115 3.56,3.28 L3.56,3.28 L3.56,3.28 L3.56,3.28 L2.15,6.54 C1.475,6.702 0.9994,7.3059 1,8 L1,11.5 L2,11.5 L2,12.5 C2,13.0523 2.4477,13.5 3,13.5 C3.5523,13.5 4,13.0523 4,12.5 L4,11.5 L11,11.5 L11,12.5 C11,13.0523 11.4477,13.5 12,13.5 C12.5523,13.5 13,13.0523 13,12.5 L13,11.5 L14,11.5 L14,8 Z M4.3,4 L10.7,4 L11.75,6.5 L3.25,6.5 L4.3,4 Z M3,10 C2.4477,10 2,9.5523 2,9 C2,8.4477 2.4477,8 3,8 C3.5523,8 4,8.4477 4,9 C4,9.5523 3.5523,10 3,10 Z M12,10 C11.4477,10 11,9.5523 11,9 C11,8.4477 11.4477,8 12,8 C12.5523,8 13,8.4477 13,9 C13,9.5523 12.5523,10 12,10 Z" id="Shape"></path>
        </g>
    </g>
</svg>