<?xml version="1.0" encoding="UTF-8" standalone="no"?>
<svg width="15px" height="15px" viewBox="0 0 15 15" version="1.1" xmlns="http://www.w3.org/2000/svg" xmlns:xlink="http://www.w3.org/1999/xlink">
    <!-- Generator: Sketch 41.2 (35397) - http://www.bohemiancoding.com/sketch -->
    <title>communitycentre</title>
    <desc>Created with Sketch.</desc>
    <defs></defs>
    <g id="Page-1" stroke="none" stroke-width="1" fill="none" fill-rule="evenodd">
        <g id="communitycentre" fill="#000000">
            <path d="M13.5,4.08 C13.4238,4.0803 13.3486,4.0632 13.28,4.03 L7.5,1.08 L1.72,4.01 C1.4632,4.1315 1.1565,4.0218 1.035,3.765 C0.9135,3.5082 1.0232,3.2015 1.28,3.08 L7.5,0 L13.72,3.08 C13.9961,3.1408 14.1708,3.4139 14.11,3.69 C14.0492,3.9661 13.7761,4.1408 13.5,4.08 Z M5.02763353,6.27758433 C4.47754702,6.27758433 4.03158118,5.78561845 4.03158118,5.17879216 C4.03158118,4.57196588 4.47754702,4.08 5.02763353,4.08 C5.57772004,4.08 6.02368588,4.57196588 6.02368588,5.17879216 C6.02368588,5.78561845 5.57772004,6.27758433 5.02763353,6.27758433 Z M6.9228257,8.94398664 L5.27601914,7.11999165 C5.20948285,7.04615282 5.11797884,7.00637654 5.02368588,7.01011243 L3.03158118,7.01011243 C2.94505743,7.01033219 2.86192026,7.0469586 2.79916896,7.11266637 L1.13244136,8.93666136 C0.982303064,9.06631883 0.955874475,9.30578227 1.07340865,9.47140688 C1.19094283,9.63703148 1.40801584,9.6661861 1.55815413,9.53652863 C1.58013369,9.51755615 1.59998833,9.49565356 1.61718683,9.47140688 L3.03158118,7.88914616 L1.70351137,12.1378092 L3.03158118,12.1378092 L3.03158118,14.5771278 C3.02660091,14.6135344 3.02660091,14.6506004 3.03158118,14.687007 C3.06843511,14.889258 3.2469941,15.0203073 3.43033413,14.979652 C3.56413717,14.9499846 3.66872266,14.8346114 3.69561608,14.687007 L3.69561608,12.1378092 L4.35965098,12.1378092 L4.35965098,14.7016576 C4.39650492,14.9039086 4.5750639,15.0349579 4.75840394,14.9943026 C4.89220697,14.9646352 4.99679247,14.849262 5.02368588,14.7016576 C5.02866614,14.6652509 5.02866614,14.628185 5.02368588,14.5917784 L5.02368588,12.1378092 L6.35175569,12.1378092 L5.02368588,7.88914616 L6.44472057,9.47140688 C6.50893275,9.55059317 6.60070237,9.59593666 6.69705383,9.59593666 C6.87992905,9.58040706 7.0198412,9.40994777 7.01579059,9.20769676 C7.01731787,9.10975775 6.98398332,9.01504187 6.9228257,8.94398664 Z M11.0276335,6.27758433 C10.477547,6.27758433 10.0315812,5.78561845 10.0315812,5.17879216 C10.0315812,4.57196588 10.477547,4.08 11.0276335,4.08 C11.57772,4.08 12.0236859,4.57196588 12.0236859,5.17879216 C12.0236859,5.78561845 11.57772,6.27758433 11.0276335,6.27758433 Z M13.9228257,8.94398664 L12.2760191,7.11999165 C12.2094828,7.04615282 12.1179788,7.00637654 12.0236859,7.01011243 L10.0315812,7.01011243 C9.94505743,7.01033219 9.86192026,7.0469586 9.79916896,7.11266637 L8.13244136,8.93666136 C7.98230306,9.06631883 7.95587447,9.30578227 8.07340865,9.47140688 C8.19094283,9.63703148 8.40801584,9.6661861 8.55815413,9.53652863 C8.58013369,9.51755615 8.59998833,9.49565356 8.61718683,9.47140688 L10.0315812,7.88914616 L8.70351137,12.1378092 L10.0315812,12.1378092 L10.0315812,14.5771278 C10.0266009,14.6135344 10.0266009,14.6506004 10.0315812,14.687007 C10.0684351,14.889258 10.2469941,15.0203073 10.4303341,14.979652 C10.5641372,14.9499846 10.6687227,14.8346114 10.6956161,14.687007 L10.6956161,12.1378092 L11.359651,12.1378092 L11.359651,14.7016576 C11.3965049,14.9039086 11.5750639,15.0349579 11.7584039,14.9943026 C11.892207,14.9646352 11.9967925,14.849262 12.0236859,14.7016576 C12.0286661,14.6652509 12.0286661,14.628185 12.0236859,14.5917784 L12.0236859,12.1378092 L13.3517557,12.1378092 L12.0236859,7.88914616 L13.4447206,9.47140688 C13.5089327,9.55059317 13.6007024,9.59593666 13.6970538,9.59593666 C13.879929,9.58040706 14.0198412,9.40994777 14.0157906,9.20769676 C14.0173179,9.10975775 13.9839833,9.01504187 13.9228257,8.94398664 Z" id="Combined-Shape"></path>
        </g>
    </g>
</svg>