<?xml version="1.0" encoding="UTF-8" standalone="no"?>
<svg width="15px" height="15px" viewBox="0 0 15 15" version="1.1" xmlns="http://www.w3.org/2000/svg" xmlns:xlink="http://www.w3.org/1999/xlink">
    <!-- Generator: Sketch 41.2 (35397) - http://www.bohemiancoding.com/sketch -->
    <title>company</title>
    <desc>Created with Sketch.</desc>
    <defs></defs>
    <g id="Page-1" stroke="none" stroke-width="1" fill="none" fill-rule="evenodd">
        <g id="company" fill="#000000">
            <g transform="translate(1.000000, 2.000000)" id="svg4619">
                <g>
                    <path d="M10,3 L10,1 C10,0 9,0 9,0 L4.0497,0 C4.0497,0 2.9458,0.0015 3,1 L3,3 L1,3 C1,3 0,3 0,4 L0,11 C0,12 1,12 1,12 L12,12 C12,12 13,12 13,11 L13,4 C13,3 12,3 12,3 L10,3 Z M4.5,1.5 L8.5,1.5 L8.5,3 L4.5,3 L4.5,1.5 Z" id="path17"></path>
                </g>
            </g>
        </g>
    </g>
</svg>