
<svg width="15px" height="15px" viewBox="0 0 15 15" version="1.1" xmlns="http://www.w3.org/2000/svg" xmlns:xlink="http://www.w3.org/1999/xlink">
    <!-- Generator: Sketch 45.1 (43504) - http://www.bohemiancoding.com/sketch -->
    <desc>Created with Sketch.</desc>
    <defs></defs>
    <g id="Page-1" stroke="none" stroke-width="1" fill="none" fill-rule="evenodd">
        <g id="insurance" fill-rule="nonzero" fill="#000000" transform="translate(2,2)">
            <path d="M9,3 L9,1 C9,0 8,0 8,0 L3.0497,0 C3.0497,0 1.9458,0.0015 2,1 L2,3 L1,3 C1,3 0,3 0,4 L0,10 C0,11 1,11 1,11 L10,11 C10,11 11,11 11,10 L11,4 C11,3 10,3 10,3 L9,3 Z M3.5,1.5 L7.5,1.5 L7.5,3 L3.5,3 L3.5,1.5 Z" id="path17"></path>
        </g>
    </g>
</svg>