<?xml version="1.0" encoding="UTF-8" standalone="no"?>
<svg width="15px" height="15px" viewBox="0 0 15 15" version="1.1" xmlns="http://www.w3.org/2000/svg" xmlns:xlink="http://www.w3.org/1999/xlink">
    <!-- Generator: Sketch 41.2 (35397) - http://www.bohemiancoding.com/sketch -->
    <title>court</title>
    <desc>Created with Sketch.</desc>
    <defs></defs>
    <g id="Page-1" stroke="none" stroke-width="1" fill="none" fill-rule="evenodd">
        <g id="court" fill="#000000" transform="translate(0, -1)">
            <path d="M12.6174486,4.80037257 L8,3.25088167 L8,14 L7,14 L7,3.25088167 L2.72633424,4.68500833 L4.01481707,10 L5,10 C5,10 4.5,12 2.5,12 C0.5,12 0,10 0,10 L1.04180394,10 L2.64403898,4.7126244 L2,4.92874646 L1.48550424,4.07125354 L7.5,1.91690481 L13.5144958,4.07125354 L13,4.92874646 L12.7664203,4.85036344 L14.0148171,10 L15,10 C15,10 14.5,12 12.5,12 C10.5,12 10,10 10,10 L11.0418039,10 L12.6174486,4.80037257 Z M11.5642567,10 L13.5003344,10 L12.6398554,6.45052407 L11.5642567,10 Z M1.56425666,10 L3.50033444,10 L2.63985543,6.45052407 L1.56425666,10 Z M4,14 L11,14 L11,15 L4,15 L4,14 Z" id="Combined-Shape"></path>
        </g>
    </g>
</svg>