<?xml version="1.0" encoding="UTF-8" standalone="no"?>
<svg width="15px" height="15px" viewBox="0 0 15 15" version="1.1" xmlns="http://www.w3.org/2000/svg" xmlns:xlink="http://www.w3.org/1999/xlink">
    <!-- Generator: Sketch 41.2 (35397) - http://www.bohemiancoding.com/sketch -->
    <title>deli</title>
    <desc>Created with Sketch.</desc>
    <defs></defs>
    <g id="Page-1" stroke="none" stroke-width="1" fill="none" fill-rule="evenodd">
        <g id="deli" fill="#000000">
            <g transform="translate(0.000000, 3.000000)" id="svg4619">
                <g>
                    <path d="M5.5,0 C5.2239,0 5,0.2239 5,0.5 L2.75,0.5 C1.2265,0.5 0,1.7265 0,3.25 C0,4.0774 0.3687,4.8092 0.9434,5.3125 C0.3803,5.6675 0,6.2893 0,7 C0,8.0994 0.9006,9 2,9 L5.5,9 L7.5,9 L10,9 C11.0994,9 12,8.0994 12,7 C12,6.5117 11.8137,6.0706 11.5195,5.7227 L13.6972,6.6856 C14.0688,6.8687 14.5185,6.7159 14.7016,6.3443 C14.8847,5.9727 14.7319,5.523 14.3603,5.3399 C14.3415,5.3306 14.3223,5.3221 14.3027,5.3145 L12.4922,4.5118 L14.1231,4.2403 C14.533,4.1804 14.8167,3.7995 14.7568,3.3896 C14.7024,3.0172 14.3803,2.7427 14.004,2.7481 C13.9614,2.7484 13.919,2.7523 13.877,2.7598 L11.7461,3.1153 C11.2595,1.9521 10.0387,0.7837 8,0.5488 L8,0.5 C8,0.2239 7.7761,0 7.5,0 L5.5,0 Z M6,1 L7,1 L7,6 L7,8 L6,8 L6,6 L6,1 Z M9.5,5 C9.759,5 9.9638,5.1974 9.9902,5.4492 L10.0664,5.3164 C10.2049,5.0765 10.5101,4.9963 10.75,5.1348 C10.9899,5.2733 11.0701,5.5766 10.9316,5.8164 L10.6738,6.2637 C10.8727,6.445 11,6.7021 11,7 C11,7.5626 10.5626,8 10,8 L8,8 L8,6 L9,6 L9,5.5 C9,5.223 9.223,5 9.5,5 Z M2.4395,5.0703 C2.6329,5.0461 2.8298,5.1365 2.9336,5.3164 L3.1348,5.6641 C3.226,5.5647 3.3538,5.5 3.5,5.5 C3.777,5.5 4,5.723 4,6 L5,6 L5,8 L2,8 C1.4374,8 1,7.5626 1,7 C1,6.4374 1.4374,6 2,6 L2.1738,6 L2.0684,5.8164 C1.9299,5.5765 2.0101,5.2733 2.25,5.1348 C2.31,5.1001 2.375,5.0784 2.4395,5.0703 Z" id="path4999"></path>
                </g>
            </g>
        </g>
    </g>
</svg>