<?xml version="1.0" encoding="UTF-8" standalone="no"?>
<svg width="15px" height="15px" viewBox="0 0 15 15" version="1.1" xmlns="http://www.w3.org/2000/svg" xmlns:xlink="http://www.w3.org/1999/xlink">
    <!-- Generator: Sketch 41.2 (35397) - http://www.bohemiancoding.com/sketch -->
    <title>dentist</title>
    <desc>Created with Sketch.</desc>
    <defs></defs>
    <g id="Page-1" stroke="none" stroke-width="1" fill="none" fill-rule="evenodd">
        <g id="dentist" fill="#000000">
            <g transform="translate(2.000000, 0.000000)" id="Layer_1">
                <g>
                    <path d="M2.36,14 C1.36,14 1.8,11.33 1.5,9 C1.4,8.24 0.5,7.51 0.38,6.94 C-1.11022302e-16,5 -0.61,1.44 1.66,1 C3.93,0.56 4,3 5.54,3 C7.08,3 7.11,0.64 9.39,1 C11.67,1.36 10.98,4.9 10.68,6.9 C10.58,7.35 9.58,8.38 9.5,8.96 C9.17,11.36 9.82,13.96 8.7,13.96 C7.77,13.96 7.38,11.24 6.7,9.46 C6.43,8.63 6.06,8 5.54,8 C4,8 3.75,14 2.36,14 Z" id="Shape"></path>
                </g>
            </g>
        </g>
    </g>
</svg>