<?xml version="1.0" encoding="UTF-8" standalone="no"?>
<svg width="15px" height="15px" viewBox="0 0 15 15" version="1.1" xmlns="http://www.w3.org/2000/svg" xmlns:xlink="http://www.w3.org/1999/xlink">
    <!-- Generator: Sketch 41.2 (35397) - http://www.bohemiancoding.com/sketch -->
    <title>dormitory</title>
    <desc>Created with Sketch.</desc>
    <defs></defs>
    <g id="Page-1" stroke="none" stroke-width="1" fill="none" fill-rule="evenodd">
        <g id="dormitory" fill="#000000">
            <g id="apartment" transform="translate(3.000000, 3.000000)">
                <g id="Layer_1">
                    <path d="M0,0 L0,11 L5,11 L5,8 L8,8 L8,11 L9,11 L9,0 L0,0 Z M4,10 L1,10 L1,8 L4,8 L4,10 Z M4,7 L1,7 L1,5 L4,5 L4,7 Z M4,4 L1,4 L1,2 L4,2 L4,4 Z M8,7 L5,7 L5,5 L8,5 L8,7 Z M8,4 L5,4 L5,2 L8,2 L8,4 Z" id="Shape"></path>
                </g>
            </g>
        </g>
    </g>
</svg>