<?xml version="1.0" encoding="UTF-8" standalone="no"?>
<svg width="15px" height="15px" viewBox="0 0 15 15" version="1.1" xmlns="http://www.w3.org/2000/svg" xmlns:xlink="http://www.w3.org/1999/xlink">
    <!-- Generator: Sketch 41.2 (35397) - http://www.bohemiancoding.com/sketch -->
    <title>driving_school</title>
    <desc>Created with Sketch.</desc>
    <defs></defs>
    <g id="Page-1" stroke="none" stroke-width="1" fill="none" fill-rule="evenodd">
        <g id="driving_school" fill="#000000">
            <g transform="translate(1.000000, 3.000000)" id="Layer_1">
                <g>
                    <path d="M13,5 C12.996,4.3096 12.5213,3.7111 11.85,3.55 L10.46,0.31 L10.46,0.31 L10.46,0.31 L10.46,0.31 C10.3833,0.1233 10.2019,0.001 10,0 L3,0 C2.8124,0.0034 2.6425,0.1115 2.56,0.28 L2.56,0.28 L2.56,0.28 L2.56,0.28 L1.15,3.54 C0.475,3.702 -0.0006,4.3059 0,5 L0,8.5 L1,8.5 L1,9.5 C1,10.0523 1.4477,10.5 2,10.5 C2.5523,10.5 3,10.0523 3,9.5 L3,8.5 L10,8.5 L10,9.5 C10,10.0523 10.4477,10.5 11,10.5 C11.5523,10.5 12,10.0523 12,9.5 L12,8.5 L13,8.5 L13,5 Z M3.3,1 L9.7,1 L10.75,3.5 L2.25,3.5 L3.3,1 Z M2,7 C1.4477,7 1,6.5523 1,6 C1,5.4477 1.4477,5 2,5 C2.5523,5 3,5.4477 3,6 C3,6.5523 2.5523,7 2,7 Z M11,7 C10.4477,7 10,6.5523 10,6 C10,5.4477 10.4477,5 11,5 C11.5523,5 12,5.4477 12,6 C12,6.5523 11.5523,7 11,7 Z" id="Shape"></path>
                </g>
            </g>
        </g>
    </g>
</svg>