<?xml version="1.0" encoding="UTF-8" standalone="no"?>
<svg width="15px" height="15px" viewBox="0 0 15 15" version="1.1" xmlns="http://www.w3.org/2000/svg" xmlns:xlink="http://www.w3.org/1999/xlink">
    <!-- Generator: Sketch 41.2 (35397) - http://www.bohemiancoding.com/sketch -->
    <title>employment_agency</title>
    <desc>Created with Sketch.</desc>
    <defs></defs>
    <g id="Page-1" stroke="none" stroke-width="1" fill="none" fill-rule="evenodd">
        <g id="employment_agency" fill="#000000">
            <path d="M3,2 L3,13 L8,13 L8,10 L11,10 L11,13 L12,13 L12,2 L3,2 Z M7,12 L4,12 L4,10 L7,10 L7,12 Z M7,9 L4,9 L4,7 L7,7 L7,9 Z M7,6 L4,6 L4,4 L7,4 L7,6 Z M11,9 L8,9 L8,7 L11,7 L11,9 Z M11,6 L8,6 L8,4 L11,4 L11,6 Z" id="Shape"></path>
        </g>
    </g>
</svg>