<?xml version="1.0" encoding="UTF-8" standalone="no"?>
<svg width="15px" height="15px" viewBox="0 0 15 15" version="1.1" xmlns="http://www.w3.org/2000/svg" xmlns:xlink="http://www.w3.org/1999/xlink">
    <!-- Generator: Sketch 41.2 (35397) - http://www.bohemiancoding.com/sketch -->
    <title>ferry</title>
    <desc>Created with Sketch.</desc>
    <defs></defs>
    <g id="Page-1" stroke="none" stroke-width="1" fill="none" fill-rule="evenodd">
        <g id="ferry" fill="#000000">
            <g transform="translate(1.000000, -1.000000)" id="Layer_1">
                <g>
                    <path d="M4.33,12 C5.0045,12.009 5.6562,12.245 6.18,12.67 L6.44,12.9 L6.49,12.9 L6.8,12.62 C7.7817,11.8085 9.179,11.7354 10.24,12.44 L12.5,8 L11,7 L11,3.45 C10.9534,2.65 10.3011,2.0195 9.5,2 L9,2 C9.0343,1.482 8.6421,1.0343 8.1241,1 C8.0828,0.9973 8.0413,0.9973 8,1 L5,1 C4.482,0.9657 4.0343,1.3579 4,1.8759 C3.9973,1.9172 3.9973,1.9587 4,2 L3.5,2 C2.6989,2.0195 2.0466,2.65 2,3.45 L2,7 L0.5,8 L2.75,12.53 C3.2143,12.2041 3.7631,12.02 4.33,12 Z M3,3.45 C3.0105,3.1906 3.2293,2.9889 3.4886,2.9994 C3.4924,2.9996 3.4962,2.9998 3.5,3 L9.5,3 C9.759,2.9829 9.9829,3.1789 10,3.4379 C10.0014,3.4586 10.0014,3.4793 10,3.5 L10,6.5 L6.5,4.5 L3,6.45 L3,3.45 Z M13,14 L13,15 C12.7374,15.0194 12.4931,15.1416 12.32,15.34 C12.0483,15.6283 11.7022,15.8359 11.32,15.94 C10.7053,16.1215 10.0405,15.9825 9.55,15.57 L9.16,15.22 C8.8557,14.9174 8.3643,14.9174 8.06,15.22 C7.92,15.34 7.79,15.47 7.64,15.59 C6.9072,16.1756 5.8586,16.146 5.16,15.52 L4.77,15.17 C4.4836,14.9198 4.0564,14.9198 3.77,15.17 C3.58,15.32 3.41,15.49 3.22,15.64 C2.5157,16.1615 1.5468,16.1368 0.87,15.58 L0.56,15.31 C0.4153,15.1443 0.2172,15.0346 0,15 L0,14 C0.2585,13.968 0.5205,14.0169 0.75,14.14 C1.0282,14.3122 1.2924,14.5061 1.54,14.72 C1.7451,14.9435 2.0547,15.039 2.35,14.97 C2.4625,14.9367 2.5677,14.8824 2.66,14.81 C2.82,14.69 2.95,14.55 3.11,14.42 C3.8206,13.8312 4.8494,13.8312 5.56,14.42 C5.72,14.55 5.87,14.7 6.03,14.83 C6.3164,15.0802 6.7436,15.0802 7.03,14.83 C7.19,14.7 7.34,14.55 7.5,14.42 C8.2123,13.8257 9.2477,13.8257 9.96,14.42 C10.11,14.55 10.25,14.69 10.4,14.81 C10.6864,15.0602 11.1136,15.0602 11.4,14.81 L11.87,14.4 C12.1895,14.1408 12.5886,13.9995 13,14 Z" id="Shape"></path>
                </g>
            </g>
        </g>
    </g>
</svg>