<?xml version="1.0" encoding="UTF-8" standalone="no"?>
<svg width="15px" height="15px" viewBox="0 0 15 15" version="1.1" xmlns="http://www.w3.org/2000/svg" xmlns:xlink="http://www.w3.org/1999/xlink">
    <!-- Generator: Sketch 41.2 (35397) - http://www.bohemiancoding.com/sketch -->
    <title>flowers</title>
    <desc>Created with Sketch.</desc>
    <defs></defs>
    <g id="Page-1" stroke="none" stroke-width="1" fill="none" fill-rule="evenodd">
        <g id="flowers" fill="#000000">
            <g transform="translate(2.000000, 1.000000)" id="Layer_1">
                <g>
                    <path d="M11,8 C11,11.31 8.81,14 5.5,14 C2.19,14 0,11.31 0,8 C2.2643,8.0191 4.2694,9.4667 5,11.61 L5,7 L2.5,7 C1.6716,7 1,6.3284 1,5.5 L1,2.5 C1,2.2239 1.2239,2 1.5,2 C1.6574,2 1.8056,2.0741 1.9,2.2 L3.43,4.2 L5.08,1.2 C5.2298,0.968 5.5393,0.9015 5.7713,1.0513 C5.8308,1.0898 5.8815,1.1404 5.92,1.2 L7.57,4.2 L9.1,2.2 C9.2657,1.9791 9.5791,1.9343 9.8,2.1 C9.9259,2.1944 10,2.3426 10,2.5 L10,5.5 C10,6.3284 9.3284,7 8.5,7 L6,7 L6,11.61 C6.7306,9.4667 8.7357,8.0191 11,8 Z" id="Shape"></path>
                </g>
            </g>
        </g>
    </g>
</svg>