<?xml version="1.0" encoding="UTF-8" standalone="no"?>
<svg width="15px" height="15px" viewBox="0 0 15 15" version="1.1" xmlns="http://www.w3.org/2000/svg" xmlns:xlink="http://www.w3.org/1999/xlink">
    <!-- Generator: Sketch 41.2 (35397) - http://www.bohemiancoding.com/sketch -->
    <title>fuel</title>
    <desc>Created with Sketch.</desc>
    <defs></defs>
    <g id="Page-1" stroke="none" stroke-width="1" fill="none" fill-rule="evenodd">
        <g id="fuel" fill="#000000">
            <g transform="translate(1.000000, 2.000000)" id="Layer_1">
                <g>
                    <path d="M12,5 L12,5 L12,10.5 C12,10.7761 11.7761,11 11.5,11 C11.2239,11 11,10.7761 11,10.5 L11,8.5 C11,7.6716 10.3284,7 9.5,7 L8,7 L8,1 C8,0.4477 7.5523,0 7,0 L1,0 C0.4477,0 0,0.4477 0,1 L0,12 C0,12.5523 0.4477,13 1,13 L7,13 C7.5523,13 8,12.5523 8,12 L8,8 L9.5,8 C9.7761,8 10,8.2239 10,8.5 L10,10.5 C10,11.3284 10.6716,12 11.5,12 C12.3284,12 13,11.3284 13,10.5 L13,4 C13,3.4477 12.5523,3 12,3 L12,3 L12,1.49 C11.9946,1.2178 11.7723,0.9999 11.5,1 C11.2184,1.0047 10.9938,1.2367 10.9985,1.5184 C10.9987,1.5289 10.9992,1.5395 11,1.55 L11,4 C11,4.5523 11.4477,5 12,5 C12.5523,5 13,4.5523 13,4 C13,3.4477 12.5523,3 12,3 L12,5 Z M7,5.5 C7,5.7761 6.7761,6 6.5,6 L1.5,6 C1.2239,6 1,5.7761 1,5.5 L1,2.5 C1,2.2239 1.2239,2 1.5,2 L6.5,2 C6.7761,2 7,2.2239 7,2.5 L7,5.5 Z" id="Shape"></path>
                </g>
            </g>
        </g>
    </g>
</svg>