<?xml version="1.0" encoding="UTF-8" standalone="no"?>
<svg width="15px" height="15px" viewBox="0 0 15 15" version="1.1" xmlns="http://www.w3.org/2000/svg" xmlns:xlink="http://www.w3.org/1999/xlink">
    <!-- Generator: Sketch 41.2 (35397) - http://www.bohemiancoding.com/sketch -->
    <title>garden_center</title>
    <desc>Created with Sketch.</desc>
    <defs></defs>
    <g id="Page-1" stroke="none" stroke-width="1" fill="none" fill-rule="evenodd">
        <g id="garden_center" fill="#000000">
            <g id="garden-center-15" transform="translate(1.000000, 2.000000)">
                <path d="M3,3 L3,2.5 C3,1.12 4.12,0 5.5,0 C6.88,0 8,1.12 8,2.5 L8,8.293 L10.365,5.928 L10.018,4.633 C10.018,4.631 10.017,4.629 10.017,4.627 L10.016,4.627 L10.016,4.627 C9.973,4.461 10.016,4.276 10.147,4.146 C10.342,3.951 10.659,3.951 10.854,4.146 L12.854,6.146 C13.049,6.341 13.049,6.658 12.854,6.853 C12.724,6.983 12.541,7.027 12.375,6.984 L12.375,6.984 C12.372,6.983 12.369,6.982 12.365,6.981 L11.072,6.635 L8,9.707 L8,10 C8,10.552 7.552,11 7,11 L4,11 C3.448,11 3,10.552 3,10 L3,9.536 L0.732,7.268 C-0.243,6.292 -0.243,4.708 0.732,3.732 C1.22,3.244 1.86,3 2.5,3 L2.5,3 L3,3 Z M3,4 L2.5,4 L2.5,4 C2.116,4 1.732,4.147 1.439,4.439 C0.854,5.025 0.854,5.975 1.439,6.561 L3,8.121 L3,4 Z M7,3 L7,2.5 C7,1.672 6.328,1 5.5,1 C4.672,1 4,1.672 4,2.5 L4,3 L7,3 Z" id="Shape"></path>
            </g>
        </g>
    </g>
</svg>