<?xml version="1.0" encoding="UTF-8" standalone="no"?>
<svg width="15px" height="15px" viewBox="0 0 15 15" version="1.1" xmlns="http://www.w3.org/2000/svg" xmlns:xlink="http://www.w3.org/1999/xlink">
    <!-- Generator: Sketch 41.2 (35397) - http://www.bohemiancoding.com/sketch -->
    <title>gifts</title>
    <desc>Created with Sketch.</desc>
    <defs></defs>
    <g id="Page-1" stroke="none" stroke-width="1" fill="none" fill-rule="evenodd">
        <g id="gifts" fill="#000000">
            <g id="Layer_1">
                <g>
                    <path d="M6.5,6 L6.5,8 L0,8 L0,6 L6.5,6 Z M8.5,6 L8.5,8 L15,8 L15,6 L8.5,6 Z M1,9 L1,13.5 C1,14.3284 1.6716,15 2.5,15 L6.5,15 L6.5,9 L1,9 Z M8.5,9 L8.5,15 L12.5,15 C13.3284,15 14,14.3284 14,13.5 L14,9 L8.5,9 Z M10.5,1 C9.0967,0.9556 7.8503,1.8904 7.5,3.25 C7.1497,1.8904 5.9033,0.9556 4.5,1 C3.4291,0.9663 2.5337,1.8072 2.5,2.8781 C2.4987,2.9187 2.4987,2.9594 2.5,3 C2.3443,3.9427 2.9822,4.8331 3.9249,4.9888 C4.0853,5.0153 4.2486,5.0191 4.41,5 L10.54,5 C11.4948,5.1497 12.3903,4.4971 12.54,3.5423 C12.5682,3.3626 12.5682,3.1797 12.54,3 C12.5402,1.8954 11.645,0.9998 10.5404,0.9996 C10.5269,0.9996 10.5135,0.9997 10.5,1 Z M4.5,4 C3.994,4.0463 3.5463,3.6736 3.5,3.1677 C3.4949,3.1119 3.4949,3.0558 3.5,3 C3.4537,2.494 3.8264,2.0463 4.3323,2 C4.3881,1.9949 4.4442,1.9949 4.5,2 C5.6046,2 6.5,2.8954 6.5,4 L4.5,4 Z M10.5,4 L8.5,4 C8.5,2.8954 9.3954,2 10.5,2 C11.0523,2 11.5,2.4477 11.5,3 C11.5463,3.506 11.1736,3.9537 10.6677,4 C10.6119,4.0051 10.5558,4.0051 10.5,4 Z" id="Shape"></path>
                </g>
            </g>
        </g>
    </g>
</svg>