<?xml version="1.0" encoding="UTF-8" standalone="no"?>
<svg width="15px" height="15px" viewBox="0 0 15 15" version="1.1" xmlns="http://www.w3.org/2000/svg" xmlns:xlink="http://www.w3.org/1999/xlink">
    <!-- Generator: Sketch 41.2 (35397) - http://www.bohemiancoding.com/sketch -->
    <title>greengrocer</title>
    <desc>Created with Sketch.</desc>
    <defs></defs>
    <g id="Page-1" stroke="none" stroke-width="1" fill="none" fill-rule="evenodd">
        <g id="greengrocer" fill="#000000">
            <g transform="translate(1.000000, 3.000000)" id="Layer_1">
                <g>
                    <path d="M12.33,4 L10.5,4 L10.11,1.67 C9.9499,0.9518 9.4083,0.3795 8.7,0.18 C8.3507,0.0676 7.9869,0.007 7.62,0 L5.38,0 C5.0131,0.007 4.6493,0.0676 4.3,0.18 C3.5917,0.3795 3.0501,0.9518 2.89,1.67 L2.5,4 L0.67,4 C0.3939,3.9983 0.1687,4.2208 0.167,4.497 C0.1667,4.5489 0.1744,4.6005 0.19,4.65 L2.07,10.95 L2.07,10.95 C2.2664,11.5746 2.8453,11.9996 3.5,12 L9.5,12 C10.151,11.9953 10.7247,11.5711 10.92,10.95 L10.92,10.95 L12.8,4.65 C12.8829,4.3866 12.7365,4.1059 12.4731,4.023 C12.4268,4.0084 12.3786,4.0007 12.33,4 Z M3.52,4 L3.88,1.83 C3.9607,1.4675 4.2536,1.1905 4.62,1.13 C4.8663,1.0524 5.1219,1.0087 5.38,1 L7.62,1 C7.8814,1.0078 8.1405,1.0515 8.39,1.13 C8.7564,1.1905 9.0493,1.4675 9.13,1.83 L9.48,4 L3.48,4 L3.52,4 Z" id="Shape"></path>
                </g>
            </g>
        </g>
    </g>
</svg>