<?xml version="1.0" encoding="UTF-8" standalone="no"?>
<svg width="15px" height="15px" viewBox="0 0 15 15" version="1.1" xmlns="http://www.w3.org/2000/svg" xmlns:xlink="http://www.w3.org/1999/xlink">
    <!-- Generator: Sketch 41.2 (35397) - http://www.bohemiancoding.com/sketch -->
    <title>health</title>
    <desc>Created with Sketch.</desc>
    <defs></defs>
    <g id="Page-1" stroke="none" stroke-width="1" fill="none" fill-rule="evenodd">
        <g id="health" fill="#000000">
            <g transform="translate(2.000000, 1.000000)" id="Layer_1">
                <g>
                    <path d="M3.5,6 C2.1193,6 1,4.8807 1,3.5 L1,3.5 L1,1.5 C1,1.2239 1.2239,1 1.5,1 L2,1 C2.2761,1 2.5,0.7761 2.5,0.5 C2.5,0.2239 2.2761,0 2,0 L1.5,0 C0.6716,0 0,0.6716 0,1.5 L0,3.5 C0.0013,4.6466 0.5658,5.7195 1.51,6.37 L1.51,6.37 C2.4131,7.1662 2.9514,8.297 3,9.5 C3,11.433 4.567,13 6.5,13 C8.433,13 10,11.433 10,9.5 L10,8.93 C11.0695,8.6539 11.7126,7.563 11.4365,6.4935 C11.1603,5.424 10.0695,4.7809 9,5.057 C7.9305,5.3332 7.2874,6.424 7.5635,7.4935 C7.7454,8.198 8.2955,8.7481 9,8.93 L9,9.5 C9,10.8807 7.8807,12 6.5,12 C5.1193,12 4,10.8807 4,9.5 C4.0511,8.2955 4.5932,7.1644 5.5,6.37 L5.5,6.37 C6.4404,5.7172 7.001,4.6448 7,3.5 L7,1.5 C7,0.6716 6.3284,0 5.5,0 L5,0 C4.7239,0 4.5,0.2239 4.5,0.5 C4.5,0.7761 4.7239,1 5,1 L5.5,1 C5.7761,1 6,1.2239 6,1.5 L6,3.5 L6,3.5 C6,4.8807 4.8807,6 3.5,6 L3.5,6 Z M9.5,8 C8.9477,8 8.5,7.5523 8.5,7 C8.5,6.4477 8.9477,6 9.5,6 C10.0523,6 10.5,6.4477 10.5,7 C10.5,7.5523 10.0523,8 9.5,8 Z" id="Shape"></path>
                </g>
            </g>
        </g>
    </g>
</svg>