<?xml version="1.0" encoding="UTF-8" standalone="no"?>
<svg width="15px" height="15px" viewBox="0 0 15 15" version="1.1" xmlns="http://www.w3.org/2000/svg" xmlns:xlink="http://www.w3.org/1999/xlink">
    <!-- Generator: Sketch 41.2 (35397) - http://www.bohemiancoding.com/sketch -->
    <title>hiking</title>
    <desc>Created with Sketch.</desc>
    <defs></defs>
    <g id="Page-1" stroke="none" stroke-width="1" fill="none" fill-rule="evenodd">
        <g id="hiking" fill="#000000">
            <g transform="translate(1.000000, 3.000000)" id="svg4619">
                <g>
                    <path d="M6.5,0 C6.2,0 6.1,0.2 5.9,0.4 L0.1,9.9 C0,10 0,10.2 0,10.3 C0,10.8 0.4,11 0.7,11 L12.3,11 C12.7,11 13,10.8 13,10.3 C13,10.1 13,10.1 12.9,9.9 L7.2,0.4 C7,0.2 6.8,0 6.5,0 Z M6.5,1.5 L9.8,7 L9,7 L7.5,5.5 L6.5,7 L5.5,5.5 L4,7 L3.1,7 L6.5,1.5 Z" id="path5571"></path>
                </g>
            </g>
        </g>
    </g>
</svg>