<?xml version="1.0" encoding="UTF-8" standalone="no"?>
<svg width="15px" height="15px" viewBox="0 0 15 15" version="1.1" xmlns="http://www.w3.org/2000/svg" xmlns:xlink="http://www.w3.org/1999/xlink">
    <!-- Generator: Sketch 41.2 (35397) - http://www.bohemiancoding.com/sketch -->
    <title>icecream</title>
    <desc>Created with Sketch.</desc>
    <defs></defs>
    <g id="Page-1" stroke="none" stroke-width="1" fill="none" fill-rule="evenodd">
        <g id="icecream" fill="#000000">
            <g id="ice-cream-15" transform="translate(3.000000, 0.000000)">
                <g id="Layer_1">
                    <path d="M2.44,9.17 C3.1556,9.1706 3.854,8.9506 4.44,8.54 C4.9037,8.8634 5.4391,9.0693 6,9.14 L6.44,9.14 L5,14.7 C4.8918,14.9541 4.5981,15.0723 4.344,14.964 C4.2252,14.9134 4.1306,14.8188 4.08,14.7 L2.44,9.17 Z" id="Shape"></path>
                    <path d="M8.44,5.67 C8.44,6.7746 7.5446,7.67 6.44,7.67 C5.3354,7.67 4.44,6.7746 4.44,5.67 L4.44,5.67 L4.44,5.67 L4.44,5.67 C4.44,6.7746 3.5446,7.67 2.44,7.67 C1.3354,7.67 0.44,6.7746 0.44,5.67 C0.44,4.5654 1.3354,3.67 2.44,3.67 L2.56,3.67 C2.1756,2.6345 2.7035,1.4834 3.739,1.099 C4.7745,0.7146 5.9256,1.2425 6.31,2.278 C6.4767,2.727 6.4767,3.2209 6.31,3.6699 L6.44,3.6699 C7.5446,3.67 8.44,4.5654 8.44,5.67 Z" id="Shape"></path>
                </g>
            </g>
        </g>
    </g>
</svg>