<?xml version="1.0" encoding="UTF-8" standalone="no"?>
<svg width="15px" height="15px" viewBox="0 0 15 15" version="1.1" xmlns="http://www.w3.org/2000/svg" xmlns:xlink="http://www.w3.org/1999/xlink">
    <!-- Generator: Sketch 41.2 (35397) - http://www.bohemiancoding.com/sketch -->
    <title>interior_decoration</title>
    <desc>Created with Sketch.</desc>
    <defs></defs>
    <g id="Page-1" stroke="none" stroke-width="1" fill="none" fill-rule="evenodd" transform="translate(0, -1)">
        <g id="interior_decoration" fill="#000000">
            <path d="M13.33,7 L11.5,7 L11.11,4.67 C10.9499,3.9518 10.4083,3.3795 9.7,3.18 C9.3507,3.0676 8.9869,3.007 8.62,3 L6.38,3 C6.0131,3.007 5.6493,3.0676 5.3,3.18 C4.5917,3.3795 4.0501,3.9518 3.89,4.67 L3.5,7 L1.67,7 C1.3939,6.9983 1.1687,7.2208 1.167,7.497 C1.1667,7.5489 1.1744,7.6005 1.19,7.65 L3.07,13.95 L3.07,13.95 C3.2664,14.5746 3.8453,14.9996 4.5,15 L10.5,15 C11.151,14.9953 11.7247,14.5711 11.92,13.95 L11.92,13.95 L13.8,7.65 C13.8829,7.3866 13.7365,7.1059 13.4731,7.023 C13.4268,7.0084 13.3786,7.0007 13.33,7 Z M4.52,7 L4.88,4.83 C4.9607,4.4675 5.2536,4.1905 5.62,4.13 C5.8663,4.0524 6.1219,4.0087 6.38,4 L8.62,4 C8.8814,4.0078 9.1405,4.0515 9.39,4.13 C9.7564,4.1905 10.0493,4.4675 10.13,4.83 L10.48,7 L4.48,7 L4.52,7 Z" id="Shape"></path>
        </g>
    </g>
</svg>