<?xml version="1.0" encoding="UTF-8" standalone="no"?>
<svg width="15px" height="15px" viewBox="0 0 15 15" version="1.1" xmlns="http://www.w3.org/2000/svg" xmlns:xlink="http://www.w3.org/1999/xlink">
    <!-- Generator: Sketch 41.2 (35397) - http://www.bohemiancoding.com/sketch -->
    <title>kindergarten</title>
    <desc>Created with Sketch.</desc>
    <defs></defs>
    <g id="Page-1" stroke="none" stroke-width="1" fill="none" fill-rule="evenodd">
        <g id="kindergarten" fill="#000000">
            <path d="M7,6 C6.4477,6 6,5.5523 6,5 C6,4.4477 6.4477,4 7,4 C7.5523,4 8,4.4477 8,5 C8,5.5523 7.5523,6 7,6 Z M12,11 L10.5,11 L9.5,9 L9,7.25 L9.5,7 L10.6,7.5 C10.8761,7.6105 11.1895,7.4761 11.3,7.2 C11.4105,6.9239 11.2761,6.6105 11,6.5 L9.5,6 L8,6 L6,7 L5,8 L4,8 C3.7239,8 3.5,8.2239 3.5,8.5 C3.5,8.7761 3.7239,9 4,9 L6,9 L7,8 L7.5,9.5 L6.5,11.11 L6.5,13.5 C6.5,13.7761 6.7239,14 7,14 C7.2761,14 7.5,13.7761 7.5,13.5 L7.5,11.5 L8.5,10.5 L9.5,12 L12,12 C12.2761,12 12.5,11.7761 12.5,11.5 C12.5,11.2239 12.2761,11 12,11 Z M3,14 C2.4477,14 2,13.5523 2,13 C2,12.4477 2.4477,12 3,12 C3.5523,12 4,12.4477 4,13 C4,13.5523 3.5523,14 3,14 Z M13.5,5 C13.4238,5.0003 13.3486,4.9832 13.28,4.95 L7.5,2 L1.72,4.93 C1.4632,5.0515 1.1565,4.9418 1.035,4.685 C0.9135,4.4282 1.0232,4.1215 1.28,4 L7.5,0.92 L13.72,4 C13.9961,4.0608 14.1708,4.3339 14.11,4.61 C14.0492,4.8861 13.7761,5.0608 13.5,5 Z" id="Combined-Shape"></path>
        </g>
    </g>
</svg>