<?xml version="1.0" encoding="UTF-8" standalone="no"?>
<svg width="15px" height="15px" viewBox="0 0 15 15" version="1.1" xmlns="http://www.w3.org/2000/svg" xmlns:xlink="http://www.w3.org/1999/xlink">
    <!-- Generator: Sketch 41.2 (35397) - http://www.bohemiancoding.com/sketch -->
    <title>laundry</title>
    <desc>Created with Sketch.</desc>
    <defs></defs>
    <g id="Page-1" stroke="none" stroke-width="1" fill="none" fill-rule="evenodd">
        <g id="laundry" fill="#000000">
            <g transform="translate(2.000000, 1.000000)" id="svg4619">
                <g>
                    <path d="M6,0 L4,2 L1,2 C1,2 0,2 0,3 L0,12 C0,13 1,13 1,13 L10,13 C10,13 11,13 11,12 L11,1 C11,0 10,0 10,0 L6,0 Z M6.5,1 L8.5,1 C8.777,1 9,1.223 9,1.5 C9,1.777 8.777,2 8.5,2 L6.5,2 C6.223,2 6,1.777 6,1.5 C6,1.223 6.223,1 6.5,1 Z M5.5,5 C7.1569,5 8.5,6.3431 8.5,8 C8.5,9.6569 7.1569,11 5.5,11 C3.8431,11 2.5,9.6569 2.5,8 C2.5,6.3431 3.8431,5 5.5,5 Z" id="path3291-2"></path>
                </g>
            </g>
        </g>
    </g>
</svg>