<?xml version="1.0" encoding="UTF-8" standalone="no"?>
<svg width="15px" height="15px" viewBox="0 0 15 15" version="1.1" xmlns="http://www.w3.org/2000/svg" xmlns:xlink="http://www.w3.org/1999/xlink">
    <!-- Generator: Sketch 41.2 (35397) - http://www.bohemiancoding.com/sketch -->
    <title>museum</title>
    <desc>Created with Sketch.</desc>
    <defs></defs>
    <g id="Page-1" stroke="none" stroke-width="1" fill="none" fill-rule="evenodd">
        <g id="museum" fill="#000000">
            <g transform="translate(1.000000, 1.000000)" id="svg4619">
                <g>
                    <path d="M6.5,0 L0,3.4453 L0,4 L13,4 L13,3.4453 L6.5,0 Z M1,5 L1,10 L0,11.5547 L0,13 L13,13 L13,11.5547 L12,10 L12,5 L1,5 Z M3.6152,6 C3.7842,5.9977 3.947,6.0639 4.0664,6.1836 L6.5,8.6172 L8.9336,6.1836 C9.1781,5.9399 9.5738,5.9404 9.8176,6.1849 C9.9341,6.3017 9.9997,6.46 10,6.625 L10,10.8672 C10.0049,11.2124 9.729,11.4962 9.3838,11.501 C9.0386,11.5059 8.7548,11.23 8.75,10.8848 C8.7499,10.8789 8.7499,10.873 8.75,10.8671 L8.75,8.1328 L6.9414,9.9414 C6.6974,10.1847 6.3026,10.1847 6.0586,9.9414 L4.25,8.1328 L4.25,10.8672 C4.2549,11.2124 3.979,11.4962 3.6338,11.501 C3.2887,11.5059 3.0049,11.2301 3,10.8849 C2.9999,10.879 2.9999,10.8731 3,10.8672 L3,6.625 C3,6.2836 3.2739,6.0054 3.6152,6 Z" id="path7509"></path>
                </g>
            </g>
        </g>
    </g>
</svg>