<?xml version="1.0" encoding="UTF-8" standalone="no"?>
<svg width="15px" height="15px" viewBox="0 0 15 15" version="1.1" xmlns="http://www.w3.org/2000/svg" xmlns:xlink="http://www.w3.org/1999/xlink">
    <!-- Generator: Sketch 41.2 (35397) - http://www.bohemiancoding.com/sketch -->
    <title>ngo</title>
    <desc>Created with Sketch.</desc>
    <defs></defs>
    <g id="Page-1" stroke="none" stroke-width="1" fill="none" fill-rule="evenodd">
        <g id="ngo" fill="#000000">
            <g id="embassy" transform="translate(0.000000, 2.000000)">
                <g id="Layer_1">
                    <path d="M5.65,1 C4.43,1 3.48,2.38 3.11,2.82 C3.0365,2.9102 2.9975,3.0237 3,3.14 L3,7.54 C2.9884,7.7827 3.1758,7.9889 3.4185,8.0005 C3.528,8.0057 3.6355,7.9699 3.72,7.9 C4.1865,7.2736 4.8789,6.8539 5.65,6.73 C7.06,6.73 7.6,8 9.07,8 C10.0648,7.9024 11.0115,7.5244 11.8,6.91 C11.9272,6.8166 12.0016,6.6678 12,6.51 L12,1.45 C12.0275,1.2086 11.8541,0.9905 11.6126,0.963 C11.5332,0.954 11.4527,0.9668 11.38,1 C10.6987,1.5212 9.9094,1.8834 9.07,2.06 C7.6,2.08 7.12,1 5.65,1 Z M1.5,2 C0.9477,2 0.5,1.5523 0.5,1 C0.5,0.4477 0.9477,0 1.5,0 C2.0523,0 2.5,0.4477 2.5,1 C2.5,1.5523 2.0523,2 1.5,2 Z M2,3 L2,12.48 C2,12.7561 1.7761,12.98 1.5,12.98 C1.2239,12.98 1,12.7561 1,12.48 L1,3 C1,2.7239 1.2239,2.5 1.5,2.5 C1.7761,2.5 2,2.7239 2,3 Z" id="Shape"></path>
                </g>
            </g>
        </g>
    </g>
</svg>