<?xml version="1.0" encoding="UTF-8" standalone="no"?>
<svg width="15px" height="15px" viewBox="0 0 15 15" version="1.1" xmlns="http://www.w3.org/2000/svg" xmlns:xlink="http://www.w3.org/1999/xlink">
    <!-- Generator: Sketch 41.2 (35397) - http://www.bohemiancoding.com/sketch -->
    <title>nightclub</title>
    <desc>Created with Sketch.</desc>
    <defs></defs>
    <g id="Page-1" stroke="none" stroke-width="1" fill="none" fill-rule="evenodd">
        <g id="nightclub" fill="#000000">
            <g id="karaoke-15" transform="translate(2.000000, 2.000000)">
                <g id="karaoke">
                    <g id="Group">
                        <path d="M10.1,0.952 C9.26551936,0.107765842 8.01043484,-0.162436892 6.90247838,0.263616812 C5.79452193,0.689670517 5.0438399,1.73117095 4.99,2.917 L8.132,6.059 C9.31705053,6.00518375 10.358035,5.25542589 10.7845934,4.14849821 C11.2111518,3.04157053 10.9424898,1.78713587 10.1,0.952 L10.1,0.952 Z" id="Shape"></path>
                        <path d="M2.672,6.255 L0.55,8.377 C0.159618062,8.76749985 0.159618062,9.40050015 0.55,9.791 L1.257,10.498 C1.64749985,10.8883819 2.28050015,10.8883819 2.671,10.498 L4.792,8.377 L6.914,6.255 L4.793,4.134 L2.672,6.255 Z M3.413,8.342 L2.706,7.635 L4.793,5.548 L5.5,6.255 L3.413,8.342 Z" id="Shape"></path>
                    </g>
                </g>
            </g>
        </g>
    </g>
</svg>