<?xml version="1.0" encoding="UTF-8" standalone="no"?>
<svg width="15px" height="15px" viewBox="0 0 15 15" version="1.1" xmlns="http://www.w3.org/2000/svg" xmlns:xlink="http://www.w3.org/1999/xlink">
    <!-- Generator: Sketch 41.2 (35397) - http://www.bohemiancoding.com/sketch -->
    <title>occupational_therapist</title>
    <desc>Created with Sketch.</desc>
    <defs></defs>
    <g id="Page-1" stroke="none" stroke-width="1" fill="none" fill-rule="evenodd">
        <g id="occupational_therapist" fill="#010101">
            <path d="M7,1 C6.4,1 6,1.4 6,2 L6,6 L2,6 C1.4,6 1,6.4 1,7 L1,8 C1,8.6 1.4,9 2,9 L6,9 L6,13 C6,13.6 6.4,14 7,14 L8,14 C8.6,14 9,13.6 9,13 L9,9 L13,9 C13.6,9 14,8.6 14,8 L14,7 C14,6.4 13.6,6 13,6 L9,6 L9,2 C9,1.4 8.6,1 8,1 L7,1 Z" id="rect4194"></path>
        </g>
    </g>
</svg>