<?xml version="1.0" encoding="UTF-8" standalone="no"?>
<svg width="15px" height="15px" viewBox="0 0 15 15" version="1.1" xmlns="http://www.w3.org/2000/svg" xmlns:xlink="http://www.w3.org/1999/xlink">
    <!-- Generator: Sketch 41.2 (35397) - http://www.bohemiancoding.com/sketch -->
    <title>place_of_worship</title>
    <desc>Created with Sketch.</desc>
    <defs></defs>
    <g id="Page-1" stroke="none" stroke-width="1" fill="none" fill-rule="evenodd">
        <g id="place_of_worship" fill="#000000">
            <path d="M7.5,5.63145566 C8.32842712,5.63145566 9,4.95988279 9,4.13145566 C9,3.30302854 8.32842712,2.63145566 7.5,2.63145566 C6.67157288,2.63145566 6,3.30302854 6,4.13145566 C6,4.95988279 6.67157288,5.63145566 7.5,5.63145566 Z M4.25939238,14 C3.83999155,14 3.26806641,14.2319336 2.97657013,14.5234299 L3.02342987,14.4765701 C2.73434754,14.7656525 2.8417483,15 3.24654818,15 L9.25345182,15 C9.665759,15 10.0825648,14.6697407 10.1805115,14.2779541 L10.3194885,13.7220459 C10.4191823,13.323271 10.201592,12.840689 9.84167677,12.6485411 L7.65832323,11.4829146 C7.29474135,11.2888092 7.06536627,10.8046243 7.14731216,10.3948948 L7.5,8.63145566 L8.97452354,10.1059792 C9.26473618,10.3961918 9.73540497,10.3960507 10.0363399,10.0951158 L11.9636601,8.16779554 C12.2598725,7.87158321 12.2680664,7.39952207 11.9765701,7.10802579 L12.0234299,7.15488553 C11.7343475,6.8658032 11.2627199,6.86873579 10.9745235,7.15693212 L9.5,8.63145566 L7.96386719,6.71128965 C7.70768041,6.39105618 7.17316866,6.19682193 6.76343918,6.27876783 L5.73656082,6.4841435 C5.32976951,6.56550176 4.93744552,6.96728216 4.86095428,7.37792875 L4.13904572,11.2535269 C4.06225289,11.6657926 4.30930322,12.1374681 4.68345314,12.303757 L8.5,14 L4.25939238,14 Z" id="Combined-Shape"></path>
            <path d="M13.5,4 C13.4238,4.0003 13.3486,3.9832 13.28,3.95 L7.5,1 L1.72,3.93 C1.4632,4.0515 1.1565,3.9418 1.035,3.685 C0.9135,3.4282 1.0232,3.1215 1.28,3 L7.5,-0.08 L13.72,3 C13.9961,3.0608 14.1708,3.3339 14.11,3.61 C14.0492,3.8861 13.7761,4.0608 13.5,4 Z" id="Path"></path>
        </g>
    </g>
</svg>