<?xml version="1.0" encoding="UTF-8" standalone="no"?>
<svg width="15px" height="15px" viewBox="0 0 15 15" version="1.1" xmlns="http://www.w3.org/2000/svg" xmlns:xlink="http://www.w3.org/1999/xlink">
    <!-- Generator: Sketch 41.2 (35397) - http://www.bohemiancoding.com/sketch -->
    <title>sauna</title>
    <desc>Created with Sketch.</desc>
    <defs></defs>
    <g id="Page-1" stroke="none" stroke-width="1" fill="none" fill-rule="evenodd">
        <g id="sauna" fill="#000000">
            <path d="M11.0809405,8.36338793 C13.4155972,8.87179609 15,9.86188662 15,11 C15,12.6568542 11.6421356,14 7.5,14 C3.35786438,14 0,12.6568542 0,11 C0,9.56480422 2.51951434,8.36499409 5.88583394,8.06965323 C5.99295005,8.43830391 6.06437818,8.80686547 6,9 C5.99364814,9.01905558 5.98618667,9.0381978 5.97771523,9.05738878 C3.24532026,9.27153205 1.5,10.0600416 1.5,11 C1.5,12.1045695 3.91014913,13 7.5,13 C11.0898509,13 13.5,12.1045695 13.5,11 C13.5,10.2887719 12.5007465,9.66425323 10.8307207,9.30965713 C10.9039235,9.21230767 10.9639107,9.10826782 11,9 C11.0527174,8.84184772 11.0754275,8.61171645 11.0809405,8.36338793 Z M12,1 C12,1 9,2 9,4.5 C9,7 10,6.5 10,8.5 C10,10.5 7,11.5 7,11.5 C7,11.5 11,10.5 11,8.5 C11,6.5 10,6 10,4.5 C10,3 12,1 12,1 Z M9,1 C9,1 6,2 6,4.5 C6,7 7,6.5 7,8.5 C7,10.5 4,11.5 4,11.5 C4,11.5 8,10.5 8,8.5 C8,6.5 7,6 7,4.5 C7,3 9,1 9,1 Z" id="Combined-Shape"></path>
        </g>
    </g>
</svg>