<?xml version="1.0" encoding="UTF-8" standalone="no"?>
<svg width="15px" height="15px" viewBox="0 0 15 15" version="1.1" xmlns="http://www.w3.org/2000/svg" xmlns:xlink="http://www.w3.org/1999/xlink">
    <!-- Generator: Sketch 41.2 (35397) - http://www.bohemiancoding.com/sketch -->
    <title>social_facility</title>
    <desc>Created with Sketch.</desc>
    <defs></defs>
    <g id="Page-1" stroke="none" stroke-width="1" fill="none" fill-rule="evenodd">
        <g id="social_facility" fill="#000000">
            <path d="M13.5,4 C13.4238,4.0003 13.3486,3.9832 13.28,3.95 L7.5,1 L1.72,3.93 C1.4632,4.0515 1.1565,3.9418 1.035,3.685 C0.9135,3.4282 1.0232,3.1215 1.28,3 L7.5,-0.08 L13.72,3 C13.9961,3.0608 14.1708,3.3339 14.11,3.61 C14.0492,3.8861 13.7761,4.0608 13.5,4 Z M5.02763353,6.19758433 C4.47754702,6.19758433 4.03158118,5.70561845 4.03158118,5.09879216 C4.03158118,4.49196588 4.47754702,4 5.02763353,4 C5.57772004,4 6.02368588,4.49196588 6.02368588,5.09879216 C6.02368588,5.70561845 5.57772004,6.19758433 5.02763353,6.19758433 Z M6.9228257,8.86398664 L5.27601914,7.03999165 C5.20948285,6.96615282 5.11797884,6.92637654 5.02368588,6.93011243 L3.03158118,6.93011243 C2.94505743,6.93033219 2.86192026,6.9669586 2.79916896,7.03266637 L1.13244136,8.85666136 C0.982303064,8.98631883 0.955874475,9.22578227 1.07340865,9.39140688 C1.19094283,9.55703148 1.40801584,9.5861861 1.55815413,9.45652863 C1.58013369,9.43755615 1.59998833,9.41565356 1.61718683,9.39140688 L3.03158118,7.80914616 L1.70351137,12.0578092 L3.03158118,12.0578092 L3.03158118,14.4971278 C3.02660091,14.5335344 3.02660091,14.5706004 3.03158118,14.607007 C3.06843511,14.809258 3.2469941,14.9403073 3.43033413,14.899652 C3.56413717,14.8699846 3.66872266,14.7546114 3.69561608,14.607007 L3.69561608,12.0578092 L4.35965098,12.0578092 L4.35965098,14.6216576 C4.39650492,14.8239086 4.5750639,14.9549579 4.75840394,14.9143026 C4.89220697,14.8846352 4.99679247,14.769262 5.02368588,14.6216576 C5.02866614,14.5852509 5.02866614,14.548185 5.02368588,14.5117784 L5.02368588,12.0578092 L6.35175569,12.0578092 L5.02368588,7.80914616 L6.44472057,9.39140688 C6.50893275,9.47059317 6.60070237,9.51593666 6.69705383,9.51593666 C6.87992905,9.50040706 7.0198412,9.32994777 7.01579059,9.12769676 C7.01731787,9.02975775 6.98398332,8.93504187 6.9228257,8.86398664 Z M11.0276335,6.19758433 C10.477547,6.19758433 10.0315812,5.70561845 10.0315812,5.09879216 C10.0315812,4.49196588 10.477547,4 11.0276335,4 C11.57772,4 12.0236859,4.49196588 12.0236859,5.09879216 C12.0236859,5.70561845 11.57772,6.19758433 11.0276335,6.19758433 Z M13.9228257,8.86398664 L12.2760191,7.03999165 C12.2094828,6.96615282 12.1179788,6.92637654 12.0236859,6.93011243 L10.0315812,6.93011243 C9.94505743,6.93033219 9.86192026,6.9669586 9.79916896,7.03266637 L8.13244136,8.85666136 C7.98230306,8.98631883 7.95587447,9.22578227 8.07340865,9.39140688 C8.19094283,9.55703148 8.40801584,9.5861861 8.55815413,9.45652863 C8.58013369,9.43755615 8.59998833,9.41565356 8.61718683,9.39140688 L10.0315812,7.80914616 L8.70351137,12.0578092 L10.0315812,12.0578092 L10.0315812,14.4971278 C10.0266009,14.5335344 10.0266009,14.5706004 10.0315812,14.607007 C10.0684351,14.809258 10.2469941,14.9403073 10.4303341,14.899652 C10.5641372,14.8699846 10.6687227,14.7546114 10.6956161,14.607007 L10.6956161,12.0578092 L11.359651,12.0578092 L11.359651,14.6216576 C11.3965049,14.8239086 11.5750639,14.9549579 11.7584039,14.9143026 C11.892207,14.8846352 11.9967925,14.769262 12.0236859,14.6216576 C12.0286661,14.5852509 12.0286661,14.548185 12.0236859,14.5117784 L12.0236859,12.0578092 L13.3517557,12.0578092 L12.0236859,7.80914616 L13.4447206,9.39140688 C13.5089327,9.47059317 13.6007024,9.51593666 13.6970538,9.51593666 C13.879929,9.50040706 14.0198412,9.32994777 14.0157906,9.12769676 C14.0173179,9.02975775 13.9839833,8.93504187 13.9228257,8.86398664 Z" id="Combined-Shape"></path>
        </g>
    </g>
</svg>