<?xml version="1.0" encoding="UTF-8" standalone="no"?>
<svg width="15px" height="15px" viewBox="0 0 15 15" version="1.1" xmlns="http://www.w3.org/2000/svg" xmlns:xlink="http://www.w3.org/1999/xlink">
    <!-- Generator: Sketch 41.2 (35397) - http://www.bohemiancoding.com/sketch -->
    <title>sport</title>
    <desc>Created with Sketch.</desc>
    <defs></defs>
    <g id="Page-1" stroke="none" stroke-width="1" fill="none" fill-rule="evenodd">
        <g id="sport" fill="#000000">
            <g transform="translate(2.000000, 0.000000)" id="Layer_1">
                <g>
                    <path d="M9,1.5 C9,2.3284 8.3284,3 7.5,3 C6.6716,3 6,2.3284 6,1.5 C6,0.6716 6.6716,0 7.5,0 C8.3284,0 9,0.6716 9,1.5 Z M9,11 C8.4477,11 8,11.4477 8,12 C8,12.5523 8.4477,13 9,13 C9.5523,13 10,12.5523 10,12 C10,11.4477 9.5523,11 9,11 Z M10.84,6.09 L8.93,4.18 L8.93,4.18 C8.8399,4.0675 8.7041,4.0014 8.56,4 L1.5,4 C1.2239,4 1,4.2239 1,4.5 C1,4.7761 1.2239,5 1.5,5 L4.2,5 L1,11.3 L1,11.3 C0.9862,11.366 0.9862,11.434 1,11.5 C0.942,11.7761 1.1189,12.047 1.395,12.105 C1.6711,12.163 1.942,11.9861 2,11.71 L2,11.71 L3,10 L5,10 L3.07,14.24 L3.07,14.24 C3.0228,14.3184 2.9986,14.4085 3,14.5 C2.9448,14.7761 3.1239,15.0448 3.4,15.1 C3.6761,15.1552 3.9448,14.9761 4,14.7 L4,14.7 L8.7,5.32 L10.14,6.8 C10.351,6.9782 10.6664,6.9516 10.8446,6.7407 C11.0037,6.5523 11.0018,6.2761 10.84,6.09 Z" id="Shape"></path>
                </g>
            </g>
        </g>
    </g>
</svg>