<?xml version="1.0" encoding="UTF-8" standalone="no"?>
<svg width="15px" height="15px" viewBox="0 0 15 15" version="1.1" xmlns="http://www.w3.org/2000/svg" xmlns:xlink="http://www.w3.org/1999/xlink">
    <!-- Generator: Sketch 41.2 (35397) - http://www.bohemiancoding.com/sketch -->
    <title>stripclub</title>
    <desc>Created with Sketch.</desc>
    <defs></defs>
    <g id="Page-1" stroke="none" stroke-width="1" fill="none" fill-rule="evenodd">
        <g id="stripclub" fill="#000000">
            <path d="M8,5 L10,5 L10,4 L8,4 L8,3 L7,3 L7,4 L5.99980749,4 C5.44371665,4 5,4.44724809 5,4.99895656 L5,6.00104344 C5,6.55733967 5.44713136,7 5.99869585,7 L7,7 L7,8 L5,8 L5,9 L7,9 L7,10 L8,10 L8,9 L9.49121523,9 C10.0499119,9 10.5,8.55275191 10.5,8.00104344 L10.5,6.99895656 C10.5,6.44266033 10.0528686,6 9.50130415,6 L8,6 L8,5 Z M7,5 L6,5 L6,6 L7,6 L7,5 Z M8,8 L9.5,8 L9.5,7 L8,7 L8,8 Z M13.9062897,6.75 C12.7366133,9 9.60747923,12.06 7.83796889,13.69 C7.64772154,13.8618 7.3584016,13.8618 7.16815424,13.69 C5.38864667,12.06 2.25951257,9 1.08983624,6.75 C-1.47945278,1.8 4.99875456,-1.95 7.49806295,3 C9.99737134,-1.95 16.4755787,1.8 13.9062897,6.75 Z" id="Combined-Shape"></path>
        </g>
    </g>
</svg>