<?xml version="1.0" encoding="UTF-8" standalone="no"?>
<svg width="15px" height="15px" viewBox="0 0 15 15" version="1.1" xmlns="http://www.w3.org/2000/svg" xmlns:xlink="http://www.w3.org/1999/xlink">
    <!-- Generator: Sketch 41.2 (35397) - http://www.bohemiancoding.com/sketch -->
    <title>subway_station</title>
    <desc>Created with Sketch.</desc>
    <defs></defs>
    <g id="Page-1" stroke="none" stroke-width="1" fill="none" fill-rule="evenodd">
        <g id="subway_station" fill="#000000">
            <path d="M7.5,19 C11.6421356,19 15,14.7467051 15,9.5 C15,4.25329488 11.6421356,0 7.5,0 C3.35786438,0 0,4.25329488 0,9.5 C0,14.7467051 3.35786438,19 7.5,19 Z M7.5,18 C11.0898509,18 14,14.1944204 14,9.5 C14,4.80557963 11.0898509,1 7.5,1 C3.91014913,1 1,4.80557963 1,9.5 C1,14.1944204 3.91014913,18 7.5,18 Z M6,4 C4.6364,4 3,4.7433 3,6.7461 L3,9.1992 L3,12.0013845 C3,12.5529046 3.40472984,13.2023649 3.89470506,13.4473525 L5,14 L5,15 L6,15 L6,14 L9,14 L9,15 L10,15 L10,14 L11.1052949,13.4473525 C11.5994269,13.2002865 12,12.5502349 12,11.9952028 L12,6.7461 C12,4.7006 10.764,4 9.4004,4 L6,4 Z M5,6 L10,6 C11,6 11,6.9668 11,6.9668 L11,9 C11,9 11,10 10,10 L5,10 C4,10 4,9 4,9 L4,7 C4,7 4,6 5,6 Z M5.5,11 C5.77615,11 6,11.22385 6,11.5 C6,11.77615 5.77615,12 5.5,12 C5.22385,12 5,11.77615 5,11.5 C5,11.22385 5.22385,11 5.5,11 Z M9.5,11 C9.77615,11 10,11.22385 10,11.5 C10,11.77615 9.77615,12 9.5,12 C9.22385,12 9,11.77615 9,11.5 C9,11.22385 9.22385,11 9.5,11 Z" id="path8043"></path>
        </g>
    </g>
</svg>