<?xml version="1.0" encoding="UTF-8" standalone="no"?>
<svg width="15px" height="15px" viewBox="0 0 15 15" version="1.1" xmlns="http://www.w3.org/2000/svg" xmlns:xlink="http://www.w3.org/1999/xlink">
    <!-- Generator: Sketch 41.2 (35397) - http://www.bohemiancoding.com/sketch -->
    <title>supermarket</title>
    <desc>Created with Sketch.</desc>
    <defs></defs>
    <g id="Page-1" stroke="none" stroke-width="1" fill="none" fill-rule="evenodd">
        <g id="supermarket" fill="#000000">
            <g transform="translate(1.000000, 0.000000)" id="svg4619">
                <g>
                    <g id="g3">
                        <path d="M12.199219,0.5 C12.199219,0.5 10.808806,0.4588 10.253906,1 C9.720406,1.5202 9.5,1.9177 9.5,3 L0.1992188,3 L1.59375,7.8144531 C1.59725,7.8217531 1.6036219,7.8287375 1.6074219,7.8359375 C1.8418219,8.4932375 2.4545469,8.9666406 3.1855469,8.9941406 C3.1885469,8.9954406 3.1992187,9 3.1992188,9 L9.699219,9 L9.699219,9.199219 C9.699219,9.199219 9.7,9.500391 9.5,9.900391 C9.3,10.300391 9.200391,10.5 8.4003906,10.5 L1.9003906,10.5 C0.9003906,10.5 0.9003906,12 1.9003906,12 L3.0996094,12 L3.1992188,12 L8.0996094,12 L8.1992188,12 L8.3007812,12 C9.500781,12 10.399219,11.299609 10.699219,10.599609 C10.999219,9.899609 11,9.300781 11,9.300781 L11,9 L11,3 C11,2.4764 11.228619,2 11.699219,2 L12.25,2 C12.6642,2 13,1.6642 13,1.25 C13,0.8358 12.6642,0.5 12.25,0.5 L12.199219,0.5 Z M8.1992188,12 C7.5992188,12 7.1992188,12.4 7.1992188,13 C7.1992188,13.6 7.5992187,14 8.1992188,14 C8.7992187,14 9.199219,13.6 9.199219,13 C9.199219,12.4 8.7992188,12 8.1992188,12 Z M3.1992188,12 C2.5992188,12 2.1992188,12.4 2.1992188,13 C2.1992188,13.6 2.5992187,14 3.1992188,14 C3.7992188,14 4.1992188,13.6 4.1992188,13 C4.1992188,12.4 3.7992187,12 3.1992188,12 Z" id="path5"></path>
                    </g>
                </g>
            </g>
        </g>
    </g>
</svg>