<?xml version="1.0" encoding="UTF-8" standalone="no"?>
<svg width="15px" height="15px" viewBox="0 0 15 15" version="1.1" xmlns="http://www.w3.org/2000/svg" xmlns:xlink="http://www.w3.org/1999/xlink">
    <!-- Generator: Sketch 41.2 (35397) - http://www.bohemiancoding.com/sketch -->
    <title>toilets</title>
    <desc>Created with Sketch.</desc>
    <defs></defs>
    <g id="Page-1" stroke="none" stroke-width="1" fill="none" fill-rule="evenodd">
        <g id="toilets" fill="#000000">
            <path d="M4.55944939,3 C3.73104939,3 3.05944939,2.3284 3.05944939,1.5 C3.05944939,0.6716 3.73104939,0 4.55944939,0 C5.38784939,0 6.05944939,0.6716 6.05944939,1.5 C6.05944939,2.3284 5.38784939,3 4.55944939,3 Z M14.0594494,1.5 C14.0594494,0.6716 13.3878494,0 12.5594494,0 C11.7310494,0 11.0594494,0.6716 11.0594494,1.5 C11.0594494,2.3284 11.7310494,3 12.5594494,3 C13.3878494,3 14.0594494,2.3284 14.0594494,1.5 Z M8.91944939,6.64 L8.91944939,6.64 L6.43944939,4.15 L6.43944939,4.15 C6.33924939,4.0492 6.20144939,3.9949 6.05944939,4 L3.05944939,4 C2.92914939,4.0003 2.80394939,4.0503 2.70944939,4.14 L2.70944939,4.14 L0.199449388,6.63 C-0.0266506115,6.807 -0.0664506115,7.1339 0.110549388,7.36 C0.287549388,7.5861 0.614449388,7.6259 0.840549388,7.4489 C0.873649388,7.423 0.903549388,7.3931 0.929449388,7.36 L3.05944939,5.2 L1.05944939,11 L3.05944939,11 L3.05944939,14.33 C3.05194939,14.3797 3.05194939,14.4303 3.05944939,14.48 C3.11494939,14.7561 3.38384939,14.935 3.65994939,14.8795 C3.86144939,14.839 4.01894939,14.6815 4.05944939,14.48 L4.05944939,14.48 L4.05944939,11 L5.05944939,11 L5.05944939,14.5 L5.05944939,14.5 C5.11494939,14.7761 5.38384939,14.955 5.65994939,14.8995 C5.86144939,14.859 6.01894939,14.7015 6.05944939,14.5 C6.06694939,14.4503 6.06694939,14.3997 6.05944939,14.35 L6.05944939,11 L8.05944939,11 L6.05944939,5.2 L8.19944939,7.36 L8.19944939,7.36 C8.29614939,7.4681 8.43434939,7.53 8.57944939,7.53 C8.85484939,7.5088 9.06554939,7.2761 9.05944939,7 C9.06174939,6.8663 9.01154939,6.737 8.91944939,6.64 Z M14.5594494,4 L10.5594494,4 C10.2833494,4 10.0594494,4.2239 10.0594494,4.5 L10.0594494,9.5 C10.0594494,9.7761 10.2833494,10 10.5594494,10 C10.8355494,10 11.0594494,9.7761 11.0594494,9.5 L11.0594494,14.5 C11.0594494,14.7761 11.2833494,15 11.5594494,15 C11.8355494,15 12.0594494,14.7761 12.0594494,14.5 L12.0594494,9.5 L13.0594494,9.5 L13.0594494,14.5 C13.0594494,14.7761 13.2833494,15 13.5594494,15 C13.8355494,15 14.0594494,14.7761 14.0594494,14.5 L14.0594494,9.5 C14.0594494,9.7761 14.2833494,10 14.5594494,10 C14.8355494,10 15.0594494,9.7761 15.0594494,9.5 L15.0594494,4.5 C15.0594494,4.2239 14.8355494,4 14.5594494,4 Z" id="Shape"></path>
        </g>
    </g>
</svg>