<?xml version="1.0" encoding="UTF-8" standalone="no"?>
<svg width="15px" height="15px" viewBox="0 0 15 15" version="1.1" xmlns="http://www.w3.org/2000/svg" xmlns:xlink="http://www.w3.org/1999/xlink">
    <!-- Generator: Sketch 41.2 (35397) - http://www.bohemiancoding.com/sketch -->
    <title>townhall</title>
    <desc>Created with Sketch.</desc>
    <defs></defs>
    <g id="Page-1" stroke="none" stroke-width="1" fill="none" fill-rule="evenodd">
        <g id="townhall" fill="#000000">
            <path d="M12.5,13 L12,13 L12,12.5 C12,12.2 11.8,12 11.5,12 L11,12 L11,7 L12,7 L13,5 C12,5.1 11,5.1 10,5 C9.2,4.4 8.6,3.8 8,3 L8,2.5 C8,2.2 7.8,2 7.5,2 C7.2,2 7,2.2 7,2.5 L7,3 C6.4,3.8 5.8,4.4 5,5 C4,5.1 3,5.1 2,5 L3,7 L4,7 L4,12 L3.5,12 C3.2,12 3,12.2 3,12.5 L3,13 L2.5,13 C2.2,13 2,13.2 2,13.5 L2,14 L13,14 L13,13.5 C13,13.2 12.8,13 12.5,13 Z M7,12 L5,12 L5,7 L7,7 L7,12 Z M10,12 L8,12 L8,7 L10,7 L10,12 Z" id="Shape"></path>
        </g>
    </g>
</svg>