<?xml version="1.0" encoding="UTF-8" standalone="no"?>
<svg width="15px" height="15px" viewBox="0 0 15 15" version="1.1" xmlns="http://www.w3.org/2000/svg" xmlns:xlink="http://www.w3.org/1999/xlink">
    <!-- Generator: Sketch 41.2 (35397) - http://www.bohemiancoding.com/sketch -->
    <title>toys</title>
    <desc>Created with Sketch.</desc>
    <defs></defs>
    <g id="Page-1" stroke="none" stroke-width="1" fill="none" fill-rule="evenodd">
        <g id="toys" fill="#000000">
            <g id="gaming-15" transform="translate(0.000000, 2.000000)">
                <g id="Layer_1">
                    <path d="M13.1,10.5 C12.5,10.8 11.7,10.6 11.3,10 L10.2,8.6 L4.8,8.6 L3.7,10 L3.7,10 C3.2,10.7 2.3,10.8 1.6,10.3 C1.1,9.9 0.9,9.3 1,8.8 L1.7,5.1 L1.7,5.1 C1.9,3.9 3,3 4.2,3 L4.2,3 L7,3 L7,1.5 C7,0.7 7.6,0 8.4,0 L11.5,0 C11.8,0 12,0.2 12,0.5 C12,0.8 11.8,1 11.5,1 L8.5,1 C8.2,1 8,1.2 8,1.4 L8,1.5 L8,3 L10.8,3 L10.8,3 C12,3 13.1,3.9 13.3,5.1 L13.3,5.1 L14,8.8 L14,8.8 C14.1,9.5 13.8,10.2 13.1,10.5 Z M6,5.5 C6,4.7 5.3,4 4.5,4 C3.7,4 3,4.7 3,5.5 C3,6.3 3.7,7 4.5,7 C5.3,7 6,6.3 6,5.5 Z M12,5.5 C12,5.2 11.8,5 11.5,5 L11,5 L11,4.5 C11,4.2 10.8,4 10.5,4 C10.2,4 10,4.2 10,4.5 L10,5 L9.5,5 C9.2,5 9,5.2 9,5.5 C9,5.8 9.2,6 9.5,6 L10,6 L10,6.5 C10,6.8 10.2,7 10.5,7 C10.8,7 11,6.8 11,6.5 L11,6 L11.5,6 C11.8,6 12,5.8 12,5.5 Z" id="Shape"></path>
                </g>
            </g>
        </g>
    </g>
</svg>