<svg width="128" height="128" viewBox="0 0 128 128" fill="none" xmlns="http://www.w3.org/2000/svg">
<path fill-rule="evenodd" clip-rule="evenodd" d="M125.299 49.1347C124.719 49.3318 124.026 49.4577 123.393 49.6287C122.173 49.9555 120.881 50.3311 119.577 50.6069C118.282 50.8858 115.775 51.1549 114.263 51.2711C112.115 51.4345 108.284 52.0073 105.886 51.8318C104.337 51.7201 103.155 50.9353 102.776 49.7973C102.232 48.1691 103.457 46.6998 104.329 46.0109C104.648 45.7575 105.152 45.6301 105.177 45.1706C104.278 45.1616 103.944 45.7201 103.2 45.8715C103.355 45.5049 103.638 45.1976 103.906 44.8872C104.139 44.6158 104.645 44.3445 104.472 43.9052C103.951 43.9284 103.524 44.3272 103.059 44.6054C102.594 44.8835 102.095 45.2568 101.574 45.4502C100.138 45.9749 98.3109 45.5334 97.5443 44.747C96.8133 43.9929 96.3761 42.4921 96.2024 41.0986C95.895 38.6248 96.1208 36.7394 96.5551 34.4343C97.0112 32.0197 97.9604 29.8885 98.8863 28.1906C99.8053 26.5151 101.176 24.725 102.35 23.0698C102.833 22.3877 103.419 21.7445 103.267 21.105C103.209 20.8397 102.822 20.4236 102.35 20.4738C102.063 20.5046 101.39 21.3217 100.939 21.734C100.388 22.2437 99.9186 22.659 99.5229 22.9979C97.3888 24.8292 95.5839 25.9312 92.8819 27.0661C91.5505 27.6261 90.1761 28.2723 88.8523 28.4724C87.9763 28.5999 86.4757 28.6051 85.531 28.2618C84.9019 28.0317 84.3809 27.5077 84.0486 27.0661C83.3417 26.1433 82.7497 24.7715 82.6341 23.21C82.3411 19.3929 83.9089 15.9243 85.0364 13.2488C85.4502 12.2541 85.9728 11.2601 86.0234 10.2293C85.5061 10.2601 85.3505 10.8523 85.1081 11.2113C84.3288 12.3695 83.5056 13.407 82.7029 14.5097C81.7136 15.8666 80.4419 17.6515 78.8885 18.2976C78.094 18.6275 76.7128 18.5848 76.271 17.9461C75.7469 17.1897 76.0905 15.2369 76.1298 14.0172C76.163 12.955 76.2567 11.7893 76.1298 10.8613C76.1011 10.6401 76.1102 10.1791 75.7794 10.1589C75.5551 10.344 75.5982 10.6798 75.5657 10.9295C75.2659 13.1634 74.9034 15.0532 74.2925 16.8254C73.5849 18.8771 72.5344 20.5091 71.0407 21.8059C70.7265 22.0826 70.2644 22.3592 69.8392 22.6463C69.0765 23.1703 68.3054 23.6478 67.1561 23.6298C65.7703 23.0908 66.7392 20.2047 65.7416 19.2797C65.3361 20.6807 64.8618 22.3839 63.5516 22.8577C62.2399 23.3284 61.2702 22.4326 60.5105 21.6658C57.2655 18.3839 55.9001 11.9782 54.5061 7.0726C54.414 7.06885 54.4049 6.9834 54.2924 7.00289C54.2924 7.09434 54.1693 7.06586 54.1519 7.14457C54.2274 10.6514 54.633 15.0375 53.584 17.9461C53.2759 18.8074 52.5275 20.2617 51.6772 20.2617C50.5157 20.2617 50.6826 18.4378 49.5582 18.5098C48.6059 18.569 48.8815 19.7392 48.7796 20.8944C48.6716 22.1268 48.1362 23.0698 47.4384 24.0503C46.8773 24.8367 46.027 26.0249 44.9622 26.0856C43.8679 26.1471 42.8371 25.0609 41.7821 24.4701C42.0963 25.2355 42.5139 25.8974 42.4195 27.0661C41.8599 26.9889 41.687 26.5294 41.1463 26.4357C41.3124 27.1126 41.7111 27.5579 41.7821 28.33C40.8691 29.1524 39.3739 29.2566 37.8952 29.4545C36.3683 29.6531 34.759 29.5939 33.161 29.5939C30.6387 29.5939 28.3453 29.3015 26.8009 28.4724C26.2376 28.1688 25.8328 27.6621 25.2445 27.4897C25.3767 28.5527 26.122 29.3675 26.8009 30.1539C27.1325 30.5422 27.5342 30.9043 27.8604 31.2761C28.2041 31.6659 28.6043 32.0714 28.7085 32.5385C25.8962 31.6591 23.6458 30.1974 21.2164 29.0347C20.3986 28.6389 19.4787 28.1868 18.4623 28.2618C18.4343 28.7536 18.9894 28.8398 19.3088 29.0347C20.9831 30.0489 22.439 31.3413 23.5484 32.89C24.5044 34.2229 25.1516 35.4043 25.6712 37.0985C25.9128 37.8991 26.1998 38.9081 26.1643 39.6952C26.1137 40.7972 25.4424 42.0289 24.8911 42.5011C23.849 43.3984 21.8145 44.1398 20.0874 44.2553C18.3588 44.3715 16.6151 43.9929 15.2792 44.2553C15.6878 44.7343 16.3584 44.9772 16.9051 45.3752C17.4617 45.7883 18.053 46.1976 18.3913 46.7111C18.8746 47.4397 18.7779 48.912 18.3913 49.7276C18.0009 50.5455 16.85 51.5477 16.128 51.972C15.3215 52.4458 14.0672 52.8401 12.8053 53.1669C11.5909 53.4795 10.1923 53.7779 8.91912 53.8656C6.67322 54.0253 4.18114 54.0897 2.20711 54.008C1.78723 53.9893 1.27144 53.7667 1.0026 54.0755C0.964087 54.3986 1.36282 54.532 1.56974 54.6377C3.6865 55.7165 6.79254 55.6917 9.48399 56.1123C11.745 56.4653 14.2137 56.8626 16.2692 57.3739C17.0357 57.5658 17.8513 57.6235 18.3913 57.9354C18.7817 58.1618 19.3383 58.8259 19.3088 59.3394C19.2703 59.9751 18.3286 60.4571 17.6829 60.6018C16.819 60.7975 15.4008 60.6933 13.867 60.7405C11.4505 60.8155 9.27329 61.0314 8.00082 60.1798C8.1292 60.9624 8.96745 61.4909 9.62747 61.796C10.7036 62.2953 12.1913 62.6213 13.5144 63.0561C14.7982 63.4767 16.2927 64.0989 16.9051 64.8837C17.5387 65.6881 17.2812 67.3396 16.9051 68.2481C16.634 68.9093 16.0767 69.3471 15.7754 69.9325C15.3464 70.7616 15.2173 71.638 15.0663 72.8089C15.3351 72.8801 15.4627 72.5413 15.6349 72.3891C16.0608 72.0083 16.7646 71.5555 17.3325 71.4048C19.3979 70.8591 21.0639 71.7272 21.1447 73.5106C21.2413 75.5638 19.5882 76.7152 18.3913 77.5084C17.7199 77.9544 16.7609 78.3599 16.8349 79.4012C17.8053 80.3525 19.083 79.4439 20.0874 79.0534C21.1265 78.6433 22.3658 78.1875 23.4797 77.9289C23.9736 77.818 24.6396 77.6905 25.1743 77.719C26.1235 77.773 27.0011 78.9634 27.3658 79.6815C28.3687 81.6718 28.0779 85.6636 27.7192 87.9613C27.5992 88.7446 27.5221 89.5453 27.3658 90.2776C26.9233 92.3384 25.8864 94.4276 25.7392 96.4501C25.6938 97.0926 25.567 98.0319 26.0223 98.2785C26.3924 97.9884 26.4271 97.3797 26.5872 96.8699C26.7405 96.3872 26.8825 95.8827 27.1521 95.3984C27.6075 94.5896 28.238 93.5521 29.0612 93.2252C29.5362 93.0333 30.2883 92.8766 30.9015 93.0858C31.4891 93.2829 32.1785 94.1128 32.1733 94.9816C32.1672 95.3767 31.8478 96.0386 31.6764 96.6623C31.5268 97.217 31.3448 97.8362 31.2535 98.4157C31.0163 99.8827 30.8902 103.219 32.5244 102.978C33.1361 102.885 33.4472 101.803 33.7954 101.222C34.1548 100.626 34.7371 99.867 35.1388 99.5379C35.8064 98.9929 37.3341 98.7913 37.9685 99.5379C38.3385 99.9719 38.6293 101.138 38.815 102.063C39.0114 103.033 39.1934 104.109 39.3097 104.943C39.6352 107.246 39.4909 109.189 39.5921 111.324C39.7537 114.672 39.9652 117.609 39.3822 120.334C39.1722 121.298 38.7403 122.115 38.7441 123C39.5672 122.936 39.7824 121.978 40.0868 121.385C41.8659 117.919 42.4361 114.04 43.408 109.851C43.7056 108.563 44.4245 105.954 45.9507 106.202C47.1847 106.404 46.5934 108.55 48.143 108.518C49.2652 108.495 49.6299 106.902 49.8399 105.851C50.1147 104.476 50.7151 103.276 51.6772 102.766C53.3628 101.868 56.4416 101.908 57.2595 103.467C57.5623 104.045 57.7035 104.935 57.7549 105.712C57.8666 107.373 57.5034 109.249 57.6129 110.833C57.6846 111.839 58.109 112.723 58.6747 112.727C59.9607 112.737 59.6896 109.678 59.9464 108.727C60.2794 108.959 60.5256 109.922 60.583 110.623C60.7167 112.231 60.0861 116.745 61.7837 116.726C62.5397 116.716 62.8296 115.89 62.7715 114.902C62.7171 113.897 62.4203 113.265 62.3486 112.447C62.2942 111.818 62.3848 111.175 62.4203 110.695C62.4589 110.159 62.4151 109.476 62.5623 109.01C62.6779 108.633 63.242 107.923 63.6218 107.326C64.2834 106.277 65.1337 105.116 66.4485 105.922C67.5102 106.576 68.4527 109.007 69.2048 109.851C69.5537 110.241 70.4003 110.835 70.759 110.762C71.3193 110.651 71.5074 109.603 71.3956 108.727C71.2725 107.752 70.5883 106.798 70.617 105.995C70.6283 105.703 70.8458 105.057 71.0407 104.731C71.4062 104.118 72.835 103.31 73.9383 103.539C74.513 103.653 75.0001 104.324 75.2818 104.87C75.833 105.937 76.1374 107.421 76.626 108.658C76.9424 109.466 77.9498 111.518 78.9572 111.467C79.7524 111.422 79.9495 110.324 79.9465 109.641C79.945 108.468 79.3499 107.197 79.9465 106.132C81.339 106.741 82.1455 107.828 82.9868 108.939C83.412 109.502 83.8643 110.031 84.1875 110.623C84.6671 111.506 85.278 112.744 85.5997 113.708C85.9675 114.809 86.2696 116.691 87.3676 116.515C88.1522 116.388 88.3131 114.516 88.3569 113.007C88.452 109.664 88.0994 107.053 87.579 104.731C87.286 103.42 86.7574 102.362 86.66 101.081C86.5875 100.122 86.8405 99.268 87.5103 99.1863C88.8122 99.0311 88.4445 100.911 89.6301 100.802C90.8739 100.683 90.201 98.1308 90.1935 96.8699C90.1904 95.3407 90.9124 93.8722 91.6087 93.2252C91.9009 92.9486 92.2105 92.6038 92.8094 92.6615C93.6197 92.7439 93.6031 93.8504 94.4338 93.9951C95.309 93.5378 94.7895 92.0423 94.5063 91.3301C94.7713 91.3826 95.1278 91.4771 95.2841 91.2574C95.4827 90.5108 95.2547 89.9448 95.3559 89.2956C95.6179 87.5647 97.6674 85.516 99.4549 85.2971C100.876 85.1209 102.091 85.9035 102.986 86.3496C103.737 86.7229 104.687 87.4913 105.604 87.3293C106.674 87.1464 106.66 85.893 106.027 85.2971C105.555 84.848 104.666 84.8983 103.976 84.7356C103.455 84.6149 102.614 84.2003 102.068 83.8248C101.372 83.3383 100.545 82.7873 100.866 82.0691C101.57 81.7243 102.453 81.9612 103.267 82.0009C106.464 82.1479 109.091 81.7033 111.257 80.809C111.742 80.6043 112.452 80.5106 112.527 79.8929C111.156 80.2273 109.583 79.9237 108.429 79.6126C108.608 79.3007 109.163 79.357 109.065 78.7707C108.041 78.5713 106.44 78.5324 105.459 78.0728C104.996 77.8494 104.253 77.2018 103.624 76.737C102.905 76.2032 102.251 75.7175 101.925 75.1927C101.482 74.4746 101.202 73.1537 101.856 72.3201C102.232 71.8374 102.886 71.7886 103.411 71.3366C103.437 70.437 102.502 70.7669 102.634 70.0023C102.697 69.6304 103.071 69.7384 103.343 69.509C104.341 68.6649 103.243 67.979 102.423 67.6881C101.871 66.3643 102.569 65.6934 103.411 65.0906C104.453 64.3455 105.585 63.8552 106.803 63.4085C107.492 63.1551 108.295 63.0846 108.64 62.5681C107.112 62.9812 105.739 62.7165 105.39 61.5119C104.82 59.5531 106.826 58.4976 108.005 57.7959C110.136 56.5283 113.138 55.0958 115.576 54.2966C116.752 53.9106 120.019 52.5215 121.695 51.8011C123.158 51.1744 124.782 50.6534 126.007 49.8348C126.399 49.5762 126.891 49.2119 127 48.7149C126.41 48.4165 125.857 48.9465 125.299 49.1347ZM86.1518 60.0164L76.1508 69.8258L78.5138 83.6916C78.6969 84.7619 78.2465 85.8366 77.3479 86.4677C76.8496 86.8203 76.2595 86.9995 75.667 86.9995C75.1969 86.9995 74.7282 86.8867 74.2945 86.6612L62.0012 80.1559L49.7048 86.6612C48.7334 87.175 47.5485 87.0996 46.6515 86.4677C45.759 85.8366 45.3025 84.7619 45.484 83.6916L47.8485 69.8258L37.8475 60.0164C37.075 59.2575 36.8046 58.1365 37.1442 57.1162C37.4882 56.0945 38.3845 55.3566 39.4638 55.1953L53.2299 53.1824L59.4005 40.608C59.8805 39.6221 60.8923 39 62.0012 39C63.1109 39 64.1226 39.6221 64.6011 40.608L70.7717 53.1824L84.5348 55.1953C85.6171 55.3566 86.5119 56.0945 86.8537 57.1162C87.1962 58.1365 86.9273 59.2575 86.1518 60.0164ZM66.758 55.6043L62.0008 46L57.2405 55.6043C56.774 56.5484 55.8592 57.2056 54.7945 57.3575L44 58.9233L51.86 66.558C52.6035 67.2782 52.9437 68.3097 52.7709 69.3175L50.9315 80L60.4589 75.013C60.9444 74.7595 61.4711 74.6336 62.0008 74.6336C62.5282 74.6336 63.0601 74.7595 63.5396 75.013L73.0723 80L71.2314 69.3175C71.0563 68.3097 71.3957 67.2782 72.1385 66.558L80 58.9233L69.2062 57.3575C68.1438 57.2056 67.2268 56.5484 66.758 55.6043Z" fill="#D51030"/>
</svg>
