<?xml version="1.0" encoding="UTF-8"?>
<svg width="27px" height="27px" viewBox="0 0 27 27" version="1.1" xmlns="http://www.w3.org/2000/svg" xmlns:xlink="http://www.w3.org/1999/xlink">
    <!-- Generator: Sketch 48.2 (47327) - http://www.bohemiancoding.com/sketch -->
    <title>elevator-big-broken</title>
    <desc>Created with Sketch.</desc>
    <defs></defs>
    <g id="Page-1" stroke="none" stroke-width="1" fill="none" fill-rule="evenodd">
        <g id="elevator-big-broken">
            <g id="elevator-broken" transform="translate(1.500000, 1.270457)">
                <path d="M2.46852104,2.49334128 L2.46852104,21.5841148 L12.9448053,21.5841148 L12.9448053,2.49334128 L2.46852104,2.49334128 Z M2.46852104,1.02482024 L12.9448053,1.02482024 C13.7558471,1.02482024 14.4133264,1.68229951 14.4133264,2.49334128 L14.4133264,21.5841148 C14.4133264,22.3951566 13.7558471,23.0526358 12.9448053,23.0526358 L2.46852104,23.0526358 C1.65747926,23.0526358 1,22.3951566 1,21.5841148 L1,2.49334128 C1,1.68229951 1.65747926,1.02482024 2.46852104,1.02482024 Z" id="Cabin" fill="#000000" fill-rule="nonzero"></path>
                <g id="Buttons" transform="translate(15.595441, 6.164644)" fill="#000000">
                    <path d="M6.40921731,4.26122558 C6.64073638,4.4873779 7.00874753,4.48414361 7.23634572,4.2539563 C7.46394392,4.02376899 7.46714184,3.65157142 7.24353325,3.41741864 L4.08446146,0.234344915 C4.02911323,0.178225367 3.95396079,0.146685796 3.87558746,0.146685796 C3.79721412,0.146685796 3.72206168,0.178225367 3.66671345,0.234344915 L0.508821743,3.41741864 C0.285213149,3.65157142 0.288411066,4.02376899 0.516009266,4.2539563 C0.743607465,4.48414361 1.11161861,4.4873779 1.34313768,4.26122558 L3.87558746,1.672255 L6.40921731,4.26122558 Z" id="Arrow"></path>
                    <path d="M6.40921731,11.2558388 C6.64073638,11.4819911 7.00874753,11.4787568 7.23634572,11.2485695 C7.46394392,11.0183822 7.46714184,10.6461846 7.24353325,10.4120318 L4.08446146,7.22895812 C4.02911323,7.17283857 3.95396079,7.141299 3.87558746,7.141299 C3.79721412,7.141299 3.72206168,7.17283857 3.66671345,7.22895812 L0.508821743,10.4120318 C0.285213149,10.6461846 0.288411066,11.0183822 0.516009266,11.2485695 C0.743607465,11.4787568 1.11161861,11.4819911 1.34313768,11.2558388 L3.87558746,8.6668682 L6.40921731,11.2558388 Z" id="Arrow" transform="translate(3.876177, 9.282327) rotate(-180.000000) translate(-3.876177, -9.282327) "></path>
                </g>
                <path d="M9.87698441,19.5539558 L9.87698441,11.1034366 C9.87698441,10.0572893 8.89247836,9.20927177 7.6779537,9.20927177 C6.46342903,9.20927177 5.47892298,10.0572893 5.47892298,11.1034366 L5.47892298,19.5539558 L6.87408415,19.5539558 L6.87408415,16.785931 L8.34260519,16.785931 L8.34260519,19.5539558 L9.87698441,19.5539558 Z M7.6779537,4.11148375 C8.87642107,4.11148375 9.84791092,5.0829736 9.84791092,6.28144097 C9.84791092,7.47990834 8.87642107,8.45139819 7.6779537,8.45139819 C6.47948632,8.45139819 5.50799648,7.47990834 5.50799648,6.28144097 C5.50799648,5.0829736 6.47948632,4.11148375 7.6779537,4.11148375 Z" id="Shape" fill="#000000" fill-rule="nonzero"></path>
                <rect id="strike-through" fill-opacity="0.800000012" fill="#F54B4B" transform="translate(7.735098, 12.016646) rotate(-329.000000) translate(-7.735098, -12.016646) " x="6.61650933" y="-1.0645277" width="2.23717722" height="26.1623465"></rect>
            </g>
            <rect id="sign-border" stroke-opacity="0.172356205" stroke="#000000" x="0.5" y="0.5" width="26" height="26" rx="2"></rect>
        </g>
    </g>
</svg>