<?xml version="1.0" encoding="UTF-8"?>
<svg width="27px" height="27px" viewBox="0 0 27 27" version="1.1" xmlns="http://www.w3.org/2000/svg" xmlns:xlink="http://www.w3.org/1999/xlink">
    <!-- Generator: Sketch 48.2 (47327) - http://www.bohemiancoding.com/sketch -->
    
    <desc>Created with Sketch.</desc>
    <defs></defs>
    <g id="Page-1" stroke="none" stroke-width="1" fill="none" fill-rule="evenodd">
        <g id="elevatorBrokenBig">
            <g id="elevator-broken" transform="translate(0.500000, 0.270457)">
                <path d="M3.46852104,3.49334128 L3.46852104,22.5841148 L13.9448053,22.5841148 L13.9448053,3.49334128 L3.46852104,3.49334128 Z M3.46852104,2.02482024 L13.9448053,2.02482024 C14.7558471,2.02482024 15.4133264,2.68229951 15.4133264,3.49334128 L15.4133264,22.5841148 C15.4133264,23.3951566 14.7558471,24.0526358 13.9448053,24.0526358 L3.46852104,24.0526358 C2.65747926,24.0526358 2,23.3951566 2,22.5841148 L2,3.49334128 C2,2.68229951 2.65747926,2.02482024 3.46852104,2.02482024 Z" id="Cabin" fill="#000000" fill-rule="nonzero"></path>
                <g id="Buttons" transform="translate(16.595441, 7.164644)" fill="#000000">
                    <path d="M6.40921731,4.26122558 C6.64073638,4.4873779 7.00874753,4.48414361 7.23634572,4.2539563 C7.46394392,4.02376899 7.46714184,3.65157142 7.24353325,3.41741864 L4.08446146,0.234344915 C4.02911323,0.178225367 3.95396079,0.146685796 3.87558746,0.146685796 C3.79721412,0.146685796 3.72206168,0.178225367 3.66671345,0.234344915 L0.508821743,3.41741864 C0.285213149,3.65157142 0.288411066,4.02376899 0.516009266,4.2539563 C0.743607465,4.48414361 1.11161861,4.4873779 1.34313768,4.26122558 L3.87558746,1.672255 L6.40921731,4.26122558 Z" id="Arrow"></path>
                    <path d="M6.40921731,11.2558388 C6.64073638,11.4819911 7.00874753,11.4787568 7.23634572,11.2485695 C7.46394392,11.0183822 7.46714184,10.6461846 7.24353325,10.4120318 L4.08446146,7.22895812 C4.02911323,7.17283857 3.95396079,7.141299 3.87558746,7.141299 C3.79721412,7.141299 3.72206168,7.17283857 3.66671345,7.22895812 L0.508821743,10.4120318 C0.285213149,10.6461846 0.288411066,11.0183822 0.516009266,11.2485695 C0.743607465,11.4787568 1.11161861,11.4819911 1.34313768,11.2558388 L3.87558746,8.6668682 L6.40921731,11.2558388 Z" id="Arrow" transform="translate(3.876177, 9.282327) rotate(-180.000000) translate(-3.876177, -9.282327) "></path>
                </g>
                <path d="M10.8769844,20.5539558 L10.8769844,12.1034366 C10.8769844,11.0572893 9.89247836,10.2092718 8.6779537,10.2092718 C7.46342903,10.2092718 6.47892298,11.0572893 6.47892298,12.1034366 L6.47892298,20.5539558 L7.87408415,20.5539558 L7.87408415,17.785931 L9.34260519,17.785931 L9.34260519,20.5539558 L10.8769844,20.5539558 Z M8.6779537,5.11148375 C9.87642107,5.11148375 10.8479109,6.0829736 10.8479109,7.28144097 C10.8479109,8.47990834 9.87642107,9.45139819 8.6779537,9.45139819 C7.47948632,9.45139819 6.50799648,8.47990834 6.50799648,7.28144097 C6.50799648,6.0829736 7.47948632,5.11148375 8.6779537,5.11148375 Z" id="Shape" fill="#000000" fill-rule="nonzero"></path>
                <rect id="strike-through" fill-opacity="0.9" fill="#F54B4B" transform="translate(8.735098, 13.016646) rotate(-329.000000) translate(-8.735098, -13.016646) " x="6.82500913" y="-0.0645277006" width="3.82017762" height="26.1623465"></rect>
            </g>
        </g>
    </g>
</svg>