<?xml version="1.0" encoding="UTF-8" standalone="no"?>
<svg xmlns="http://www.w3.org/2000/svg" xmlns:svg="http://www.w3.org/2000/svg" id="svg3090" width="663.53796" height="140.36389" version="1.1">
   <defs id="defs3092"/>
   <g id="layer1" transform="translate(-18.231015,-462.18027)">
      <path id="path44" d="m 676.76899,555.78846 -5.2065,0 -28.263,-32.54175 0,32.54175 -5.7015,0 0,-42.27135 4.833,0 28.6365,32.72295 0,-32.72295 5.7015,0 0,42.27135 m -52.314,-36.81915 -17.9115,0 0,12.76755 17.2935,0 0,5.45685 -17.2935,0 0,13.1385 18.471,0 0,5.45625 -24.546,0 0,-42.27135 23.9865,0 0,5.4522 m -69.513,31.3629 9.669,0 c 13.7595,0 16.92,-10.476 16.92,-15.68145 0,-8.4903 -5.3925,-15.68145 -17.229,-15.68145 l -9.36,0 0,31.3629 z m -6.0735,-36.8151 16.4235,0 c 15.6195,0 22.4985,11.1546 22.4985,21.13365 0,10.8468 -8.49,21.1377 -22.4355,21.1377 l -16.4865,0 0,-42.27135 m -30.618,36.8151 19.089,0 0,5.45625 -25.1655,0 0,-42.27135 6.0765,0 0,36.8151 m -19.218,-31.3629 -17.9115,0 0,12.76755 17.292,0 0,5.45685 -17.292,0 0,13.1385 18.4695,0 0,5.45625 -24.543,0 0,-42.27135 23.985,0 0,5.4522 m -39.546,36.81915 -6.072,0 0,-18.40965 -23.6775,0 0,18.40965 -6.0735,0 0,-42.27135 6.0735,0 0,18.40605 23.6775,0 0,-18.40605 6.072,0 0,42.27135 m -65.1405,-5.45625 19.089,0 0,5.45625 -25.164,0 0,-42.27135 6.075,0 0,36.8151 m -41.838,-12.45765 13.1385,0 -6.8145,-15.3099 -6.324,15.3099 z m 27.456,17.9139 -6.198,0 -5.6385,-12.45765 -17.976,0 -5.3295,12.45765 -6.198,0 18.162,-42.52095 4.275,0 18.903,42.52095 m -58.3245,0 6.075,0 0,-42.27135 -6.075,0 0,42.27135 z m -48.2835,-36.81915 0,-5.4522 36.444,0 -26.8995,36.8151 26.8995,0 0,5.45625 -38.118,0 26.8995,-36.81915 -25.2255,0 m -31.2615,31.7988 c 9.4815,0 16.4865,-6.88065 16.4865,-16.1133 0,-9.2976 -7.005,-16.11735 -16.4865,-16.11735 -9.423,0 -16.4265,6.81975 -16.4265,16.11735 0,9.23265 7.0035,16.1133 16.4265,16.1133 z m 0,-37.8093 c 13.944,0 22.7445,9.91695 22.7445,21.696 0,11.4042 -8.553,21.6903 -22.8705,21.6903 -13.8225,0 -22.5615,-10.2258 -22.5615,-21.6903 0,-11.71695 8.988,-21.696 22.6875,-21.696 m -31.6125,9.85605 c -3.5955,-3.40965 -7.0665,-4.4004 -9.9165,-4.4004 -3.9045,0 -6.6945,2.04375 -6.6945,5.01975 0,8.121 18.2835,7.9968 18.2835,21.4458 0,6.63045 -5.0205,11.4651 -11.838,11.4651 -4.587,0 -8.3055,-1.2393 -11.838,-3.9024 l 0,-7.6875 c 3.099,3.9669 7.0035,6.1377 11.157,6.1377 4.71,0 6.879,-2.9736 6.879,-5.33085 0,-8.74035 -18.2835,-9.72945 -18.2835,-21.3228 0,-6.88005 5.082,-11.28045 12.8295,-11.28045 3.2235,0 6.4455,0.99195 9.4215,2.97585 l 0,6.8802" style="fill:#646567;fill-opacity:1;fill-rule:nonzero;stroke:none"/>
      <path id="path46" d="m 161.89699,514.53201 c -0.6465,0.222 -1.4205,0.3633 -2.127,0.55545 -1.3605,0.36675 -2.802,0.7893 -4.257,1.0992 -1.4445,0.3129 -4.2405,0.6159 -5.928,0.74655 -2.397,0.1839 -6.6705,0.82725 -9.345,0.62985 -1.728,-0.1254 -3.048,-1.00725 -3.4695,-2.2857 -0.606,-1.83045 0.759,-3.48105 1.7325,-4.25565 0.3555,-0.28485 0.918,-0.4278 0.9465,-0.94455 -1.0035,-0.01 -1.377,0.61755 -2.2065,0.7875 0.174,-0.4119 0.489,-0.75705 0.7875,-1.10625 0.2595,-0.3042 0.825,-0.60945 0.6315,-1.1034 -0.5805,0.0258 -1.0575,0.4746 -1.575,0.7869 -0.5205,0.3123 -1.077,0.73245 -1.6575,0.9498 -1.6035,0.5895 -3.6405,0.0937 -4.4955,-0.79035 -0.816,-0.84735 -1.3035,-2.53425 -1.497,-4.0998 -0.3435,-2.78085 -0.0915,-4.8996 0.393,-7.4901 0.5085,-2.7135 1.5675,-5.1081 2.601,-7.01685 1.026,-1.8825 2.5545,-3.894 3.864,-5.7555 0.5385,-0.7665 1.1925,-1.488 1.023,-2.2065 -0.0645,-0.3 -0.4965,-0.7665 -1.023,-0.711 -0.321,0.0345 -1.071,0.9525 -1.5735,1.4175 -0.6165,0.573 -1.1385,1.0395 -1.581,1.4205 -2.3805,2.058 -4.3935,3.297 -7.4079,4.572 -1.48545,0.6285 -3.01875,1.356 -4.49535,1.5795 -0.9774,0.144 -2.6514,0.1485 -3.70545,-0.237 -0.7014,-0.258 -1.28325,-0.8475 -1.6536,-1.3425 -0.78855,-1.038 -1.449,-2.5785 -1.57785,-4.335 -0.327,-4.2885 1.422,-8.187 2.67945,-11.1945 0.4617,-1.1175 1.04475,-2.235 1.1016,-3.393 -0.5772,0.0345 -0.7506,0.7005 -1.02135,1.104 -0.86955,1.3005 -1.7877,2.4675 -2.6829,3.7065 -1.104,1.5255 -2.52255,3.531 -4.25565,4.257 -0.88605,0.3705 -2.427,0.3225 -2.91975,-0.396 -0.58545,-0.849 -0.2016,-3.0435 -0.15765,-4.4145 0.0369,-1.194 0.14175,-2.5035 0,-3.546 -0.0316,-0.249 -0.0217,-0.768 -0.39135,-0.7905 -0.24975,0.2085 -0.2016,0.5865 -0.2379,0.8655 -0.33465,2.511 -0.7389,4.635 -1.42095,6.627 -0.7887,2.3055 -1.9605,4.14 -3.627,5.598 -0.351,0.3105 -0.86595,0.621 -1.33995,0.9435 -0.850803,0.588 -1.711053,1.1265 -2.994153,1.1055 -1.54575,-0.606 -0.4647,-3.849 -1.5774,-4.8885 -0.4524,1.5735 -0.98145,3.4875 -2.44395,4.0215 -1.4625,0.528 -2.54415,-0.4785 -3.39195,-1.3395 -3.61995,-3.6885 -5.14275,-10.8885 -6.6984,-16.401 -0.1032,-0.002 -0.1131,-0.1005 -0.2379,-0.078 0,0.1035 -0.1377,0.0705 -0.15765,0.159 0.0843,3.9405 0.5367,8.8695 -0.63345,12.138 -0.34335,0.969 -1.17825,2.604 -2.12685,2.604 -1.29555,0 -1.10925,-2.0505 -2.3643,-1.9695 -1.0617,0.066 -0.75465,1.3815 -0.86835,2.679 -0.12075,1.386 -0.71775,2.445 -1.49655,3.5475 -0.6258,0.8835 -1.5744,2.22 -2.7621,2.2875 -1.221,0.069 -2.37075,-1.152 -3.5478,-1.8165 0.351,0.861 0.81675,1.605 0.7113,2.919 -0.624,-0.087 -0.81675,-0.6045 -1.42035,-0.7095 0.18525,0.7605 0.62985,1.2615 0.70905,2.1285 -1.01835,0.924 -2.6865,1.0425 -4.33545,1.2645 -1.70385,0.22335 -3.4992,0.1566 -5.2815,0.1566 -2.8143,0 -5.37315,-0.3291 -7.09575,-1.2606 -0.6282,-0.3405 -1.07985,-0.9105 -1.7361,-1.104 0.1476,1.194 0.97905,2.1105 1.7361,2.99385 0.36975,0.4365 0.81795,0.84375 1.18245,1.2615 0.3831,0.4383 0.82965,0.89415 0.9456,1.41855 -3.1371,-0.9885 -5.6472,-2.63145 -8.3577,-3.9384 -0.9123,-0.444 -1.9389,-0.9525 -3.07275,-0.8685 -0.03045,0.5535 0.5883,0.651 0.94455,0.8685 1.86735,1.14 3.49215,2.59245 4.72965,4.33335 1.0665,1.4976 1.7889,2.8254 2.36775,4.73025 0.27015,0.8994 0.5901,2.03325 0.5502,2.91735 -0.05565,1.2387 -0.80565,2.62275 -1.4196,3.1536 -1.1625,1.0089 -3.43305,1.84215 -5.35905,1.971 -1.92885,0.13125 -3.8736,-0.29415 -5.3643,0 0.45525,0.5391 1.2036,0.8115 1.8141,1.25925 0.62055,0.4641 1.28025,0.9234 1.65825,1.5012 0.5391,0.81915 0.43065,2.4738 0,3.39015 -0.4365,0.91935 -1.71975,2.04495 -2.5254,2.52195 -0.8994,0.53205 -2.2992,0.9762 -3.70665,1.34355 -1.35465,0.351 -2.9151,0.6861 -4.3353,0.7845 -2.5056,0.17985 -5.28585,0.2526 -7.4883,0.16005 -0.46875,-0.0206 -1.04355,-0.27075 -1.34295,0.0761 -0.0435,0.3633 0.40125,0.5127 0.6327,0.63165 2.36085,1.2123 5.826,1.18425 8.829,1.65705 2.5212,0.39735 5.2758,0.84315 7.56915,1.41795 0.85485,0.2157 1.76535,0.28065 2.36775,0.63165 0.4347,0.2538 1.05585,1.0008 1.023,1.578 -0.04275,0.7137 -1.09335,1.25505 -1.8135,1.41795 -0.9639,0.22035 -2.5464,0.10305 -4.25745,0.15585 -2.6958,0.0844 -5.1246,0.327 -6.5442,-0.62985 0.14355,0.87945 1.07865,1.473 1.81455,1.81575 1.2006,0.5613 2.8605,0.9282 4.3365,1.4163 1.43265,0.4728 3.099,1.1724 3.78285,2.05425 0.70665,0.90345 0.41895,2.7603 0,3.78105 -0.30285,0.74295 -0.924,1.2351 -1.2609,1.89255 -0.4782,0.93225 -0.62235,1.91715 -0.7905,3.23265 0.3,0.0809 0.4425,-0.3006 0.63405,-0.47175 0.4752,-0.42825 1.2609,-0.9369 1.89375,-1.10625 2.30385,-0.61275 4.1625,0.3627 4.25325,2.3667 0.10785,2.30805 -1.7367,3.6018 -3.0714,4.49295 -0.75,0.501 -1.81935,0.95685 -1.7367,2.127 1.0821,1.06935 2.5083,0.0486 3.62865,-0.3909 1.15905,-0.4605 2.54115,-0.9726 3.78405,-1.2633 0.55125,-0.1254 1.29375,-0.26835 1.89075,-0.2355 1.05825,0.0597 2.0379,1.3974 2.44455,2.20485 1.11855,2.2371 0.79455,6.72315 0.39435,9.30525 -0.13425,0.8802 -0.21975,1.7802 -0.39435,2.6034 -0.49335,2.31555 -1.6506,4.6635 -1.8147,6.9363 -0.051,0.7224 -0.19215,1.7778 0.3159,2.05485 0.4125,-0.3258 0.45165,-1.0101 0.62985,-1.58265 0.17175,-0.54255 0.32985,-1.1097 0.63045,-1.65405 0.50865,-0.9087 1.2117,-2.0748 2.12925,-2.44215 0.5304,-0.2157 1.36995,-0.39195 2.0532,-0.15645 0.65565,0.2214 1.4244,1.15365 1.41915,2.13045 -0.007,0.44355 -0.3633,1.1877 -0.55425,1.8885 -0.1671,0.6234 -0.37035,1.31955 -0.47175,1.97055 -0.2649,1.6488 -0.40545,5.3976 1.41795,5.12745 0.68205,-0.10485 1.02945,-1.32015 1.41735,-1.974 0.4008,-0.66915 1.0506,-1.5222 1.49895,-1.89195 0.7452,-0.6129 2.4492,-0.8391 3.15645,0 0.41295,0.4875 0.7371,1.7982 0.945,2.8371 0.21855,1.09035 0.42195,2.2998 0.5508,3.2367 0.3639,2.5893 0.2028,4.7724 0.3159,7.1718 0.17985,3.7623 0.41595,7.0623 -0.23385,10.1256 -0.2343,1.08345 -0.71655,2.001 -0.7125,2.99595 0.91815,-0.0726 1.15905,-1.1484 1.4982,-1.8147 1.98465,-3.8952 2.62095,-8.25525 3.70545,-12.9621 0.33165,-1.4484 1.13385,-4.37985 2.83665,-4.101 1.37565,0.2268 0.71595,2.6385 2.4456,2.6022 1.251,-0.0252 1.65825,-1.81515 1.89255,-2.9976 0.30645,-1.54395 0.9768,-2.89275 2.04975,-3.4665 1.88085,-1.0095 5.31495,-0.96375 6.22725,0.7875 0.3381,0.6498 0.49575,1.6506 0.5526,2.52315 0.1254,1.86735 -0.28065,3.9756 -0.15765,5.75505 0.07905,1.13145 0.5526,2.1246 1.18425,2.12865 1.4349,0.0111 1.1325,-3.426 1.41855,-4.49535 0.3708,0.26145 0.6456,1.3431 0.7107,2.1306 0.1488,1.8075 -0.55485,6.88065 1.3395,6.8589 0.84315,-0.0111 1.16595,-0.9387 1.10145,-2.049 -0.0609,-1.12965 -0.39195,-1.8399 -0.4722,-2.7597 -0.06045,-0.70725 0.04035,-1.4292 0.08025,-1.96935 0.04275,-0.6012 -0.0059,-1.36935 0.15825,-1.89375 0.12885,-0.42255 0.7581,-1.22175 1.1823,-1.8921 0.7383,-1.17825 1.68705,-2.4837 3.153,-1.57785 1.1847,0.7353 2.2359,3.46755 3.0756,4.41615 0.3891,0.4383 1.333653,1.10505 1.733253,1.0236 0.6252,-0.1248 0.8355,-1.30245 0.7101,-2.2875 -0.1371,-1.0956 -0.9006,-2.16735 -0.86835,-3.0708 0.0122,-0.3276 0.25485,-1.053 0.4728,-1.42035 0.40725,-0.6879 2.0016,-1.59615 3.23265,-1.3395 0.64095,0.129 1.18425,0.88305 1.4988,1.49655 0.6147,1.1988 0.9546,2.86695 1.4994,4.25685 0.3528,0.90825 1.4766,3.2139 2.6004,3.15645 0.8871,-0.0504 1.10685,-1.28445 1.104,-2.0514 -10e-4,-1.31895 -0.6657,-2.7468 0,-3.94335 1.55325,0.6843 2.45325,1.90545 3.39135,3.15405 0.4746,0.63285 0.97905,1.227 1.3395,1.8921 0.5349,0.99255 1.21695,2.3841 1.5756,3.46755 0.4101,1.2381 0.747,3.35205 1.9722,3.15465 0.8754,-0.14235 1.05465,-2.24655 1.1034,-3.94275 0.1065,-3.75645 -0.28725,-6.6909 -0.8673,-9.3012 -0.32685,-1.473 -0.91695,-2.6619 -1.0254,-4.101 -0.0809,-1.07805 0.201,-2.0379 0.94875,-2.12985 1.45185,-0.174 1.04175,1.9389 2.36475,1.81575 1.3875,-0.1329 0.6369,-3.00165 0.6282,-4.41855 -0.004,-1.719 0.80205,-3.369 1.57905,-4.0962 0.3258,-0.3111 0.67155,-0.6984 1.3395,-0.63345 0.90345,0.0925 0.8853,1.3359 1.8117,1.4988 0.97605,-0.51375 0.3972,-2.1948 0.0809,-2.9952 0.29595,0.0591 0.6942,0.16515 0.8682,-0.0814 0.222,-0.8391 -0.033,-1.4754 0.0795,-2.205 0.2925,-1.9452 2.5785,-4.2474 4.5735,-4.49355 1.5855,-0.198 2.9415,0.68145 3.939,1.18245 0.837,0.42015 1.8975,1.28325 2.9205,1.1016 1.194,-0.20565 1.1775,-1.6143 0.4725,-2.28405 -0.5265,-0.50445 -1.518,-0.4482 -2.289,-0.63105 -0.5805,-0.1359 -1.5195,-0.60165 -2.1285,-1.0236 -0.777,-0.5466 -1.6995,-1.16595 -1.3395,-1.9728 0.7845,-0.3873 1.7685,-0.12195 2.6775,-0.0768 3.567,0.1653 6.4965,-0.3345 8.913,-1.3395 0.5415,-0.23025 1.3335,-0.3357 1.4175,-1.03005 -1.53,0.3756 -3.285,0.0347 -4.572,-0.31455 0.1995,-0.3504 0.819,-0.2877 0.7095,-0.94575 -1.1415,-0.2244 -2.928,-0.26835 -4.023,-0.78465 -0.516,-0.25065 -1.3455,-0.97845 -2.0475,-1.50165 -0.801,-0.5994 -1.5315,-1.14615 -1.8945,-1.73505 -0.495,-0.80685 -0.807,-2.29215 -0.0765,-3.22845 0.42,-0.54255 1.149,-0.59775 1.734,-1.10565 0.0285,-1.01085 -1.014,-0.6399 -0.8655,-1.4988 0.069,-0.4179 0.4875,-0.29655 0.789,-0.555 1.1145,-0.9486 -0.111,-1.71915 -1.026,-2.046 -0.615,-1.4877 0.162,-2.2419 1.1025,-2.91975 1.1625,-0.8373 2.4255,-1.3881 3.7845,-1.8903 0.768,-0.2847 1.6635,-0.3633 2.049,-0.94455 -1.7055,0.4641 -3.237,0.1677 -3.6255,-1.1865 -0.636,-2.20125 1.602,-3.3879 2.9175,-4.17645 2.3775,-1.42455 5.7255,-3.03465 8.4465,-3.93225 1.311,-0.43425 4.956,-1.99515 6.825,-2.805 1.6335,-0.70425 3.444,-1.28955 4.8105,-2.2095 0.438,-0.2901 0.987,-0.6996 1.1085,-1.25865 -0.6585,-0.3351 -1.2765,0.26025 -1.8975,0.47175" style="fill:#cc162f;fill-opacity:1;fill-rule:nonzero;stroke:none"/>
      <path id="path48" d="m 117.82654,526.72191 -11.09295,11.06415 2.6214,15.6411 c 0.2028,1.20705 -0.2964,2.41935 -1.29315,3.13125 -0.5526,0.3978 -1.20705,0.6 -1.8651,0.6 -0.5208,0 -1.04055,-0.1272 -1.5216,-0.38205 l -13.634703,-7.3377 -13.6395,7.3377 c -1.0776,0.58005 -2.3913,0.49455 -3.3861,-0.21795 -0.9909,-0.7119 -1.49655,-1.9242 -1.29555,-3.13125 l 2.6232,-15.6411 -11.09295,-11.06415 c -0.85665,-0.85605 -1.15605,-2.12115 -0.77985,-3.27135 0.38145,-1.1526 1.3752,-1.9851 2.5728,-2.16735 l 15.26835,-2.26935 6.84435,-14.18445 c 0.53265,-1.1121 1.65465,-1.81395 2.88525,-1.81395 1.23045,0 2.35245,0.70185 2.8833,1.81395 l 6.843753,14.18445 15.2655,2.26935 c 1.2006,0.18225 2.19315,1.01475 2.5722,2.16735 0.37965,1.1502 0.0815,2.4153 -0.77865,3.27135" style="fill:#ffffff;fill-opacity:1;fill-rule:nonzero;stroke:none"/>
      <path id="path50" d="m 96.306187,521.67921 -5.26575,-10.92 -5.26995,10.92 c -0.5169,1.07355 -1.53,1.81995 -2.70825,1.9929 l -11.949,1.77945 8.7012,8.68065 c 0.8226,0.81915 1.1994,1.99155 1.0083,3.1377 l -2.0361,12.14415 10.54635,-5.66955 c 0.5373,-0.2883 1.1202,-0.43185 1.70745,-0.43185 0.5829,0 1.1724,0.14355 1.70265,0.43185 l 10.552803,5.66955 -2.0379,-12.14415 c -0.19395,-1.14615 0.18165,-2.31855 1.00425,-3.1377 l 8.703,-8.68065 -11.949153,-1.77945 c -1.17645,-0.17295 -2.19075,-0.91935 -2.7099,-1.9929" style="fill:#cc162f;fill-opacity:1;fill-rule:nonzero;stroke:none"/>
   </g>
</svg>
