<svg xmlns="http://www.w3.org/2000/svg" xmlns:xlink="http://www.w3.org/1999/xlink" width="91px" height="58px" viewBox="0 0 91 58" version="1.1">
<defs>
<linearGradient id="linear0" gradientUnits="userSpaceOnUse" x1="93.43" y1="297.38" x2="93.43" y2="27.02" gradientTransform="matrix(0.190632,0,0,0.190646,0,0.0132912)">
<stop offset="0" style="stop-color:rgb(92.156863%,84.313725%,43.137255%);stop-opacity:1;"/>
<stop offset="0.35" style="stop-color:rgb(98.039216%,66.666667%,56.862745%);stop-opacity:1;"/>
<stop offset="0.7" style="stop-color:rgb(62.745098%,47.058824%,70.588235%);stop-opacity:1;"/>
<stop offset="1" style="stop-color:rgb(0%,58.823529%,74.509804%);stop-opacity:1;"/>
</linearGradient>
</defs>
<g id="surface1">
<path style=" stroke:none;fill-rule:evenodd;fill:rgb(100%,100%,100%);fill-opacity:1;" d="M 32.789062 55.886719 C 32.011719 56.421875 31.09375 56.707031 30.152344 56.707031 L 5.5625 56.707031 C 4.621094 56.707031 3.703125 56.421875 2.925781 55.886719 C 2.140625 55.355469 1.527344 54.601562 1.175781 53.71875 C 0.890625 52.996094 0.773438 52.214844 0.835938 51.441406 C 0.894531 50.679688 1.144531 49.949219 1.5625 49.3125 L 8.371094 39.195312 L 8.386719 39.167969 C 9.554688 37.417969 10.519531 35.808594 11.210938 34.25 C 11.867188 32.835938 12.253906 31.316406 12.351562 29.761719 L 12.351562 20.300781 C 11.417969 19.667969 11.003906 18.496094 11.332031 17.414062 C 11.664062 16.335938 12.660156 15.597656 13.792969 15.597656 L 21.882812 15.597656 C 22.921875 15.597656 23.859375 16.222656 24.257812 17.183594 C 24.652344 18.140625 24.433594 19.246094 23.703125 19.980469 C 23.585938 20.097656 23.457031 20.203125 23.320312 20.292969 L 23.320312 29.753906 C 23.421875 31.308594 23.808594 32.828125 24.464844 34.242188 C 25.152344 35.800781 26.117188 37.410156 27.285156 39.160156 L 34.113281 49.304688 C 34.53125 49.9375 34.78125 50.671875 34.839844 51.429688 C 34.902344 52.207031 34.785156 52.984375 34.5 53.707031 C 34.160156 54.589844 33.5625 55.347656 32.789062 55.886719 Z M 32.789062 55.886719 "/>
<path style=" stroke:none;fill-rule:nonzero;fill:url(#linear0);" d="M 27.292969 51.992188 C 27.292969 51.992188 25.339844 52.476562 24.609375 52.816406 C 23.65625 53.265625 23.304688 53.582031 20.417969 53.4375 L 21.921875 52.957031 C 21.921875 52.957031 22.195312 52.886719 22.128906 52.679688 C 22.109375 52.625 22.070312 52.578125 22.019531 52.550781 C 21.96875 52.527344 21.90625 52.523438 21.851562 52.542969 C 21.851562 52.542969 20.613281 52.957031 19.582031 53.230469 C 19.582031 53.230469 18.90625 53.421875 17.589844 53.296875 C 16.964844 53.238281 15.058594 53.230469 15.058594 52.886719 C 15.058594 52.886719 15.265625 51.914062 16.640625 51.992188 C 17.484375 52.039062 18.703125 52.335938 20.011719 51.855469 C 20.011719 51.855469 23.929688 50.753906 24.96875 49.378906 C 24.4375 49.035156 23.796875 48.914062 23.179688 49.035156 C 23.179688 49.035156 20.363281 49.378906 20.363281 48.082031 C 20.363281 48.082031 20.429688 47.390625 22.628906 47.738281 C 22.628906 47.738281 23.523438 47.945312 25.109375 47.667969 C 25.109375 47.667969 27.445312 47.1875 29.234375 48.429688 C 29.234375 48.429688 30.46875 49.394531 34.113281 50.769531 L 34.820312 50.878906 C 34.707031 50.324219 34.488281 49.796875 34.175781 49.324219 L 27.34375 39.175781 C 26.175781 37.421875 25.210938 35.8125 24.519531 34.253906 C 23.863281 32.839844 23.476562 31.320312 23.378906 29.765625 L 23.378906 20.28125 C 24.3125 19.648438 24.726562 18.480469 24.394531 17.398438 C 24.066406 16.316406 23.066406 15.578125 21.9375 15.578125 L 13.8125 15.578125 C 12.777344 15.578125 11.839844 16.207031 11.441406 17.164062 C 11.046875 18.121094 11.261719 19.226562 11.996094 19.960938 C 12.109375 20.078125 12.238281 20.183594 12.375 20.273438 L 12.375 29.753906 C 12.277344 31.308594 11.886719 32.828125 11.230469 34.242188 C 10.921875 34.941406 10.558594 35.648438 10.144531 36.375 L 11.050781 36.421875 L 11.070312 36.535156 C 10.75 36.882812 10.609375 37.359375 10.695312 37.828125 C 10.78125 38.292969 11.078125 38.691406 11.503906 38.90625 L 11.503906 38.953125 C 10.457031 39.71875 8.136719 40.367188 7.441406 40.550781 L 1.5625 49.308594 C 1.144531 49.945312 0.890625 50.679688 0.835938 51.4375 C 0.773438 52.214844 0.886719 53 1.175781 53.726562 C 1.527344 54.605469 2.136719 55.359375 2.917969 55.894531 C 3.695312 56.429688 4.613281 56.714844 5.558594 56.714844 L 30.164062 56.714844 C 31.109375 56.714844 32.027344 56.429688 32.804688 55.894531 C 33.375 55.503906 33.851562 54.996094 34.207031 54.402344 C 32.835938 53.75 31.277344 53.03125 30.523438 52.757812 C 30.523438 52.75 28.667969 51.511719 27.292969 51.992188 Z M 15.328125 42.949219 C 15.328125 42.589844 15.621094 42.296875 15.984375 42.296875 C 16.34375 42.296875 16.636719 42.589844 16.636719 42.949219 C 16.636719 43.3125 16.34375 43.605469 15.984375 43.605469 C 15.621094 43.605469 15.328125 43.3125 15.328125 42.949219 Z M 17.042969 43.332031 C 17.113281 43.332031 17.730469 44.15625 17.730469 44.15625 C 17.9375 44.433594 17.871094 44.984375 17.871094 44.984375 C 17.730469 45.746094 17.25 45.601562 17.25 45.601562 C 17.042969 45.324219 15.945312 44.019531 15.945312 44.019531 C 16.738281 44.050781 16.980469 43.328125 17.046875 43.328125 Z M 17.289062 51.679688 C 17.289062 51.679688 16.667969 51.539062 16.464844 51.609375 C 16.464844 51.609375 15.433594 50.785156 15.433594 50.507812 C 15.433594 50.507812 15.226562 49.960938 16.121094 50.097656 C 16.523438 50.261719 16.894531 50.496094 17.21875 50.785156 C 17.410156 50.9375 17.410156 50.949219 18.113281 51.128906 C 18.433594 51.214844 19.351562 51.402344 19.351562 51.609375 C 19.351562 51.613281 18.59375 51.890625 17.289062 51.679688 Z M 19.726562 51.507812 C 19.15625 51.105469 18.53125 50.78125 17.875 50.542969 C 17.875 50.542969 16.566406 49.375 17.109375 48.894531 C 17.65625 48.414062 18.28125 49.511719 18.347656 49.582031 C 18.417969 49.648438 20.617188 50.957031 20.894531 51.09375 C 20.898438 51.105469 20.621094 51.375 19.726562 51.511719 Z M 20.621094 49.925781 C 20.828125 50.199219 22.410156 50.6875 22.410156 50.6875 C 22.34375 50.757812 21.3125 51.035156 21.3125 51.035156 C 21.3125 51.035156 21.242188 50.898438 20.546875 50.550781 C 20.054688 50.285156 19.59375 49.960938 19.171875 49.589844 C 18.761719 49.109375 19.652344 49.175781 19.652344 49.175781 C 20.140625 49.242188 20.621094 49.929688 20.621094 49.929688 Z M 21.574219 43.1875 C 21.371094 43.253906 21.234375 42.5 21.234375 42.5 C 21.195312 42.339844 21.171875 42.179688 21.164062 42.019531 C 21.371094 41.8125 22.058594 41.742188 22.058594 41.742188 C 22.195312 41.8125 22.46875 42.773438 22.46875 42.773438 C 22.546875 43.054688 21.585938 43.191406 21.585938 43.191406 Z M 22.402344 41.472656 C 22.402344 41.332031 22.675781 41.265625 22.8125 41.402344 C 22.949219 41.539062 23.574219 42.777344 23.574219 42.777344 C 23.644531 43.054688 23.027344 43.191406 23.027344 43.191406 C 23.03125 42.847656 22.410156 41.472656 22.410156 41.472656 Z M 22.605469 44.902344 C 22.605469 44.902344 22.125 45.175781 21.714844 44.140625 C 21.714844 44.140625 21.574219 43.453125 21.714844 43.453125 C 21.714844 43.453125 22.476562 43.382812 22.605469 43.175781 Z M 24.050781 46.070312 C 24.050781 46.070312 23.363281 46.207031 22.882812 45.382812 L 23.019531 43.667969 C 23.261719 43.527344 23.519531 43.410156 23.785156 43.320312 C 23.785156 43.320312 24.128906 45.667969 24.0625 46.078125 Z M 24.394531 45.246094 C 24.328125 44.351562 24.050781 42.976562 24.050781 42.976562 L 24.464844 42.703125 C 25.015625 43.800781 25.226562 45.382812 25.226562 45.382812 C 24.953125 45.527344 24.402344 45.253906 24.402344 45.253906 Z M 25.503906 41.191406 C 25.640625 41.191406 27.566406 43.253906 27.566406 43.253906 C 27.773438 43.667969 26.605469 43.601562 26.605469 43.601562 C 25.09375 43.1875 24.609375 42.222656 24.609375 42.222656 C 24.886719 42.019531 25.375 41.191406 25.375 41.191406 C 25.4375 41.058594 25.503906 41.191406 25.503906 41.191406 Z M 23.375 40.160156 C 23.375 40.160156 23.578125 39.816406 23.785156 39.957031 L 25.09375 40.78125 C 25.09375 40.78125 25.230469 40.988281 24.953125 41.125 L 24.542969 41.742188 C 24.542969 41.742188 24.40625 41.949219 24.265625 41.675781 L 23.3125 40.503906 C 23.3125 40.503906 23.167969 40.371094 23.375 40.164062 Z M 24.199219 42.222656 C 24.265625 42.429688 23.855469 42.570312 23.855469 42.570312 L 23.03125 40.988281 C 22.960938 40.917969 23.167969 40.847656 23.234375 40.917969 C 23.304688 40.988281 24.199219 42.226562 24.199219 42.226562 Z M 23.203125 39.578125 C 23.246094 39.730469 23.191406 39.894531 23.066406 39.988281 C 22.445312 39.300781 22.445312 39.027344 22.445312 39.027344 Z M 22.855469 40.402344 C 22.925781 40.746094 22.238281 41.019531 22.238281 41.019531 C 22.292969 40.015625 21.898438 39.464844 21.710938 39.292969 C 21.71875 39.238281 21.722656 39.183594 21.722656 39.128906 C 21.722656 39.011719 21.699219 38.890625 21.660156 38.777344 C 21.976562 39.023438 22.855469 40.40625 22.855469 40.40625 Z M 21.542969 39.730469 C 21.613281 39.664062 21.660156 39.617188 21.660156 39.617188 C 21.9375 39.890625 22.007812 41.195312 22.007812 41.195312 C 22.007812 41.402344 21.042969 41.679688 21.042969 41.679688 C 20.976562 41.542969 20.765625 40.917969 20.765625 40.917969 C 20.632812 40.679688 20.542969 40.421875 20.492188 40.152344 C 20.472656 40.132812 20.535156 40.152344 20.644531 40.152344 L 20.699219 40.152344 C 21.03125 40.15625 21.34375 40 21.542969 39.730469 Z M 21.25 39.132812 C 21.25 39.355469 21.117188 39.558594 20.910156 39.644531 C 20.707031 39.730469 20.46875 39.683594 20.308594 39.527344 C 20.152344 39.367188 20.105469 39.132812 20.191406 38.925781 C 20.273438 38.71875 20.476562 38.585938 20.699219 38.585938 C 21 38.589844 21.242188 38.832031 21.242188 39.132812 Z M 11.210938 37.554688 C 11.210938 37.164062 11.445312 36.8125 11.808594 36.664062 C 12.167969 36.515625 12.582031 36.597656 12.859375 36.875 C 13.132812 37.152344 13.210938 37.570312 13.058594 37.929688 C 12.910156 38.289062 12.554688 38.519531 12.164062 38.515625 C 11.910156 38.519531 11.664062 38.417969 11.480469 38.234375 C 11.300781 38.054688 11.199219 37.808594 11.203125 37.554688 Z M 12.0625 39.09375 L 12.089844 39.058594 L 12.167969 39.058594 C 13 39.058594 13.679688 38.382812 13.679688 37.546875 C 13.679688 37.351562 13.640625 37.15625 13.566406 36.976562 L 13.566406 36.960938 C 13.980469 36.273438 17.488281 37.03125 17.488281 37.03125 C 18.164062 37.15625 20.171875 37.941406 20.578125 38.101562 C 20.152344 38.144531 19.800781 38.445312 19.6875 38.855469 C 19.574219 39.265625 19.726562 39.703125 20.070312 39.957031 C 20.054688 39.976562 20.042969 39.988281 20.03125 39.988281 L 19.070312 39.988281 C 18.242188 39.988281 16.523438 40.75 16.523438 40.75 C 14.734375 41.09375 13.84375 40.613281 13.84375 40.613281 C 13.300781 40.269531 12.0625 39.09375 12.0625 39.09375 Z M 14.195312 41.160156 C 14.261719 41.160156 15.984375 41.226562 15.984375 41.226562 L 16.1875 41.777344 C 15.363281 41.570312 14.953125 42.394531 14.953125 42.394531 C 14.882812 42.398438 14.125 41.164062 14.195312 41.164062 Z M 14.195312 41.160156 "/>
<path style=" stroke:none;fill-rule:nonzero;fill:rgb(0%,58.823529%,74.509804%);fill-opacity:1;" d="M 18.605469 10.15625 C 18.605469 11.484375 17.527344 12.558594 16.199219 12.558594 C 14.871094 12.558594 13.796875 11.484375 13.796875 10.15625 C 13.796875 8.828125 14.871094 7.75 16.199219 7.75 C 17.527344 7.75 18.605469 8.828125 18.605469 10.15625 Z M 18.605469 10.15625 "/>
<path style=" stroke:none;fill-rule:nonzero;fill:rgb(0%,58.823529%,74.509804%);fill-opacity:1;" d="M 13.683594 5.125 C 13.683594 7.320312 11.90625 9.09375 9.714844 9.09375 C 7.523438 9.09375 5.746094 7.320312 5.746094 5.125 C 5.746094 2.933594 7.523438 1.15625 9.714844 1.15625 C 11.90625 1.15625 13.683594 2.933594 13.683594 5.125 Z M 13.683594 5.125 "/>
<path style=" stroke:none;fill-rule:nonzero;fill:rgb(0%,58.823529%,74.509804%);fill-opacity:1;" d="M 41.199219 49.4375 C 41.386719 49.53125 41.546875 49.679688 41.648438 49.863281 C 41.757812 50.070312 41.8125 50.300781 41.804688 50.53125 C 41.8125 50.761719 41.757812 50.992188 41.648438 51.195312 C 41.546875 51.378906 41.386719 51.527344 41.199219 51.621094 C 40.976562 51.722656 40.734375 51.773438 40.492188 51.769531 L 39.757812 51.769531 L 39.757812 49.289062 L 40.492188 49.289062 C 40.734375 49.28125 40.976562 49.332031 41.199219 49.4375 Z M 41.28125 51.289062 C 41.472656 51.082031 41.570312 50.808594 41.550781 50.527344 C 41.566406 50.246094 41.46875 49.972656 41.28125 49.765625 C 41.066406 49.570312 40.78125 49.46875 40.492188 49.488281 L 40.007812 49.488281 L 40.007812 51.558594 L 40.492188 51.558594 C 40.78125 51.582031 41.0625 51.488281 41.28125 51.296875 Z M 41.28125 51.289062 "/>
<path style=" stroke:none;fill-rule:nonzero;fill:rgb(0%,58.823529%,74.509804%);fill-opacity:1;" d="M 42.398438 49.410156 C 42.332031 49.339844 42.332031 49.222656 42.398438 49.148438 C 42.472656 49.085938 42.582031 49.085938 42.65625 49.148438 C 42.726562 49.1875 42.769531 49.269531 42.753906 49.347656 C 42.742188 49.429688 42.679688 49.492188 42.601562 49.507812 C 42.519531 49.519531 42.441406 49.484375 42.398438 49.410156 Z M 42.652344 49.832031 L 42.652344 51.769531 L 42.402344 51.769531 L 42.402344 49.832031 Z M 42.652344 49.832031 "/>
<path style=" stroke:none;fill-rule:nonzero;fill:rgb(0%,58.823529%,74.509804%);fill-opacity:1;" d="M 43.480469 51.640625 C 43.34375 51.542969 43.257812 51.390625 43.246094 51.21875 L 43.5 51.21875 C 43.511719 51.328125 43.566406 51.425781 43.65625 51.488281 C 43.761719 51.558594 43.890625 51.59375 44.023438 51.589844 C 44.136719 51.59375 44.246094 51.5625 44.339844 51.492188 C 44.414062 51.4375 44.453125 51.347656 44.457031 51.253906 C 44.457031 51.195312 44.433594 51.132812 44.390625 51.089844 C 44.34375 51.046875 44.289062 51.011719 44.226562 50.988281 C 44.140625 50.957031 44.054688 50.933594 43.964844 50.910156 C 43.847656 50.882812 43.726562 50.84375 43.613281 50.796875 C 43.523438 50.761719 43.445312 50.703125 43.386719 50.628906 C 43.257812 50.460938 43.253906 50.226562 43.375 50.054688 C 43.4375 49.972656 43.519531 49.90625 43.617188 49.863281 C 43.726562 49.816406 43.847656 49.792969 43.972656 49.792969 C 44.152344 49.785156 44.332031 49.839844 44.476562 49.953125 C 44.605469 50.058594 44.679688 50.21875 44.683594 50.386719 L 44.433594 50.386719 C 44.429688 50.28125 44.382812 50.179688 44.300781 50.109375 C 44.207031 50.039062 44.085938 50 43.964844 50.007812 C 43.855469 50 43.75 50.03125 43.660156 50.097656 C 43.585938 50.144531 43.542969 50.226562 43.542969 50.316406 C 43.539062 50.386719 43.5625 50.453125 43.613281 50.503906 C 43.660156 50.554688 43.71875 50.59375 43.785156 50.621094 C 43.851562 50.648438 43.945312 50.675781 44.0625 50.710938 C 44.175781 50.738281 44.285156 50.777344 44.394531 50.820312 C 44.476562 50.855469 44.550781 50.910156 44.609375 50.976562 C 44.671875 51.054688 44.703125 51.148438 44.699219 51.25 C 44.699219 51.347656 44.671875 51.445312 44.613281 51.527344 C 44.554688 51.609375 44.472656 51.675781 44.378906 51.71875 C 44.265625 51.769531 44.144531 51.792969 44.023438 51.789062 C 43.832031 51.800781 43.640625 51.75 43.480469 51.640625 Z M 43.480469 51.640625 "/>
<path style=" stroke:none;fill-rule:nonzero;fill:rgb(0%,58.823529%,74.509804%);fill-opacity:1;" d="M 45.316406 50.269531 C 45.390625 50.125 45.503906 50.007812 45.644531 49.925781 C 45.789062 49.839844 45.953125 49.800781 46.121094 49.800781 C 46.289062 49.796875 46.453125 49.84375 46.597656 49.929688 C 46.726562 50.007812 46.828125 50.121094 46.886719 50.257812 L 46.886719 49.832031 L 47.136719 49.832031 L 47.136719 51.769531 L 46.894531 51.769531 L 46.894531 51.335938 C 46.832031 51.472656 46.730469 51.589844 46.601562 51.667969 C 46.460938 51.753906 46.292969 51.800781 46.125 51.796875 C 45.960938 51.796875 45.796875 51.753906 45.652344 51.671875 C 45.511719 51.589844 45.394531 51.464844 45.324219 51.320312 C 45.164062 50.988281 45.164062 50.601562 45.324219 50.269531 Z M 46.792969 50.386719 C 46.734375 50.273438 46.640625 50.179688 46.53125 50.113281 C 46.421875 50.050781 46.296875 50.015625 46.167969 50.019531 C 46.039062 50.015625 45.910156 50.046875 45.800781 50.109375 C 45.691406 50.171875 45.601562 50.265625 45.542969 50.378906 C 45.414062 50.640625 45.414062 50.949219 45.542969 51.210938 C 45.597656 51.324219 45.6875 51.421875 45.800781 51.484375 C 46.027344 51.609375 46.304688 51.609375 46.53125 51.484375 C 46.640625 51.421875 46.730469 51.328125 46.792969 51.214844 C 46.917969 50.953125 46.917969 50.648438 46.792969 50.390625 Z M 46.792969 50.386719 "/>
<path style=" stroke:none;fill-rule:nonzero;fill:rgb(0%,58.823529%,74.509804%);fill-opacity:1;" d="M 48.386719 49.929688 C 48.527344 49.84375 48.695312 49.796875 48.859375 49.800781 C 49.027344 49.800781 49.191406 49.839844 49.335938 49.925781 C 49.476562 50.007812 49.589844 50.128906 49.664062 50.269531 C 49.820312 50.601562 49.820312 50.988281 49.664062 51.320312 C 49.589844 51.464844 49.476562 51.589844 49.332031 51.671875 C 49.191406 51.753906 49.027344 51.796875 48.859375 51.796875 C 48.691406 51.800781 48.527344 51.757812 48.382812 51.667969 C 48.253906 51.589844 48.152344 51.476562 48.089844 51.339844 L 48.089844 51.769531 L 47.847656 51.769531 L 47.847656 49.144531 L 48.09375 49.144531 L 48.09375 50.261719 C 48.15625 50.125 48.257812 50.007812 48.386719 49.929688 Z M 49.4375 50.378906 C 49.378906 50.265625 49.289062 50.171875 49.179688 50.109375 C 49.066406 50.046875 48.941406 50.015625 48.8125 50.019531 C 48.683594 50.015625 48.558594 50.050781 48.445312 50.113281 C 48.335938 50.179688 48.246094 50.273438 48.1875 50.386719 C 48.058594 50.648438 48.058594 50.953125 48.1875 51.210938 C 48.246094 51.324219 48.335938 51.417969 48.445312 51.484375 C 48.675781 51.609375 48.949219 51.609375 49.179688 51.484375 C 49.289062 51.417969 49.378906 51.324219 49.4375 51.210938 C 49.5625 50.945312 49.5625 50.640625 49.4375 50.375 Z M 49.4375 50.378906 "/>
<path style=" stroke:none;fill-rule:nonzero;fill:rgb(0%,58.823529%,74.509804%);fill-opacity:1;" d="M 50.378906 49.410156 C 50.308594 49.339844 50.308594 49.222656 50.378906 49.148438 C 50.449219 49.085938 50.5625 49.085938 50.632812 49.148438 C 50.707031 49.1875 50.746094 49.269531 50.734375 49.347656 C 50.722656 49.429688 50.660156 49.492188 50.578125 49.507812 C 50.5 49.519531 50.417969 49.484375 50.378906 49.410156 Z M 50.628906 49.832031 L 50.628906 51.769531 L 50.382812 51.769531 L 50.382812 49.832031 Z M 50.628906 49.832031 "/>
<path style=" stroke:none;fill-rule:nonzero;fill:rgb(0%,58.823529%,74.509804%);fill-opacity:1;" d="M 51.585938 49.144531 L 51.585938 51.769531 L 51.335938 51.769531 L 51.335938 49.144531 Z M 51.585938 49.144531 "/>
<path style=" stroke:none;fill-rule:nonzero;fill:rgb(0%,58.823529%,74.509804%);fill-opacity:1;" d="M 52.285156 49.410156 C 52.21875 49.339844 52.21875 49.222656 52.285156 49.148438 C 52.359375 49.085938 52.46875 49.085938 52.542969 49.148438 C 52.613281 49.1875 52.652344 49.269531 52.640625 49.347656 C 52.628906 49.429688 52.566406 49.492188 52.488281 49.507812 C 52.40625 49.519531 52.324219 49.484375 52.285156 49.410156 Z M 52.539062 49.832031 L 52.539062 51.769531 L 52.289062 51.769531 L 52.289062 49.832031 Z M 52.539062 49.832031 "/>
<path style=" stroke:none;fill-rule:nonzero;fill:rgb(0%,58.823529%,74.509804%);fill-opacity:1;" d="M 53.566406 50.039062 L 53.566406 51.242188 C 53.558594 51.328125 53.582031 51.417969 53.632812 51.488281 C 53.703125 51.539062 53.789062 51.5625 53.871094 51.554688 L 54.097656 51.554688 L 54.097656 51.769531 L 53.832031 51.769531 C 53.695312 51.777344 53.558594 51.734375 53.453125 51.644531 C 53.355469 51.53125 53.308594 51.386719 53.324219 51.242188 L 53.324219 50.039062 L 53.054688 50.039062 L 53.054688 49.832031 L 53.324219 49.832031 L 53.324219 49.34375 L 53.566406 49.34375 L 53.566406 49.832031 L 54.097656 49.832031 L 54.097656 50.039062 Z M 53.566406 50.039062 "/>
<path style=" stroke:none;fill-rule:nonzero;fill:rgb(0%,58.823529%,74.509804%);fill-opacity:1;" d="M 56.246094 49.832031 L 55.101562 52.679688 L 54.84375 52.679688 L 55.222656 51.757812 L 54.429688 49.832031 L 54.703125 49.832031 L 55.363281 51.484375 L 56 49.832031 Z M 56.246094 49.832031 "/>
<path style=" stroke:none;fill-rule:nonzero;fill:rgb(0%,58.823529%,74.509804%);fill-opacity:1;" d="M 60.261719 49.320312 L 60.261719 51.769531 L 60.011719 51.769531 L 60.011719 49.8125 L 59.140625 51.769531 L 58.949219 51.769531 L 58.074219 49.820312 L 58.074219 51.769531 L 57.828125 51.769531 L 57.828125 49.320312 L 58.089844 49.320312 L 59.042969 51.441406 L 59.996094 49.320312 Z M 60.261719 49.320312 "/>
<path style=" stroke:none;fill-rule:nonzero;fill:rgb(0%,58.823529%,74.509804%);fill-opacity:1;" d="M 60.972656 50.269531 C 61.046875 50.125 61.160156 50.007812 61.300781 49.925781 C 61.445312 49.839844 61.613281 49.800781 61.78125 49.800781 C 61.949219 49.796875 62.113281 49.84375 62.257812 49.929688 C 62.382812 50.007812 62.484375 50.121094 62.542969 50.257812 L 62.542969 49.832031 L 62.792969 49.832031 L 62.792969 51.769531 L 62.542969 51.769531 L 62.542969 51.335938 C 62.480469 51.472656 62.378906 51.585938 62.253906 51.667969 C 62.109375 51.753906 61.945312 51.800781 61.777344 51.796875 C 61.609375 51.796875 61.445312 51.753906 61.300781 51.671875 C 61.160156 51.589844 61.046875 51.464844 60.972656 51.320312 C 60.8125 50.988281 60.8125 50.601562 60.972656 50.269531 Z M 62.449219 50.386719 C 62.390625 50.273438 62.300781 50.179688 62.1875 50.113281 C 62.078125 50.050781 61.953125 50.015625 61.824219 50.019531 C 61.695312 50.015625 61.570312 50.046875 61.457031 50.109375 C 61.347656 50.171875 61.257812 50.265625 61.199219 50.378906 C 61.074219 50.640625 61.074219 50.949219 61.199219 51.210938 C 61.257812 51.324219 61.34375 51.421875 61.457031 51.484375 C 61.570312 51.550781 61.695312 51.582031 61.824219 51.578125 C 61.953125 51.582031 62.078125 51.546875 62.1875 51.484375 C 62.300781 51.417969 62.390625 51.324219 62.449219 51.210938 C 62.574219 50.953125 62.574219 50.648438 62.449219 50.386719 Z M 62.449219 50.386719 "/>
<path style=" stroke:none;fill-rule:nonzero;fill:rgb(0%,58.823529%,74.509804%);fill-opacity:1;" d="M 63.5 49.410156 C 63.429688 49.339844 63.429688 49.222656 63.5 49.148438 C 63.570312 49.085938 63.683594 49.085938 63.753906 49.148438 C 63.828125 49.1875 63.867188 49.269531 63.855469 49.347656 C 63.84375 49.429688 63.78125 49.492188 63.699219 49.507812 C 63.621094 49.519531 63.539062 49.484375 63.5 49.410156 Z M 63.75 49.832031 L 63.75 51.769531 L 63.503906 51.769531 L 63.503906 49.832031 Z M 63.75 49.832031 "/>
<path style=" stroke:none;fill-rule:nonzero;fill:rgb(0%,58.823529%,74.509804%);fill-opacity:1;" d="M 65.933594 50.011719 C 66.089844 50.179688 66.167969 50.402344 66.152344 50.632812 L 66.152344 51.777344 L 65.90625 51.777344 L 65.90625 50.667969 C 65.917969 50.492188 65.863281 50.320312 65.75 50.183594 C 65.636719 50.070312 65.480469 50.011719 65.320312 50.019531 C 65.152344 50.011719 64.988281 50.078125 64.871094 50.195312 C 64.753906 50.34375 64.691406 50.527344 64.707031 50.71875 L 64.707031 51.777344 L 64.457031 51.777344 L 64.457031 49.832031 L 64.707031 49.832031 L 64.707031 50.152344 C 64.765625 50.039062 64.855469 49.941406 64.972656 49.878906 C 65.09375 49.816406 65.230469 49.785156 65.367188 49.785156 C 65.578125 49.78125 65.78125 49.863281 65.933594 50.011719 Z M 65.933594 50.011719 "/>
<path style=" stroke:none;fill-rule:nonzero;fill:rgb(0%,58.823529%,74.509804%);fill-opacity:1;" d="M 66.96875 51.640625 C 66.828125 51.542969 66.742188 51.390625 66.730469 51.21875 L 66.984375 51.21875 C 66.996094 51.328125 67.054688 51.425781 67.140625 51.484375 C 67.25 51.558594 67.378906 51.59375 67.507812 51.585938 C 67.621094 51.59375 67.734375 51.558594 67.824219 51.492188 C 67.898438 51.433594 67.941406 51.347656 67.941406 51.253906 C 67.941406 51.191406 67.917969 51.132812 67.875 51.089844 C 67.832031 51.042969 67.773438 51.007812 67.714844 50.988281 C 67.628906 50.957031 67.539062 50.929688 67.453125 50.90625 C 67.332031 50.878906 67.214844 50.84375 67.101562 50.796875 C 67.011719 50.757812 66.933594 50.699219 66.871094 50.625 C 66.742188 50.457031 66.738281 50.226562 66.863281 50.054688 C 66.925781 49.96875 67.007812 49.902344 67.105469 49.863281 C 67.214844 49.8125 67.335938 49.789062 67.457031 49.792969 C 67.640625 49.785156 67.820312 49.839844 67.960938 49.949219 C 68.089844 50.058594 68.167969 50.21875 68.167969 50.386719 L 67.917969 50.386719 C 67.914062 50.277344 67.867188 50.179688 67.785156 50.109375 C 67.691406 50.035156 67.570312 50 67.453125 50.003906 C 67.34375 50 67.234375 50.03125 67.144531 50.09375 C 67.074219 50.144531 67.027344 50.226562 67.027344 50.3125 C 67.023438 50.382812 67.050781 50.453125 67.097656 50.503906 C 67.148438 50.554688 67.207031 50.59375 67.269531 50.617188 C 67.339844 50.644531 67.429688 50.675781 67.546875 50.707031 C 67.660156 50.738281 67.773438 50.773438 67.878906 50.820312 C 67.960938 50.851562 68.035156 50.90625 68.09375 50.976562 C 68.15625 51.050781 68.1875 51.148438 68.183594 51.246094 C 68.1875 51.347656 68.15625 51.445312 68.097656 51.527344 C 68.039062 51.609375 67.957031 51.675781 67.863281 51.714844 C 67.753906 51.765625 67.632812 51.789062 67.511719 51.789062 C 67.316406 51.800781 67.128906 51.746094 66.96875 51.640625 Z M 66.96875 51.640625 "/>
<path style=" stroke:none;fill-rule:nonzero;fill:rgb(0%,58.823529%,74.509804%);fill-opacity:1;" d="M 69.117188 50.039062 L 69.117188 51.242188 C 69.109375 51.328125 69.132812 51.417969 69.1875 51.488281 C 69.253906 51.539062 69.339844 51.5625 69.421875 51.554688 L 69.652344 51.554688 L 69.652344 51.769531 L 69.390625 51.769531 C 69.246094 51.792969 69.097656 51.742188 68.996094 51.640625 C 68.890625 51.535156 68.84375 51.386719 68.871094 51.242188 L 68.871094 50.039062 L 68.601562 50.039062 L 68.601562 49.832031 L 68.871094 49.832031 L 68.871094 49.34375 L 69.125 49.34375 L 69.125 49.832031 L 69.65625 49.832031 L 69.65625 50.039062 Z M 69.117188 50.039062 "/>
<path style=" stroke:none;fill-rule:nonzero;fill:rgb(0%,58.823529%,74.509804%);fill-opacity:1;" d="M 70.699219 49.894531 C 70.824219 49.824219 70.96875 49.789062 71.113281 49.792969 L 71.113281 50.054688 L 71.042969 50.054688 C 70.875 50.035156 70.707031 50.097656 70.589844 50.222656 C 70.472656 50.34375 70.421875 50.515625 70.449219 50.683594 L 70.449219 51.769531 L 70.199219 51.769531 L 70.199219 49.832031 L 70.449219 49.832031 L 70.449219 50.175781 C 70.5 50.058594 70.585938 49.957031 70.699219 49.894531 Z M 70.699219 49.894531 "/>
<path style=" stroke:none;fill-rule:nonzero;fill:rgb(0%,58.823529%,74.509804%);fill-opacity:1;" d="M 73.371094 50.894531 L 71.765625 50.894531 C 71.765625 51.027344 71.800781 51.160156 71.871094 51.277344 C 71.929688 51.375 72.019531 51.457031 72.121094 51.511719 C 72.226562 51.566406 72.34375 51.59375 72.464844 51.59375 C 72.605469 51.597656 72.75 51.554688 72.867188 51.472656 C 72.976562 51.398438 73.054688 51.289062 73.089844 51.160156 L 73.347656 51.160156 C 73.304688 51.34375 73.199219 51.507812 73.046875 51.621094 C 72.878906 51.746094 72.671875 51.808594 72.464844 51.800781 C 72.292969 51.804688 72.121094 51.761719 71.972656 51.679688 C 71.828125 51.597656 71.710938 51.476562 71.636719 51.332031 C 71.550781 51.167969 71.507812 50.988281 71.511719 50.804688 C 71.507812 50.621094 71.550781 50.4375 71.632812 50.273438 C 71.710938 50.128906 71.824219 50.007812 71.96875 49.929688 C 72.121094 49.847656 72.289062 49.804688 72.464844 49.808594 C 72.632812 49.804688 72.800781 49.847656 72.945312 49.929688 C 73.082031 50.003906 73.191406 50.117188 73.265625 50.253906 C 73.34375 50.390625 73.378906 50.546875 73.378906 50.707031 C 73.378906 50.785156 73.375 50.847656 73.371094 50.894531 Z M 73.039062 50.324219 C 72.980469 50.222656 72.894531 50.144531 72.792969 50.09375 C 72.6875 50.039062 72.570312 50.011719 72.453125 50.015625 C 72.277344 50.011719 72.109375 50.074219 71.980469 50.191406 C 71.84375 50.324219 71.769531 50.503906 71.765625 50.691406 L 73.125 50.691406 C 73.132812 50.5625 73.101562 50.4375 73.039062 50.324219 Z M 73.039062 50.324219 "/>
<path style=" stroke:none;fill-rule:nonzero;fill:rgb(0%,58.823529%,74.509804%);fill-opacity:1;" d="M 73.980469 50.269531 C 74.054688 50.125 74.167969 50.007812 74.308594 49.925781 C 74.457031 49.839844 74.621094 49.800781 74.785156 49.800781 C 74.953125 49.796875 75.121094 49.84375 75.261719 49.929688 C 75.390625 50.007812 75.492188 50.121094 75.554688 50.257812 L 75.554688 49.832031 L 75.800781 49.832031 L 75.800781 51.769531 L 75.554688 51.769531 L 75.554688 51.335938 C 75.488281 51.472656 75.386719 51.585938 75.257812 51.667969 C 75.117188 51.753906 74.949219 51.800781 74.78125 51.796875 C 74.617188 51.800781 74.453125 51.753906 74.308594 51.671875 C 74.167969 51.589844 74.054688 51.464844 73.980469 51.320312 C 73.820312 50.988281 73.820312 50.601562 73.980469 50.269531 Z M 75.457031 50.386719 C 75.398438 50.273438 75.308594 50.179688 75.195312 50.113281 C 75.085938 50.050781 74.960938 50.015625 74.832031 50.019531 C 74.703125 50.015625 74.578125 50.046875 74.464844 50.109375 C 74.355469 50.171875 74.265625 50.265625 74.207031 50.378906 C 74.078125 50.640625 74.078125 50.949219 74.207031 51.210938 C 74.265625 51.324219 74.355469 51.421875 74.464844 51.484375 C 74.691406 51.609375 74.96875 51.609375 75.195312 51.484375 C 75.308594 51.421875 75.398438 51.328125 75.457031 51.214844 C 75.585938 50.953125 75.585938 50.648438 75.457031 50.390625 Z M 75.457031 50.386719 "/>
<path style=" stroke:none;fill-rule:nonzero;fill:rgb(0%,58.823529%,74.509804%);fill-opacity:1;" d="M 79.371094 50.011719 C 79.523438 50.179688 79.601562 50.402344 79.585938 50.632812 L 79.585938 51.777344 L 79.339844 51.777344 L 79.339844 50.667969 C 79.355469 50.492188 79.300781 50.320312 79.1875 50.183594 C 79.082031 50.074219 78.929688 50.011719 78.773438 50.019531 C 78.609375 50.011719 78.449219 50.078125 78.339844 50.199219 C 78.21875 50.347656 78.160156 50.535156 78.175781 50.726562 L 78.175781 51.777344 L 77.929688 51.777344 L 77.929688 50.667969 C 77.941406 50.492188 77.886719 50.320312 77.777344 50.183594 C 77.667969 50.070312 77.515625 50.011719 77.359375 50.019531 C 77.195312 50.011719 77.035156 50.078125 76.921875 50.199219 C 76.804688 50.347656 76.746094 50.535156 76.761719 50.726562 L 76.761719 51.777344 L 76.511719 51.777344 L 76.511719 49.832031 L 76.761719 49.832031 L 76.761719 50.164062 C 76.816406 50.046875 76.90625 49.953125 77.019531 49.886719 C 77.136719 49.824219 77.269531 49.792969 77.402344 49.792969 C 77.558594 49.792969 77.710938 49.832031 77.84375 49.914062 C 77.972656 50 78.070312 50.125 78.117188 50.269531 C 78.164062 50.125 78.261719 50 78.386719 49.917969 C 78.515625 49.835938 78.667969 49.792969 78.820312 49.792969 C 79.023438 49.789062 79.222656 49.867188 79.371094 50.011719 Z M 79.371094 50.011719 "/>
<path style=" stroke:none;fill-rule:nonzero;fill:rgb(0%,58.823529%,74.509804%);fill-opacity:1;" d="M 80.273438 49.410156 C 80.207031 49.339844 80.207031 49.222656 80.273438 49.148438 C 80.308594 49.117188 80.355469 49.097656 80.402344 49.097656 C 80.449219 49.097656 80.496094 49.117188 80.53125 49.148438 C 80.597656 49.222656 80.597656 49.339844 80.53125 49.410156 C 80.496094 49.445312 80.449219 49.464844 80.402344 49.464844 C 80.355469 49.464844 80.308594 49.445312 80.273438 49.410156 Z M 80.527344 49.832031 L 80.527344 51.769531 L 80.277344 51.769531 L 80.277344 49.832031 Z M 80.527344 49.832031 "/>
<path style=" stroke:none;fill-rule:nonzero;fill:rgb(0%,58.823529%,74.509804%);fill-opacity:1;" d="M 82.707031 50.011719 C 82.863281 50.179688 82.941406 50.402344 82.925781 50.632812 L 82.925781 51.777344 L 82.683594 51.777344 L 82.683594 50.667969 C 82.695312 50.492188 82.636719 50.320312 82.523438 50.183594 C 82.410156 50.070312 82.253906 50.011719 82.09375 50.019531 C 81.925781 50.011719 81.765625 50.078125 81.648438 50.195312 C 81.527344 50.34375 81.464844 50.527344 81.480469 50.71875 L 81.480469 51.777344 L 81.230469 51.777344 L 81.230469 49.832031 L 81.480469 49.832031 L 81.480469 50.152344 C 81.539062 50.035156 81.632812 49.941406 81.746094 49.878906 C 81.867188 49.816406 82.003906 49.785156 82.140625 49.785156 C 82.351562 49.78125 82.554688 49.863281 82.707031 50.011719 Z M 82.707031 50.011719 "/>
<path style=" stroke:none;fill-rule:nonzero;fill:rgb(0%,58.823529%,74.509804%);fill-opacity:1;" d="M 84.90625 49.929688 C 85.035156 50.003906 85.136719 50.117188 85.195312 50.253906 L 85.195312 49.832031 L 85.445312 49.832031 L 85.445312 51.816406 C 85.449219 51.980469 85.410156 52.144531 85.332031 52.289062 C 85.257812 52.421875 85.144531 52.535156 85.011719 52.605469 C 84.867188 52.683594 84.703125 52.71875 84.542969 52.71875 C 84.320312 52.726562 84.105469 52.664062 83.921875 52.539062 C 83.761719 52.425781 83.652344 52.253906 83.613281 52.058594 L 83.859375 52.058594 C 83.902344 52.191406 83.988281 52.304688 84.101562 52.382812 C 84.234375 52.464844 84.386719 52.507812 84.542969 52.5 C 84.660156 52.503906 84.773438 52.476562 84.878906 52.421875 C 84.980469 52.367188 85.058594 52.285156 85.113281 52.183594 C 85.171875 52.070312 85.199219 51.945312 85.195312 51.816406 L 85.195312 51.335938 C 85.132812 51.472656 85.03125 51.585938 84.90625 51.667969 C 84.761719 51.753906 84.597656 51.800781 84.429688 51.796875 C 84.261719 51.800781 84.097656 51.753906 83.953125 51.671875 C 83.8125 51.589844 83.699219 51.464844 83.625 51.320312 C 83.46875 50.988281 83.46875 50.601562 83.625 50.269531 C 83.699219 50.125 83.8125 50.007812 83.953125 49.925781 C 84.097656 49.839844 84.265625 49.800781 84.429688 49.800781 C 84.597656 49.796875 84.765625 49.84375 84.90625 49.929688 Z M 85.097656 50.386719 C 85.039062 50.273438 84.949219 50.179688 84.835938 50.113281 C 84.726562 50.050781 84.601562 50.015625 84.476562 50.019531 C 84.34375 50.015625 84.21875 50.046875 84.105469 50.109375 C 83.996094 50.171875 83.90625 50.265625 83.847656 50.378906 C 83.722656 50.640625 83.722656 50.949219 83.847656 51.210938 C 83.90625 51.324219 83.996094 51.421875 84.105469 51.484375 C 84.21875 51.550781 84.34375 51.582031 84.476562 51.578125 C 84.601562 51.582031 84.726562 51.546875 84.835938 51.484375 C 84.949219 51.417969 85.039062 51.324219 85.097656 51.210938 C 85.226562 50.953125 85.226562 50.648438 85.097656 50.386719 Z M 85.097656 50.386719 "/>
<path style=" stroke:none;fill-rule:nonzero;fill:rgb(0%,58.823529%,74.509804%);fill-opacity:1;" d="M 87.265625 49.410156 C 87.21875 49.355469 87.207031 49.28125 87.234375 49.214844 C 87.261719 49.152344 87.324219 49.105469 87.394531 49.097656 C 87.441406 49.097656 87.488281 49.117188 87.519531 49.148438 C 87.59375 49.1875 87.632812 49.269531 87.621094 49.347656 C 87.609375 49.429688 87.546875 49.492188 87.464844 49.507812 C 87.386719 49.519531 87.304688 49.484375 87.265625 49.410156 Z M 87.515625 49.832031 L 87.515625 51.769531 L 87.269531 51.769531 L 87.269531 49.832031 Z M 87.515625 49.832031 "/>
<path style=" stroke:none;fill-rule:nonzero;fill:rgb(0%,58.823529%,74.509804%);fill-opacity:1;" d="M 89.699219 50.011719 C 89.855469 50.179688 89.933594 50.402344 89.917969 50.632812 L 89.917969 51.777344 L 89.675781 51.777344 L 89.675781 50.667969 C 89.6875 50.492188 89.628906 50.320312 89.515625 50.183594 C 89.402344 50.070312 89.246094 50.011719 89.085938 50.019531 C 88.917969 50.011719 88.753906 50.078125 88.636719 50.195312 C 88.519531 50.34375 88.457031 50.527344 88.472656 50.71875 L 88.472656 51.777344 L 88.222656 51.777344 L 88.222656 49.832031 L 88.472656 49.832031 L 88.472656 50.152344 C 88.53125 50.039062 88.625 49.941406 88.738281 49.878906 C 88.859375 49.816406 88.996094 49.785156 89.132812 49.785156 C 89.34375 49.78125 89.546875 49.863281 89.699219 50.011719 Z M 89.699219 50.011719 "/>
<path style=" stroke:none;fill-rule:nonzero;fill:rgb(0%,58.823529%,74.509804%);fill-opacity:1;" d="M 42.957031 54.195312 L 42.253906 56.675781 L 41.980469 56.675781 L 41.355469 54.5625 L 40.714844 56.675781 L 40.445312 56.675781 L 39.757812 54.195312 L 40.03125 54.195312 L 40.605469 56.371094 L 41.238281 54.195312 L 41.515625 54.195312 L 42.128906 56.371094 L 42.703125 54.195312 Z M 42.957031 54.195312 "/>
<path style=" stroke:none;fill-rule:nonzero;fill:rgb(0%,58.823529%,74.509804%);fill-opacity:1;" d="M 43.476562 54.320312 C 43.40625 54.246094 43.40625 54.132812 43.476562 54.058594 C 43.546875 53.992188 43.660156 53.992188 43.730469 54.058594 C 43.804688 54.097656 43.84375 54.175781 43.832031 54.257812 C 43.816406 54.339844 43.753906 54.402344 43.675781 54.414062 C 43.59375 54.429688 43.515625 54.390625 43.476562 54.320312 Z M 43.726562 54.738281 L 43.726562 56.675781 L 43.480469 56.675781 L 43.480469 54.738281 Z M 43.726562 54.738281 "/>
<path style=" stroke:none;fill-rule:nonzero;fill:rgb(0%,58.823529%,74.509804%);fill-opacity:1;" d="M 44.554688 56.550781 C 44.417969 56.453125 44.332031 56.296875 44.320312 56.128906 L 44.574219 56.128906 C 44.585938 56.238281 44.640625 56.332031 44.730469 56.394531 C 44.835938 56.46875 44.964844 56.503906 45.097656 56.496094 C 45.210938 56.503906 45.324219 56.46875 45.414062 56.402344 C 45.488281 56.34375 45.53125 56.253906 45.527344 56.164062 C 45.53125 56.101562 45.507812 56.042969 45.464844 56 C 45.417969 55.953125 45.363281 55.917969 45.304688 55.898438 C 45.21875 55.867188 45.128906 55.839844 45.039062 55.816406 C 44.921875 55.789062 44.800781 55.75 44.6875 55.703125 C 44.597656 55.667969 44.519531 55.609375 44.460938 55.535156 C 44.394531 55.449219 44.359375 55.34375 44.367188 55.234375 C 44.367188 55.140625 44.394531 55.050781 44.453125 54.972656 C 44.511719 54.886719 44.597656 54.824219 44.691406 54.78125 C 44.804688 54.734375 44.925781 54.710938 45.046875 54.710938 C 45.226562 54.703125 45.40625 54.757812 45.550781 54.871094 C 45.675781 54.976562 45.75 55.132812 45.75 55.300781 L 45.503906 55.300781 C 45.5 55.195312 45.453125 55.09375 45.371094 55.023438 C 45.277344 54.949219 45.15625 54.914062 45.035156 54.917969 C 44.929688 54.914062 44.820312 54.945312 44.730469 55.007812 C 44.660156 55.058594 44.613281 55.140625 44.613281 55.226562 C 44.609375 55.296875 44.632812 55.367188 44.683594 55.417969 C 44.730469 55.46875 44.789062 55.507812 44.855469 55.53125 C 44.925781 55.558594 45.015625 55.589844 45.132812 55.621094 C 45.246094 55.652344 45.355469 55.6875 45.464844 55.734375 C 45.546875 55.769531 45.621094 55.820312 45.675781 55.890625 C 45.738281 55.964844 45.773438 56.0625 45.769531 56.164062 C 45.773438 56.261719 45.742188 56.359375 45.683594 56.441406 C 45.625 56.523438 45.542969 56.589844 45.445312 56.632812 C 45.335938 56.679688 45.214844 56.707031 45.097656 56.703125 C 44.90625 56.710938 44.714844 56.660156 44.554688 56.550781 Z M 44.554688 56.550781 "/>
<path style=" stroke:none;fill-rule:nonzero;fill:rgb(0%,58.823529%,74.509804%);fill-opacity:1;" d="M 46.515625 56.550781 C 46.378906 56.453125 46.289062 56.296875 46.277344 56.128906 L 46.535156 56.128906 C 46.542969 56.238281 46.601562 56.332031 46.6875 56.394531 C 46.796875 56.46875 46.925781 56.503906 47.054688 56.496094 C 47.167969 56.503906 47.28125 56.46875 47.371094 56.402344 C 47.445312 56.34375 47.488281 56.253906 47.488281 56.164062 C 47.492188 56.101562 47.46875 56.042969 47.421875 56 C 47.378906 55.953125 47.324219 55.917969 47.261719 55.898438 C 47.195312 55.871094 47.109375 55.847656 47 55.816406 C 46.878906 55.789062 46.761719 55.75 46.648438 55.703125 C 46.558594 55.667969 46.480469 55.609375 46.417969 55.535156 C 46.289062 55.367188 46.285156 55.136719 46.410156 54.964844 C 46.472656 54.878906 46.554688 54.8125 46.652344 54.773438 C 46.761719 54.722656 46.882812 54.699219 47.007812 54.703125 C 47.1875 54.691406 47.367188 54.75 47.507812 54.859375 C 47.636719 54.96875 47.714844 55.125 47.714844 55.292969 L 47.46875 55.292969 C 47.464844 55.1875 47.414062 55.085938 47.332031 55.019531 C 47.238281 54.945312 47.117188 54.90625 47 54.914062 C 46.890625 54.910156 46.78125 54.941406 46.691406 55.003906 C 46.621094 55.050781 46.578125 55.132812 46.578125 55.222656 C 46.574219 55.292969 46.597656 55.363281 46.644531 55.414062 C 46.695312 55.460938 46.753906 55.5 46.816406 55.527344 C 46.886719 55.554688 46.976562 55.585938 47.09375 55.617188 C 47.207031 55.644531 47.320312 55.683594 47.425781 55.726562 C 47.511719 55.761719 47.582031 55.816406 47.640625 55.882812 C 47.703125 55.960938 47.734375 56.058594 47.730469 56.15625 C 47.734375 56.257812 47.703125 56.351562 47.648438 56.433594 C 47.585938 56.519531 47.503906 56.585938 47.410156 56.625 C 47.300781 56.675781 47.179688 56.699219 47.058594 56.699219 C 46.867188 56.707031 46.675781 56.65625 46.515625 56.550781 Z M 46.515625 56.550781 "/>
<path style=" stroke:none;fill-rule:nonzero;fill:rgb(0%,58.823529%,74.509804%);fill-opacity:1;" d="M 50.082031 55.804688 L 48.472656 55.804688 C 48.476562 55.9375 48.511719 56.070312 48.582031 56.183594 C 48.640625 56.285156 48.726562 56.367188 48.832031 56.421875 C 48.9375 56.476562 49.054688 56.503906 49.171875 56.5 C 49.316406 56.507812 49.457031 56.464844 49.578125 56.382812 C 49.6875 56.308594 49.761719 56.195312 49.796875 56.070312 L 50.058594 56.070312 C 50.015625 56.253906 49.90625 56.417969 49.753906 56.53125 C 49.585938 56.65625 49.378906 56.71875 49.171875 56.710938 C 49 56.714844 48.832031 56.671875 48.683594 56.585938 C 48.539062 56.507812 48.421875 56.386719 48.34375 56.242188 C 48.261719 56.078125 48.21875 55.898438 48.222656 55.714844 C 48.21875 55.53125 48.257812 55.347656 48.34375 55.183594 C 48.417969 55.039062 48.535156 54.917969 48.679688 54.835938 C 48.832031 54.753906 49 54.714844 49.171875 54.71875 C 49.339844 54.714844 49.507812 54.753906 49.65625 54.835938 C 49.789062 54.914062 49.902344 55.027344 49.976562 55.160156 C 50.050781 55.300781 50.089844 55.457031 50.085938 55.613281 C 50.085938 55.695312 50.085938 55.757812 50.082031 55.804688 Z M 49.75 55.230469 C 49.691406 55.132812 49.605469 55.054688 49.5 55 C 49.394531 54.949219 49.28125 54.921875 49.160156 54.921875 C 48.988281 54.917969 48.816406 54.984375 48.6875 55.101562 C 48.554688 55.230469 48.476562 55.414062 48.472656 55.601562 L 49.835938 55.601562 C 49.84375 55.472656 49.816406 55.34375 49.753906 55.230469 Z M 49.75 55.230469 "/>
<path style=" stroke:none;fill-rule:nonzero;fill:rgb(0%,58.823529%,74.509804%);fill-opacity:1;" d="M 52.160156 54.917969 C 52.316406 55.085938 52.394531 55.3125 52.378906 55.539062 L 52.378906 56.683594 L 52.132812 56.683594 L 52.132812 55.578125 C 52.144531 55.402344 52.089844 55.230469 51.976562 55.09375 C 51.863281 54.980469 51.707031 54.921875 51.546875 54.929688 C 51.378906 54.921875 51.214844 54.984375 51.097656 55.105469 C 50.976562 55.25 50.917969 55.4375 50.929688 55.625 L 50.929688 56.683594 L 50.683594 56.683594 L 50.683594 54.738281 L 50.929688 54.738281 L 50.929688 55.070312 C 50.992188 54.953125 51.082031 54.859375 51.199219 54.796875 C 51.320312 54.734375 51.453125 54.703125 51.589844 54.703125 C 51.800781 54.695312 52.007812 54.773438 52.160156 54.917969 Z M 52.160156 54.917969 "/>
<path style=" stroke:none;fill-rule:nonzero;fill:rgb(0%,58.823529%,74.509804%);fill-opacity:1;" d="M 53.1875 56.550781 C 53.046875 56.453125 52.960938 56.296875 52.949219 56.128906 L 53.207031 56.128906 C 53.214844 56.238281 53.273438 56.332031 53.359375 56.394531 C 53.46875 56.46875 53.597656 56.503906 53.726562 56.496094 C 53.839844 56.503906 53.953125 56.46875 54.042969 56.402344 C 54.117188 56.34375 54.160156 56.253906 54.160156 56.164062 C 54.160156 56.101562 54.136719 56.042969 54.09375 56 C 54.050781 55.953125 53.992188 55.917969 53.933594 55.898438 C 53.847656 55.867188 53.757812 55.839844 53.671875 55.816406 C 53.550781 55.789062 53.433594 55.75 53.316406 55.703125 C 53.230469 55.667969 53.148438 55.609375 53.089844 55.535156 C 53.023438 55.449219 52.988281 55.34375 52.996094 55.234375 C 52.996094 55.140625 53.027344 55.050781 53.082031 54.972656 C 53.144531 54.886719 53.226562 54.824219 53.320312 54.78125 C 53.433594 54.734375 53.554688 54.710938 53.675781 54.710938 C 53.859375 54.703125 54.035156 54.757812 54.179688 54.871094 C 54.308594 54.976562 54.382812 55.136719 54.386719 55.304688 L 54.140625 55.304688 C 54.136719 55.199219 54.085938 55.097656 54.007812 55.027344 C 53.910156 54.953125 53.792969 54.917969 53.671875 54.921875 C 53.5625 54.917969 53.457031 54.949219 53.367188 55.011719 C 53.292969 55.0625 53.25 55.144531 53.25 55.230469 C 53.246094 55.300781 53.269531 55.371094 53.316406 55.421875 C 53.367188 55.472656 53.425781 55.511719 53.492188 55.535156 C 53.558594 55.5625 53.652344 55.59375 53.769531 55.625 C 53.882812 55.65625 53.992188 55.691406 54.101562 55.738281 C 54.183594 55.773438 54.253906 55.824219 54.3125 55.894531 C 54.375 55.96875 54.40625 56.066406 54.40625 56.167969 C 54.410156 56.265625 54.382812 56.363281 54.328125 56.445312 C 54.269531 56.527344 54.1875 56.59375 54.089844 56.636719 C 53.980469 56.683594 53.863281 56.710938 53.742188 56.707031 C 53.542969 56.71875 53.347656 56.664062 53.1875 56.550781 Z M 53.1875 56.550781 "/>
<path style=" stroke:none;fill-rule:nonzero;fill:rgb(0%,58.823529%,74.509804%);fill-opacity:1;" d="M 55.027344 55.179688 C 55.105469 55.035156 55.21875 54.917969 55.363281 54.832031 C 55.507812 54.75 55.675781 54.707031 55.847656 54.710938 C 56.058594 54.703125 56.265625 54.765625 56.4375 54.890625 C 56.59375 55.007812 56.699219 55.179688 56.738281 55.371094 L 56.472656 55.371094 C 56.445312 55.238281 56.367188 55.121094 56.257812 55.042969 C 56.140625 54.960938 56 54.917969 55.855469 54.917969 C 55.730469 54.917969 55.613281 54.949219 55.503906 55.007812 C 55.398438 55.070312 55.3125 55.164062 55.257812 55.273438 C 55.195312 55.40625 55.160156 55.554688 55.167969 55.703125 C 55.164062 55.855469 55.195312 56.003906 55.257812 56.136719 C 55.3125 56.25 55.398438 56.339844 55.503906 56.402344 C 55.613281 56.460938 55.730469 56.492188 55.855469 56.492188 C 56 56.496094 56.144531 56.457031 56.265625 56.371094 C 56.375 56.292969 56.453125 56.175781 56.480469 56.039062 L 56.746094 56.039062 C 56.707031 56.230469 56.597656 56.402344 56.445312 56.519531 C 56.273438 56.644531 56.066406 56.710938 55.855469 56.703125 C 55.683594 56.703125 55.515625 56.660156 55.367188 56.578125 C 55.226562 56.496094 55.113281 56.375 55.035156 56.230469 C 54.875 55.898438 54.875 55.507812 55.035156 55.175781 Z M 55.027344 55.179688 "/>
<path style=" stroke:none;fill-rule:nonzero;fill:rgb(0%,58.823529%,74.509804%);fill-opacity:1;" d="M 58.65625 54.796875 C 58.773438 54.859375 58.871094 54.957031 58.933594 55.078125 C 59.003906 55.222656 59.039062 55.378906 59.03125 55.539062 L 59.03125 56.683594 L 58.789062 56.683594 L 58.789062 55.578125 C 58.800781 55.402344 58.742188 55.230469 58.628906 55.09375 C 58.515625 54.980469 58.359375 54.921875 58.199219 54.929688 C 58.03125 54.921875 57.871094 54.984375 57.753906 55.105469 C 57.632812 55.25 57.570312 55.4375 57.585938 55.625 L 57.585938 56.683594 L 57.339844 56.683594 L 57.339844 54.050781 L 57.585938 54.050781 L 57.585938 55.070312 C 57.648438 54.953125 57.742188 54.859375 57.855469 54.800781 C 57.980469 54.734375 58.121094 54.703125 58.261719 54.703125 C 58.398438 54.703125 58.535156 54.734375 58.65625 54.796875 Z M 58.65625 54.796875 "/>
<path style=" stroke:none;fill-rule:nonzero;fill:rgb(0%,58.823529%,74.509804%);fill-opacity:1;" d="M 59.730469 55.179688 C 59.804688 55.035156 59.921875 54.914062 60.058594 54.832031 C 60.207031 54.75 60.371094 54.707031 60.535156 54.710938 C 60.707031 54.707031 60.871094 54.75 61.015625 54.839844 C 61.140625 54.914062 61.242188 55.03125 61.304688 55.164062 L 61.304688 54.738281 L 61.550781 54.738281 L 61.550781 56.675781 L 61.304688 56.675781 L 61.304688 56.253906 C 61.238281 56.386719 61.136719 56.503906 61.011719 56.582031 C 60.867188 56.671875 60.703125 56.714844 60.535156 56.710938 C 60.367188 56.714844 60.203125 56.667969 60.058594 56.585938 C 59.917969 56.503906 59.804688 56.382812 59.730469 56.234375 C 59.574219 55.902344 59.574219 55.519531 59.730469 55.1875 Z M 61.207031 55.296875 C 61.148438 55.183594 61.058594 55.089844 60.945312 55.023438 C 60.835938 54.957031 60.710938 54.925781 60.582031 54.925781 C 60.453125 54.925781 60.328125 54.957031 60.214844 55.019531 C 60.105469 55.082031 60.015625 55.175781 59.957031 55.289062 C 59.832031 55.550781 59.832031 55.855469 59.957031 56.121094 C 60.015625 56.234375 60.105469 56.328125 60.214844 56.394531 C 60.328125 56.457031 60.453125 56.492188 60.582031 56.488281 C 60.710938 56.488281 60.835938 56.457031 60.945312 56.394531 C 61.058594 56.328125 61.148438 56.234375 61.207031 56.121094 C 61.335938 55.859375 61.335938 55.554688 61.207031 55.296875 Z M 61.207031 55.296875 "/>
<path style=" stroke:none;fill-rule:nonzero;fill:rgb(0%,58.823529%,74.509804%);fill-opacity:1;" d="M 63.023438 54.949219 L 62.574219 54.949219 L 62.574219 56.675781 L 62.324219 56.675781 L 62.324219 54.949219 L 62.054688 54.949219 L 62.054688 54.738281 L 62.324219 54.738281 L 62.324219 54.605469 C 62.308594 54.433594 62.371094 54.265625 62.488281 54.140625 C 62.636719 54.027344 62.824219 53.972656 63.007812 53.992188 L 63.007812 54.203125 C 62.890625 54.191406 62.769531 54.226562 62.671875 54.296875 C 62.597656 54.378906 62.5625 54.492188 62.574219 54.605469 L 62.574219 54.738281 L 63.023438 54.738281 Z M 63.023438 54.949219 "/>
<path style=" stroke:none;fill-rule:nonzero;fill:rgb(0%,58.823529%,74.509804%);fill-opacity:1;" d="M 63.878906 54.949219 L 63.878906 56.152344 C 63.871094 56.238281 63.894531 56.328125 63.949219 56.398438 C 64.015625 56.449219 64.097656 56.472656 64.183594 56.464844 L 64.410156 56.464844 L 64.410156 56.675781 L 64.144531 56.675781 C 64.003906 56.6875 63.863281 56.644531 63.753906 56.554688 C 63.660156 56.441406 63.613281 56.296875 63.628906 56.152344 L 63.628906 54.949219 L 63.359375 54.949219 L 63.359375 54.738281 L 63.628906 54.738281 L 63.628906 54.253906 L 63.878906 54.253906 L 63.878906 54.738281 L 64.410156 54.738281 L 64.410156 54.949219 Z M 63.878906 54.949219 "/>
<path style=" stroke:none;fill-rule:nonzero;fill:rgb(0%,58.823529%,74.509804%);fill-opacity:1;" d="M 67.753906 54.738281 L 67.753906 56.675781 L 67.503906 56.675781 L 67.503906 56.335938 C 67.449219 56.453125 67.355469 56.550781 67.242188 56.613281 C 67.121094 56.675781 66.984375 56.710938 66.84375 56.707031 C 66.632812 56.71875 66.425781 56.640625 66.273438 56.492188 C 66.117188 56.324219 66.039062 56.101562 66.054688 55.871094 L 66.054688 54.738281 L 66.296875 54.738281 L 66.296875 55.84375 C 66.285156 56.015625 66.34375 56.191406 66.457031 56.324219 C 66.570312 56.441406 66.726562 56.5 66.886719 56.492188 C 67.054688 56.5 67.21875 56.433594 67.332031 56.316406 C 67.453125 56.167969 67.515625 55.980469 67.5 55.792969 L 67.5 54.738281 Z M 67.753906 54.738281 "/>
<path style=" stroke:none;fill-rule:nonzero;fill:rgb(0%,58.823529%,74.509804%);fill-opacity:1;" d="M 69.9375 54.917969 C 70.09375 55.085938 70.171875 55.3125 70.160156 55.539062 L 70.160156 56.683594 L 69.914062 56.683594 L 69.914062 55.578125 C 69.925781 55.402344 69.867188 55.230469 69.757812 55.09375 C 69.640625 54.980469 69.484375 54.921875 69.324219 54.929688 C 69.15625 54.921875 68.992188 54.984375 68.878906 55.105469 C 68.757812 55.25 68.699219 55.4375 68.710938 55.625 L 68.710938 56.683594 L 68.460938 56.683594 L 68.460938 54.738281 L 68.710938 54.738281 L 68.710938 55.070312 C 68.769531 54.953125 68.863281 54.859375 68.976562 54.796875 C 69.097656 54.734375 69.234375 54.703125 69.371094 54.703125 C 69.582031 54.695312 69.785156 54.773438 69.9375 54.917969 Z M 69.9375 54.917969 "/>
<path style=" stroke:none;fill-rule:nonzero;fill:rgb(0%,58.823529%,74.509804%);fill-opacity:1;" d="M 70.855469 55.179688 C 70.933594 55.035156 71.046875 54.914062 71.1875 54.832031 C 71.332031 54.75 71.5 54.707031 71.667969 54.710938 C 71.828125 54.710938 71.988281 54.753906 72.125 54.835938 C 72.257812 54.910156 72.363281 55.023438 72.429688 55.15625 L 72.429688 54.050781 L 72.675781 54.050781 L 72.675781 56.675781 L 72.429688 56.675781 L 72.429688 56.253906 C 72.367188 56.390625 72.265625 56.507812 72.136719 56.585938 C 71.996094 56.671875 71.828125 56.71875 71.664062 56.714844 C 71.496094 56.71875 71.328125 56.675781 71.183594 56.589844 C 71.042969 56.507812 70.929688 56.382812 70.855469 56.238281 C 70.773438 56.074219 70.730469 55.894531 70.734375 55.714844 C 70.730469 55.527344 70.773438 55.34375 70.855469 55.179688 Z M 72.332031 55.296875 C 72.273438 55.183594 72.183594 55.089844 72.070312 55.023438 C 71.960938 54.960938 71.835938 54.925781 71.707031 54.925781 C 71.578125 54.925781 71.449219 54.957031 71.339844 55.019531 C 71.230469 55.082031 71.140625 55.175781 71.082031 55.289062 C 70.957031 55.550781 70.957031 55.855469 71.082031 56.121094 C 71.136719 56.234375 71.226562 56.328125 71.339844 56.394531 C 71.566406 56.519531 71.84375 56.519531 72.070312 56.394531 C 72.183594 56.328125 72.273438 56.234375 72.332031 56.121094 C 72.460938 55.863281 72.460938 55.558594 72.332031 55.296875 Z M 72.332031 55.296875 "/>
<path style=" stroke:none;fill-rule:nonzero;fill:rgb(0%,58.823529%,74.509804%);fill-opacity:1;" d="M 75.871094 55.425781 C 75.695312 55.566406 75.46875 55.632812 75.246094 55.613281 L 74.746094 55.613281 L 74.746094 56.671875 L 74.5 56.671875 L 74.5 54.195312 L 75.25 54.195312 C 75.472656 54.175781 75.695312 54.246094 75.875 54.386719 C 76.152344 54.671875 76.152344 55.132812 75.875 55.417969 Z M 75.824219 54.910156 C 75.835938 54.769531 75.789062 54.628906 75.6875 54.527344 C 75.5625 54.433594 75.402344 54.386719 75.246094 54.402344 L 74.746094 54.402344 L 74.746094 55.402344 L 75.246094 55.402344 C 75.636719 55.40625 75.828125 55.242188 75.828125 54.917969 Z M 75.824219 54.910156 "/>
<path style=" stroke:none;fill-rule:nonzero;fill:rgb(0%,58.823529%,74.509804%);fill-opacity:1;" d="M 77.140625 54.804688 C 77.265625 54.734375 77.410156 54.699219 77.554688 54.703125 L 77.554688 54.964844 L 77.484375 54.964844 C 77.316406 54.945312 77.148438 55.007812 77.03125 55.128906 C 76.914062 55.253906 76.863281 55.425781 76.890625 55.59375 L 76.890625 56.675781 L 76.632812 56.675781 L 76.632812 54.738281 L 76.882812 54.738281 L 76.882812 55.082031 C 76.9375 54.964844 77.027344 54.867188 77.140625 54.804688 Z M 77.140625 54.804688 "/>
<path style=" stroke:none;fill-rule:nonzero;fill:rgb(0%,58.823529%,74.509804%);fill-opacity:1;" d="M 78.074219 55.179688 C 78.148438 55.035156 78.261719 54.914062 78.402344 54.832031 C 78.546875 54.75 78.710938 54.707031 78.878906 54.710938 C 79.046875 54.707031 79.214844 54.75 79.359375 54.839844 C 79.484375 54.914062 79.585938 55.03125 79.644531 55.164062 L 79.644531 54.738281 L 79.894531 54.738281 L 79.894531 56.675781 L 79.644531 56.675781 L 79.644531 56.253906 C 79.582031 56.386719 79.480469 56.503906 79.355469 56.582031 C 79.210938 56.671875 79.046875 56.714844 78.878906 56.710938 C 78.710938 56.714844 78.546875 56.671875 78.402344 56.585938 C 78.261719 56.503906 78.148438 56.382812 78.074219 56.234375 C 77.914062 55.902344 77.914062 55.519531 78.074219 55.1875 Z M 79.550781 55.296875 C 79.492188 55.183594 79.402344 55.089844 79.289062 55.023438 C 79.179688 54.957031 79.050781 54.917969 78.921875 54.917969 C 78.792969 54.917969 78.664062 54.949219 78.550781 55.011719 C 78.441406 55.074219 78.351562 55.167969 78.292969 55.28125 C 78.171875 55.542969 78.171875 55.847656 78.292969 56.113281 C 78.351562 56.226562 78.441406 56.324219 78.550781 56.386719 C 78.664062 56.449219 78.792969 56.484375 78.921875 56.480469 C 79.046875 56.480469 79.171875 56.449219 79.285156 56.386719 C 79.394531 56.320312 79.484375 56.226562 79.546875 56.113281 C 79.671875 55.851562 79.671875 55.550781 79.546875 55.289062 Z M 79.550781 55.296875 "/>
<path style=" stroke:none;fill-rule:nonzero;fill:rgb(0%,58.823529%,74.509804%);fill-opacity:1;" d="M 81.617188 56.675781 L 81.121094 55.894531 L 80.636719 56.675781 L 80.375 56.675781 L 80.996094 55.707031 L 80.378906 54.738281 L 80.660156 54.738281 L 81.152344 55.503906 L 81.632812 54.738281 L 81.890625 54.738281 L 81.273438 55.691406 L 81.898438 56.671875 Z M 81.617188 56.675781 "/>
<path style=" stroke:none;fill-rule:nonzero;fill:rgb(0%,58.823529%,74.509804%);fill-opacity:1;" d="M 82.375 54.320312 C 82.328125 54.265625 82.316406 54.191406 82.34375 54.125 C 82.371094 54.058594 82.429688 54.015625 82.5 54.007812 C 82.550781 54.007812 82.59375 54.027344 82.628906 54.058594 C 82.703125 54.097656 82.742188 54.175781 82.730469 54.257812 C 82.714844 54.339844 82.652344 54.402344 82.574219 54.414062 C 82.492188 54.429688 82.414062 54.390625 82.375 54.320312 Z M 82.625 54.738281 L 82.625 56.675781 L 82.378906 56.675781 L 82.378906 54.738281 Z M 82.625 54.738281 "/>
<path style=" stroke:none;fill-rule:nonzero;fill:rgb(0%,58.823529%,74.509804%);fill-opacity:1;" d="M 83.453125 56.550781 C 83.316406 56.453125 83.230469 56.296875 83.21875 56.128906 L 83.472656 56.128906 C 83.484375 56.238281 83.539062 56.332031 83.628906 56.394531 C 83.738281 56.46875 83.867188 56.503906 83.996094 56.496094 C 84.109375 56.503906 84.222656 56.46875 84.3125 56.402344 C 84.386719 56.34375 84.429688 56.253906 84.429688 56.164062 C 84.429688 56.101562 84.40625 56.042969 84.363281 56 C 84.316406 55.953125 84.261719 55.917969 84.203125 55.898438 C 84.117188 55.867188 84.027344 55.839844 83.9375 55.816406 C 83.820312 55.789062 83.703125 55.75 83.589844 55.703125 C 83.5 55.667969 83.421875 55.609375 83.359375 55.535156 C 83.234375 55.363281 83.234375 55.132812 83.359375 54.964844 C 83.421875 54.878906 83.503906 54.8125 83.601562 54.773438 C 83.714844 54.722656 83.835938 54.699219 83.957031 54.703125 C 84.136719 54.691406 84.316406 54.75 84.460938 54.859375 C 84.589844 54.96875 84.664062 55.125 84.664062 55.292969 L 84.417969 55.292969 C 84.414062 55.1875 84.367188 55.085938 84.285156 55.019531 C 84.1875 54.945312 84.070312 54.90625 83.949219 54.914062 C 83.839844 54.910156 83.734375 54.941406 83.644531 55.003906 C 83.570312 55.050781 83.527344 55.132812 83.523438 55.222656 C 83.523438 55.292969 83.546875 55.363281 83.597656 55.414062 C 83.644531 55.460938 83.703125 55.5 83.765625 55.527344 C 83.835938 55.554688 83.925781 55.585938 84.042969 55.617188 C 84.15625 55.644531 84.269531 55.683594 84.378906 55.726562 C 84.460938 55.761719 84.53125 55.816406 84.589844 55.882812 C 84.652344 55.960938 84.6875 56.058594 84.683594 56.15625 C 84.683594 56.257812 84.652344 56.351562 84.597656 56.433594 C 84.539062 56.519531 84.457031 56.585938 84.359375 56.625 C 84.25 56.675781 84.128906 56.699219 84.007812 56.699219 C 83.8125 56.710938 83.617188 56.660156 83.453125 56.550781 Z M 83.453125 56.550781 "/>
<path style=" stroke:none;fill-rule:nonzero;fill:rgb(0%,58.823529%,74.509804%);fill-opacity:1;" d="M 39.757812 43.003906 L 40.710938 42.214844 C 41.226562 43.234375 42.066406 43.738281 43 43.738281 C 44.082031 43.738281 44.753906 43.109375 44.753906 42.296875 C 44.753906 41.78125 44.417969 41.34375 43.757812 40.960938 C 43.589844 40.871094 43.257812 40.71875 42.78125 40.5 C 42.300781 40.28125 41.957031 40.097656 41.710938 39.957031 C 40.757812 39.351562 40.277344 38.589844 40.277344 37.6875 C 40.261719 36.992188 40.546875 36.324219 41.066406 35.855469 C 41.59375 35.355469 42.289062 35.109375 43.164062 35.109375 C 44.265625 35.082031 45.3125 35.609375 45.941406 36.515625 L 45.078125 37.339844 C 44.5625 36.660156 43.917969 36.324219 43.15625 36.324219 C 42.292969 36.324219 41.648438 36.839844 41.648438 37.613281 C 41.648438 38.117188 41.921875 38.515625 42.460938 38.839844 C 42.820312 39.046875 43.191406 39.238281 43.570312 39.410156 C 44.144531 39.679688 44.550781 39.886719 44.769531 40.015625 C 45.683594 40.570312 46.148438 41.304688 46.148438 42.234375 C 46.171875 42.996094 45.839844 43.726562 45.246094 44.207031 C 44.617188 44.726562 43.820312 44.996094 43.003906 44.96875 C 41.625 44.960938 40.375 44.277344 39.757812 43.003906 Z M 39.757812 43.003906 "/>
<path style=" stroke:none;fill-rule:nonzero;fill:rgb(0%,58.823529%,74.509804%);fill-opacity:1;" d="M 48.484375 43.945312 C 47.125 42.476562 47.132812 40.207031 48.5 38.746094 C 49.195312 38.0625 50.085938 37.730469 51.179688 37.730469 C 52.53125 37.730469 53.78125 38.4375 54.3125 39.535156 L 53.292969 40.128906 C 52.863281 39.359375 52.058594 38.878906 51.179688 38.863281 C 50.515625 38.84375 49.878906 39.101562 49.414062 39.570312 C 48.492188 40.570312 48.484375 42.113281 49.398438 43.117188 C 49.84375 43.589844 50.46875 43.847656 51.117188 43.828125 C 51.996094 43.8125 52.804688 43.34375 53.253906 42.589844 L 54.285156 43.183594 C 53.992188 43.730469 53.542969 44.175781 52.996094 44.472656 C 52.421875 44.796875 51.773438 44.964844 51.113281 44.960938 C 50.042969 44.960938 49.167969 44.625 48.484375 43.945312 Z M 48.484375 43.945312 "/>
<path style=" stroke:none;fill-rule:nonzero;fill:rgb(0%,58.823529%,74.509804%);fill-opacity:1;" d="M 55.613281 36.027344 C 55.613281 35.789062 55.707031 35.5625 55.878906 35.398438 C 56.050781 35.238281 56.28125 35.152344 56.515625 35.164062 C 57 35.175781 57.378906 35.578125 57.367188 36.058594 C 57.355469 36.542969 56.957031 36.925781 56.476562 36.917969 C 55.992188 36.90625 55.609375 36.507812 55.613281 36.027344 Z M 57.109375 44.816406 L 55.871094 44.816406 L 55.871094 37.894531 L 57.109375 37.894531 Z M 57.109375 44.816406 "/>
<path style=" stroke:none;fill-rule:nonzero;fill:rgb(0%,58.823529%,74.509804%);fill-opacity:1;" d="M 65.667969 41.855469 L 60.164062 41.855469 C 60.371094 43.027344 61.144531 43.828125 62.589844 43.828125 C 63.453125 43.8125 64.292969 43.546875 65.003906 43.054688 L 65.535156 43.996094 C 64.671875 44.617188 63.632812 44.957031 62.570312 44.960938 C 59.964844 44.960938 58.878906 43.117188 58.878906 41.328125 C 58.847656 40.371094 59.195312 39.445312 59.847656 38.746094 C 60.507812 38.0625 61.425781 37.695312 62.375 37.730469 C 63.269531 37.691406 64.140625 38.035156 64.773438 38.671875 C 65.402344 39.300781 65.714844 40.152344 65.714844 41.222656 C 65.707031 41.3125 65.695312 41.519531 65.667969 41.855469 Z M 64.433594 40.785156 C 64.429688 40.25 64.207031 39.738281 63.816406 39.367188 C 63.429688 39 62.90625 38.800781 62.371094 38.824219 C 61.238281 38.824219 60.375 39.636719 60.167969 40.785156 Z M 64.433594 40.785156 "/>
<path style=" stroke:none;fill-rule:nonzero;fill:rgb(0%,58.823529%,74.509804%);fill-opacity:1;" d="M 67.421875 44.816406 L 67.421875 37.894531 L 68.628906 37.894531 L 68.628906 38.875 C 69.066406 38.101562 69.800781 37.714844 70.816406 37.714844 C 71.539062 37.695312 72.242188 37.964844 72.765625 38.460938 C 73.292969 38.964844 73.550781 39.675781 73.550781 40.617188 L 73.550781 44.8125 L 72.328125 44.8125 L 72.328125 40.964844 C 72.328125 39.628906 71.605469 38.867188 70.558594 38.867188 C 70.035156 38.851562 69.53125 39.070312 69.179688 39.460938 C 68.820312 39.886719 68.632812 40.429688 68.652344 40.984375 L 68.652344 44.816406 Z M 67.421875 44.816406 "/>
<path style=" stroke:none;fill-rule:nonzero;fill:rgb(0%,58.823529%,74.509804%);fill-opacity:1;" d="M 76.238281 43.945312 C 74.878906 42.476562 74.886719 40.207031 76.253906 38.746094 C 76.949219 38.0625 77.839844 37.730469 78.933594 37.730469 C 80.289062 37.730469 81.539062 38.4375 82.066406 39.535156 L 81.050781 40.128906 C 80.617188 39.359375 79.8125 38.878906 78.933594 38.863281 C 78.273438 38.84375 77.632812 39.101562 77.167969 39.570312 C 76.246094 40.574219 76.238281 42.113281 77.15625 43.117188 C 77.601562 43.589844 78.226562 43.847656 78.871094 43.828125 C 79.753906 43.816406 80.566406 43.347656 81.019531 42.589844 L 82.050781 43.183594 C 81.753906 43.730469 81.304688 44.175781 80.757812 44.472656 C 80.183594 44.796875 79.535156 44.964844 78.878906 44.960938 C 77.800781 44.960938 76.921875 44.625 76.238281 43.945312 Z M 76.238281 43.945312 "/>
<path style=" stroke:none;fill-rule:nonzero;fill:rgb(0%,58.823529%,74.509804%);fill-opacity:1;" d="M 90.007812 41.855469 L 84.503906 41.855469 C 84.710938 43.027344 85.484375 43.828125 86.929688 43.828125 C 87.789062 43.8125 88.628906 43.542969 89.335938 43.054688 L 89.867188 43.996094 C 89.003906 44.617188 87.964844 44.957031 86.902344 44.960938 C 84.296875 44.960938 83.214844 43.117188 83.214844 41.328125 C 83.183594 40.371094 83.53125 39.445312 84.179688 38.746094 C 84.839844 38.0625 85.761719 37.695312 86.707031 37.730469 C 87.6875 37.730469 88.488281 38.039062 89.105469 38.671875 C 89.722656 39.304688 90.046875 40.152344 90.046875 41.222656 C 90.046875 41.3125 90.035156 41.519531 90.007812 41.855469 Z M 88.773438 40.785156 C 88.765625 40.25 88.542969 39.738281 88.15625 39.367188 C 87.765625 39 87.246094 38.800781 86.707031 38.824219 C 85.566406 38.824219 84.710938 39.636719 84.503906 40.785156 Z M 88.773438 40.785156 "/>
<path style=" stroke:none;fill-rule:nonzero;fill:rgb(0%,58.823529%,74.509804%);fill-opacity:1;" d="M 40.371094 23.207031 L 42.558594 23.207031 L 42.558594 33 L 40.371094 33 Z M 40.371094 23.207031 "/>
<path style=" stroke:none;fill-rule:nonzero;fill:rgb(0%,58.823529%,74.509804%);fill-opacity:1;" d="M 48.496094 25.511719 C 47.710938 25.496094 46.957031 25.820312 46.425781 26.398438 L 46.425781 25.707031 L 44.382812 25.707031 L 44.382812 32.996094 L 46.460938 32.996094 L 46.460938 29.101562 C 46.460938 28.117188 47.058594 27.453125 47.941406 27.453125 C 48.789062 27.453125 49.292969 28.054688 49.292969 29.0625 L 49.292969 32.996094 L 51.375 32.996094 L 51.375 28.570312 C 51.375 27.601562 51.09375 26.839844 50.535156 26.3125 C 49.988281 25.785156 49.253906 25.496094 48.496094 25.511719 Z M 48.496094 25.511719 "/>
<path style=" stroke:none;fill-rule:nonzero;fill:rgb(0%,58.823529%,74.509804%);fill-opacity:1;" d="M 56.488281 27.480469 C 57.203125 27.480469 57.765625 27.820312 58.167969 28.484375 L 58.230469 28.59375 L 59.910156 27.675781 L 59.859375 27.5625 C 59.273438 26.308594 57.976562 25.527344 56.464844 25.527344 C 55.417969 25.492188 54.402344 25.882812 53.652344 26.609375 C 52.191406 28.140625 52.1875 30.546875 53.636719 32.082031 C 54.378906 32.800781 55.378906 33.1875 56.410156 33.152344 C 57.886719 33.152344 59.195312 32.414062 59.828125 31.226562 L 59.890625 31.113281 L 58.1875 30.113281 L 58.125 30.238281 C 57.78125 30.84375 57.144531 31.21875 56.449219 31.222656 C 55.960938 31.234375 55.484375 31.046875 55.140625 30.699219 C 54.792969 30.335938 54.605469 29.847656 54.625 29.347656 C 54.609375 28.847656 54.800781 28.363281 55.152344 28.011719 C 55.503906 27.652344 55.988281 27.457031 56.488281 27.480469 Z M 56.488281 27.480469 "/>
<path style=" stroke:none;fill-rule:nonzero;fill:rgb(0%,58.823529%,74.509804%);fill-opacity:1;" d="M 60.957031 22.933594 L 63.042969 22.933594 L 63.042969 33 L 60.957031 33 Z M 60.957031 22.933594 "/>
<path style=" stroke:none;fill-rule:nonzero;fill:rgb(0%,58.823529%,74.509804%);fill-opacity:1;" d="M 69.207031 25.707031 L 69.207031 29.902344 C 69.207031 30.722656 68.722656 31.234375 67.9375 31.234375 C 67.152344 31.234375 66.664062 30.722656 66.664062 29.902344 L 66.664062 25.707031 L 64.582031 25.707031 L 64.582031 29.902344 C 64.582031 31.945312 65.835938 33.167969 67.9375 33.167969 C 70.039062 33.167969 71.292969 31.945312 71.292969 29.902344 L 71.292969 25.707031 Z M 69.207031 25.707031 "/>
</g>
</svg>
