
<?xml version="1.0" encoding="UTF-8"?>
<svg xmlns="http://www.w3.org/2000/svg" xmlns:xlink="http://www.w3.org/1999/xlink" width="91px" height="16px" viewBox="0 0 90 16" version="1.1">
<g id="surface1">
<path style="stroke:none;fill-rule:evenodd;fill:rgb(83.529412%,6.27451%,18.823529%);fill-opacity:1;" d="M 15.300781 6 C 15.230469 6.023438 15.144531 6.039062 15.066406 6.0625 C 14.917969 6.101562 14.761719 6.148438 14.601562 6.179688 C 14.445312 6.214844 14.136719 6.246094 13.953125 6.261719 C 13.691406 6.28125 13.222656 6.351562 12.929688 6.332031 C 12.742188 6.316406 12.597656 6.222656 12.550781 6.082031 C 12.484375 5.882812 12.632812 5.703125 12.742188 5.621094 C 12.777344 5.589844 12.839844 5.574219 12.84375 5.515625 C 12.734375 5.515625 12.691406 5.585938 12.601562 5.601562 C 12.621094 5.558594 12.65625 5.519531 12.6875 5.480469 C 12.71875 5.449219 12.777344 5.417969 12.757812 5.363281 C 12.695312 5.367188 12.640625 5.414062 12.585938 5.449219 C 12.527344 5.480469 12.46875 5.527344 12.402344 5.550781 C 12.230469 5.617188 12.003906 5.5625 11.910156 5.464844 C 11.824219 5.375 11.769531 5.191406 11.746094 5.019531 C 11.710938 4.71875 11.738281 4.488281 11.789062 4.207031 C 11.847656 3.910156 11.960938 3.652344 12.074219 3.441406 C 12.1875 3.238281 12.355469 3.019531 12.5 2.816406 C 12.558594 2.734375 12.628906 2.65625 12.609375 2.578125 C 12.605469 2.546875 12.554688 2.496094 12.5 2.5 C 12.464844 2.503906 12.382812 2.605469 12.328125 2.65625 C 12.257812 2.714844 12.203125 2.765625 12.152344 2.808594 C 11.894531 3.03125 11.671875 3.167969 11.34375 3.304688 C 11.179688 3.375 11.011719 3.453125 10.851562 3.476562 C 10.742188 3.492188 10.558594 3.492188 10.445312 3.453125 C 10.367188 3.421875 10.304688 3.359375 10.265625 3.304688 C 10.175781 3.191406 10.105469 3.027344 10.089844 2.835938 C 10.054688 2.367188 10.246094 1.945312 10.382812 1.617188 C 10.433594 1.496094 10.5 1.375 10.503906 1.25 C 10.441406 1.253906 10.421875 1.324219 10.394531 1.371094 C 10.296875 1.511719 10.199219 1.636719 10.097656 1.773438 C 9.980469 1.9375 9.824219 2.15625 9.632812 2.234375 C 9.535156 2.273438 9.367188 2.269531 9.3125 2.191406 C 9.25 2.097656 9.292969 1.859375 9.296875 1.710938 C 9.300781 1.582031 9.3125 1.441406 9.296875 1.328125 C 9.292969 1.300781 9.292969 1.242188 9.253906 1.242188 C 9.226562 1.261719 9.230469 1.304688 9.226562 1.335938 C 9.191406 1.609375 9.148438 1.839844 9.074219 2.054688 C 8.984375 2.304688 8.859375 2.503906 8.675781 2.664062 C 8.636719 2.695312 8.582031 2.730469 8.527344 2.765625 C 8.433594 2.828125 8.339844 2.886719 8.199219 2.886719 C 8.03125 2.820312 8.148438 2.46875 8.027344 2.355469 C 7.980469 2.527344 7.921875 2.734375 7.761719 2.792969 C 7.601562 2.847656 7.480469 2.738281 7.390625 2.644531 C 6.992188 2.246094 6.828125 1.464844 6.65625 0.863281 C 6.644531 0.863281 6.644531 0.851562 6.628906 0.855469 C 6.628906 0.867188 6.613281 0.863281 6.613281 0.871094 C 6.621094 1.300781 6.671875 1.835938 6.542969 2.191406 C 6.507812 2.296875 6.414062 2.476562 6.3125 2.476562 C 6.167969 2.476562 6.1875 2.25 6.050781 2.261719 C 5.9375 2.269531 5.96875 2.410156 5.957031 2.550781 C 5.945312 2.703125 5.878906 2.816406 5.792969 2.9375 C 5.722656 3.035156 5.621094 3.179688 5.492188 3.1875 C 5.355469 3.195312 5.230469 3.0625 5.101562 2.988281 C 5.140625 3.082031 5.191406 3.164062 5.179688 3.304688 C 5.113281 3.296875 5.089844 3.238281 5.023438 3.230469 C 5.046875 3.3125 5.09375 3.367188 5.101562 3.460938 C 4.992188 3.5625 4.808594 3.574219 4.628906 3.597656 C 4.441406 3.621094 4.246094 3.613281 4.050781 3.613281 C 3.742188 3.613281 3.460938 3.578125 3.273438 3.476562 C 3.203125 3.441406 3.15625 3.378906 3.082031 3.359375 C 3.097656 3.488281 3.191406 3.585938 3.273438 3.683594 C 3.3125 3.730469 3.363281 3.773438 3.402344 3.820312 C 3.445312 3.867188 3.492188 3.917969 3.503906 3.972656 C 3.164062 3.867188 2.886719 3.6875 2.589844 3.546875 C 2.492188 3.496094 2.378906 3.441406 2.253906 3.453125 C 2.25 3.511719 2.320312 3.523438 2.359375 3.546875 C 2.5625 3.671875 2.738281 3.828125 2.875 4.015625 C 2.992188 4.179688 3.070312 4.324219 3.136719 4.53125 C 3.164062 4.628906 3.199219 4.753906 3.195312 4.847656 C 3.1875 4.984375 3.105469 5.132812 3.039062 5.191406 C 2.914062 5.300781 2.664062 5.390625 2.453125 5.40625 C 2.242188 5.417969 2.027344 5.375 1.867188 5.40625 C 1.914062 5.464844 1.996094 5.492188 2.0625 5.542969 C 2.132812 5.59375 2.203125 5.640625 2.246094 5.707031 C 2.304688 5.792969 2.292969 5.972656 2.246094 6.074219 C 2.199219 6.171875 2.058594 6.296875 1.96875 6.347656 C 1.871094 6.40625 1.71875 6.453125 1.5625 6.492188 C 1.414062 6.53125 1.246094 6.566406 1.089844 6.578125 C 0.816406 6.597656 0.511719 6.605469 0.269531 6.597656 C 0.21875 6.59375 0.15625 6.566406 0.121094 6.605469 C 0.117188 6.644531 0.167969 6.660156 0.191406 6.671875 C 0.449219 6.804688 0.828125 6.800781 1.15625 6.851562 C 1.433594 6.898438 1.734375 6.945312 1.988281 7.007812 C 2.082031 7.03125 2.179688 7.039062 2.246094 7.074219 C 2.292969 7.105469 2.363281 7.183594 2.359375 7.246094 C 2.351562 7.324219 2.238281 7.382812 2.160156 7.402344 C 2.054688 7.425781 1.878906 7.414062 1.695312 7.417969 C 1.398438 7.429688 1.132812 7.453125 0.976562 7.351562 C 0.992188 7.445312 1.09375 7.511719 1.175781 7.546875 C 1.308594 7.609375 1.488281 7.648438 1.648438 7.703125 C 1.808594 7.753906 1.988281 7.828125 2.0625 7.925781 C 2.140625 8.023438 2.109375 8.226562 2.0625 8.335938 C 2.03125 8.417969 1.964844 8.46875 1.925781 8.542969 C 1.875 8.644531 1.859375 8.75 1.839844 8.894531 C 1.871094 8.902344 1.886719 8.859375 1.910156 8.839844 C 1.960938 8.792969 2.046875 8.738281 2.117188 8.722656 C 2.367188 8.65625 2.570312 8.761719 2.582031 8.976562 C 2.59375 9.230469 2.390625 9.371094 2.246094 9.464844 C 2.164062 9.519531 2.046875 9.570312 2.054688 9.699219 C 2.175781 9.8125 2.332031 9.703125 2.453125 9.65625 C 2.578125 9.605469 2.730469 9.550781 2.867188 9.519531 C 2.925781 9.503906 3.007812 9.488281 3.074219 9.492188 C 3.191406 9.5 3.296875 9.644531 3.34375 9.730469 C 3.464844 9.976562 3.429688 10.460938 3.386719 10.742188 C 3.371094 10.839844 3.359375 10.9375 3.34375 11.027344 C 3.289062 11.277344 3.160156 11.53125 3.144531 11.78125 C 3.136719 11.859375 3.121094 11.972656 3.179688 12.003906 C 3.222656 11.96875 3.226562 11.894531 3.246094 11.832031 C 3.265625 11.773438 3.28125 11.710938 3.316406 11.652344 C 3.371094 11.554688 3.449219 11.425781 3.550781 11.386719 C 3.605469 11.363281 3.699219 11.34375 3.773438 11.371094 C 3.84375 11.394531 3.929688 11.496094 3.929688 11.601562 C 3.929688 11.648438 3.890625 11.730469 3.867188 11.804688 C 3.851562 11.875 3.828125 11.949219 3.816406 12.019531 C 3.789062 12.199219 3.773438 12.605469 3.972656 12.578125 C 4.046875 12.566406 4.085938 12.433594 4.128906 12.363281 C 4.171875 12.289062 4.242188 12.199219 4.292969 12.15625 C 4.371094 12.089844 4.558594 12.066406 4.636719 12.15625 C 4.683594 12.210938 4.71875 12.351562 4.738281 12.464844 C 4.765625 12.585938 4.785156 12.714844 4.800781 12.816406 C 4.839844 13.097656 4.824219 13.335938 4.835938 13.597656 C 4.855469 14.003906 4.878906 14.363281 4.808594 14.699219 C 4.785156 14.816406 4.730469 14.914062 4.730469 15.023438 C 4.832031 15.015625 4.859375 14.898438 4.894531 14.824219 C 5.113281 14.402344 5.183594 13.929688 5.300781 13.417969 C 5.335938 13.257812 5.425781 12.941406 5.613281 12.972656 C 5.761719 12.996094 5.691406 13.257812 5.878906 13.253906 C 6.015625 13.25 6.0625 13.058594 6.085938 12.929688 C 6.121094 12.761719 6.191406 12.613281 6.3125 12.550781 C 6.515625 12.441406 6.890625 12.445312 6.992188 12.636719 C 7.03125 12.707031 7.046875 12.816406 7.054688 12.910156 C 7.066406 13.113281 7.023438 13.34375 7.035156 13.535156 C 7.042969 13.660156 7.097656 13.769531 7.164062 13.769531 C 7.320312 13.769531 7.289062 13.394531 7.320312 13.28125 C 7.359375 13.308594 7.390625 13.425781 7.398438 13.511719 C 7.414062 13.707031 7.335938 14.257812 7.542969 14.257812 C 7.636719 14.253906 7.671875 14.15625 7.664062 14.035156 C 7.660156 13.910156 7.621094 13.832031 7.613281 13.734375 C 7.605469 13.65625 7.617188 13.578125 7.621094 13.519531 C 7.628906 13.453125 7.621094 13.371094 7.640625 13.3125 C 7.652344 13.269531 7.722656 13.179688 7.769531 13.109375 C 7.851562 12.980469 7.953125 12.839844 8.113281 12.9375 C 8.242188 13.015625 8.359375 13.3125 8.449219 13.417969 C 8.492188 13.464844 8.597656 13.535156 8.640625 13.527344 C 8.710938 13.515625 8.730469 13.386719 8.71875 13.28125 C 8.703125 13.160156 8.621094 13.042969 8.625 12.945312 C 8.625 12.910156 8.652344 12.832031 8.675781 12.792969 C 8.71875 12.714844 8.894531 12.617188 9.027344 12.644531 C 9.097656 12.660156 9.160156 12.742188 9.191406 12.808594 C 9.261719 12.9375 9.296875 13.121094 9.355469 13.269531 C 9.394531 13.371094 9.519531 13.621094 9.640625 13.613281 C 9.738281 13.609375 9.761719 13.476562 9.761719 13.390625 C 9.761719 13.246094 9.691406 13.09375 9.761719 12.960938 C 9.933594 13.035156 10.03125 13.167969 10.132812 13.304688 C 10.1875 13.375 10.242188 13.4375 10.28125 13.511719 C 10.339844 13.617188 10.414062 13.769531 10.453125 13.886719 C 10.5 14.023438 10.535156 14.253906 10.667969 14.230469 C 10.765625 14.214844 10.785156 13.988281 10.789062 13.800781 C 10.800781 13.394531 10.757812 13.074219 10.695312 12.792969 C 10.660156 12.632812 10.59375 12.503906 10.582031 12.347656 C 10.574219 12.230469 10.605469 12.125 10.6875 12.113281 C 10.84375 12.09375 10.800781 12.324219 10.945312 12.3125 C 11.097656 12.296875 11.015625 11.984375 11.015625 11.832031 C 11.015625 11.644531 11.101562 11.464844 11.1875 11.386719 C 11.222656 11.351562 11.261719 11.308594 11.332031 11.316406 C 11.433594 11.328125 11.429688 11.460938 11.53125 11.480469 C 11.640625 11.425781 11.574219 11.242188 11.539062 11.15625 C 11.574219 11.160156 11.617188 11.171875 11.636719 11.144531 C 11.660156 11.054688 11.632812 10.984375 11.644531 10.90625 C 11.675781 10.695312 11.925781 10.445312 12.144531 10.417969 C 12.320312 10.394531 12.46875 10.492188 12.578125 10.546875 C 12.667969 10.59375 12.785156 10.6875 12.894531 10.667969 C 13.027344 10.644531 13.023438 10.492188 12.949219 10.417969 C 12.890625 10.363281 12.78125 10.371094 12.695312 10.347656 C 12.632812 10.335938 12.53125 10.285156 12.464844 10.238281 C 12.378906 10.179688 12.277344 10.113281 12.316406 10.023438 C 12.402344 9.980469 12.511719 10.011719 12.609375 10.015625 C 13 10.035156 13.320312 9.980469 13.585938 9.871094 C 13.644531 9.84375 13.730469 9.832031 13.742188 9.757812 C 13.574219 9.796875 13.382812 9.761719 13.242188 9.722656 C 13.261719 9.6875 13.332031 9.691406 13.320312 9.621094 C 13.195312 9.597656 13 9.589844 12.878906 9.535156 C 12.820312 9.507812 12.730469 9.429688 12.652344 9.371094 C 12.566406 9.308594 12.488281 9.246094 12.445312 9.183594 C 12.394531 9.097656 12.359375 8.933594 12.4375 8.832031 C 12.484375 8.773438 12.5625 8.769531 12.628906 8.710938 C 12.632812 8.601562 12.515625 8.644531 12.535156 8.550781 C 12.542969 8.503906 12.585938 8.519531 12.621094 8.488281 C 12.742188 8.386719 12.609375 8.304688 12.507812 8.265625 C 12.441406 8.105469 12.523438 8.023438 12.628906 7.949219 C 12.753906 7.859375 12.894531 7.800781 13.042969 7.746094 C 13.125 7.714844 13.226562 7.703125 13.265625 7.640625 C 13.082031 7.691406 12.914062 7.660156 12.871094 7.511719 C 12.800781 7.273438 13.046875 7.144531 13.1875 7.058594 C 13.449219 6.902344 13.816406 6.730469 14.113281 6.632812 C 14.257812 6.585938 14.65625 6.414062 14.859375 6.328125 C 15.039062 6.25 15.238281 6.1875 15.386719 6.085938 C 15.433594 6.054688 15.496094 6.011719 15.507812 5.949219 C 15.4375 5.914062 15.371094 5.976562 15.300781 6 Z M 15.300781 6 "/>
<path style="stroke:none;fill-rule:evenodd;fill:rgb(100%,100%,99.607843%);fill-opacity:1;" d="M 10.519531 7.332031 L 9.300781 8.527344 L 9.585938 10.222656 C 9.609375 10.351562 9.554688 10.484375 9.445312 10.5625 C 9.382812 10.605469 9.3125 10.625 9.238281 10.625 C 9.183594 10.625 9.125 10.613281 9.074219 10.585938 L 7.570312 9.789062 L 6.070312 10.585938 C 5.949219 10.648438 5.804688 10.636719 5.695312 10.5625 C 5.589844 10.484375 5.53125 10.351562 5.554688 10.222656 L 5.84375 8.527344 L 4.621094 7.332031 C 4.527344 7.238281 4.496094 7.101562 4.535156 6.976562 C 4.578125 6.851562 4.6875 6.761719 4.820312 6.742188 L 6.5 6.496094 L 7.253906 4.960938 C 7.3125 4.839844 7.4375 4.761719 7.570312 4.761719 C 7.707031 4.761719 7.832031 4.839844 7.890625 4.960938 L 8.640625 6.496094 L 10.324219 6.742188 C 10.457031 6.761719 10.566406 6.851562 10.605469 6.976562 C 10.648438 7.101562 10.617188 7.238281 10.519531 7.332031 Z M 10.519531 7.332031 "/>
<path style="stroke:none;fill-rule:evenodd;fill:rgb(83.529412%,6.27451%,18.823529%);fill-opacity:1;" d="M 8.152344 6.792969 L 7.570312 5.617188 L 6.988281 6.792969 C 6.933594 6.90625 6.820312 6.988281 6.691406 7.003906 L 5.375 7.195312 L 6.332031 8.128906 C 6.421875 8.21875 6.464844 8.34375 6.445312 8.464844 L 6.21875 9.769531 L 7.382812 9.160156 C 7.441406 9.132812 7.507812 9.117188 7.570312 9.117188 C 7.636719 9.117188 7.699219 9.132812 7.757812 9.160156 L 8.921875 9.769531 L 8.699219 8.464844 C 8.675781 8.34375 8.71875 8.21875 8.808594 8.128906 L 9.769531 7.195312 L 8.453125 7.003906 C 8.320312 6.988281 8.210938 6.90625 8.152344 6.792969 Z M 8.152344 6.792969 "/>
<path style="stroke:none;fill-rule:nonzero;fill:rgb(38.823529%,38.823529%,38.431373%);fill-opacity:1;" d="M 21.246094 7.066406 C 20.851562 6.691406 20.472656 6.585938 20.160156 6.585938 C 19.730469 6.585938 19.425781 6.808594 19.425781 7.136719 C 19.425781 8.027344 21.429688 8.011719 21.429688 9.488281 C 21.429688 10.21875 20.878906 10.75 20.132812 10.75 C 19.628906 10.75 19.21875 10.613281 18.832031 10.320312 L 18.832031 9.476562 C 19.171875 9.914062 19.601562 10.152344 20.058594 10.152344 C 20.574219 10.152344 20.8125 9.824219 20.8125 9.566406 C 20.8125 8.605469 18.804688 8.496094 18.804688 7.226562 C 18.804688 6.46875 19.363281 5.988281 20.214844 5.988281 C 20.566406 5.988281 20.921875 6.097656 21.246094 6.3125 Z M 21.246094 7.066406 "/>
<path style="stroke:none;fill-rule:nonzero;fill:rgb(38.823529%,38.823529%,38.431373%);fill-opacity:1;" d="M 24.714844 5.984375 C 26.246094 5.984375 27.214844 7.074219 27.214844 8.367188 C 27.214844 9.617188 26.273438 10.746094 24.703125 10.746094 C 23.1875 10.746094 22.226562 9.625 22.226562 8.367188 C 22.226562 7.082031 23.214844 5.984375 24.714844 5.984375 Z M 24.714844 10.136719 C 25.757812 10.136719 26.527344 9.378906 26.527344 8.367188 C 26.527344 7.34375 25.757812 6.597656 24.714844 6.597656 C 23.683594 6.597656 22.914062 7.347656 22.914062 8.367188 C 22.914062 9.378906 23.683594 10.136719 24.714844 10.136719 Z M 24.714844 10.136719 "/>
<path style="stroke:none;fill-rule:nonzero;fill:rgb(38.823529%,38.823529%,38.431373%);fill-opacity:1;" d="M 28.148438 6.644531 L 28.148438 6.046875 L 32.148438 6.046875 L 29.195312 10.085938 L 32.148438 10.085938 L 32.148438 10.6875 L 27.964844 10.6875 L 30.917969 6.644531 Z M 28.148438 6.644531 "/>
<path style="stroke:none;fill-rule:nonzero;fill:rgb(38.823529%,38.823529%,38.431373%);fill-opacity:1;" d="M 34.113281 10.6875 L 33.449219 10.6875 L 33.449219 6.046875 L 34.113281 6.046875 Z M 34.113281 10.6875 "/>
<path style="stroke:none;fill-rule:nonzero;fill:rgb(38.823529%,38.823529%,38.431373%);fill-opacity:1;" d="M 68.136719 10.6875 L 67.472656 10.6875 L 67.472656 6.046875 L 68.136719 6.046875 Z M 68.136719 10.6875 "/>
<path style="stroke:none;fill-rule:nonzero;fill:rgb(38.823529%,38.823529%,38.431373%);fill-opacity:1;" d="M 39.847656 10.6875 L 39.167969 10.6875 L 38.546875 9.320312 L 36.574219 9.320312 L 35.992188 10.6875 L 35.308594 10.6875 L 37.304688 6.019531 L 37.773438 6.019531 Z M 36.835938 8.71875 L 38.277344 8.71875 L 37.527344 7.039062 Z M 36.835938 8.71875 "/>
<path style="stroke:none;fill-rule:nonzero;fill:rgb(38.823529%,38.823529%,38.431373%);fill-opacity:1;" d="M 41.425781 10.085938 L 43.523438 10.085938 L 43.523438 10.6875 L 40.761719 10.6875 L 40.761719 6.046875 L 41.425781 6.046875 Z M 41.425781 10.085938 "/>
<path style="stroke:none;fill-rule:nonzero;fill:rgb(38.823529%,38.823529%,38.431373%);fill-opacity:1;" d="M 48.574219 10.6875 L 47.910156 10.6875 L 47.910156 8.664062 L 45.308594 8.664062 L 45.308594 10.6875 L 44.644531 10.6875 L 44.644531 6.046875 L 45.308594 6.046875 L 45.308594 8.066406 L 47.910156 8.066406 L 47.910156 6.046875 L 48.574219 6.046875 Z M 48.574219 10.6875 "/>
<path style="stroke:none;fill-rule:nonzero;fill:rgb(38.823529%,38.823529%,38.431373%);fill-opacity:1;" d="M 52.914062 6.644531 L 50.949219 6.644531 L 50.949219 8.046875 L 52.847656 8.046875 L 52.847656 8.644531 L 50.949219 8.644531 L 50.949219 10.085938 L 52.976562 10.085938 L 52.976562 10.6875 L 50.28125 10.6875 L 50.28125 6.046875 L 52.914062 6.046875 Z M 52.914062 6.644531 "/>
<path style="stroke:none;fill-rule:nonzero;fill:rgb(38.823529%,38.823529%,38.431373%);fill-opacity:1;" d="M 55.023438 10.085938 L 57.121094 10.085938 L 57.121094 10.6875 L 54.359375 10.6875 L 54.359375 6.046875 L 55.023438 6.046875 Z M 55.023438 10.085938 "/>
<path style="stroke:none;fill-rule:nonzero;fill:rgb(38.823529%,38.823529%,38.431373%);fill-opacity:1;" d="M 58.382812 6.046875 L 60.1875 6.046875 C 61.902344 6.046875 62.65625 7.269531 62.65625 8.363281 C 62.65625 9.554688 61.726562 10.683594 60.195312 10.683594 L 58.386719 10.683594 L 58.386719 6.046875 Z M 59.050781 10.085938 L 60.113281 10.085938 C 61.621094 10.085938 61.96875 8.9375 61.96875 8.367188 C 61.96875 7.433594 61.378906 6.644531 60.078125 6.644531 L 59.050781 6.644531 Z M 59.050781 10.085938 "/>
<path style="stroke:none;fill-rule:nonzero;fill:rgb(38.823529%,38.823529%,38.431373%);fill-opacity:1;" d="M 74.085938 10.6875 L 73.515625 10.6875 L 70.410156 7.113281 L 70.410156 10.6875 L 69.785156 10.6875 L 69.785156 6.046875 L 70.316406 6.046875 L 73.460938 9.636719 L 73.460938 6.046875 L 74.085938 6.046875 Z M 74.085938 10.6875 "/>
<path style="stroke:none;fill-rule:nonzero;fill:rgb(38.823529%,38.823529%,38.431373%);fill-opacity:1;" d="M 80.003906 10.6875 L 79.429688 10.6875 L 76.328125 7.113281 L 76.328125 10.6875 L 75.703125 10.6875 L 75.703125 6.046875 L 76.234375 6.046875 L 79.375 9.636719 L 79.375 6.046875 L 80.003906 6.046875 Z M 80.003906 10.6875 "/>
<path style="stroke:none;fill-rule:nonzero;fill:rgb(38.823529%,38.823529%,38.431373%);fill-opacity:1;" d="M 84.246094 6.644531 L 82.28125 6.644531 L 82.28125 8.046875 L 84.179688 8.046875 L 84.179688 8.644531 L 82.28125 8.644531 L 82.28125 10.085938 L 84.308594 10.085938 L 84.308594 10.6875 L 81.613281 10.6875 L 81.613281 6.046875 L 84.246094 6.046875 Z M 84.246094 6.644531 "/>
<path style="stroke:none;fill-rule:nonzero;fill:rgb(38.823529%,38.823529%,38.431373%);fill-opacity:1;" d="M 89.988281 10.6875 L 89.417969 10.6875 L 86.316406 7.113281 L 86.316406 10.6875 L 85.6875 10.6875 L 85.6875 6.046875 L 86.21875 6.046875 L 89.363281 9.636719 L 89.363281 6.046875 L 89.988281 6.046875 Z M 89.988281 10.6875 "/>
<path style="stroke:none;fill-rule:nonzero;fill:rgb(83.529412%,6.27451%,18.823529%);fill-opacity:1;" d="M 64.644531 6.03125 L 65.199219 6.03125 L 65.199219 7.046875 L 66.160156 6.742188 L 66.335938 7.207031 L 65.355469 7.519531 L 65.957031 8.390625 L 65.523438 8.683594 L 64.921875 7.835938 L 64.320312 8.683594 L 63.886719 8.390625 L 64.488281 7.519531 L 63.507812 7.207031 L 63.683594 6.742188 L 64.644531 7.046875 Z M 64.644531 6.03125 "/>
</g>
</svg>
