<?xml version="1.0" encoding="UTF-8"?>
<svg width="33px" height="33px" viewBox="0 0 33 33" version="1.1" xmlns="http://www.w3.org/2000/svg" xmlns:xlink="http://www.w3.org/1999/xlink">
    <!-- Generator: Sketch 55.2 (78181) - https://sketchapp.com -->
    <title>icon/calendar</title>
    <desc>Created with Sketch.</desc>
    <g id="icon/calendar" stroke="none" stroke-width="1" fill="none" fill-rule="evenodd">
        <g id="icon/__reference-layout"></g>
        <path d="M22,6 L27,6 L27,27 L6,27 L6,6 L11,6 L11,4 L12,4 L12,6 L21,6 L21,4 L22,4 L22,6 Z M22,7 L22,11 L21,11 L21,7 L12,7 L12,11 L11,11 L11,7 L7,7 L7,26 L26,26 L26,7 L22,7 Z M19,14 L14,14 L14,17 L19,17 L19,14 Z M20,14 L20,17 L25,17 L25,18 L20,18 L20,21 L25,21 L25,22 L20,22 L20,25 L19,25 L19,22 L14,22 L14,25 L13,25 L13,22 L8,22 L8,21 L13,21 L13,18 L8,18 L8,17 L13,17 L13,14 L8,14 L8,13 L25,13 L25,14 L20,14 Z M19,21 L19,18 L14,18 L14,21 L19,21 Z" id="Combined-Shape" fill="#37404D" fill-rule="nonzero"></path>
    </g>
</svg>