<?xml version="1.0" encoding="UTF-8"?>
<svg width="33px" height="33px" viewBox="0 0 33 33" version="1.1" xmlns="http://www.w3.org/2000/svg" xmlns:xlink="http://www.w3.org/1999/xlink">
    <!-- Generator: Sketch 55.2 (78181) - https://sketchapp.com -->
    <title>icon/browser</title>
    <desc>Created with Sketch.</desc>
    <defs>
        <path d="M23.8352964,24.0128906 C24.160268,23.1683334 24.2151692,21.975677 24,20.4349212 C23.6190476,20.4349212 22.6666667,20.4349212 21.1428571,20.4349212 C19.6190476,20.4349212 19.6190476,18.7981964 21.1428571,15.5247467 C21.6190476,14.3617958 22.5714286,13.1342522 24,11.8421159 C26.1428571,9.90391134 24,10.0008004 24.4285714,10.0008004 C24.5065571,10.0008004 24.6744178,10.0617698 24.8968628,10.1948029 C22.9809911,7.647421 19.9328834,6 16.5,6 C12.208476,6 8.51828185,8.57459885 6.88972893,12.2634851 C9.29659458,13.7675862 10.9667781,14.1111304 11.9002796,13.2941176 C13.378911,12 14.3646652,13.9411765 13.8717881,15.2352941 C13.378911,16.5294118 12.8860338,17.8235294 10.9145254,17.8235294 C9.60018641,17.8235294 8.61443218,18.9019608 7.95726269,21.0588235 L7.95726269,22.6064411 C9.86213552,25.2665605 12.9786345,27 16.5,27 C19.3543275,27 21.9426454,25.8610777 23.8352964,24.0128906 Z M16.5,29 C9.59644063,29 4,23.4035594 4,16.5 C4,9.59644063 9.59644063,4 16.5,4 C23.4035594,4 29,9.59644063 29,16.5 C29,23.4035594 23.4035594,29 16.5,29 Z" id="path-1"></path>
    </defs>
    <g id="icon/browser" stroke="none" stroke-width="1" fill="none" fill-rule="evenodd">
        <mask id="mask-2" fill="white">
            <use xlink:href="#path-1"></use>
        </mask>
        <use id="Combined-Shape" fill="#37404D" fill-rule="nonzero" xlink:href="#path-1"></use>
    </g>
</svg>