<?xml version="1.0" encoding="UTF-8"?>
<svg width="33px" height="33px" viewBox="0 0 33 33" version="1.1" xmlns="http://www.w3.org/2000/svg" xmlns:xlink="http://www.w3.org/1999/xlink">
    <!-- Generator: Sketch 55.2 (78181) - https://sketchapp.com -->
    <title>icon/place</title>
    <desc>Created with Sketch.</desc>
    <defs>
        <path d="M25.5492571,12.37 C25.5492571,13.6497267 25.3604478,14.6986672 24.9828235,15.5168531 L16.5807256,30.37 L8.14715919,15.5168531 C7.76953493,14.6986672 7.58072563,13.6497267 7.58072563,12.37 C7.58072563,9.89446315 8.4618357,7.77560322 10.2240823,6.01335664 C11.9863288,4.25111007 14.1051888,3.37 16.5807256,3.37 C19.0562625,3.37 21.1751224,4.25111007 22.937369,6.01335664 C24.6996156,7.77560322 25.5702362,9.89446315 25.5492571,12.37 Z M23.1957526,14.6139599 C23.4216337,14.0882707 23.5492571,13.3403083 23.5492571,12.37 C23.5657546,10.4148146 22.9068845,8.81129926 21.5231554,7.42757021 C20.1352775,6.03969228 18.524827,5.37 16.5807256,5.37 C14.6366242,5.37 13.0261738,6.03969228 11.6382958,7.42757021 C10.2504179,8.81544813 9.58072563,10.4258986 9.58072563,12.37 C9.58072563,13.3395248 9.70814298,14.0870626 9.93368308,14.612686 L16.5774733,26.3136896 L23.1957526,14.6139599 Z M20,12 C20,13.4627088 19.6573461,14.2867099 19,15 C18.2867099,15.6573461 17.4627088,16 16,16 C15.5372912,16 14.7132901,15.6573461 14,15 C13.3426539,14.2867099 13,13.4627088 13,12 C13,11.5372912 13.3426539,10.7132901 14,10 C14.7132901,9.34265392 15.5372912,9 16,9 C17.4627088,9 18.2867099,9.34265392 19,10 C19.6573461,10.7132901 20,11.5372912 20,12 Z" id="path-1"></path>
    </defs>
    <g id="icon/place" stroke="none" stroke-width="1" fill="none" fill-rule="evenodd">
        <g id="icon/__reference-layout"></g>
        <mask id="mask-2" fill="white">
            <use xlink:href="#path-1"></use>
        </mask>
        <use id="Combined-Shape" fill="#37404D" fill-rule="nonzero" xlink:href="#path-1"></use>
    </g>
</svg>