<svg width="729" height="131" viewBox="0 0 729 131" fill="none" xmlns="http://www.w3.org/2000/svg">
<path fill-rule="evenodd" clip-rule="evenodd" d="M82.2277 54.2446C81.8471 54.374 81.3921 54.4566 80.9768 54.5688C80.176 54.7833 79.328 55.0298 78.4727 55.2108C77.6227 55.3938 75.9774 55.5704 74.9852 55.6467C73.5753 55.7539 71.0612 56.1298 69.4877 56.0146C68.4713 55.9413 67.6952 55.4263 67.4469 54.6795C67.0901 53.611 67.8934 52.6468 68.4658 52.1947C68.6754 52.0284 69.006 51.9448 69.0224 51.6432C68.4326 51.6373 68.2131 52.0038 67.7249 52.1032C67.827 51.8626 68.0124 51.6609 68.1883 51.4572C68.3409 51.2792 68.6735 51.1011 68.5595 50.8128C68.218 50.828 67.9375 51.0898 67.6327 51.2723C67.3275 51.4548 66.9999 51.6998 66.6579 51.8267C65.7153 52.1711 64.5165 51.8813 64.0135 51.3652C63.5338 50.8703 63.2468 49.8855 63.1328 48.9709C62.9311 47.3475 63.0793 46.1102 63.3643 44.5975C63.6636 43.0129 64.2865 41.6143 64.8941 40.5001C65.4973 39.4006 66.3967 38.2258 67.1674 37.1396C67.4841 36.6919 67.8686 36.2698 67.769 35.8502C67.7309 35.676 67.4766 35.403 67.1674 35.436C66.9786 35.4561 66.537 35.9923 66.2411 36.2629C65.8794 36.5974 65.5716 36.87 65.3119 37.0923C63.9114 38.2942 62.7269 39.0173 60.9537 39.7621C60.08 40.1296 59.1781 40.5537 58.3093 40.685C57.7344 40.7687 56.7497 40.7721 56.1297 40.5468C55.7169 40.3958 55.3749 40.0519 55.1569 39.7621C54.693 39.1566 54.3045 38.2563 54.2287 37.2316C54.0364 34.7266 55.0652 32.4503 55.8051 30.6946C56.0767 30.0417 56.4196 29.3894 56.4528 28.713C56.1134 28.7332 56.0113 29.1218 55.8522 29.3574C55.3408 30.1175 54.8006 30.7984 54.2738 31.522C53.6245 32.4124 52.79 33.5838 51.7706 34.0078C51.2492 34.2243 50.3428 34.1962 50.0529 33.7771C49.7089 33.2807 49.9344 31.9992 49.9602 31.1988C49.982 30.5017 50.0434 29.7367 49.9602 29.1277C49.9414 28.9826 49.9473 28.68 49.7302 28.6667C49.583 28.7883 49.6113 29.0087 49.59 29.1725C49.3932 30.6385 49.1554 31.8787 48.7544 33.0416C48.2901 34.3881 47.6007 35.4591 46.6204 36.3101C46.4143 36.4917 46.111 36.6732 45.832 36.8616C45.3314 37.2055 44.8254 37.5189 44.0712 37.5071C43.1618 37.1533 43.7976 35.2593 43.1429 34.6523C42.8768 35.5717 42.5656 36.6894 41.7057 37.0004C40.8449 37.3093 40.2086 36.7214 39.71 36.2182C37.5805 34.0644 36.6845 29.8607 35.7696 26.6414C35.7092 26.6389 35.7032 26.5829 35.6294 26.5956C35.6294 26.6557 35.5486 26.637 35.5372 26.6886C35.5868 28.99 35.8529 31.8683 35.1645 33.7771C34.9623 34.3424 34.4712 35.2967 33.9132 35.2967C33.151 35.2967 33.2605 34.0998 32.5226 34.1471C31.8976 34.1859 32.0785 34.9538 32.0116 35.7119C31.9407 36.5207 31.5894 37.1396 31.1314 37.783C30.7632 38.2991 30.2052 39.0788 29.5064 39.1187C28.7883 39.159 28.1119 38.4462 27.4195 38.0585C27.6257 38.5608 27.8997 38.9952 27.8378 39.7621C27.4706 39.7115 27.3571 39.4099 27.0022 39.3484C27.1113 39.7926 27.3729 40.0849 27.4195 40.5916C26.8204 41.1312 25.8391 41.1996 24.8687 41.3295C23.8667 41.4599 22.8106 41.421 21.7619 41.421C20.1067 41.421 18.6016 41.2291 17.5881 40.685C17.2184 40.4858 16.9528 40.1532 16.5667 40.0401C16.6534 40.7377 17.1426 41.2724 17.5881 41.7885C17.8057 42.0433 18.0693 42.2809 18.2834 42.5249C18.5089 42.7807 18.7716 43.0469 18.84 43.3534C16.9944 42.7763 15.5176 41.817 13.9233 41.054C13.3865 40.7943 12.7829 40.4976 12.1159 40.5468C12.0975 40.8695 12.4618 40.9261 12.6714 41.054C13.7701 41.7196 14.7256 42.5677 15.4536 43.5841C16.081 44.4588 16.5058 45.2341 16.8467 46.3459C17.0053 46.8713 17.1936 47.5335 17.1703 48.05C17.1371 48.7732 16.6966 49.5814 16.3348 49.8914C15.6509 50.4802 14.3158 50.9668 13.1824 51.0425C12.048 51.1188 10.9037 50.8703 10.027 51.0425C10.2951 51.3569 10.7352 51.5163 11.094 51.7775C11.4592 52.0486 11.8473 52.3172 12.0693 52.6541C12.3865 53.1323 12.323 54.0985 12.0693 54.6337C11.8131 55.1705 11.0578 55.8282 10.584 56.1066C10.0547 56.4176 9.23157 56.6763 8.40345 56.8908C7.60655 57.0959 6.68872 57.2917 5.85317 57.3493C4.3793 57.4541 2.74387 57.4964 1.44841 57.4428C1.17287 57.4305 0.834385 57.2844 0.657957 57.487C0.632682 57.6991 0.894351 57.7866 1.03014 57.856C2.41926 58.5639 4.4576 58.5477 6.22387 58.8237C7.70765 59.0554 9.32771 59.3161 10.6767 59.6516C11.1797 59.7776 11.7149 59.8154 12.0693 60.0201C12.3255 60.1687 12.6907 60.6045 12.6714 60.9415C12.6461 61.3587 12.0282 61.675 11.6044 61.7699C11.0375 61.8983 10.1068 61.83 9.10024 61.861C7.51437 61.9102 6.0856 62.0518 5.25054 61.493C5.33479 62.0066 5.88489 62.3534 6.31803 62.5536C7.02423 62.8813 8.00054 63.0953 8.8688 63.3806C9.71129 63.6566 10.6921 64.0649 11.094 64.58C11.5098 65.1078 11.3408 66.1916 11.094 66.7878C10.9161 67.2217 10.5503 67.509 10.3526 67.8932C10.0711 68.4373 9.98634 69.0124 9.88723 69.7808C10.0637 69.8276 10.1474 69.6052 10.2604 69.5053C10.5399 69.2554 11.0018 68.9583 11.3745 68.8594C12.7299 68.5013 13.8232 69.071 13.8762 70.2413C13.9396 71.5887 12.8548 72.3444 12.0693 72.8649C11.6287 73.1576 10.9993 73.4237 11.0479 74.107C11.6847 74.7313 12.5232 74.1351 13.1824 73.8788C13.8643 73.6097 14.6775 73.3106 15.4085 73.1408C15.7326 73.068 16.1698 72.9844 16.5206 73.0031C17.1436 73.0385 17.7194 73.8197 17.9588 74.291C18.6169 75.5971 18.4261 78.2168 18.1907 79.7246C18.1119 80.2387 18.0614 80.7641 17.9588 81.2447C17.6684 82.5971 16.988 83.9681 16.8913 85.2954C16.8616 85.717 16.7783 86.3334 17.0772 86.4953C17.32 86.3049 17.3428 85.9054 17.4479 85.5709C17.5485 85.2541 17.6416 84.923 17.8186 84.6052C18.1174 84.0744 18.5312 83.3935 19.0714 83.1791C19.3831 83.0531 19.8767 82.9503 20.2791 83.0875C20.6647 83.2169 21.1172 83.7615 21.1137 84.3317C21.1097 84.5909 20.9001 85.0253 20.7876 85.4346C20.6895 85.7987 20.57 86.205 20.5101 86.5853C20.3545 87.548 20.2717 89.7372 21.3441 89.5793C21.7456 89.5183 21.9498 88.8084 22.1782 88.4267C22.4141 88.0361 22.7962 87.5377 23.0599 87.3217C23.498 86.9641 24.5005 86.8318 24.9168 87.3217C25.1597 87.6066 25.3505 88.3721 25.4724 88.9786C25.6012 89.6152 25.7207 90.3216 25.797 90.8687C26.0106 92.3804 25.9159 93.6556 25.9823 95.0567C26.0884 97.2537 26.2271 99.1807 25.8446 100.969C25.7068 101.602 25.4233 102.138 25.4258 102.719C25.966 102.676 26.1072 102.048 26.3069 101.659C27.4745 99.3843 27.8487 96.8385 28.4865 94.09C28.6818 93.2443 29.1536 91.5323 30.1551 91.6952C30.9649 91.8275 30.5769 93.2359 31.5938 93.2148C32.3303 93.2 32.5696 92.1546 32.7074 91.4644C32.8878 90.5627 33.2818 89.7751 33.9132 89.4401C35.0193 88.8507 37.0398 88.8773 37.5765 89.9C37.7753 90.2793 37.8679 90.8638 37.9016 91.3734C37.975 92.4636 37.7366 93.6949 37.8085 94.7339C37.8555 95.3946 38.1341 95.9746 38.5052 95.9771C39.3492 95.9835 39.1713 93.9763 39.3398 93.352C39.5584 93.5046 39.7199 94.1362 39.7576 94.5962C39.8453 95.6514 39.4315 98.6139 40.5456 98.6011C41.0417 98.5947 41.232 98.0531 41.1938 97.4047C41.1581 96.745 40.9633 96.3303 40.9163 95.7931C40.8806 95.3804 40.9401 94.9588 40.9633 94.6434C40.9886 94.2922 40.9599 93.8435 41.0565 93.5375C41.1323 93.2906 41.5025 92.8242 41.7518 92.4326C42.186 91.7444 42.744 90.9823 43.6068 91.5112C44.3036 91.9406 44.9221 93.536 45.4157 94.09C45.6446 94.3458 46.2002 94.7354 46.4356 94.6877C46.8033 94.6149 46.9267 93.9271 46.8534 93.352C46.7726 92.712 46.3236 92.0863 46.3424 91.5589C46.3499 91.3675 46.4926 90.944 46.6204 90.7295C46.8603 90.3275 47.798 89.7972 48.522 89.9473C48.8991 90.0225 49.2188 90.4628 49.4036 90.821C49.7654 91.521 49.9651 92.4951 50.2858 93.3068C50.4934 93.8371 51.1545 95.1836 51.8157 95.1501C52.3375 95.1206 52.4669 94.3999 52.4649 93.9522C52.4639 93.1818 52.0734 92.348 52.4649 91.6494C53.3787 92.0489 53.908 92.7622 54.4601 93.4913C54.7391 93.8607 55.036 94.2076 55.2481 94.5962C55.5628 95.1757 55.9637 95.9884 56.1748 96.6211C56.4162 97.3437 56.6144 98.5785 57.335 98.4629C57.8499 98.3798 57.9555 97.1514 57.9842 96.1606C58.0466 93.967 57.8152 92.2535 57.4737 90.7295C57.2815 89.8691 56.9346 89.1749 56.8706 88.3347C56.823 87.705 56.9891 87.1446 57.4286 87.091C58.283 86.9892 58.0417 88.223 58.8198 88.1512C59.636 88.0734 59.1944 86.3984 59.1895 85.5709C59.1875 84.5673 59.6613 83.6036 60.1182 83.1791C60.31 82.9975 60.5132 82.7712 60.9062 82.8091C61.4379 82.8632 61.427 83.5893 61.9722 83.6843C62.5466 83.3842 62.2056 82.4028 62.0197 81.9354C62.1937 81.9698 62.4276 82.0318 62.5302 81.8877C62.6605 81.3977 62.5109 81.0263 62.5773 80.6003C62.7492 79.4643 64.0943 78.1199 65.2673 77.9762C66.2 77.8606 66.9974 78.3742 67.5847 78.6669C68.0773 78.9119 68.7007 79.4161 69.3024 79.3099C70.0051 79.1898 69.9957 78.3673 69.5804 77.9762C69.2706 77.6815 68.6873 77.7145 68.2344 77.6077C67.8924 77.5285 67.3403 77.2565 66.982 77.01C66.5251 76.6907 65.9824 76.3292 66.1936 75.8579C66.6554 75.6316 67.2348 75.787 67.769 75.8131C69.8673 75.9095 71.591 75.6178 73.0123 75.0309C73.331 74.8966 73.7963 74.8351 73.8459 74.4297C72.9464 74.6492 71.9136 74.4499 71.1563 74.2458C71.2738 74.0411 71.638 74.078 71.5741 73.6933C70.9021 73.5624 69.851 73.5369 69.2072 73.2353C68.9034 73.0887 68.4163 72.6637 68.0029 72.3586C67.5316 72.0084 67.102 71.6896 66.8884 71.3452C66.5975 70.8739 66.4136 70.0071 66.8433 69.4601C67.0901 69.1433 67.5192 69.1113 67.8637 68.8146C67.8805 68.2243 67.267 68.4408 67.3537 67.939C67.3949 67.695 67.6407 67.7658 67.8186 67.6153C68.4737 67.0613 67.7532 66.6112 67.215 66.4203C66.8527 65.5516 67.3106 65.1113 67.8637 64.7157C68.5476 64.2267 69.2905 63.905 70.0893 63.6118C70.5413 63.4455 71.0686 63.3993 71.2951 63.0603C70.292 63.3314 69.3911 63.1577 69.1621 62.3672C68.7884 61.0817 70.1047 60.3891 70.8783 59.9286C72.2769 59.0967 74.2468 58.1566 75.847 57.6322C76.6182 57.3788 78.7626 56.4672 79.8623 55.9945C80.8227 55.5832 81.8882 55.2413 82.6921 54.7041C82.9493 54.5344 83.2724 54.2953 83.3438 53.9691C82.9567 53.7733 82.5934 54.1211 82.2277 54.2446Z" fill="#D51030"/>
<path fill-rule="evenodd" clip-rule="evenodd" d="M56.5371 61.3857L49.974 67.8232L51.5247 76.9226C51.6448 77.625 51.3492 78.3303 50.7596 78.7444C50.4326 78.9758 50.0453 79.0934 49.6565 79.0934C49.3479 79.0934 49.0404 79.0194 48.7558 78.8714L40.6883 74.6023L32.6188 78.8714C31.9813 79.2086 31.2037 79.1591 30.615 78.7444C30.0293 78.3303 29.7298 77.625 29.8489 76.9226L31.4006 67.8232L24.8374 61.3857C24.3305 60.8878 24.153 60.1521 24.3759 59.4825C24.6017 58.812 25.1898 58.3278 25.8981 58.2219L34.9321 56.901L38.9816 48.649C39.2966 48.002 39.9605 47.5938 40.6883 47.5938C41.4165 47.5938 42.0805 48.002 42.3945 48.649L46.4439 56.901L55.4759 58.2219C56.1862 58.3278 56.7734 58.812 56.9977 59.4825C57.2225 60.1521 57.0461 60.8878 56.5371 61.3857Z" fill="#FFFFFE"/>
<path fill-rule="evenodd" clip-rule="evenodd" d="M43.8099 58.4903L40.688 52.1875L37.5641 58.4903C37.2579 59.1099 36.6576 59.5412 35.9589 59.6409L28.875 60.6684L34.0331 65.6787C34.521 66.1514 34.7443 66.8283 34.6309 67.4896L33.4238 74.5L39.6762 71.2273C39.9948 71.0609 40.3404 70.9783 40.688 70.9783C41.0341 70.9783 41.3832 71.0609 41.6978 71.2273L47.9537 74.5L46.7456 67.4896C46.6307 66.8283 46.8535 66.1514 47.3409 65.6787L52.5 60.6684L45.4166 59.6409C44.7194 59.5412 44.1176 59.1099 43.8099 58.4903Z" fill="#D51030"/>
<path d="M122.534 55.5415C119.052 52.2393 115.693 51.2853 112.937 51.2853C109.154 51.2853 106.455 53.2666 106.455 56.1448C106.455 64.0049 124.148 63.8826 124.148 76.9039C124.148 83.3208 119.289 88.001 112.692 88.001C108.257 88.001 104.653 86.8024 101.236 84.2258V76.7898C104.237 80.6301 108.012 82.7337 112.032 82.7337C116.59 82.7337 118.693 79.8555 118.693 77.5725C118.693 69.1091 101 68.1551 101 56.9357C101 50.2742 105.917 46.0181 113.418 46.0181C116.541 46.0181 119.655 46.9802 122.534 48.8963V55.5415V55.5415Z" fill="#636362"/>
<path d="M153.126 46C166.62 46 175.141 55.5968 175.141 66.9955C175.141 78.0355 166.865 87.991 153.004 87.991C139.624 87.991 131.168 78.0926 131.168 66.9955C131.168 55.662 139.868 46 153.126 46ZM153.126 82.5934C162.307 82.5934 169.083 75.9319 169.083 66.9955C169.083 57.9939 162.307 51.3977 153.126 51.3977C144.01 51.3977 137.226 58.0021 137.226 66.9955C137.235 75.9319 144.01 82.5934 153.126 82.5934Z" fill="#636362"/>
<path d="M183.384 51.8218V46.5464H218.656L192.622 82.1776H218.656V87.453H181.761L207.796 51.8218H183.384Z" fill="#636362"/>
<path d="M235.999 87.4529H230.12V46.5381H235.999V87.4529Z" fill="#636362"/>
<path d="M536.052 87.4529H530.173V46.5381H536.052V87.4529Z" fill="#636362"/>
<path d="M286.56 87.453H280.559L275.104 75.3938H257.704L252.551 87.453H246.55L264.129 46.3018H268.263L286.56 87.453ZM259.987 70.1184H272.707L266.11 55.3033L259.987 70.1184Z" fill="#636362"/>
<path d="M300.486 82.1693H318.962V87.4529H294.607V46.5381H300.486V82.1693Z" fill="#636362"/>
<path d="M363.53 87.4529H357.651V69.6372H334.731V87.4529H328.852V46.5381H334.731V64.3537H357.651V46.5381H363.53V87.4529Z" fill="#636362"/>
<path d="M401.803 51.8216H384.468V64.1743H401.207V69.4579H384.468V82.1775H402.341V87.4529H378.589V46.5381H401.803V51.8216Z" fill="#636362"/>
<path d="M420.401 82.1693H438.877V87.4529H414.522V46.5381H420.401V82.1693Z" fill="#636362"/>
<path d="M450.031 46.5381H465.931C481.047 46.5381 487.709 57.3335 487.709 66.9873C487.709 77.4892 479.49 87.4447 465.996 87.4447H450.039V46.5381H450.031ZM455.91 82.1693H465.27C478.585 82.1693 481.651 72.0262 481.651 66.9955C481.651 58.7766 476.432 51.8216 464.977 51.8216H455.918V82.1693H455.91Z" fill="#636362"/>
<path d="M588.496 87.4529H583.457L556.101 55.9555V87.4529H550.581V46.5381H555.262L582.976 78.2067V46.5381H588.496V87.4529V87.4529Z" fill="#636362"/>
<path d="M640.679 87.4529H635.64L608.284 55.9555V87.4529H602.764V46.5381H607.445L635.159 78.2067V46.5381H640.679V87.4529V87.4529Z" fill="#636362"/>
<path d="M678.104 51.8216H660.769V64.1743H677.509V69.4579H660.769V82.1775H678.65V87.4529H654.89V46.5381H678.104V51.8216Z" fill="#636362"/>
<path d="M728.738 87.4529H723.699L696.343 55.9555V87.4529H690.823V46.5381H695.504L723.218 78.2067V46.5381H728.738V87.4529V87.4529Z" fill="#636362"/>
<path d="M505.247 46.4077H510.139V55.3767L518.619 52.686L520.168 56.7628L511.526 59.535L516.825 67.1994L512.993 69.8085L507.693 62.3072L502.394 69.8085L498.561 67.1994L503.861 59.535L495.218 56.7628L496.768 52.686L505.247 55.3767V46.4077V46.4077Z" fill="#D51030"/>
</svg>
