<?xml version="1.0" encoding="UTF-8"?>
<svg width="33px" height="33px" viewBox="0 0 33 33" version="1.1" xmlns="http://www.w3.org/2000/svg" xmlns:xlink="http://www.w3.org/1999/xlink">
    <!-- Generator: Sketch 55.1 (78136) - https://sketchapp.com -->
    <title>icon/user</title>
    <desc>Created with Sketch.</desc>
    <defs>
        <path d="M24.3939564,29 C22.8584187,28.3130099 21.7200287,27.6039231 20.9702865,26.8541809 C19.8760656,25.7599601 19.3338649,24.2882725 19.3338649,22.5003543 C19.3338649,21.6575199 19.7316604,20.8273381 20.4677584,19.9952273 C20.919454,19.4846149 21.2442677,18.7092532 21.4203433,17.6527994 C21.5076671,17.1288565 21.7289872,16.6862164 22.1014246,16.3669843 C22.3296257,16.1713834 22.5716199,16.0205311 22.8283898,15.9205091 C22.8544541,15.8775501 22.8860387,15.8182997 22.9208555,15.7436924 C23.0401191,15.4881274 23.1318254,15.0499751 23.1725173,14.5159573 C23.1725173,13.9981796 23.099728,13.8283377 23.0754214,13.8175348 L22.3892789,13.5125826 L22.4907297,12.7686101 L22.9483144,9.4152776 C23.0698921,8.32107886 22.6480789,7.14000185 21.6232395,5.84781312 C20.6621573,4.63601382 18.929568,4 16.3416664,4 C13.7567837,4 12.0401797,4.63415947 11.1050672,5.83941551 C10.0946941,7.1416742 9.65604016,8.33994836 9.73564001,9.42102435 C9.83598047,10.3742586 9.98715071,11.4828404 10.1892135,12.7457328 L10.2698705,13.2498392 L9.64512067,13.874589 C9.63113401,13.899245 9.6149628,13.9295461 9.59717523,13.9651213 C9.54602172,14.0674283 9.51081542,14.250501 9.50827412,14.4447102 C9.55150732,15.0499751 9.64321362,15.4881274 9.76247727,15.7436924 C9.79729403,15.8182997 9.82887862,15.8775501 9.85494292,15.9205091 C10.1117128,16.0205311 10.3537071,16.1713834 10.5819082,16.3669843 C10.9543456,16.6862164 11.1756656,17.1288565 11.2537719,17.6047687 C11.4784196,18.6381481 11.8252878,19.4294412 12.2801993,19.9877417 C12.9758888,20.8415425 13.3494678,21.6736049 13.3494678,22.5003543 C13.3494678,24.2827606 12.8244314,25.7497743 11.7616054,26.8438598 C11.0273282,27.5997334 9.88507879,28.3109989 8.32206797,29 L2.78066808,29 C3.67316393,28.6287113 4.67615075,28.2487374 5.79071483,27.8553681 C8.0658837,27.0324347 9.58627247,26.2128501 10.3270466,25.4502885 C11.0044185,24.752994 11.3494678,23.7888854 11.3494678,22.5003543 C11.3494678,22.2010935 11.1600502,21.7792086 10.7297293,21.2510876 C10.0586305,20.4274663 9.58659436,19.3506339 9.29020161,17.9815974 C9.27516085,17.8913528 9.26616406,17.8733592 9.28032544,17.8854975 C9.20475225,17.8207205 9.15035275,17.7896351 9.11898435,17.7806727 C8.58170463,17.6271642 8.24170491,17.2143074 7.95011099,16.5894633 C7.71109863,16.077294 7.57248809,15.4150436 7.51081542,14.5159573 C7.51081542,13.9624969 7.60356292,13.4802099 7.80832085,13.0706941 C7.91172083,12.8638941 8.01526206,12.6894538 8.13303117,12.5442831 C7.96566891,11.4585343 7.83653144,10.4838481 7.74386681,9.59958082 C7.62149981,7.94762633 8.23206705,6.27973534 9.5248969,4.61342131 C10.8929874,2.85010462 13.1941327,2 16.3416664,2 C19.4861811,2 21.7969318,2.84825028 23.1902349,4.6050237 C24.5197808,6.28140769 25.121598,7.96649583 24.9330284,9.66082234 L24.5499613,12.469981 C24.9790226,12.9544382 25.17177,13.6739713 25.169976,14.5872043 C25.1108447,15.4150436 24.9722341,16.077294 24.7332218,16.5894633 C24.4416278,17.2143074 24.1016281,17.6271642 23.5643484,17.7806727 C23.53298,17.7896351 23.4785805,17.8207205 23.4030073,17.8854975 C23.4171687,17.8733592 23.4081719,17.8913528 23.3931311,17.9815974 C23.1597485,19.3818934 22.6912486,20.5002479 21.9657515,21.3203751 C21.5246569,21.8190037 21.3338649,22.2171784 21.3338649,22.5003543 C21.3338649,23.7833735 21.6873408,24.7428082 22.3845,25.4399674 C23.1556231,26.2110904 24.6652938,27.0316646 26.8923052,27.8552261 C28.006859,28.2487066 29.0097535,28.6287255 29.9021267,29 L24.3939564,29 Z" id="path-1"></path>
    </defs>
    <g id="icon/user" stroke="none" stroke-width="1" fill="none" fill-rule="evenodd">
        <g id="icon/__reference-layout"></g>
        <mask id="mask-2" fill="white">
            <use xlink:href="#path-1"></use>
        </mask>
        <use id="Combined-Shape" fill="#37404D" fill-rule="nonzero" xlink:href="#path-1"></use>
    </g>
</svg>