<svg width="15" height="15" viewBox="0 0 15 15" fill="none" xmlns="http://www.w3.org/2000/svg">
<path d="M3.17104 5.95379L3.56687 5.68638C3.70658 5.605 3.85793 5.58175 4.00927 5.605L5.38305 5.90728L7.1061 4.77954L5.26663 3.6983C5.13857 3.61692 5.092 3.44252 5.17349 3.30301C5.19678 3.26813 5.22006 3.23325 5.26663 3.21L5.96516 2.75658C6.03501 2.71007 6.11651 2.69845 6.18636 2.71007L9.29483 3.37277L10.5755 2.53568C11.3904 2.00087 12.3916 1.86136 13.323 2.14039L13.5791 2.21015C13.8935 2.30315 14.0681 2.62869 13.975 2.9426C13.9284 3.07049 13.8469 3.18675 13.7305 3.2565L6.43085 8L3.22925 6.62811C3.03133 6.5351 2.94984 6.3142 3.03133 6.11655C3.05461 6.0468 3.11283 5.98866 3.17104 5.95379Z" fill="black"/>
<rect x="2" y="12" width="7" height="1" fill="black"/>
</svg>
