<?xml version="1.0" encoding="UTF-8" standalone="no"?>
<svg width="15px" height="15px" viewBox="0 0 15 15" version="1.1" xmlns="http://www.w3.org/2000/svg" xmlns:xlink="http://www.w3.org/1999/xlink">
    <!-- Generator: Sketch 41.2 (35397) - http://www.bohemiancoding.com/sketch -->
    <title>barber</title>
    <desc>Created with Sketch.</desc>
    <defs></defs>
    <g id="Page-1" stroke="none" stroke-width="1" fill="none" fill-rule="evenodd">
        <g id="barber" fill="#010101">
            <g id="beautysalon" transform="translate(0.000000, 2.000000)">
                <g id="svg4619">
                    <path d="M15,1 C15,1 13,0.4 11.5,1.5 L7.2,4.5 C6.4,3.9 5.2,3.2 4,2.8 L4,2 C4,0.9 3.1,0 2,0 C0.9,0 0,0.9 0,2 L0,3.5 C0,4 0.5,4 0.5,4 L2,4 L2.5,4 C4.5,4 6,5.5 6,5.5 C6,5.5 4.5,7 2.5,7 L2,7 L0.5,7 C0.5,7 0,7 0,7.5 L0,9 C0,10.1 0.9,11 2,11 C3.1,11 4,10.1 4,9 L4,8.2 C5.2,7.8 6.4,7.1 7.2,6.5 L11.5,9.5 C13,10.6 15,10 15,10 L8.5,5.5 L15,1 Z M3,3 L2,3 L1,3 L1,2 C1,1.4 1.4,1 2,1 C2.6,1 3,1.4 3,2 L3,3 Z M3,9 C3,9.6 2.6,10 2,10 C1.4,10 1,9.6 1,9 L1,8 L2,8 L3,8 L3,9 Z M7.25,6 C6.9739,6 6.75,5.7761 6.75,5.5 C6.75,5.2239 6.9739,5 7.25,5 C7.5261,5 7.75,5.2239 7.75,5.5 C7.75,5.7761 7.5261,6 7.25,6 Z" id="Shape"></path>
                </g>
            </g>
        </g>
    </g>
</svg>