<?xml version="1.0" encoding="UTF-8" standalone="no"?>
<svg width="15px" height="15px" viewBox="0 0 15 15" version="1.1" xmlns="http://www.w3.org/2000/svg" xmlns:xlink="http://www.w3.org/1999/xlink">
    <!-- Generator: Sketch 41.2 (35397) - http://www.bohemiancoding.com/sketch -->
    <title>books</title>
    <desc>Created with Sketch.</desc>
    <defs></defs>
    <g id="Page-1" stroke="none" stroke-width="1" fill="none" fill-rule="evenodd">
        <g id="books" fill="#000000">
            <g transform="translate(1.000000, 3.000000)" id="Layer_1">
                <g>
                    <path d="M6.47,1.92 C6.47,1.92 4.7,0 0,0 L0,8 C4.7,8 6.47,10 6.47,10 C6.47,10 8.3,8 13,8 L13,0 C8.3,0 6.47,1.92 6.47,1.92 Z M12,7 C10.0386,7.0492 8.1273,7.6299 6.47,8.68 C4.836,7.6273 2.9432,7.0459 1,7 L1,1 C4.4,1.26 5.73,2.6 5.75,2.61 L6.48,3.35 L7.2,2.6 C7.2,2.6 8.6,1.26 12,1 L12,7 Z M7,7.24 L6.9,7.07 C8.2011,6.4769 9.5827,6.0793 11,5.89 L11,6.09 C9.6161,6.2853 8.2684,6.6829 7,7.27 L7,7.24 Z M7,6.24 L6.9,6.07 C8.2016,5.4802 9.5832,5.086 11,4.9 L11,5.1 C9.6156,5.2988 8.2679,5.6997 7,6.29 L7,6.24 Z M7,5.24 L6.9,5.07 C8.2015,4.48 9.5831,4.0857 11,3.9 L11,4.1 C9.6155,4.2981 8.2677,4.699 7,5.29 L7,5.24 Z M7,4.24 L6.9,4.07 C8.2013,3.4794 9.583,3.0851 11,2.9 L11,3.1 C9.6156,3.2986 8.2679,3.6996 7,4.29 L7,4.24 Z M5.9,7.24 C4.6639,6.6641 3.3499,6.2733 2,6.08 L2,5.88 C3.3872,6.0828 4.7358,6.4941 6,7.1 L5.9,7.24 Z M5.9,6.24 C4.6629,5.671 3.3488,5.2869 2,5.1 L2,4.9 C3.386,5.1027 4.7341,5.5105 6,6.11 L5.9,6.24 Z M5.9,5.24 C4.6631,4.6705 3.3489,4.2863 2,4.1 L2,3.9 C3.3868,4.099 4.7354,4.507 6,5.11 L5.9,5.24 Z M5.9,4.24 C4.6629,3.671 3.3488,3.2869 2,3.1 L2,2.9 C3.386,3.1024 4.7342,3.5102 6,4.11 L5.9,4.24 Z" id="Shape"></path>
                </g>
            </g>
        </g>
    </g>
</svg>