<?xml version="1.0" encoding="UTF-8" standalone="no"?>
<svg width="15px" height="15px" viewBox="0 0 15 15" version="1.1" xmlns="http://www.w3.org/2000/svg" xmlns:xlink="http://www.w3.org/1999/xlink">
    <!-- Generator: Sketch 41.2 (35397) - http://www.bohemiancoding.com/sketch -->
    <title>butcher</title>
    <desc>Created with Sketch.</desc>
    <defs></defs>
    <g id="Page-1" stroke="none" stroke-width="1" fill="none" fill-rule="evenodd">
        <g id="butcher" fill="#000000">
            <path d="M13.199219,1.5 C13.199219,1.5 11.808806,1.4588 11.253906,2 C10.720406,2.5202 10.5,2.9177 10.5,4 L1.1992188,4 L2.59375,8.8144531 C2.59725,8.8217531 2.6036219,8.8287375 2.6074219,8.8359375 C2.8418219,9.4932375 3.4545469,9.9666406 4.1855469,9.9941406 C4.1885469,9.9954406 4.1992187,10 4.1992188,10 L10.699219,10 L10.699219,10.199219 C10.699219,10.199219 10.7,10.500391 10.5,10.900391 C10.3,11.300391 10.200391,11.5 9.4003906,11.5 L2.9003906,11.5 C1.9003906,11.5 1.9003906,13 2.9003906,13 L4.0996094,13 L4.1992188,13 L9.0996094,13 L9.1992188,13 L9.3007812,13 C10.500781,13 11.399219,12.299609 11.699219,11.599609 C11.999219,10.899609 12,10.300781 12,10.300781 L12,10 L12,4 C12,3.4764 12.228619,3 12.699219,3 L13.25,3 C13.6642,3 14,2.6642 14,2.25 C14,1.8358 13.6642,1.5 13.25,1.5 L13.199219,1.5 Z M9.1992188,13 C8.5992188,13 8.1992188,13.4 8.1992188,14 C8.1992188,14.6 8.5992187,15 9.1992188,15 C9.7992187,15 10.199219,14.6 10.199219,14 C10.199219,13.4 9.7992188,13 9.1992188,13 Z M4.1992188,13 C3.5992188,13 3.1992188,13.4 3.1992188,14 C3.1992188,14.6 3.5992187,15 4.1992188,15 C4.7992188,15 5.1992188,14.6 5.1992188,14 C5.1992188,13.4 4.7992187,13 4.1992188,13 Z" id="path5"></path>
        </g>
    </g>
</svg>