<svg width="14" height="14" viewBox="0 0 14 14" fill="none" xmlns="http://www.w3.org/2000/svg">
<path d="M13.689 4.24206L12.5886 12.8801H8.86738L7.76978 4.20006H12.3142L13.213 1.09766L13.7226 1.25166L12.8602 4.23646L13.6918 4.24206H13.689ZM7.24338 9.24006C7.24338 9.24006 7.38338 8.12006 5.45418 8.12006H2.37978C0.453385 8.12006 0.590585 9.24006 0.590585 9.24006H7.24618H7.24338ZM0.587785 11.7601C0.587785 11.7601 0.450585 12.8801 2.37978 12.8801H5.45418C7.38338 12.8801 7.24618 11.7601 7.24618 11.7601H0.590585H0.587785ZM6.95498 11.2001C7.27138 11.2001 7.52618 10.8893 7.52618 10.5001C7.52618 10.1109 7.27138 9.80006 6.95498 9.80006H0.850985C0.537385 9.80006 0.279785 10.1109 0.279785 10.5001C0.279785 10.8893 0.537385 11.2001 0.850985 11.2001H6.95498Z" fill="black"/>
</svg>
