<?xml version="1.0" encoding="UTF-8" standalone="no"?>
<svg width="15px" height="15px" viewBox="0 0 15 15" version="1.1" xmlns="http://www.w3.org/2000/svg" xmlns:xlink="http://www.w3.org/1999/xlink">
    <!-- Generator: Sketch 41.2 (35397) - http://www.bohemiancoding.com/sketch -->
    <title>casino</title>
    <desc>Created with Sketch.</desc>
    <defs></defs>
    <g id="Page-1" stroke="none" stroke-width="1" fill="none" fill-rule="evenodd">
        <g id="casino" fill="#000000">
            <path d="M8.10656921,2.55948837 C8.16714938,2.56094436 8.22891865,2.56930508 8.29104725,2.58514215 L13.2129623,3.83977673 C13.6545814,3.95234889 13.9352206,4.39857829 13.8346998,4.85980184 L12.0167493,13.2011781 C11.9185063,13.6519503 11.4882588,13.9280011 11.0392425,13.8135434 L7.59887814,12.9365676 L10,12.5 L9.98124754,12.4015496 L11.0199453,12.6663218 L12.7219558,4.85691793 L8.33097578,3.73762283 L8.10656921,2.55948837 Z" id="Combined-Shape"></path>
            <path d="M1.01668128,3.87315607 C0.926615136,3.42061176 1.20954754,2.98999391 1.66540218,2.90833962 L6.6622761,2.01328191 C7.1106209,1.9329728 7.54500098,2.22423657 7.63715535,2.68727336 L9.30379685,11.0614427 C9.39386299,11.513987 9.11093058,11.9446049 8.65507595,12.0262592 L3.65820202,12.9213169 C3.20985722,13.001626 2.77547715,12.7103622 2.68332277,12.2473254 L1.01668128,3.87315607 Z M3.70101543,11.7884813 L8.17981389,10.9862231 L6.61946269,3.14611753 L2.14066423,3.94837573 L3.70101543,11.7884813 Z" id="Combined-Shape"></path>
        </g>
    </g>
</svg>