<?xml version="1.0" encoding="UTF-8" standalone="no"?>
<svg width="15px" height="15px" viewBox="0 0 15 15" version="1.1" xmlns="http://www.w3.org/2000/svg" xmlns:xlink="http://www.w3.org/1999/xlink">
    <!-- Generator: Sketch 41.2 (35397) - http://www.bohemiancoding.com/sketch -->
    <title>cinema</title>
    <desc>Created with Sketch.</desc>
    <defs></defs>
    <g id="Page-1" stroke="none" stroke-width="1" fill="none" fill-rule="evenodd">
        <g id="cinema" fill="#000000">
            <g transform="translate(2.000000, 3.000000)" id="Layer_1">
                <g>
                    <path d="M12,5.5 L12,7.5 C12,7.7761 11.7761,8 11.5,8 C11.2239,8 11,7.7761 11,7.5 C11,7.5 11.06,7 10,7 L9,7 L9,9.5 C9,9.7761 8.7761,10 8.5,10 L0.5,10 C0.2239,10 0,9.7761 0,9.5 L0,5.5 C0,5.2239 0.2239,5 0.5,5 L8.5,5 C8.7761,5 9,5.2239 9,5.5 L9,6 L10,6 C11.06,6 11,5.5 11,5.5 C11,5.2239 11.2239,5 11.5,5 C11.7761,5 12,5.2239 12,5.5 Z M2,1 C0.8954,1 0,1.8954 0,3 C0,4.1046 0.8954,5 2,5 C3.1046,5 4,4.1046 4,3 C4,1.8954 3.1046,1 2,1 Z M2,4 C1.4477,4 1,3.5523 1,3 C1,2.4477 1.4477,2 2,2 C2.5523,2 3,2.4477 3,3 C3,3.5523 2.5523,4 2,4 Z M6.5,0 C5.1193,0 4,1.1193 4,2.5 C4,3.8807 5.1193,5 6.5,5 C7.8807,5 9,3.8807 9,2.5 C9,1.1193 7.8807,0 6.5,0 Z M6.5,4 C5.6716,4 5,3.3284 5,2.5 C5,1.6716 5.6716,1 6.5,1 C7.3284,1 8,1.6716 8,2.5 C8,3.3284 7.3284,4 6.5,4 Z" id="Shape"></path>
                </g>
            </g>
        </g>
    </g>
</svg>