<?xml version="1.0" encoding="UTF-8" standalone="no"?>
<svg width="15px" height="15px" viewBox="0 0 15 15" version="1.1" xmlns="http://www.w3.org/2000/svg" xmlns:xlink="http://www.w3.org/1999/xlink">
    <!-- Generator: Sketch 41.2 (35397) - http://www.bohemiancoding.com/sketch -->
    <title>coffee</title>
    <desc>Created with Sketch.</desc>
    <defs></defs>
    <g id="Page-1" stroke="none" stroke-width="1" fill="none" fill-rule="evenodd">
        <g id="coffee" fill="#000000">
            <g transform="translate(3.000000, 3.000000)" id="Layer_1">
                <g>
                    <path d="M10,2 L8,2 L8,0 L0,0 L0,4 C0.0133,6.2091 1.8149,7.9891 4.024,7.9758 C5.4345,7.9673 6.7362,7.2166 7.45,6 L10,6 C11.1046,6 12,5.1046 12,4 C12,2.8954 11.1046,2 10,2 Z M10,5 L7.86,5 C7.9487,4.6739 7.9958,4.3379 8,4 L8,3 L10,3 C10.5523,3 11,3.4477 11,4 C11,4.5523 10.5523,5 10,5 Z M8,9.5 C8,9.7761 7.7761,10 7.5,10 L0.5,10 C0.2239,10 0,9.7761 0,9.5 C0,9.2239 0.2239,9 0.5,9 L7.5,9 C7.7761,9 8,9.2239 8,9.5 Z" id="Shape"></path>
                </g>
            </g>
        </g>
    </g>
</svg>