<svg width="15" height="15" viewBox="0 0 15 15" fill="none" xmlns="http://www.w3.org/2000/svg">
<path d="M11.9819 13.4689C12.2633 13.4689 12.495 13.2413 12.495 12.9591C12.495 12.681 12.2633 12.4535 11.9819 12.4535H3.02302C2.74166 12.4535 2.50995 12.681 2.50995 12.9591C2.50995 13.2413 2.74166 13.4689 3.02302 13.4689H11.9819Z" fill="black"/>
<path d="M13.6163 2.40138H1.38864C1.10728 2.40138 0.87886 2.62566 0.87886 2.91446V11.0417C0.87886 11.3239 1.10728 11.5515 1.38864 11.5515H13.6155C13.8936 11.5515 14.1211 11.3239 14.1211 11.0417V2.91528C14.1228 2.62649 13.8953 2.40137 13.6163 2.40137L13.6163 2.40138ZM13.1098 10.5286H1.89506V3.42174H13.1098V10.5286Z" fill="black"/>
</svg>
