<?xml version="1.0" encoding="UTF-8" standalone="no"?>
<svg width="15px" height="15px" viewBox="0 0 15 15" version="1.1" xmlns="http://www.w3.org/2000/svg" xmlns:xlink="http://www.w3.org/1999/xlink">
    <!-- Generator: Sketch 41.2 (35397) - http://www.bohemiancoding.com/sketch -->
    <title>education</title>
    <desc>Created with Sketch.</desc>
    <defs></defs>
    <g id="Page-1" stroke="none" stroke-width="1" fill="none" fill-rule="evenodd">
        <g id="education" fill="#000000">
            <g transform="translate(2.000000, 1.000000)" id="Layer_1">
                <g>
                    <path d="M9,12 L9,11 L11,11 L11,10 L7.5,10 L7.5,9 L11,9 L11,8 L9,8 L9,7 L11,7 L11,6 L9,6 L9,5 L11,5 L11,4 L7.5,4 L7.5,3 L11,3 L11,2 L9,2 L9,1 L11,1 L11,0 L6,0 L6,13 L11,13 L11,12 L9,12 Z M4,10 L0,10 L0,0 L4,0 L4,10 Z M4,11 L2,13 L0,11 L4,11 Z" id="Shape"></path>
                </g>
            </g>
        </g>
    </g>
</svg>