<?xml version="1.0" encoding="UTF-8"?>
<svg width="15px" height="15px" viewBox="0 0 15 15" version="1.1" xmlns="http://www.w3.org/2000/svg" xmlns:xlink="http://www.w3.org/1999/xlink">
    <!-- Generator: Sketch 48.2 (47327) - http://www.bohemiancoding.com/sketch -->
    
    <desc>Created with Sketch.</desc>
    <defs></defs>
    <g id="Page-1" stroke="none" stroke-width="1" fill="none" fill-rule="evenodd">
        <g id="Icons" transform="translate(-17.000000, -18.000000)" fill="#000000">
            <g id="elevator" transform="translate(18.000000, 18.000000)">
                <path d="M1,1.01690152 L1,14.0169015 L8.1339014,14.0169015 L8.1339014,1.01690152 L1,1.01690152 Z M1,0.0169015237 L8.1339014,0.0169015237 C8.68618615,0.0169015237 9.1339014,0.464616774 9.1339014,1.01690152 L9.1339014,14.0169015 C9.1339014,14.5691863 8.68618615,15.0169015 8.1339014,15.0169015 L1,15.0169015 C0.44771525,15.0169015 1.84399221e-15,14.5691863 1.77635684e-15,14.0169015 L2.11263909e-16,1.01690152 C1.5440923e-16,0.464616774 0.44771525,0.0169015237 1,0.0169015237 Z" id="Cabin" fill-rule="nonzero"></path>
                <g id="Buttons" transform="translate(9.938871, 3.516902)">
                    <path d="M4.36440279,2.90171232 C4.52205737,3.05571237 4.77265721,3.05350995 4.92764185,2.89676224 C5.08262649,2.74001453 5.08480413,2.48656391 4.93253625,2.32711589 L2.78134351,0.159578861 C2.74365374,0.12136385 2.69247814,0.0998867512 2.63910925,0.0998867512 C2.58574036,0.0998867512 2.53456476,0.12136385 2.49687499,0.159578861 L0.346485838,2.32711589 C0.194217952,2.48656391 0.196395597,2.74001453 0.351380234,2.89676224 C0.50636487,3.05350995 0.756964717,3.05571237 0.914619295,2.90171232 L2.63910925,1.13873411 L4.36440279,2.90171232 Z" id="Arrow"></path>
                    <path d="M4.36440279,7.66474466 C4.52205737,7.81874472 4.77265721,7.8165423 4.92764185,7.65979459 C5.08262649,7.50304688 5.08480413,7.24959626 4.93253625,7.09014823 L2.78134351,4.9226112 C2.74365374,4.88439619 2.69247814,4.86291909 2.63910925,4.86291909 C2.58574036,4.86291909 2.53456476,4.88439619 2.49687499,4.9226112 L0.346485838,7.09014823 C0.194217952,7.24959626 0.196395597,7.50304688 0.351380234,7.65979459 C0.50636487,7.8165423 0.756964717,7.81874472 0.914619295,7.66474466 L2.63910925,5.90176645 L4.36440279,7.66474466 Z" id="Arrow" transform="translate(2.639511, 6.320867) rotate(-180.000000) translate(-2.639511, -6.320867) "></path>
                </g>
                <path d="M6.04484661,12.6344501 L6.04484661,6.88000805 C6.04484661,6.16762655 5.37444011,5.59016286 4.54740077,5.59016286 C3.72036143,5.59016286 3.04995493,6.16762655 3.04995493,6.88000805 L3.04995493,12.6344501 L4,12.6344501 L4,10.7495436 L5,10.7495436 L5,12.6344501 L6.04484661,12.6344501 Z M4.54740077,2.11878732 C5.36350578,2.11878732 6.0250488,2.78033034 6.0250488,3.59643535 C6.0250488,4.41254036 5.36350578,5.07408338 4.54740077,5.07408338 C3.73129576,5.07408338 3.06975274,4.41254036 3.06975274,3.59643535 C3.06975274,2.78033034 3.73129576,2.11878732 4.54740077,2.11878732 Z" id="Shape" fill-rule="nonzero"></path>
            </g>
        </g>
    </g>
</svg>