<?xml version="1.0" encoding="UTF-8" standalone="no"?>
<svg width="15px" height="15px" viewBox="0 0 15 15" version="1.1" xmlns="http://www.w3.org/2000/svg" xmlns:xlink="http://www.w3.org/1999/xlink">
    <g id="Page-1" stroke="none" stroke-width="1" fill="none" fill-rule="evenodd">
        <g id="Artboard" transform="translate(-1.000000, -1.000000)" fill="#000000">
            <g id="Group-3" transform="translate(1.000000, 1.000000)">
                <path d="M7.5,0 C3.358,0 0,3.358 0,7.5 C0,11.642 3.358,15 7.5,15 C11.642,15 15,11.642 15,7.5 C15,3.358 11.642,0 7.5,0 Z M7.5,13.5 C4.467,13.5 1.5,10.533 1.5,7.5 C1.5,4.467 4.467,1.5 7.5,1.5 C10.533,1.5 13.5,4.467 13.5,7.5 C13.5,10.533 10.533,13.5 7.5,13.5 Z M7.5,4.5 C6.672,4.5 6,5.172 6,6 C6,6.828 6.672,7.5 7.5,7.5 C8.328,7.5 9,6.828 9,6 C9,5.172 8.328,4.5 7.5,4.5 Z M7.5,10.5 C6.672,10.5 6,11.172 6,12 C6,12.828 6.672,13.5 7.5,13.5 C8.328,13.5 9,12.828 9,12 C9,11.172 8.328,10.5 7.5,10.5 Z" id="Shape"></path>
            </g>
        </g>
    </g>
</svg>
