<?xml version="1.0" encoding="UTF-8" standalone="no"?>
<svg width="15px" height="15px" viewBox="0 0 15 15" version="1.1" xmlns="http://www.w3.org/2000/svg" xmlns:xlink="http://www.w3.org/1999/xlink">
    <!-- Generator: Sketch 41.2 (35397) - http://www.bohemiancoding.com/sketch -->
    <title>food</title>
    <desc>Created with Sketch.</desc>
    <defs></defs>
    <g id="Page-1" stroke="none" stroke-width="1" fill="none" fill-rule="evenodd">
        <g id="food" fill="#000000">
            <g transform="translate(2.000000, 0.000000)" id="svg4619">
                <g>
                    <path d="M1.5,0 L0.5,5.5 C0.3536,6.305 2.2815,6.681 2.25,7.5 L2,14 C1.9616,14.9993 3,15 3,15 C3,15 4.0384,14.9993 4,14 L3.75,7.5 C3.7186,6.6824 5.4834,6.3192 5.5,5.5 L4.5,0 L4,0 L4.25,4 L3.5,4.5 L3.25,0 L2.75,0 L2.5,4.5 L1.75,4 L2,0 L1.5,0 Z M10,0 C9.2636,0 8.0358,0.6549 7.5449,1.6367 C7.1358,2.3731 7,4.0182 7,5 L7,7.5 C7,8.3182 8.0909,8.5 8.5,8.5 L8,14 C7.9095,14.9959 9,15 9,15 C9,15 10,15 10,14 L10,0 Z" id="path11774"></path>
                </g>
            </g>
        </g>
    </g>
</svg>