<svg width="15" height="15" viewBox="0 0 15 15" fill="none" xmlns="http://www.w3.org/2000/svg">
<path d="M2 3H3.5C3.78 3 4 3.22 4 3.5C4 3.78 3.78 4 3.5 4H2V3ZM2 2V6H5V2H2ZM2 1H5C5.55 1 6 1.45 6 2V6C6 6.55 5.55 7 5 7H2C1.45 7 1 6.55 1 6V2C1 1.45 1.45 1 2 1Z" fill="black"/>
<path d="M4 7.5H3V14H4V7.5Z" fill="black"/>
<path d="M14 5.33333V10.6667C14 11.4 13.4273 12 12.7273 12H8.27273C7.57273 12 7 11.4 7 10.6667V5.33333C7 4.6 7.57273 4 8.27273 4H12.7273C13.4273 4 14 4.6 14 5.33333ZM11.4545 10.3333C11.4545 10.7 11.7409 11 12.0909 11C12.4409 11 12.7273 10.7 12.7273 10.3333C12.7273 9.96667 12.4409 9.66667 12.0909 9.66667C11.7409 9.66667 11.4545 9.96667 11.4545 10.3333ZM9.54545 10.3333C9.54545 9.96667 9.25909 9.66667 8.90909 9.66667C8.55909 9.66667 8.27273 9.96667 8.27273 10.3333C8.27273 10.7 8.55909 11 8.90909 11C9.25909 11 9.54545 10.7 9.54545 10.3333ZM7.63636 6.33333L7.64273 8.33333C7.64273 8.52 7.78909 8.66667 7.96091 8.66667H9.87C10.0418 8.66667 10.1882 8.52 10.1882 8.33333L10.1755 6.33333C10.1755 6.14667 10.0355 6 9.85727 6H7.95455C7.77636 6 7.63636 6.14667 7.63636 6.33333ZM10.8182 6.33333L10.8245 8.33333C10.8245 8.52 10.9709 8.66667 11.1427 8.66667H13.0518C13.2236 8.66667 13.37 8.52 13.37 8.33333L13.3573 6.33333C13.3573 6.14667 13.2173 6 13.0391 6H11.1364C10.9582 6 10.8182 6.14667 10.8182 6.33333ZM8.27273 5C8.27273 5.18667 8.41273 5.33333 8.59091 5.33333H12.4091C12.5873 5.33333 12.7273 5.18667 12.7273 5C12.7273 4.81333 12.5873 4.66667 12.4091 4.66667H8.59091C8.41273 4.66667 8.27273 4.81333 8.27273 5Z" fill="black"/>
</svg>
