<?xml version="1.0" encoding="UTF-8" standalone="no"?>
<svg width="15px" height="15px" viewBox="0 0 15 15" version="1.1" xmlns="http://www.w3.org/2000/svg" xmlns:xlink="http://www.w3.org/1999/xlink">
    <!-- Generator: Sketch 41.2 (35397) - http://www.bohemiancoding.com/sketch -->
    <title>hearing_aids</title>
    <desc>Created with Sketch.</desc>
    <defs></defs>
    <g id="Page-1" stroke="none" stroke-width="1" fill="none" fill-rule="evenodd">
        <g id="hearing_aids" fill="#010101">
            <g id="hospital" transform="translate(1.000000, 1.000000)">
                <g id="svg4619">
                    <path d="M6,0 C5.4,0 5,0.4 5,1 L5,5 L1,5 C0.4,5 0,5.4 0,6 L0,7 C0,7.6 0.4,8 1,8 L5,8 L5,12 C5,12.6 5.4,13 6,13 L7,13 C7.6,13 8,12.6 8,12 L8,8 L12,8 C12.6,8 13,7.6 13,7 L13,6 C13,5.4 12.6,5 12,5 L8,5 L8,1 C8,0.4 7.6,0 7,0 L6,0 Z" id="rect4194"></path>
                </g>
            </g>
        </g>
    </g>
</svg>