<svg width="15" height="15" viewBox="0 0 15 15" fill="none" xmlns="http://www.w3.org/2000/svg">
<path d="M5.99316 11.519V10.7147L6.47772 10.6253C6.60413 10.603 6.68489 10.5583 6.72 10.4913C6.75511 10.4168 6.77267 10.279 6.77267 10.078V7.48638C6.77267 7.23318 6.7516 7.0619 6.70946 6.97253C6.66733 6.87572 6.5655 6.81614 6.40398 6.7938L5.99316 6.72678L6.0669 5.85547L8.30007 5.73259L8.45808 5.82196V10.1003C8.45808 10.2567 8.47213 10.3758 8.50022 10.4578C8.52831 10.5397 8.61258 10.5955 8.75303 10.6253L9.22705 10.7258V11.519H5.99316ZM7.4679 4.78309C7.14486 4.78309 6.89205 4.70118 6.70946 4.53734C6.52688 4.36606 6.43559 4.13148 6.43559 3.83359C6.43559 3.55061 6.52337 3.32347 6.69893 3.15219C6.88152 2.9809 7.13784 2.89526 7.4679 2.89526C7.79796 2.89526 8.05077 2.9809 8.22634 3.15219C8.4019 3.31602 8.48968 3.54316 8.48968 3.83359C8.48968 4.13148 8.39488 4.36606 8.20527 4.53734C8.02268 4.70118 7.77689 4.78309 7.4679 4.78309Z" fill="black"/>
</svg>
