<?xml version="1.0" encoding="UTF-8" standalone="no"?>
<svg width="15px" height="15px" viewBox="0 0 15 15" version="1.1" xmlns="http://www.w3.org/2000/svg" xmlns:xlink="http://www.w3.org/1999/xlink">
    <!-- Generator: Sketch 41.2 (35397) - http://www.bohemiancoding.com/sketch -->
    <title>lawyer</title>
    <desc>Created with Sketch.</desc>
    <defs></defs>
    <g id="Page-1" stroke="none" stroke-width="1" fill="none" fill-rule="evenodd">
        <g id="lawyer" fill="#000000" transform="translate(0, -1)">
            <path d="M3,3 L3,14 L8,14 L8,11 L11,11 L11,14 L12,14 L12,3 L3,3 Z M7,13 L4,13 L4,11 L7,11 L7,13 Z M7,10 L4,10 L4,8 L7,8 L7,10 Z M7,7 L4,7 L4,5 L7,5 L7,7 Z M11,10 L8,10 L8,8 L11,8 L11,10 Z M11,7 L8,7 L8,5 L11,5 L11,7 Z" id="Shape"></path>
        </g>
    </g>
</svg>