<?xml version="1.0" encoding="UTF-8" standalone="no"?>
<svg width="15px" height="15px" viewBox="0 0 15 15" version="1.1" xmlns="http://www.w3.org/2000/svg" xmlns:xlink="http://www.w3.org/1999/xlink">
    <!-- Generator: Sketch 41.2 (35397) - http://www.bohemiancoding.com/sketch -->
    <title>mobile_phones</title>
    <desc>Created with Sketch.</desc>
    <defs></defs>
    <g id="Page-1" stroke="none" stroke-width="1" fill="none" fill-rule="evenodd">
        <g id="mobile_phones" fill="#000000">
            <g transform="translate(2.000000, 2.000000)" id="Layer_1">
                <g>
                    <path d="M2.51,6.88 C2.3117,7.079 2.3117,7.401 2.51,7.6 L3.23,8.32 L1.07,10.5 L0.7,10.13 C0.2972,9.7526 0.048,9.2398 0,8.69 L0,7.24 C0.0456,6.6866 0.295,6.1699 0.7,5.79 L1.06,5.43 L5.41,1.08 L5.77,0.72 C6.1467,0.3076 6.6638,0.0508 7.22,0 L8.67,0 C9.2262,0.0508 9.7433,0.3076 10.12,0.72 L10.48,1.08 L8.31,3.26 L7.58,2.53 C7.381,2.3317 7.059,2.3317 6.86,2.53 L2.51,6.88 Z M2.85,10.88 L2.13,11.6 C2.5104,12.0004 3.1433,12.0166 3.5437,11.6363 C3.5561,11.6245 3.5682,11.6124 3.58,11.6 L4.3,10.88 C4.7004,10.4996 4.7166,9.8667 4.3363,9.4663 C4.3245,9.4539 4.3124,9.4418 4.3,9.43 L3.58,10.15 L2.85,10.88 Z M10.85,2.88 L10.1,3.6 L9.38,4.32 C9.7604,4.7204 10.3933,4.7366 10.7937,4.3563 C10.8061,4.3445 10.8182,4.3324 10.83,4.32 L11.55,3.6 C11.9504,3.2196 11.9666,2.5867 11.5863,2.1863 C11.5745,2.1739 11.5624,2.1618 11.55,2.15 L10.85,2.88 Z" id="Shape"></path>
                </g>
            </g>
        </g>
    </g>
</svg>