<?xml version="1.0" encoding="UTF-8" standalone="no"?>
<svg width="15px" height="15px" viewBox="0 0 15 15" version="1.1" xmlns="http://www.w3.org/2000/svg" xmlns:xlink="http://www.w3.org/1999/xlink">
    <!-- Generator: Sketch 41.2 (35397) - http://www.bohemiancoding.com/sketch -->
    <title>money</title>
    <desc>Created with Sketch.</desc>
    <defs></defs>
    <g id="Page-1" stroke="none" stroke-width="1" fill="none" fill-rule="evenodd">
        <g id="money" fill="#000000">
            <g transform="translate(0.000000, 3.000000)" id="svg4619">
                <g>
                    <path d="M1,0 C0.446,0 0,0.446 0,1 L0,8 C0,8.554 0.446,9 1,9 L14,9 C14.554,9 15,8.554 15,8 L15,1 C15,0.446 14.554,0 14,0 L1,0 Z M1,1 L2.5,1 C2.7761,1 3,1.2239 3,1.5 C3,1.7761 2.7761,2 2.5,2 C2.2239,2 2,1.7761 2,1.5 L1.5,2 C1.7761,2 2,2.2239 2,2.5 C2,2.7761 1.7761,3 1.5,3 C1.2239,3 1,2.7761 1,2.5 L1,1 Z M7.5,1 C8.8807,1 10,2.567 10,4.5 L10,4.5 C10,6.433 8.8807,8 7.5,8 C6.1193,8 5,6.433 5,4.5 C5,2.567 6.1193,1 7.5,1 Z M12.5,1 L14,1 L14,2.5 C14,2.7761 13.7761,3 13.5,3 C13.2239,3 13,2.7761 13,2.5 C13,2.2239 13.2239,2 13.5,2 L13,1.5 C13,1.7761 12.7761,2 12.5,2 C12.2239,2 12,1.7761 12,1.5 C12,1.2239 12.2239,1 12.5,1 Z M7.5,2.5 C7.177,2.5 6.9664,2.6088 6.8184,2.75 L8.1817,2.75 C8.0336,2.6088 7.823,2.5 7.5,2.5 Z M6.625,3 C6.5795,3.091 6.5633,3.1711 6.5449,3.25 L8.4551,3.25 C8.4367,3.1711 8.4205,3.091 8.375,3 L6.625,3 Z M6.5,3.5 L6.5,3.75 L8.5,3.75 L8.5,3.5 L6.5,3.5 Z M6.5,4 L6.5,4.25 L8.5,4.25 L8.5,4 L6.5,4 Z M6.5,4.5 L6.5,4.75 L8.5,4.75 L8.5,4.5 L6.5,4.5 Z M6.5,5 L6.25,5.25 L8.25,5.25 L8.5,5 L6.5,5 Z M6,5.5 C6,5.5 6.0353,5.6024 6.1016,5.75 L8.375,5.75 L8,5.5 L6,5.5 Z M1.5,6 C1.7761,6 2,6.2239 2,6.5 C2,6.7761 1.7761,7 1.5,7 L2,7.5 C2,7.2239 2.2239,7 2.5,7 C2.7761,7 3,7.2239 3,7.5 C3,7.7761 2.7761,8 2.5,8 L1,8 L1,6.5 C1,6.2239 1.2239,6 1.5,6 Z M6.2383,6 C6.2842,6.0856 6.3144,6.159 6.375,6.25 L8.6426,6.25 C8.7092,6.1121 8.75,6 8.75,6 L6.2383,6 Z M13.5,6 C13.7761,6 14,6.2239 14,6.5 L14,8 L12.5,8 C12.2239,8 12,7.7761 12,7.5 C12,7.2239 12.2239,7 12.5,7 C12.7761,7 13,7.2239 13,7.5 L13.5,7 C13.2239,7 13,6.7761 13,6.5 C13,6.2239 13.2239,6 13.5,6 Z M6.5664,6.5 C6.645,6.5912 6.7311,6.6763 6.8262,6.75 L8.2461,6.75 C8.3462,6.6727 8.4338,6.5883 8.5,6.5 L6.5664,6.5 Z" id="rect5668"></path>
                </g>
            </g>
        </g>
    </g>
</svg>