<?xml version="1.0" encoding="UTF-8" standalone="no"?>
<svg width="15px" height="15px" viewBox="0 0 15 15" version="1.1" xmlns="http://www.w3.org/2000/svg" xmlns:xlink="http://www.w3.org/1999/xlink">
    <!-- Generator: Sketch 41.2 (35397) - http://www.bohemiancoding.com/sketch -->
    <title>music</title>
    <desc>Created with Sketch.</desc>
    <defs></defs>
    <g id="Page-1" stroke="none" stroke-width="1" fill="none" fill-rule="evenodd">
        <g id="music" fill="#000000">
            <path d="M13.5,1 C13.4196,1.0008 13.3406,1.0214 13.27,1.06 L4.5,3.5 C4.2239,3.5 4,3.7239 4,4 L4,10.28 C3.6971,10.1002 3.3522,10.0037 3,10 C1.8954,10 1,10.8954 1,12 C1,13.1046 1.8954,14 3,14 C4.1046,14 5,13.1046 5,12 L5,7.36 L13,5.14 L13,8.78 C12.6971,8.6002 12.3522,8.5037 12,8.5 C10.8954,8.5 10,9.3954 10,10.5 C10,11.6046 10.8954,12.5 12,12.5 C13.1046,12.5 14,11.6046 14,10.5 L14,1.5 C14,1.2239 13.7761,1 13.5,1 Z M13,4.14 L5,6.36 L5,4.36 L13,2.14 L13,4.14 Z" id="Shape"></path>
        </g>
    </g>
</svg>