<?xml version="1.0" encoding="UTF-8" standalone="no"?>
<svg width="15px" height="15px" viewBox="0 0 15 15" version="1.1" xmlns="http://www.w3.org/2000/svg" xmlns:xlink="http://www.w3.org/1999/xlink">
    <!-- Generator: Sketch 41.2 (35397) - http://www.bohemiancoding.com/sketch -->
    <title>parking</title>
    <desc>Created with Sketch.</desc>
    <defs></defs>
    <g id="Page-1" stroke="none" stroke-width="1" fill="none" fill-rule="evenodd">
        <g id="parking" fill="#000000">
            <g transform="translate(3.000000, 0.000000)" id="Layer_1">
                <g>
                    <path d="M8.85,8.37 C7.8968,9.0786 6.7261,9.4323 5.54,9.37 L2.79,9.37 L2.79,14 L0,14 L0,1 L5.72,1 C6.8505,0.9395 7.964,1.2952 8.85,2 C9.6821,2.8147 10.1043,3.9601 10,5.12 C10.1271,6.3214 9.7045,7.5159 8.85,8.37 Z M6.75,3.7 C6.3254,3.3892 5.8052,3.237 5.28,3.27 L2.79,3.27 L2.79,7.09 L5.28,7.09 C5.8115,7.1226 6.336,6.9549 6.75,6.62 C7.1295,6.2253 7.3193,5.6854 7.27,5.14 C7.324,4.606 7.1327,4.0763 6.75,3.7 Z" id="Shape"></path>
                </g>
            </g>
        </g>
    </g>
</svg>