<?xml version="1.0" encoding="UTF-8" standalone="no"?>
<svg width="15px" height="15px" viewBox="0 0 15 15" version="1.1" xmlns="http://www.w3.org/2000/svg" xmlns:xlink="http://www.w3.org/1999/xlink">
    <!-- Generator: Sketch 41.2 (35397) - http://www.bohemiancoding.com/sketch -->
    <title>pet_store</title>
    <desc>Created with Sketch.</desc>
    <defs></defs>
    <g id="Page-1" stroke="none" stroke-width="1" fill="none" fill-rule="evenodd">
        <g id="pet_store" fill="#010101">
            <g id="aquarium-15" transform="translate(0.000000, 1.000000)">
                <g id="svg2">
                    <path d="M10.9,10.6 C10.6,10 10.6,8.3 10.9,7.8 C11.3,7.2 14.3,9.2 14.3,9.2 C15.2,9.6 15.2,3.1 14.3,3.5 C14.3,3.5 11.2,5.6 10.9,4.9 C10.6,4.2 10.6,2.8 10.9,2.1 C11.2,1.5 15,1.4 15,1.4 C15,0.7 12.1,0 10.9,0 C9.7,0 8.4,0.1 6.8,0.8 C5.2,1.4 3.9,2.4 2.7,3.6 C1.5,4.8 0,7.2 0,7.9 C0,8.6 1.5,10.7 3.7,11.6 C5.9,12.5 7,12.7 8.2,12.9 C9.3,13 10.8,12.9 12.1,12.6 C13.1,12.4 15,11.9 15,11.5 C15,11.3 11.2,11.2 10.9,10.6 Z M4.5,8.3 C3.7,8.3 3,7.6 3,6.8 C3,6 3.7,5.3 4.5,5.3 C5.3,5.3 6,6 6,6.8 C6,7.6 5.3,8.3 4.5,8.3 Z" id="Shape"></path>
                </g>
            </g>
        </g>
    </g>
</svg>