<?xml version="1.0" encoding="UTF-8" standalone="no"?>
<svg width="15px" height="15px" viewBox="0 0 15 15" version="1.1" xmlns="http://www.w3.org/2000/svg" xmlns:xlink="http://www.w3.org/1999/xlink">
    <!-- Generator: Sketch 41.2 (35397) - http://www.bohemiancoding.com/sketch -->
    <title>pharmacy</title>
    <desc>Created with Sketch.</desc>
    <defs></defs>
    <g id="Page-1" stroke="none" stroke-width="1" fill="none" fill-rule="evenodd">
        <g id="pharmacy" fill="#000000">
            <g transform="translate(3.000000, -1.000000)" id="Layer_1">
                <g>
                    <path d="M6.5,5 L7.57,3.46 C7.6299,3.4646 7.6901,3.4646 7.75,3.46 C8.4404,3.4596 8.9997,2.8997 8.9994,2.2094 C8.999,1.519 8.4391,0.9596 7.7487,0.96 C7.0584,0.9604 6.499,1.5203 6.4994,2.2106 C6.4994,2.2237 6.4996,2.2368 6.5,2.25 L6.5,2.35 L4,5 L6.5,5 Z M9,7 L9,6 L0,6 L0,7 L1.5,10.5 L0,14 L0,15 L9,15 L9,14 L8,10.5 L9,7 Z M7,11 L5,11 L5,13 L4,13 L4,11 L2,11 L2,10 L4,10 L4,8 L5,8 L5,10 L7,10 L7,11 Z" id="Shape"></path>
                </g>
            </g>
        </g>
    </g>
</svg>