<svg width="15" height="15" viewBox="0 0 15 15" fill="none" xmlns="http://www.w3.org/2000/svg">
<path d="M10 3H11.5C11.78 3 12 3.22 12 3.5C12 3.78 11.78 4 11.5 4H10V3ZM10 2V6H13V2H10ZM10 1H13C13.55 1 14 1.45 14 2V6C14 6.55 13.55 7 13 7H10C9.45 7 9 6.55 9 6V2C9 1.45 9.45 1 10 1Z" fill="black"/>
<path d="M12 7.5H11V14H12V7.5Z" fill="black"/>
<path fill-rule="evenodd" clip-rule="evenodd" d="M1.01414 13.6211C1.44097 13.9747 1.94437 14.1965 2.46 14.2575C2.59033 14.2728 2.89416 14.2736 3.02612 14.2583C3.2265 14.235 3.42119 14.19 3.6118 14.1217C4.00442 13.9819 4.35794 13.7569 4.66748 13.4508C5.13097 12.9944 5.41606 12.4303 5.48612 11.8317C5.50241 11.6959 5.50241 11.421 5.48612 11.2853C5.43317 10.8345 5.25722 10.4006 4.97131 10.0141C4.87112 9.87826 4.79373 9.78987 4.66422 9.66211C4.20399 9.20892 3.63135 8.92768 3.02612 8.85858C2.88602 8.84251 2.61069 8.84251 2.46814 8.85938C2.25635 8.88349 2.03642 8.93733 1.84092 9.01205C1.78961 9.03214 1.74073 9.05062 1.73259 9.05303C1.722 9.05625 1.83441 8.82724 2.0967 8.30896C2.30523 7.89755 2.4771 7.56087 2.47873 7.56087C2.51294 7.55766 3.4497 7.53034 3.45214 7.53194C3.45377 7.53355 3.33892 7.76336 3.19718 8.04299C3.05545 8.32262 2.94059 8.55163 2.94222 8.55324C2.94385 8.55404 2.99191 8.55886 3.04893 8.56449C3.59306 8.61511 4.13964 8.82563 4.58358 9.15589C4.62186 9.18481 4.65607 9.20812 4.65852 9.20812C4.66666 9.20812 5.44783 7.65569 5.46168 7.6131C5.50078 7.48614 5.51137 7.30374 5.48693 7.17437C5.41606 6.80234 5.12689 6.51708 4.74975 6.44717C4.65444 6.4295 4.6243 6.4295 3.26235 6.47208C2.32396 6.50101 2.069 6.51065 2.02013 6.5211C1.89876 6.54601 1.77657 6.62395 1.70815 6.71957C1.68779 6.74689 1.45645 7.19366 1.19334 7.71274C0.831674 8.42788 0.711933 8.67055 0.699714 8.71635C0.680979 8.78867 0.680164 8.88429 0.696456 8.96304C0.737184 9.15669 0.904171 9.32141 1.10374 9.3648L1.16483 9.37847L1.12655 9.40739C0.984813 9.51266 0.776284 9.70872 0.658171 9.84693C0.346191 10.2141 0.135218 10.6376 0.0456158 11.0771C0.0130331 11.2394 0 11.3728 0 11.5585C0 11.7441 0.0130331 11.8775 0.0456158 12.0398C0.135218 12.4793 0.346191 12.9028 0.658171 13.27C0.737999 13.3632 0.919648 13.5424 1.01414 13.6211ZM4.42297 11.5589C4.42297 12.4565 3.86092 13.0969 2.98444 13.1981C2.85655 13.2126 2.62848 13.2126 2.50303 13.1973C1.6347 13.0937 1.07509 12.4517 1.07509 11.5589C1.07509 10.5746 1.75119 9.90767 2.74903 9.90767C3.74688 9.90767 4.42297 10.5746 4.42297 11.5589Z" fill="black"/>
<path d="M8.33392 13.758C8.24004 13.7382 8.14946 13.6873 8.0737 13.6116L8.007 13.545L7.29799 12.1295L6.58898 10.7147L6.55769 10.718C6.47534 10.7279 5.54812 10.7953 5.54482 10.792C5.54318 10.7903 5.52671 10.7451 5.50777 10.6917C5.4073 10.3949 5.23684 10.0784 5.04168 9.82112C4.99969 9.76604 4.99392 9.75453 5.00545 9.7496C5.02192 9.74385 6.8772 9.60245 6.93896 9.60328C7.08553 9.6041 7.26176 9.69699 7.34822 9.81948C7.36881 9.84743 7.74184 10.5823 8.17746 11.4521C8.78682 12.6687 8.97293 13.0485 8.98528 13.0954C9.00422 13.1694 9.00504 13.2672 8.98857 13.3478C8.94822 13.5401 8.78847 13.7045 8.59249 13.7547C8.51755 13.7736 8.41297 13.7752 8.33392 13.758Z" fill="black"/>
<path d="M5.26171 6.43165C4.97289 6.37928 4.72626 6.19438 4.59808 5.93583C4.36848 5.47275 4.55589 4.91475 5.01508 4.68812C5.0597 4.66684 5.13272 4.63821 5.17734 4.62594C5.2536 4.60466 5.26902 4.60303 5.41667 4.60303C5.56432 4.60303 5.57974 4.60466 5.656 4.62594C6.11194 4.75357 6.39671 5.20029 6.32126 5.66993C6.26447 6.02338 6.00404 6.31547 5.66006 6.41201C5.59353 6.43083 5.56432 6.4341 5.44101 6.43574C5.36312 6.43737 5.282 6.43574 5.26171 6.43165Z" fill="black"/>
</svg>
