<?xml version="1.0" encoding="UTF-8" standalone="no"?>
<svg width="15px" height="15px" viewBox="0 0 15 15" version="1.1" xmlns="http://www.w3.org/2000/svg" xmlns:xlink="http://www.w3.org/1999/xlink">
    <!-- Generator: Sketch 41.2 (35397) - http://www.bohemiancoding.com/sketch -->
    <title>playground</title>
    <desc>Created with Sketch.</desc>
    <defs></defs>
    <g id="Page-1" stroke="none" stroke-width="1" fill="none" fill-rule="evenodd">
        <g id="playground" fill="#000000">
            <g transform="translate(2.000000, 0.000000)" id="Layer_1">
                <g>
                    <path d="M1,1.15 C1.2091,0.3484 2.0284,-0.1319 2.83,0.0771 C3.6316,0.2861 4.1119,1.1055 3.9029,1.9071 C3.7026,2.6752 2.9386,3.1542 2.16,3 C1.3474,2.839 0.8191,2.0498 0.98,1.2371 C0.9858,1.2079 0.9925,1.1788 1,1.15 Z M12,12.32 C12.1032,12.8626 11.7469,13.386 11.2044,13.4892 C11.2029,13.4895 11.2015,13.4898 11.2,13.49 C10.7748,13.576 10.3426,13.3781 10.13,13 L10.13,13 L8.45,9.63 L7,9.92 L6.78,10 L6.72,10 L6.72,12.15 L7.34,12 L7.48,12 C7.7671,12.0054 7.9955,12.2425 7.9901,12.5297 C7.9862,12.7361 7.8606,12.9207 7.67,13 L2.67,14 L2.67,14 C2.6137,14.0095 2.5563,14.0095 2.5,14 C2.2128,14 1.98,13.7672 1.98,13.48 C1.98,13.2701 2.1062,13.0807 2.3,13 L2.3,13 L6.45,12.17 L6.45,10 L3.23,10.58 L3.23,10.58 C3.066,10.6223 2.894,10.6223 2.73,10.58 C2.3906,10.4933 2.1212,10.2354 2.02,9.9 L2,9.9 L1,5.83 L1,5.83 C0.9688,5.6884 0.9688,5.5416 1,5.4 C1.0936,5.013 1.4078,4.7185 1.8,4.65 L1.8,4.65 L6.5,4.13 L6.5,0 L6.72,0 L6.72,4.1 L6.78,4.1 L7,4.08 L7.4,4 L7.61,4 C7.8773,4.0643 8.0426,4.3323 7.98,4.6 C7.9361,4.835 7.729,5.0041 7.49,5 L7,5.08 L6.78,5.08 L6.72,5.08 L6.72,7.94 L6.78,7.94 L7,7.88 L8.81,7.52 L8.81,7.52 L8.81,7.52 C9.2375,7.4848 9.6399,7.7262 9.81,8.12 L9.81,8.12 L11.81,12.06 L11.81,12.06 C11.887,12.1358 11.9511,12.2236 12,12.32 Z M6.5,5.13 L4,5.4 L4.74,8.34 L6.5,8 L6.5,5.13 Z" id="Shape"></path>
                </g>
            </g>
        </g>
    </g>
</svg>