<?xml version="1.0" encoding="UTF-8" standalone="no"?>
<svg width="15px" height="15px" viewBox="0 0 15 15" version="1.1" xmlns="http://www.w3.org/2000/svg" xmlns:xlink="http://www.w3.org/1999/xlink">
    <!-- Generator: Sketch 41.2 (35397) - http://www.bohemiancoding.com/sketch -->
    <title>police</title>
    <desc>Created with Sketch.</desc>
    <defs></defs>
    <g id="Page-1" stroke="none" stroke-width="1" fill="none" fill-rule="evenodd">
        <g id="police" fill="#000000">
            <g transform="translate(1.000000, 1.000000)" id="svg4619">
                <g>
                    <path d="M4.5,0 L5,1 L10,1 L10.5,0 L4.5,0 Z M5,1.5 L5,2.75 C5,2.75 5,5.5 7.5,5.5 C10,5.5 10,2.75 10,2.75 L10,1.5 L5,1.5 Z M0.9844,2.9863 C0.4329,2.9949 -0.0076,3.4485 5.55111512e-16,4 L5.55111512e-16,8 C-0.0001,8.6398 0.5922,9.1152 1.2168,8.9766 L4,8.3574 L4,13 L9.8789,6.0703 C9.7391,6.0294 9.5947,6 9.4414,6 L5.5,6 L2,6.7539 L2,4 C2.0077,3.4362 1.5481,2.9775 0.9844,2.9863 Z M10.748,6.7109 L5.4121,13 L11,13 L11,7.5586 C11,7.2451 10.9061,6.9548 10.748,6.7109 Z" id="rect4718"></path>
                </g>
            </g>
        </g>
    </g>
</svg>