<?xml version="1.0" encoding="UTF-8" standalone="no"?>
<svg width="15px" height="15px" viewBox="0 0 15 15" version="1.1" xmlns="http://www.w3.org/2000/svg" xmlns:xlink="http://www.w3.org/1999/xlink">
    <!-- Generator: Sketch 41.2 (35397) - http://www.bohemiancoding.com/sketch -->
    <title>political_party</title>
    <desc>Created with Sketch.</desc>
    <defs></defs>
    <g id="Page-1" stroke="none" stroke-width="1" fill="none" fill-rule="evenodd">
        <g id="political_party" fill="#000000">
            <path d="M7.15,2 C5.93,2 4.98,3.38 4.61,3.82 C4.5365,3.9102 4.4975,4.0237 4.5,4.14 L4.5,8.54 C4.4884,8.7827 4.6758,8.9889 4.9185,9.0005 C5.028,9.0057 5.1355,8.9699 5.22,8.9 C5.6865,8.2736 6.3789,7.8539 7.15,7.73 C8.56,7.73 9.1,9 10.57,9 C11.5648,8.9024 12.5115,8.5244 13.3,7.91 C13.4272,7.8166 13.5016,7.6678 13.5,7.51 L13.5,2.45 C13.5275,2.2086 13.3541,1.9905 13.1126,1.963 C13.0332,1.954 12.9527,1.9668 12.88,2 C12.1987,2.5212 11.4094,2.8834 10.57,3.06 C9.1,3.08 8.62,2 7.15,2 Z M3,3 C2.4477,3 2,2.5523 2,2 C2,1.4477 2.4477,1 3,1 C3.5523,1 4,1.4477 4,2 C4,2.5523 3.5523,3 3,3 Z M3.5,4 L3.5,13.48 C3.5,13.7561 3.2761,13.98 3,13.98 C2.7239,13.98 2.5,13.7561 2.5,13.48 L2.5,4 C2.5,3.7239 2.7239,3.5 3,3.5 C3.2761,3.5 3.5,3.7239 3.5,4 Z" id="Shape"></path>
        </g>
    </g>
</svg>