<?xml version="1.0" encoding="UTF-8" standalone="no"?>
<svg width="15px" height="15px" viewBox="0 0 15 15" version="1.1" xmlns="http://www.w3.org/2000/svg" xmlns:xlink="http://www.w3.org/1999/xlink">
    <!-- Generator: Sketch 41.2 (35397) - http://www.bohemiancoding.com/sketch -->
    <title>pub</title>
    <desc>Created with Sketch.</desc>
    <defs></defs>
    <g id="Page-1" stroke="none" stroke-width="1" fill="none" fill-rule="evenodd">
        <g id="pub" fill="#000000">
            <g id="biergarten" transform="translate(3.000000, 1.000000)">
                <g id="Layer_1">
                    <path d="M9,4 L9,1 C9,1 8,0 4.5,0 C1,0 0,1 0,1 L0,4 C0.0288,5.3915 0.3706,6.7586 1,8 C1.6255,9.4348 1.6255,11.0652 1,12.5 C1,12.5 1,13.5 4.5,13.5 C8,13.5 8,12.5 8,12.5 C7.3745,11.0652 7.3745,9.4348 8,8 C8.6294,6.7586 8.9712,5.3915 9,4 Z M4.5,12.5 C3.7034,12.535 2.9063,12.4404 2.14,12.22 C2.343,11.4976 2.444,10.7504 2.44,10 L6.56,10 C6.556,10.7504 6.657,11.4976 6.86,12.22 C6.0937,12.4404 5.2966,12.535 4.5,12.5 Z M4.5,4 C3.3136,4.0299 2.1306,3.8609 1,3.5 L1,1.5 C2.131,1.1411 3.3137,0.9722 4.5,1 C5.6863,0.9722 6.869,1.1411 8,1.5 L8,3.5 C6.8694,3.8609 5.6864,4.0299 4.5,4 Z" id="Shape"></path>
                </g>
            </g>
        </g>
    </g>
</svg>