<svg width="15" height="15" viewBox="0 0 15 15" fill="none" xmlns="http://www.w3.org/2000/svg">
<g clip-path="url(#clip0_1940_2031)">
<path d="M11.0001 1V2H13.0001L14.4101 3.41C14.7901 3.79 15.0001 4.3 15.0001 4.83V11C15.0001 12.1 14.1001 13 13.0001 13H8.0001C6.9001 13 6.0001 12.1 6.0001 11V4.83C6.0001 4.3 6.2101 3.79 6.5901 3.41L8.0001 2H10.0001V1H8.0001C7.7201 1 7.5001 0.78 7.5001 0.5C7.5001 0.22 7.7201 0 8.0001 0H13.0001C13.2801 0 13.5001 0.22 13.5001 0.5C13.5001 0.78 13.2801 1 13.0001 1H11.0001ZM8.7501 13.5L8.0001 15H6.5001L7.2501 13.5H8.7501ZM13.7501 13.5L14.5001 15H13.0001L12.2501 13.5H13.7501ZM7.0001 5.5L7.0101 7.5C7.0101 7.78 7.2301 8 7.5101 8H9.5001C9.7801 8 10.0001 7.78 10.0001 7.5V5.5C9.9901 5.22 9.7701 5 9.5001 5H7.5001C7.2201 5 7.0001 5.22 7.0001 5.5ZM11.0001 5.5L11.0101 7.5C11.0101 7.78 11.2301 8 11.5101 8H13.5001C13.7801 8 14.0001 7.78 14.0001 7.5V5.5C13.9901 5.22 13.7701 5 13.5001 5H11.5001C11.2201 5 11.0001 5.22 11.0001 5.5ZM8.0001 3.5V3.51C8.0101 3.78 8.2301 4 8.5001 4H12.5101C12.7801 4 13.0001 3.78 13.0001 3.51V3.5V3.49C12.9901 3.22 12.7701 3 12.5001 3H8.4901C8.2201 3 8.0001 3.22 8.0001 3.49V3.5ZM8.0001 11.5C8.5501 11.5 9.0001 11.05 9.0001 10.5C9.0001 9.95 8.5501 9.5 8.0001 9.5C7.4501 9.5 7.0001 9.95 7.0001 10.5C7.0001 11.05 7.4501 11.5 8.0001 11.5ZM13.0001 11.5C13.5501 11.5 14.0001 11.05 14.0001 10.5C14.0001 9.95 13.5501 9.5 13.0001 9.5C12.4501 9.5 12.0001 9.95 12.0001 10.5C12.0001 11.05 12.4501 11.5 13.0001 11.5Z" fill="black"/>
<path fill-rule="evenodd" clip-rule="evenodd" d="M1.12304 12.5345C1.46387 12.8169 1.86585 12.994 2.27758 13.0427C2.38166 13.0549 2.62427 13.0556 2.72964 13.0434C2.88965 13.0248 3.04511 12.9888 3.19732 12.9343C3.51083 12.8226 3.79313 12.643 4.0403 12.3985C4.4104 12.0341 4.63806 11.5836 4.694 11.1056C4.70701 10.9972 4.70701 10.7777 4.694 10.6693C4.65172 10.3093 4.51122 9.96286 4.28291 9.65424C4.20291 9.5458 4.14112 9.47522 4.03769 9.3732C3.67019 9.01132 3.21293 8.78674 2.72964 8.73156C2.61777 8.71873 2.39792 8.71873 2.28409 8.73221C2.11497 8.75145 1.93935 8.79444 1.78324 8.85412C1.74227 8.87016 1.70324 8.88492 1.69673 8.88684C1.68828 8.88941 1.77804 8.70654 1.98748 8.29269C2.154 7.96417 2.29124 7.69532 2.29254 7.69532C2.31986 7.69276 3.06788 7.67094 3.06983 7.67222C3.07113 7.67351 2.97942 7.85701 2.86624 8.0803C2.75306 8.30359 2.66135 8.48646 2.66265 8.48774C2.66395 8.48838 2.70233 8.49223 2.74786 8.49673C3.18236 8.53715 3.61881 8.70526 3.9733 8.96897C4.00387 8.99207 4.03119 9.01068 4.03314 9.01068C4.03965 9.01068 4.66342 7.77103 4.67448 7.73703C4.7057 7.63565 4.71416 7.49 4.69465 7.38669C4.63806 7.08962 4.40715 6.86184 4.10599 6.80601C4.02989 6.7919 4.00582 6.7919 2.91827 6.8259C2.16896 6.849 1.96537 6.8567 1.92634 6.86504C1.82943 6.88494 1.73186 6.94717 1.67722 7.02353C1.66096 7.04534 1.47623 7.40209 1.26614 7.81659C0.977339 8.38765 0.881724 8.58142 0.871967 8.61799C0.857006 8.67574 0.856356 8.7521 0.869365 8.81498C0.901887 8.96961 1.03523 9.10115 1.19459 9.13579L1.24337 9.1467L1.2128 9.1698C1.09962 9.25386 0.933109 9.41042 0.838794 9.52078C0.589673 9.814 0.421207 10.1521 0.349657 10.5031C0.32364 10.6327 0.313232 10.7392 0.313232 10.8875C0.313232 11.0357 0.32364 11.1422 0.349657 11.2718C0.421207 11.6228 0.589673 11.9609 0.838794 12.2541C0.902538 12.3286 1.04759 12.4717 1.12304 12.5345ZM3.84513 10.8879C3.84513 11.6047 3.39633 12.116 2.69644 12.1969C2.59432 12.2084 2.4122 12.2084 2.31203 12.1962C1.61865 12.1135 1.1718 11.6008 1.1718 10.8879C1.1718 10.1019 1.71167 9.56939 2.50846 9.56939C3.30526 9.56939 3.84513 10.1019 3.84513 10.8879Z" fill="black"/>
<path d="M6.96791 12.6438C6.89294 12.628 6.82061 12.5873 6.76012 12.5269L6.70686 12.4738L6.1407 11.3434L5.57454 10.2137L5.54956 10.2163C5.4838 10.2242 4.74339 10.278 4.74076 10.2754C4.73945 10.2741 4.7263 10.238 4.71117 10.1953C4.63095 9.95832 4.49484 9.70559 4.339 9.50013C4.30546 9.45615 4.30086 9.44696 4.31006 9.44302C4.32322 9.43842 5.80469 9.32552 5.85401 9.32617C5.97105 9.32683 6.11177 9.40101 6.18081 9.49882C6.19725 9.52113 6.49512 10.108 6.84297 10.8025C7.32956 11.774 7.47817 12.0773 7.48803 12.1147C7.50316 12.1738 7.50381 12.2519 7.49066 12.3162C7.45844 12.4698 7.33088 12.6011 7.17438 12.6411C7.11454 12.6562 7.03103 12.6576 6.96791 12.6438Z" fill="black"/>
<path d="M4.51474 6.79368C4.28411 6.75187 4.08717 6.60422 3.98481 6.39777C3.80148 6.02798 3.95113 5.58241 4.3178 5.40144C4.35343 5.38446 4.41173 5.36159 4.44736 5.35179C4.50826 5.3348 4.52057 5.3335 4.63847 5.3335C4.75638 5.3335 4.76869 5.3348 4.82958 5.35179C5.19366 5.45371 5.42105 5.81042 5.3608 6.18543C5.31545 6.46767 5.1075 6.70091 4.83282 6.778C4.7797 6.79303 4.75638 6.79564 4.65791 6.79695C4.59572 6.79825 4.53093 6.79695 4.51474 6.79368Z" fill="black"/>
</g>
<defs>
<clipPath id="clip0_1940_2031">
<rect width="15" height="15" fill="white"/>
</clipPath>
</defs>
</svg>
