<?xml version="1.0" encoding="UTF-8" standalone="no"?>
<svg width="15px" height="15px" viewBox="0 0 15 15" version="1.1" xmlns="http://www.w3.org/2000/svg" xmlns:xlink="http://www.w3.org/1999/xlink">
    <!-- Generator: Sketch 41.2 (35397) - http://www.bohemiancoding.com/sketch -->
    <title>sports_center</title>
    <desc>Created with Sketch.</desc>
    <defs></defs>
    <g id="Page-1" stroke="none" stroke-width="1" fill="none" fill-rule="evenodd">
        <g id="sports_center" fill="#000000">
            <g transform="translate(2.000000, 1.000000)" id="Layer_1">
                <g>
                    <path d="M6,2.5 C6,3.3284 5.3284,4 4.5,4 C3.6716,4 3,3.3284 3,2.5 C3,1.6716 3.6716,1 4.5,1 C5.3284,1 6,1.6716 6,2.5 Z M11,0 C10.4477,0 10,0.4477 10,1 C10,1.5523 10.4477,2 11,2 C11.5523,2 12,1.5523 12,1 C12,0.4477 11.5523,0 11,0 Z M8.89,12.19 L6,8.58 L6,5.5 L6.5,5.5 C6.6669,5.4982 6.8214,5.4115 6.91,5.27 L6.91,5.27 L8.85,2.85 L8.85,2.85 L8.91,2.77 L8.91,2.77 C8.9661,2.6909 8.9974,2.5969 9,2.5 C8.9962,2.2239 8.7692,2.0032 8.4931,2.007 C8.3597,2.0088 8.2326,2.0639 8.14,2.16 L8.14,2.16 L6.26,4.5 L2.5,4.5 C2.3632,4.5018 2.233,4.5596 2.14,4.66 L2.14,4.66 L0.14,7.2 L0.14,7.2 C0.0599,7.2807 0.0104,7.3868 0,7.5 C0,7.7761 0.2239,8 0.5,8 C0.6669,7.9982 0.8214,7.9115 0.91,7.77 L0.91,7.77 L2.74,5.5 L3,5.5 L3,8.58 L0.11,12.19 L0.11,12.19 C0.0408,12.2749 0.0021,12.3805 0,12.49 C0,12.7661 0.2239,12.99 0.5,12.99 C0.6669,12.9882 0.8214,12.9015 0.91,12.76 L0.91,12.76 L3.91,8.99 L5.06,8.99 L8.06,12.76 L8.06,12.76 C8.1486,12.9015 8.3031,12.9882 8.47,12.99 C8.7461,12.99 8.97,12.7661 8.97,12.49 C8.9679,12.3805 8.9292,12.2749 8.86,12.19 L8.86,12.19 L8.89,12.19 Z" id="Shape"></path>
                </g>
            </g>
        </g>
    </g>
</svg>