<svg width="15" height="15" viewBox="0 0 15 15" fill="none" xmlns="http://www.w3.org/2000/svg">
<g clip-path="url(#clip0_1937_2035)">
<path d="M-4.1333 3.80002C-4.1333 2.77335 -3.2933 1.93335 -2.26663 1.93335H4.2667C5.29337 1.93335 6.13337 2.77335 6.13337 3.80002V11.2667C6.13337 12.2 5.20003 12.2 5.20003 12.2V13.1333C5.20003 13.1333 5.20003 14.0667 4.2667 14.0667C3.33337 14.0667 3.33337 13.1333 3.33337 13.1333V12.2H-1.3333V13.1333C-1.3333 13.1333 -1.3333 14.0667 -2.26663 14.0667C-3.19997 14.0667 -3.19997 13.1333 -3.19997 13.1333V12.2C-4.1333 12.2 -4.1333 11.2667 -4.1333 11.2667V7.72002V3.80002ZM-2.7333 4.73335C-2.99463 4.73335 -3.19997 4.93868 -3.19997 5.20002V8.00002C-3.19997 8.26135 -2.99463 8.46668 -2.7333 8.46668H4.73337C4.9947 8.46668 5.20003 8.26135 5.20003 8.00002V5.20002C5.20003 4.93868 4.9947 4.73335 4.73337 4.73335H-2.7333ZM-2.26663 9.40002C-2.77997 9.40002 -3.19997 9.82002 -3.19997 10.3333C-3.19997 10.8467 -2.77997 11.2667 -2.26663 11.2667C-1.7533 11.2667 -1.3333 10.8467 -1.3333 10.3333C-1.3333 9.82002 -1.7533 9.40002 -2.26663 9.40002ZM4.2667 9.40002C3.75337 9.40002 3.33337 9.82002 3.33337 10.3333C3.33337 10.8467 3.75337 11.2667 4.2667 11.2667C4.78003 11.2667 5.20003 10.8467 5.20003 10.3333C5.20003 9.82002 4.78003 9.40002 4.2667 9.40002ZM-2.26663 3.33335C-2.26663 3.59468 -2.0613 3.80002 -1.79997 3.80002H3.80003C4.06137 3.80002 4.2667 3.59468 4.2667 3.33335C4.2667 3.07202 4.06137 2.86668 3.80003 2.86668H-1.79997C-2.0613 2.86668 -2.26663 3.07202 -2.26663 3.33335Z" fill="black"/>
<path d="M8.8667 3.80002C8.8667 2.77335 9.7067 1.93335 10.7334 1.93335H17.2667C18.2934 1.93335 19.1334 2.77335 19.1334 3.80002V11.2667C19.1334 12.2 18.2 12.2 18.2 12.2V13.1333C18.2 13.1333 18.2 14.0667 17.2667 14.0667C16.3334 14.0667 16.3334 13.1333 16.3334 13.1333V12.2H11.6667V13.1333C11.6667 13.1333 11.6667 14.0667 10.7334 14.0667C9.80003 14.0667 9.80003 13.1333 9.80003 13.1333V12.2C8.8667 12.2 8.8667 11.2667 8.8667 11.2667V7.72002V3.80002ZM10.2667 4.73335C10.0054 4.73335 9.80003 4.93868 9.80003 5.20002V8.00002C9.80003 8.26135 10.0054 8.46668 10.2667 8.46668H17.7334C17.9947 8.46668 18.2 8.26135 18.2 8.00002V5.20002C18.2 4.93868 17.9947 4.73335 17.7334 4.73335H10.2667ZM10.7334 9.40002C10.22 9.40002 9.80003 9.82002 9.80003 10.3333C9.80003 10.8467 10.22 11.2667 10.7334 11.2667C11.2467 11.2667 11.6667 10.8467 11.6667 10.3333C11.6667 9.82002 11.2467 9.40002 10.7334 9.40002ZM17.2667 9.40002C16.7534 9.40002 16.3334 9.82002 16.3334 10.3333C16.3334 10.8467 16.7534 11.2667 17.2667 11.2667C17.78 11.2667 18.2 10.8467 18.2 10.3333C18.2 9.82002 17.78 9.40002 17.2667 9.40002ZM10.7334 3.33335C10.7334 3.59468 10.9387 3.80002 11.2 3.80002H16.8C17.0614 3.80002 17.2667 3.59468 17.2667 3.33335C17.2667 3.07202 17.0614 2.86668 16.8 2.86668H11.2C10.9387 2.86668 10.7334 3.07202 10.7334 3.33335Z" fill="black"/>
</g>
<defs>
<clipPath id="clip0_1937_2035">
<rect width="15" height="15" fill="white"/>
</clipPath>
</defs>
</svg>
