<?xml version="1.0" encoding="UTF-8" standalone="no"?>
<svg width="15px" height="15px" viewBox="0 0 15 15" version="1.1" xmlns="http://www.w3.org/2000/svg" xmlns:xlink="http://www.w3.org/1999/xlink">
    <!-- Generator: Sketch 41.2 (35397) - http://www.bohemiancoding.com/sketch -->
    <title>swimming</title>
    <desc>Created with Sketch.</desc>
    <defs></defs>
    <g id="Page-1" stroke="none" stroke-width="1" fill="none" fill-rule="evenodd">
        <g id="swimming" fill="#000000">
            <g transform="translate(0.000000, 2.000000)" id="svg4619">
                <g>
                    <path d="M10.1113,0 C9.9989,0 9.6758,0.1465 9.6758,0.1465 L6.3535,1.8262 C5.9111,2.0024 5.7358,2.7081 6.002,3.0605 L6.9727,4.4687 L3.002,6.498 L5,7.998 L7.502,6.498 L10.002,7.998 L11.004,6.996 L8.004,2.996 L10.5606,1.4667 C11.0892,1.2005 11.004,0.7622 11.004,0.496 C10.9999,0.2861 10.6437,0 10.1113,0 Z M12.252,3 C11.2847,3 10.5,3.7827 10.5,4.75 C10.5,5.7173 11.2847,6.502 12.252,6.502 C13.2193,6.502 14.002,5.7173 14.002,4.75 C14.002,3.7827 13.2192,3 12.252,3 Z M2.5,8 L0,9.5 L0,11 L2.5,9.5 L5,11 L7.502,9.5 L10.002,11 L12,9.5 L15,11 L15,9.5 L12,8 L10.002,9.5 L7.502,8 L5,9.5 L2.5,8 Z" id="path16388"></path>
                </g>
            </g>
        </g>
    </g>
</svg>