<?xml version="1.0" encoding="UTF-8" standalone="no"?>
<svg width="15px" height="15px" viewBox="0 0 15 15" version="1.1" xmlns="http://www.w3.org/2000/svg" xmlns:xlink="http://www.w3.org/1999/xlink">
    <!-- Generator: Sketch 41.2 (35397) - http://www.bohemiancoding.com/sketch -->
    <title>tea_shop</title>
    <desc>Created with Sketch.</desc>
    <defs></defs>
    <g id="Page-1" stroke="none" stroke-width="1" fill="none" fill-rule="evenodd">
        <g id="tea_shop" fill="#000000">
            <g transform="translate(4.000000, 2.000000)" id="Layer_2">
                <g>
                    <path d="M7,6 C6.8,7.4 6.5,8.7 6,10 C5.7,10.4 5.4,10.7 5,11 L5,13 L2,13 L2,11 C1.6,10.7 1.3,10.4 1,10 C0.5,8.7 0.2,7.4 0,6 L7,6 Z M4.1,4.7 C5.3,4.4 5.8,4.4 5.9,3.2 C5.9,2.6 5.5,2.4 4.4,1.8 C3.5,1.4 3.1,0.8 3.2,0 C2.8,0.9 3,2 4,2.5 C6,3.5 4.1,4.7 4.1,4.7 Z M1.8,5 C2.5,4.8 2.9,4.8 2.9,4.1 C2.9,3.7 2.6,3.6 2,3.2 C1.4,3 1.1,2.5 1.2,2 C0.9,2.6 1.1,3.3 1.7,3.6 C2.9,4.2 1.8,5 1.8,5 Z" id="Shape"></path>
                </g>
            </g>
        </g>
    </g>
</svg>