<?xml version="1.0" encoding="UTF-8"?>
<svg width="15px" height="15px" viewBox="0 0 15 15" version="1.1" xmlns="http://www.w3.org/2000/svg" xmlns:xlink="http://www.w3.org/1999/xlink">
    <!-- Generator: Sketch 52.6 (67491) - http://www.bohemiancoding.com/sketch -->
    <title>toilets</title>
    <desc>Created with Sketch.</desc>
    <g id="Page-1" stroke="none" stroke-width="1" fill="none" fill-rule="evenodd">
        <g id="toilets" transform="translate(0.000000, 2.000000)" fill="#000000">
            <path d="M13.5,0 C14.32845,5.5e-05 15,0.73876 15,1.65 L15,9.35 C15,10.261295 14.32845,11 13.5,11 L1.5,11 C0.67155,11 0,10.261295 0,9.35 L0,1.65 C0,0.73876 0.67155,5.5e-05 1.5,0 L13.5,0 Z M11.74125,6.28375 C11.70225,6.62695 11.595,6.903435 11.4195,7.11315 C11.244,7.322865 11.00025,7.42775 10.68825,7.42775 C10.4586,7.42775 10.2636,7.37891 10.10325,7.281175 C9.9429,7.18344 9.8129,7.053585 9.71325,6.8915 C9.6136,6.729415 9.541,6.54709 9.4955,6.344525 C9.45,6.14196 9.42725,5.9334 9.42725,5.7189 C9.42725,5.494885 9.45,5.277965 9.4955,5.06825 C9.541,4.858535 9.6136,4.671425 9.71325,4.506975 C9.8129,4.342525 9.9429,4.21146 10.10325,4.113725 C10.2636,4.01599 10.4586,3.96715 10.68825,3.96715 C10.8139,3.96715 10.93415,3.98981 11.049,4.035075 C11.16385,4.08034 11.26675,4.143535 11.35775,4.22455 C11.44875,4.305565 11.5246,4.399725 11.58525,4.506975 C11.6459,4.614225 11.6849,4.7322 11.70225,4.8609 L12.69025,4.8609 C12.6599,4.565385 12.58625,4.3032 12.46925,4.0744 C12.35225,3.8456 12.20385,3.65376 12.024,3.498825 C11.84415,3.34389 11.6405,3.225915 11.413,3.1449 C11.1855,3.063885 10.9439,3.02335 10.68825,3.02335 C10.3329,3.02335 10.01335,3.092485 9.7295,3.2307 C9.44565,3.368915 9.20625,3.5596 9.01125,3.8027 C8.81625,4.0458 8.66675,4.33059 8.56275,4.657125 C8.45875,4.98366 8.40675,5.337585 8.40675,5.7189 C8.40675,6.0907 8.45875,6.437475 8.56275,6.759225 C8.66675,7.080975 8.81625,7.361035 9.01125,7.59935 C9.20625,7.837665 9.44565,8.024775 9.7295,8.160625 C10.01335,8.296475 10.3329,8.3644 10.68825,8.3644 C10.97425,8.3644 11.2364,8.316715 11.47475,8.2214 C11.7131,8.126085 11.9211,7.987815 12.09875,7.8067 C12.2764,7.625585 12.4194,7.4063 12.52775,7.1489 C12.6361,6.8915 12.70325,6.603135 12.72925,6.28375 L11.74125,6.28375 Z M3.06375,3.1449 L2.04325,3.1449 L3.27175,8.25 L4.30525,8.25 L5.07875,4.7751 L5.09175,4.7751 L5.87825,8.25 L6.89225,8.25 L8.14025,3.1449 L7.13925,3.1449 L6.37875,6.6627 L6.36575,6.6627 L5.57275,3.1449 L4.61725,3.1449 L3.81125,6.6198 L3.79825,6.6198 L3.06375,3.1449 Z" id="Fill-1"></path>
        </g>
    </g>
</svg>