<?xml version="1.0" encoding="UTF-8" standalone="no"?>
<svg width="15px" height="15px" viewBox="0 0 15 15" version="1.1" xmlns="http://www.w3.org/2000/svg" xmlns:xlink="http://www.w3.org/1999/xlink">
    <!-- Generator: Sketch 41.2 (35397) - http://www.bohemiancoding.com/sketch -->
    <title>tourism</title>
    <desc>Created with Sketch.</desc>
    <defs></defs>
    <g id="Page-1" stroke="none" stroke-width="1" fill="none" fill-rule="evenodd">
        <g id="tourism" fill="#000000">
            <g transform="translate(1.000000, 0.000000)" id="Layer_1">
                <g>
                    <path d="M10,4 L3,4 C2.4477,4 2,3.5523 2,3 L2,0.5 C2,0.2239 2.2239,0 2.5,0 C2.7761,0 3,0.2239 3,0.5 L3,2 L4,2 L4,1 C4,0.4477 4.4477,0 5,0 C5.5523,0 6,0.4477 6,1 L6,2 L7,2 L7,1 C7,0.4477 7.4477,0 8,0 C8.5523,0 9,0.4477 9,1 L9,2 L10,2 L10,0.5 C10,0.2239 10.2239,0 10.5,0 C10.7761,0 11,0.2239 11,0.5 L11,3 C11,3.5523 10.5523,4 10,4 Z M13,14.5 C13,14.7761 12.7761,15 12.5,15 L0.5,15 C0.2239,15 0,14.7761 0,14.5 C0,14.2239 0.2239,14 0.5,14 L1,14 C1.5523,14 2,13.5523 2,13 C2,13 3,7 3,6 C3,5.4477 3.4477,5 4,5 L9,5 C9.5523,5 10,5.4477 10,6 C10,7 11,13 11,13 C11,13.5523 11.4477,14 12,14 L12.5,14 C12.7723,13.9999 12.9946,14.2178 13,14.49 L13,14.5 Z M8,10.5 C8,9.6716 7.3284,9 6.5,9 C5.6716,9 5,9.6716 5,10.5 L5,14 L8,14 L8,10.5 Z" id="Shape"></path>
                </g>
            </g>
        </g>
    </g>
</svg>