<?xml version="1.0" encoding="UTF-8" standalone="no"?>
<svg width="15px" height="15px" viewBox="0 0 15 15" version="1.1" xmlns="http://www.w3.org/2000/svg" xmlns:xlink="http://www.w3.org/1999/xlink">
    <!-- Generator: Sketch 41.2 (35397) - http://www.bohemiancoding.com/sketch -->
    <title>train_station</title>
    <desc>Created with Sketch.</desc>
    <defs></defs>
    <g id="Page-1" stroke="none" stroke-width="1" fill="none" fill-rule="evenodd">
        <g id="train_station" fill="#000000">
            <g id="train" transform="translate(2.000000, 1.000000)">
                <g id="Layer_1">
                    <path d="M1,0 C0.4477,0 0,0.4477 0,1 L0,9 C0,9.5523 0.4477,10 1,10 L10,10 C10.5523,10 11,9.5523 11,9 L11,1 C11,0.4477 10.5523,0 10,0 L1,0 Z M3.75,0.5 L3.7597656,0.5 L7.2597656,0.5 C7.3978656,0.5 7.5097656,0.6119 7.5097656,0.75 C7.5097656,0.8881 7.3978656,1 7.2597656,1 L3.75,1 C3.6119,1 3.5,0.8881 3.5,0.75 C3.5,0.6119 3.6119,0.5 3.75,0.5 Z M1.5,2 L5,2 L5,6 L1.5,6 C1.2239,6 1,5.7761 1,5.5 L1,2.5 C1,2.2239 1.2239,2 1.5,2 Z M6,2 L9.5,2 C9.7761,2 10,2.2239 10,2.5 L10,5.5 C10,5.7761 9.7761,6 9.5,6 L6,6 L6,2 Z M3,7 C3.5523,7 4,7.4477 4,8 C4,8.5523 3.5523,9 3,9 C2.4477,9 2,8.5523 2,8 C2,7.4477 2.4477,7 3,7 Z M8,7 C8.5523,7 9,7.4477 9,8 C9,8.5523 8.5523,9 8,9 C7.4477,9 7,8.5523 7,8 C7,7.4477 7.4477,7 8,7 Z M8.445312,10.994141 C8.380597,10.999652 8.314981,11.018581 8.253906,11.050781 C8.030606,11.168381 7.9302313,11.433922 8.019531,11.669922 L8.189453,12 L2.8105469,12 L2.9394531,11.730469 C3.0371531,11.472169 2.9067375,11.183637 2.6484375,11.085938 C2.4124375,10.996738 2.1468969,11.097113 2.0292969,11.320312 L1.0292969,13.320312 C1.0080969,13.377912 0.9986,13.4387 1,13.5 C1,13.7761 1.2239,14 1.5,14 C1.6802,13.999 1.8450875,13.899434 1.9296875,13.740234 L1.9296875,13.689453 L2,13.689453 L2.3105469,13 L8.689453,13 L9,13.689453 L9,13.740234 C9.0846,13.899434 9.249488,13.999 9.429688,14 C9.705787,14 9.929688,13.7761 9.929688,13.5 C9.949587,13.4212 9.949587,13.338566 9.929688,13.259766 L8.929688,11.259766 C8.833163,11.076541 8.639459,10.977608 8.445312,10.994141 Z" id="path3"></path>
                </g>
            </g>
        </g>
    </g>
</svg>