<?xml version="1.0" encoding="UTF-8" standalone="no"?>
<svg width="15px" height="15px" viewBox="0 0 15 15" version="1.1" xmlns="http://www.w3.org/2000/svg" xmlns:xlink="http://www.w3.org/1999/xlink">
    <!-- Generator: Sketch 41.2 (35397) - http://www.bohemiancoding.com/sketch -->
    <title>tram_stop</title>
    <desc>Created with Sketch.</desc>
    <defs></defs>
    <g id="Page-1" stroke="none" stroke-width="1" fill="none" fill-rule="evenodd">
        <g id="tram_stop" fill="#000000">
            <g id="rail-light-15" transform="translate(3.000000, 0.000000)">
                <g id="svg4619">
                    <path d="M2.5,0 C2,0 2,0.5 2,0.5 L2,1.5 C2,1.777 2.223,2 2.5,2 C2.777,2 3,1.777 3,1.5 L3,1 L4,1 L4,3 L3,3 C3,3 1,3 1,5 L1,8 C1,11 4,11 4,11 L5,11 C5,11 8,11 8,8 L8,5 C8,3 6,3 6,3 L5,3 L5,1 L6,1 L6,1.5 C6,1.777 6.223,2 6.5,2 C6.777,2 7,1.777 7,1.5 L7,0.5 C7,0 6.5,0 6.5,0 L2.5,0 Z M4.5,4 L6.5449,4.7734 L7,6.5 C7.1316,7 6.5,7 6.5,7 L2.5,7 C2.5,7 1.8684,7 2,6.5 L2.4551,4.7734 L4.5,4 Z M4.5,8 C4.7761,8 5,8.2239 5,8.5 C5,8.7761 4.7761,9 4.5,9 C4.2239,9 4,8.7761 4,8.5 C4,8.2239 4.2239,8 4.5,8 Z M1.125,12 L0,15 L1.5,15 L1.875,14 L7.125,14 L7.5,15 L9,15 L7.875,12 L6.375,12 L6.75,13 L2.25,13 L2.625,12 L1.125,12 Z" id="path14245"></path>
                </g>
            </g>
        </g>
    </g>
</svg>