<svg width="15" height="15" viewBox="0 0 15 15" fill="none" xmlns="http://www.w3.org/2000/svg">
<g clip-path="url(#clip0_1940_2041)">
<path d="M6 6H5.25C5.11 6 5 5.89 5 5.75V5.25C5 5.11 5.11 5 5.25 5H6V4H5.25C5.11 4 5 3.89 5 3.75V3.25C5 3.11 5.11 3 5.25 3H6V2H5.25C5.11 2 5 1.89 5 1.75V1.25C5 1.11 5.11 1 5.25 1H6V0H7V1H8V0H9V1H9.75C9.89 1 10 1.11 10 1.25V1.75C10 1.89 9.89 2 9.75 2H9V3H9.75C9.89 3 10 3.11 10 3.25V3.75C10 3.89 9.89 4 9.75 4H9V5H9.75C9.89 5 10 5.11 10 5.25V5.75C10 5.89 9.89 6 9.75 6H9V7H9.75C9.89 7 10 7.11 10 7.25V7.75C10 7.89 9.89 8 9.75 8H9V9H9.75C9.89 9 10 9.11 10 9.25V9.75C10 9.89 9.89 10 9.75 10H9V11H9.75C9.89 11 10 11.11 10 11.25V11.75C10 11.89 9.89 12 9.75 12H9V13H9.75C9.89 13 10 13.11 10 13.25V13.75C10 13.89 9.89 14 9.75 14H9V15H8V14H7V15H6V14H5.25C5.11 14 5 13.89 5 13.75V13.25C5 13.11 5.11 13 5.25 13H6V12H5.25C5.11 12 5 11.89 5 11.75V11.25C5 11.11 5.11 11 5.25 11H6V10H5.25C5.11 10 5 9.89 5 9.75V9.25C5 9.11 5.11 9 5.25 9H6V8H5.25C5.11 8 5 7.89 5 7.75V7.25C5 7.11 5.11 7 5.25 7H6V6ZM8 6H7V7H8V6ZM8 5V4H7V5H8ZM8 8H7V9H8V8ZM8 10H7V11H8V10ZM8 12H7V13H8V12ZM7 3H8V2H7V3ZM0 10V5H4.5V10H0ZM10.5 10V5H15V10H10.5Z" fill="black"/>
</g>
<defs>
<clipPath id="clip0_1940_2041">
<rect width="15" height="15" fill="white"/>
</clipPath>
</defs>
</svg>
