<?xml version="1.0" encoding="UTF-8" standalone="no"?>
<svg width="15px" height="15px" viewBox="0 0 15 15" version="1.1" xmlns="http://www.w3.org/2000/svg" xmlns:xlink="http://www.w3.org/1999/xlink">
    <!-- Generator: Sketch 41.2 (35397) - http://www.bohemiancoding.com/sketch -->
    <title>undefined</title>
    <desc>Created with Sketch.</desc>
    <defs></defs>
    <g id="Page-1" stroke="none" stroke-width="1" fill="none" fill-rule="evenodd">
        <g id="undefined" fill="#010101">
            <path d="M5.464,9.304 L7.528,9.304 C7.336,7.4 9.736,6.808 9.736,4.824 C9.736,2.936 8.376,2.088 6.568,2.088 C5.384,2.088 4.376,2.68 3.656,3.544 L4.952,4.728 C5.384,4.296 5.816,3.992 6.408,3.992 C7.048,3.992 7.48,4.344 7.48,5 C7.48,6.2 5.144,7.112 5.464,9.304 Z M5.08,11.72 C5.08,12.552 5.672,13.192 6.488,13.192 C7.304,13.192 7.912,12.552 7.912,11.72 C7.912,10.872 7.304,10.232 6.488,10.232 C5.672,10.232 5.08,10.872 5.08,11.72 Z" id="?"></path>
        </g>
    </g>
</svg>