<?xml version="1.0" encoding="UTF-8" standalone="no"?>
<svg width="15px" height="15px" viewBox="0 0 15 15" version="1.1" xmlns="http://www.w3.org/2000/svg" xmlns:xlink="http://www.w3.org/1999/xlink">
    <!-- Generator: Sketch 41.2 (35397) - http://www.bohemiancoding.com/sketch -->
    <title>university</title>
    <desc>Created with Sketch.</desc>
    <defs></defs>
    <g id="Page-1" stroke="none" stroke-width="1" fill="none" fill-rule="evenodd">
        <g id="university" fill="#010101">
            <g transform="translate(0.000000, 2.000000)" id="svg4619">
                <g>
                    <path d="M7.5,0 L0,3.5 L2,4.4 L2,6.1 C1.4,6.3 1,6.9 1,7.5 C1,8.1 1.4,8.7 2,8.9 L2,9 L1.1,11.1 C0.8,12 1,13 2.5,13 C4,13 4.2,12 3.9,11.1 L3,9 C3.6,8.7 4,8.2 4,7.5 C4,6.8 3.6,6.3 3,6.1 L3,4.9 L7.5,7 L15,3.5 L7.5,0 Z M11.9,6.5 L7.4,8.5 L5,7.4 L5,7.5 C5,8.2 4.7,8.8 4.2,9.3 L4.8,10.7 L4.8,10.8 C4.9,11.2 5,11.6 4.9,12 C5.6,12.3 6.4,12.5 7.4,12.5 C10.7,12.5 11.9,10.5 11.9,9.5 L11.9,6.5 L11.9,6.5 Z" id="path9"></path>
                </g>
            </g>
        </g>
    </g>
</svg>