<?xml version="1.0" encoding="UTF-8" standalone="no"?>
<svg width="15px" height="15px" viewBox="0 0 15 15" version="1.1" xmlns="http://www.w3.org/2000/svg" xmlns:xlink="http://www.w3.org/1999/xlink">
    <!-- Generator: Sketch 41.2 (35397) - http://www.bohemiancoding.com/sketch -->
    <title>zoo</title>
    <desc>Created with Sketch.</desc>
    <defs></defs>
    <g id="Page-1" stroke="none" stroke-width="1" fill="none" fill-rule="evenodd">
        <g id="zoo" fill="#000000">
            <g id="veterinary" transform="translate(1.000000, 1.000000)">
                <g id="Layer_1">
                    <path d="M6.5,5 C4,5 3.5,7.28 3.5,8.47 L3.5,8.47 C2.8903,8.6759 2.3166,8.9762 1.8,9.36 C0.929,10.0214 0.7508,11.2598 1.4,12.14 C2.0799,12.9942 3.3081,13.1697 4.2,12.54 C4.8779,12.0799 5.6808,11.839 6.5,11.85 C7.3192,11.839 8.1221,12.0799 8.8,12.54 C9.6575,13.2254 10.9072,13.0915 11.6,12.24 C12.2888,11.4266 12.1878,10.2087 11.3744,9.5199 C11.3501,9.4993 11.3253,9.4793 11.3,9.46 L11.2,9.36 C10.6667,9.0036 10.0968,8.7052 9.5,8.47 L9.5,8.47 C9.5,7.29 9,5 6.5,5 Z" id="path3340"></path>
                    <path d="M1.08,3.3 C0.3452,3.6676 0.0148,4.5371 0.32,5.3 C0.384,6.1282 1.1009,6.7517 1.93,6.7 C2.6648,6.3324 2.9952,5.4629 2.69,4.7 C2.626,3.8718 1.9091,3.2483 1.08,3.3 Z" id="ellipse4153"></path>
                    <path d="M11.93,3.3 C12.6648,3.6676 12.9953,4.5371 12.69,5.3 C12.626,6.1282 11.9091,6.7517 11.08,6.7 C10.3452,6.3324 10.0147,5.4629 10.32,4.7 C10.384,3.8718 11.1009,3.2483 11.93,3.3 Z" id="ellipse4163"></path>
                    <path d="M4.08,0.3 C3.4,0.39 3.08,1.24 3.32,2.17 C3.4301,2.9951 4.1003,3.6321 4.93,3.7 C5.61,3.61 5.93,2.76 5.69,1.83 C5.5799,1.0049 4.9097,0.3679 4.08,0.3 Z" id="ellipse4165"></path>
                    <path d="M8.93,0.3 C9.61,0.39 9.93,1.24 9.69,2.17 C9.5791,2.9986 8.9036,3.6365 8.07,3.7 C7.39,3.62 7.07,2.76 7.31,1.83 C7.4209,1.0014 8.0964,0.3634 8.93,0.3 Z" id="ellipse4167"></path>
                </g>
            </g>
        </g>
    </g>
</svg>