<svg width="40" height="40" viewBox="0 0 40 40" fill="none" xmlns="http://www.w3.org/2000/svg">
    <g filter="url(#filter0_d_163_61)">
        <path d="M16.347 18.333L16.5169 18.3418C17.3574 18.4271 18.013 19.137 18.013 20C18.013 20.863 17.3574 21.5729 16.5169 21.6582L16.347 21.667H16.3333C15.4129 21.667 14.6664 20.9205 14.6664 20C14.6664 19.0795 15.4129 18.333 16.3333 18.333H16.347Z" fill="#E6E6E6"/>
        <path d="M25.333 19.0002V12.0002C25.333 11.735 25.2276 11.4807 25.04 11.2932C24.8761 11.1292 24.6614 11.0279 24.4326 11.0051L24.333 11.0002H13.667C13.4018 11.0002 13.1475 11.1057 12.96 11.2932C12.7724 11.4807 12.667 11.735 12.667 12.0002V30.6663C12.667 31.5867 11.9205 32.3333 11 32.3333C10.0795 32.3333 9.33301 31.5867 9.33301 30.6663V12.0002C9.33301 10.851 9.78988 9.74845 10.6025 8.93579C11.4152 8.12313 12.5177 7.66626 13.667 7.66626H24.333L24.5479 7.67212C25.619 7.72517 26.6355 8.17384 27.3975 8.93579C28.2101 9.74845 28.667 10.851 28.667 12.0002V19.0002C28.6669 19.9206 27.9204 20.6663 27 20.6663C26.0796 20.6663 25.3331 19.9206 25.333 19.0002Z" fill="#E6E6E6"/>
        <path d="M16.4997 28.9998L16.6706 29.0085C17.5109 29.094 18.1667 29.8039 18.1667 30.6667C18.1667 31.5296 17.5109 32.2395 16.6706 32.325L16.4997 32.3337H5.66666C4.74618 32.3337 3.99966 31.5872 3.99966 30.6667C3.99966 29.7463 4.74618 28.9998 5.66666 28.9998H16.4997Z" fill="#E6E6E6"/>
        <path d="M29.8213 22.8214C30.4722 22.1705 31.5278 22.1705 32.1787 22.8214C32.8296 23.4723 32.8296 24.528 32.1787 25.1788L22.1787 35.1788C21.5278 35.8297 20.4722 35.8297 19.8213 35.1788C19.1704 34.528 19.1704 33.4723 19.8213 32.8214L29.8213 22.8214Z" fill="#E54766"/>
        <path d="M19.8213 22.8213C20.4314 22.2111 21.3971 22.1732 22.0518 22.707L22.1787 22.8213L32.1787 32.8213L32.293 32.9482C32.8268 33.6028 32.7889 34.5685 32.1787 35.1787C31.5686 35.7888 30.6029 35.8268 29.9482 35.2929L29.8213 35.1787L19.8213 25.1787L19.707 25.0517C19.1732 24.3971 19.2111 23.4314 19.8213 22.8213Z" fill="#E54766"/>
    </g>
    <defs>
        <filter id="filter0_d_163_61" x="-0.000335693" y="3.66626" width="36.6672" height="36.0007" filterUnits="userSpaceOnUse" color-interpolation-filters="sRGB">
            <feFlood flood-opacity="0" result="BackgroundImageFix"/>
            <feColorMatrix in="SourceAlpha" type="matrix" values="0 0 0 0 0 0 0 0 0 0 0 0 0 0 0 0 0 0 127 0" result="hardAlpha"/>
            <feOffset/>
            <feGaussianBlur stdDeviation="2"/>
            <feComposite in2="hardAlpha" operator="out"/>
            <feColorMatrix type="matrix" values="0 0 0 0 0 0 0 0 0 0 0 0 0 0 0 0 0 0 1 0"/>
            <feBlend mode="normal" in2="BackgroundImageFix" result="effect1_dropShadow_163_61"/>
            <feBlend mode="normal" in="SourceGraphic" in2="effect1_dropShadow_163_61" result="shape"/>
        </filter>
    </defs>
</svg>
