<svg width="40" height="41" viewBox="0 0 40 41" fill="none" xmlns="http://www.w3.org/2000/svg">
    <g filter="url(#filter0_d_163_70)">
        <path d="M16.347 18.333L16.5169 18.3418C17.3574 18.4271 18.013 19.137 18.013 20C18.013 20.863 17.3574 21.5729 16.5169 21.6582L16.347 21.667H16.3333C15.4129 21.667 14.6664 20.9205 14.6664 20C14.6664 19.0795 15.4129 18.333 16.3333 18.333H16.347Z" fill="#E6E6E6"/>
        <path d="M25.333 15.5002V12.0002C25.333 11.735 25.2276 11.4807 25.04 11.2932C24.8761 11.1292 24.6614 11.0279 24.4326 11.0051L24.333 11.0002H13.667C13.4018 11.0002 13.1475 11.1057 12.96 11.2932C12.7724 11.4807 12.667 11.735 12.667 12.0002V30.6663C12.667 31.5867 11.9205 32.3333 11 32.3333C10.0795 32.3333 9.33301 31.5867 9.33301 30.6663V12.0002C9.33301 10.851 9.78988 9.74845 10.6025 8.93579C11.4152 8.12313 12.5177 7.66626 13.667 7.66626H24.333L24.5479 7.67212C25.619 7.72517 26.6355 8.17384 27.3975 8.93579C28.2101 9.74845 28.667 10.851 28.667 12.0002V15.5002C28.6669 16.4206 27.9204 17.1663 27 17.1663C26.0796 17.1663 25.3331 16.4206 25.333 15.5002Z" fill="#E6E6E6"/>
        <path d="M19.4997 28.9998L19.6706 29.0085C20.5109 29.094 21.1667 29.8039 21.1667 30.6667C21.1667 31.5296 20.5109 32.2395 19.6706 32.325L19.4997 32.3337H5.66666C4.74618 32.3337 3.99966 31.5872 3.99966 30.6667C3.99966 29.7463 4.74618 28.9998 5.66666 28.9998H19.4997Z" fill="#E6E6E6"/>
        <path d="M25.3612 27.7533H25.3622C25.3645 27.7524 25.3707 27.7506 25.3798 27.7474C25.398 27.7409 25.4293 27.7293 25.4716 27.7132C25.5566 27.6808 25.6852 27.6304 25.8417 27.5609C26.1593 27.4197 26.5697 27.2125 26.9686 26.9466C27.868 26.3471 28.2264 25.7819 28.2264 25.3333V25.3314L28.2176 25.1253C28.1762 24.6483 27.9891 24.1934 27.6786 23.8245C27.3238 23.4031 26.831 23.1208 26.288 23.0277C25.7449 22.9345 25.1859 23.0365 24.7108 23.3158C24.2359 23.5949 23.8751 24.0333 23.6923 24.5531L23.6278 24.7113C23.2684 25.4756 22.3812 25.8587 21.5673 25.5726C20.6989 25.2671 20.2423 24.3149 20.5477 23.4466L20.6356 23.2122C21.1021 22.0527 21.9408 21.0774 23.0223 20.4417C24.176 19.7638 25.5326 19.5163 26.8514 19.7425C28.1703 19.9688 29.3666 20.6544 30.2284 21.6781C31.0897 22.7012 31.5618 23.996 31.5604 25.3333L31.5555 25.5394C31.4581 27.6404 29.8845 29.0092 28.8182 29.72C28.2172 30.1207 27.6275 30.4146 27.1952 30.6068C26.9767 30.7039 26.7918 30.7775 26.6581 30.8284C26.5915 30.8538 26.5371 30.8737 26.4969 30.888L26.4305 30.9115C26.4284 30.9122 26.4263 30.9129 26.4247 30.9134H26.4227L26.4218 30.9144C26.4213 30.9145 26.4205 30.9145 25.8934 29.3333C25.8294 29.1413 25.7729 28.9727 25.7235 28.8245L26.4208 30.9144C25.5476 31.2054 24.6035 30.7338 24.3124 29.8607C24.0218 28.9891 24.4911 28.0462 25.3612 27.7533Z" fill="#9C9C9C"/>
        <path d="M26.0137 32.9998L26.1836 33.0085C27.0241 33.0938 27.6797 33.8037 27.6797 34.6667C27.6797 35.5297 27.0241 36.2397 26.1836 36.325L26.0137 36.3337H26C25.0795 36.3337 24.333 35.5872 24.333 34.6667C24.333 33.7463 25.0795 32.9998 26 32.9998H26.0137Z" fill="#9C9C9C"/>
    </g>
    <defs>
        <filter id="filter0_d_163_70" x="-0.000335693" y="3.66626" width="35.5608" height="36.6675" filterUnits="userSpaceOnUse" color-interpolation-filters="sRGB">
            <feFlood flood-opacity="0" result="BackgroundImageFix"/>
            <feColorMatrix in="SourceAlpha" type="matrix" values="0 0 0 0 0 0 0 0 0 0 0 0 0 0 0 0 0 0 127 0" result="hardAlpha"/>
            <feOffset/>
            <feGaussianBlur stdDeviation="2"/>
            <feComposite in2="hardAlpha" operator="out"/>
            <feColorMatrix type="matrix" values="0 0 0 0 0 0 0 0 0 0 0 0 0 0 0 0 0 0 1 0"/>
            <feBlend mode="normal" in2="BackgroundImageFix" result="effect1_dropShadow_163_70"/>
            <feBlend mode="normal" in="SourceGraphic" in2="effect1_dropShadow_163_70" result="shape"/>
        </filter>
    </defs>
</svg>
