<svg width="40" height="40" viewBox="0 0 40 40" fill="none" xmlns="http://www.w3.org/2000/svg">
    <g filter="url(#filter0_d_163_44)">
        <path d="M16.347 18.333L16.5169 18.3418C17.3574 18.4271 18.013 19.137 18.013 20C18.013 20.863 17.3574 21.5729 16.5169 21.6582L16.347 21.667H16.3333C15.4129 21.667 14.6664 20.9205 14.6664 20C14.6664 19.0795 15.4129 18.333 16.3333 18.333H16.347Z" fill="#E6E6E6"/>
        <path d="M25.333 23.0002V12.0002C25.333 11.735 25.2276 11.4807 25.04 11.2932C24.8761 11.1292 24.6614 11.0279 24.4326 11.0051L24.333 11.0002H13.667C13.4018 11.0002 13.1475 11.1057 12.96 11.2932C12.7724 11.4807 12.667 11.735 12.667 12.0002V30.6663C12.667 31.5867 11.9205 32.3333 11 32.3333C10.0795 32.3333 9.33301 31.5867 9.33301 30.6663V12.0002C9.33301 10.851 9.78988 9.74845 10.6025 8.93579C11.4152 8.12313 12.5177 7.66626 13.667 7.66626H24.333L24.5479 7.67212C25.619 7.72517 26.6355 8.17384 27.3975 8.93579C28.2101 9.74845 28.667 10.851 28.667 12.0002V23.0002C28.6669 23.9206 27.9204 24.6663 27 24.6663C26.0796 24.6663 25.3331 23.9206 25.333 23.0002Z" fill="#E6E6E6"/>
        <path d="M17 29.333L17.1699 29.3418C18.0106 29.4269 18.667 30.1369 18.667 31C18.667 31.8631 18.0106 32.5731 17.1699 32.6582L17 32.667H6C5.07953 32.667 4.33301 31.9205 4.33301 31C4.33301 30.0795 5.07953 29.333 6 29.333H17Z" fill="#E6E6E6"/>
        <path d="M31.7744 23.4198C32.5746 22.7976 33.7313 22.8702 34.4463 23.6191C35.1613 24.3681 35.1803 25.5273 34.5215 26.2978L34.3809 26.4462L27.0479 33.4462C26.3233 34.1379 25.2088 34.1814 24.4355 33.5761L24.2861 33.4462L20.6191 29.9462L20.4785 29.7978C19.8197 29.0273 19.8387 27.8681 20.5537 27.1191C21.2687 26.3702 22.4254 26.2976 23.2256 26.9198L23.3809 27.0536L25.666 29.2353L31.6191 23.5536L31.7744 23.4198Z" fill="#46A758"/>
    </g>
    <defs>
        <filter id="filter0_d_163_44" x="0.333008" y="3.66626" width="38.6667" height="34.3335" filterUnits="userSpaceOnUse" color-interpolation-filters="sRGB">
            <feFlood flood-opacity="0" result="BackgroundImageFix"/>
            <feColorMatrix in="SourceAlpha" type="matrix" values="0 0 0 0 0 0 0 0 0 0 0 0 0 0 0 0 0 0 127 0" result="hardAlpha"/>
            <feOffset/>
            <feGaussianBlur stdDeviation="2"/>
            <feComposite in2="hardAlpha" operator="out"/>
            <feColorMatrix type="matrix" values="0 0 0 0 0 0 0 0 0 0 0 0 0 0 0 0 0 0 1 0"/>
            <feBlend mode="normal" in2="BackgroundImageFix" result="effect1_dropShadow_163_44"/>
            <feBlend mode="normal" in="SourceGraphic" in2="effect1_dropShadow_163_44" result="shape"/>
        </filter>
    </defs>
</svg>
