<svg width="25" height="25" viewBox="0 0 40 40" fill="none" xmlns="http://www.w3.org/2000/svg">
    <g filter="url(#filter0_d_133_136)">
        <path d="M16.347 18.333L16.5169 18.3418C17.3574 18.4271 18.013 19.137 18.013 20C18.013 20.863 17.3574 21.5729 16.5169 21.6582L16.347 21.667H16.3333C15.4129 21.667 14.6664 20.9205 14.6664 20C14.6664 19.0795 15.4129 18.333 16.3333 18.333H16.347Z" fill="#1D3E56"/>
        <path d="M25.333 15.0002V12.0002C25.333 11.735 25.2276 11.4807 25.04 11.2932C24.8761 11.1292 24.6614 11.0279 24.4326 11.0051L24.333 11.0002H13.667C13.4018 11.0002 13.1475 11.1057 12.96 11.2932C12.7724 11.4807 12.667 11.735 12.667 12.0002V30.6663C12.667 31.5867 11.9205 32.3333 11 32.3333C10.0795 32.3333 9.33301 31.5867 9.33301 30.6663V12.0002C9.33301 10.851 9.78988 9.74845 10.6025 8.93579C11.4152 8.12313 12.5177 7.66626 13.667 7.66626H24.333L24.5479 7.67212C25.619 7.72517 26.6355 8.17384 27.3975 8.93579C28.2101 9.74845 28.667 10.851 28.667 12.0002V15.0002C28.6669 15.9206 27.9204 16.6663 27 16.6663C26.0796 16.6663 25.3331 15.9206 25.333 15.0002Z" fill="#1D3E56"/>
        <path d="M13.9997 28.9998L14.1706 29.0085C15.0109 29.094 15.6667 29.8039 15.6667 30.6667C15.6667 31.5296 15.0109 32.2395 14.1706 32.325L13.9997 32.3337H5.66666C4.74618 32.3337 3.99966 31.5872 3.99966 30.6667C3.99966 29.7463 4.74618 28.9998 5.66666 28.9998H13.9997Z" fill="#1D3E56"/>
        <path d="M27.1898 18.1614C27.6514 18.1919 28.1009 18.3289 28.5023 18.5627C28.9608 18.8299 29.3402 19.2143 29.6019 19.676H29.6009L36.263 31.3333L36.3558 31.5071C36.5586 31.9185 36.6652 32.3718 36.6653 32.8323C36.6655 33.3586 36.5269 33.8763 36.264 34.3323C36.0339 34.7312 35.7155 35.0712 35.3343 35.3264L35.1673 35.4299C34.7117 35.6934 34.1945 35.8327 33.6683 35.8333H20.3333V35.8323C19.8087 35.8349 19.2925 35.7009 18.8362 35.4417C18.3764 35.1803 17.9934 34.8018 17.7269 34.345C17.4604 33.8881 17.3198 33.3689 17.3187 32.8401C17.3175 32.3112 17.4556 31.7913 17.72 31.3333L24.3841 19.6721C24.6457 19.2122 25.0246 18.8291 25.4817 18.5627C25.9401 18.2958 26.4611 18.1555 26.9915 18.1555L27.1898 18.1614ZM26.9046 20.8333C26.8764 20.8409 26.849 20.8526 26.8235 20.8674C26.7728 20.8971 26.7305 20.9394 26.7015 20.9905L26.6995 20.9954L20.0325 32.6614L20.0296 32.6672C20.0003 32.718 19.9845 32.7756 19.9847 32.8342C19.9848 32.893 20.001 32.9505 20.0306 33.0012C20.0602 33.052 20.1025 33.0942 20.1536 33.1233C20.2047 33.1523 20.2628 33.1678 20.3216 33.1672L20.3333 33.1663V33.1672H33.6653C33.7238 33.1672 33.7817 33.1516 33.8323 33.1223L33.9007 33.0686C33.921 33.0482 33.9389 33.0254 33.9534 33.0002C33.9826 32.9496 33.9984 32.8917 33.9983 32.8333C33.9983 32.7749 33.9826 32.7178 33.9534 32.6672L33.9505 32.6614L27.2845 20.9954L27.2815 20.9905C27.2525 20.9394 27.2103 20.8971 27.1595 20.8674C27.1085 20.8377 27.0505 20.8215 26.9915 20.8215L26.9046 20.8333Z" fill="#F76A16"/>
        <path d="M25.667 27.833V24.5C25.667 23.7636 26.2636 23.167 27 23.167C27.7364 23.167 28.333 23.7636 28.333 24.5V27.833C28.333 28.5694 27.7364 29.167 27 29.167C26.2636 29.167 25.667 28.5694 25.667 27.833Z" fill="#F76A16"/>
        <path d="M27.0098 29.8335L27.1455 29.8403C27.818 29.9085 28.3428 30.476 28.3428 31.1665C28.3428 31.857 27.818 32.4245 27.1455 32.4927L27.0098 32.4995H27C26.2636 32.4995 25.667 31.9029 25.667 31.1665C25.667 30.4301 26.2636 29.8335 27 29.8335H27.0098Z" fill="#F76A16"/>
    </g>
    <defs>
        <filter id="filter0_d_133_136" x="-0.000335693" y="3.66626" width="40.6657" height="36.167" filterUnits="userSpaceOnUse" color-interpolation-filters="sRGB">
            <feFlood flood-opacity="0" result="BackgroundImageFix"/>
            <feColorMatrix in="SourceAlpha" type="matrix" values="0 0 0 0 0 0 0 0 0 0 0 0 0 0 0 0 0 0 127 0" result="hardAlpha"/>
            <feOffset/>
            <feGaussianBlur stdDeviation="2"/>
            <feComposite in2="hardAlpha" operator="out"/>
            <feColorMatrix type="matrix" values="0 0 0 0 1 0 0 0 0 1 0 0 0 0 1 0 0 0 1 0"/>
            <feBlend mode="normal" in2="BackgroundImageFix" result="effect1_dropShadow_133_136"/>
            <feBlend mode="normal" in="SourceGraphic" in2="effect1_dropShadow_133_136" result="shape"/>
        </filter>
    </defs>
</svg>
