<svg xmlns="http://www.w3.org/2000/svg" xmlns:xlink="http://www.w3.org/1999/xlink" version="1.1" x="0px" y="0px" viewBox="0 0 100 125" enable-background="new 0 0 100 100" xml:space="preserve"><g><g><polygon fill="#000000" points="36.97742,58.9809 57.61884,55.1167 65,74 77,72 64,42 46,45 41,31 27,33   "/><path fill="#000000" d="M37.99512,78.99902c1.27686,0,2.57275-0.11768,3.87256-0.36084    c7.28094-1.36316,12.96808-6.36029,15.57465-12.75873l-2.3349-6.22321l-0.19916,0.03729    c-0.73804,7.31317-6.19513,13.59338-13.77692,15.013c-9.21289,1.72998-18.11279-4.36768-19.83789-13.58203    c-1.18744-6.34369,1.33197-12.53754,6.02362-16.34424l-1.46753-3.88043c-6.45319,4.60333-10.03949,12.67047-8.48773,20.961    C19.24951,71.94287,28.08984,78.99951,37.99512,78.99902z"/><polygon fill="#000000" points="18,88 18,90 85,90 85,75   "/><circle fill="#000000" cx="31" cy="21" r="7"/></g></g></svg>