<svg xmlns="http://www.w3.org/2000/svg" xmlns:xlink="http://www.w3.org/1999/xlink" version="1.1" x="0px" y="0px" viewBox="0 0 100 125" enable-background="new 0 0 100 100" xml:space="preserve"><g><path d="M52.219,76.66h-0.003h-4.441v1.78l-0.002-0.005v-3.998c-0.002-3.682-2.983-6.665-6.665-6.665   c-0.007,0-0.014,0.003-0.023,0.003h-2.198l-0.002-0.003l13.735-3.436v-3.286L36.768,45.204l-11.216,9.238l0.014,0.019   c-4.538,3.41-7.716,8.506-8.617,14.367c-0.08,0.349-0.119,0.707-0.163,1.07c-0.002,0.032-0.007,0.063-0.009,0.096   c-0.042,0.372-0.113,0.733-0.113,1.114c0,0.126,0.032,0.246,0.037,0.37c-0.007,0.248-0.037,0.491-0.037,0.739h0.113   c0.517,4.625,4.152,8.258,8.775,8.774v0.113h8.888h6.646c0.009,0,0.016,0.002,0.023,0.002s0.014-0.002,0.023-0.002h2.198h4.444   h0.002h2.221h2.22h2.226v-2.224C54.441,77.654,53.444,76.66,52.219,76.66z"/><path d="M65.552,76.66h-0.004h-2.219V60.486c1.318-0.77,2.219-2.185,2.219-3.824v-7.171l-8.927-8.928v22.772l0.039-0.009   l2.223,17.777h2.224h2.223h2.219h2.223v-2.224C67.771,77.654,66.778,76.66,65.552,76.66z"/><path d="M40.226,24.149c-2.517-2.509-6.603-2.513-9.115,0l-3.144,3.142c-1.217,1.217-1.888,2.835-1.888,4.556   s0.67,3.339,1.888,4.558l8.8,8.799l3.103-2.556l-9.074-9.072c-0.461-0.461-0.716-1.075-0.716-1.728   c0-0.652,0.255-1.266,0.716-1.727l3.144-3.142c0.951-0.952,2.505-0.954,3.456,0v-0.001l9.71,9.712l-7.236,5.958l12.75,12.747   V36.563l-5.151-5.152l0.009-0.008l-7.252-7.252"/><path d="M76.183,28.808l-2.188-5.476h-6.224v-4.444c-2.453,0-4.446,1.99-4.446,4.444l-10.021,8.255l13.104,13.106l8.029-8.029   h2.223c3.665,0,6.664-1.389,6.664-4.445v-2.222L76.183,28.808z"/></g></svg>