<svg xmlns="http://www.w3.org/2000/svg" xmlns:xlink="http://www.w3.org/1999/xlink" version="1.1" x="0px" y="0px" viewBox="0 0 20 25" enable-background="new 0 0 20 20" xml:space="preserve"><g><path fill="#000000" d="M15.6,2.7c-1.5-1.3-3.5-1.9-5.5-1.7C7,1.5,4.5,4,4.1,7l2,0.3c0.3-2.2,2.1-4,4.3-4.3c1.5-0.2,2.9,0.2,4,1.2   C15.4,5.2,16,6.6,16,8c0,1.5-0.6,2.9-1.8,3.8c-1.2,1-2,2.5-2.3,4.1c-0.1,0.6-0.4,1.1-0.9,1.5C10.6,17.9,9.9,18,9.3,18   c-0.7-0.1-1.3-0.4-1.7-0.9L6,18.4c0.8,0.9,1.8,1.5,3,1.6c0.1,0,0.3,0,0.4,0c1,0,2-0.4,2.9-1c0.8-0.7,1.4-1.6,1.6-2.7   c0.2-1.2,0.8-2.3,1.6-3C17.1,12,18,10.1,18,8C18,6,17.1,4.1,15.6,2.7z"/><path fill="#000000" d="M13.8,10.8C14.6,10.1,15,9.1,15,8c0-1.1-0.4-2.1-1.2-2.8c-1.5-1.5-4.1-1.5-5.6,0l1.4,1.4   c0.8-0.8,2-0.8,2.8,0C12.8,7,13,7.5,13,8s-0.2,1-0.6,1.4L13.8,10.8z"/><rect x="-1.2" y="13.6" transform="matrix(0.7071 -0.7071 0.7071 0.7071 -8.7896 8.075)" fill="#000000" width="13.1" height="2"/><rect x="17.3" y="0.5" transform="matrix(0.7071 -0.7071 0.7071 0.7071 4.332 13.5101)" fill="#000000" width="2.3" height="2"/></g></svg>