<svg xmlns="http://www.w3.org/2000/svg" xmlns:xlink="http://www.w3.org/1999/xlink" version="1.1" x="0px" y="0px" viewBox="0 0 100 125" enable-background="new 0 0 100 100" xml:space="preserve"><g><g><circle cx="23.056" cy="23.251" r="5.648"/></g><g><path d="M52.966,76.655L42.63,53.875c-0.456-1.006-1.458-1.651-2.562-1.651H25.891v-8.589h14.774c1.554,0,2.814-1.26,2.814-2.814    c0-1.554-1.26-2.814-2.814-2.814H25.891v-2.814c0-1.554-1.26-2.814-2.814-2.814s-2.814,1.26-2.814,2.814v19.846    c0,1.554,1.26,2.814,2.814,2.814h15.178l9.587,21.129c0.471,1.039,1.494,1.652,2.564,1.652c0.389,0,0.785-0.081,1.161-0.252    C52.981,79.739,53.608,78.071,52.966,76.655z"/></g><g><path d="M23.217,82.397C13.172,82.397,5,74.225,5,64.179c0-6.917,3.841-13.151,10.024-16.271c0.728-0.366,1.614-0.076,1.981,0.652    c0.367,0.727,0.075,1.614-0.652,1.981c-5.184,2.615-8.404,7.841-8.404,13.637c0,8.419,6.85,15.269,15.268,15.269    c6.263,0,11.987-3.927,14.245-9.771c0.294-0.759,1.148-1.137,1.907-0.844c0.76,0.293,1.138,1.147,0.844,1.907    C37.521,77.712,30.69,82.397,23.217,82.397z"/></g><path d="M76.02,41.621v12.008H50.17c-0.412,0-0.805,0.172-1.084,0.475c-0.279,0.302-0.419,0.708-0.386,1.118   c0.677,8.422,7.83,15.02,16.286,15.02h1.763v10.681c0,0.815,0.66,1.475,1.475,1.475h18.226c0.814,0,1.475-0.66,1.475-1.475V70.241   h0.695c2.318,0,4.205-1.886,4.205-4.205V41.621H76.02z"/><path d="M93.525,30.507H75.274c-0.815,0-1.475,0.66-1.475,1.475v5.215c0,0.814,0.66,1.475,1.475,1.475h18.251   c0.814,0,1.475-0.66,1.475-1.475v-5.215C95,31.167,94.34,30.507,93.525,30.507z"/></g></svg>