<svg xmlns="http://www.w3.org/2000/svg" xmlns:xlink="http://www.w3.org/1999/xlink" version="1.1" x="0px" y="0px" viewBox="0 0 100 125" enable-background="new 0 0 100 100" xml:space="preserve"><ellipse cx="41.046" cy="11.391" rx="5.606" ry="5.647"/><polygon points="31.777,83.799 39.206,56.723 57.069,56.837 57.716,68.301 63.269,68.213 61.815,49.485 44.377,46.734   44.468,37.595 62.026,37.555 63.103,33.709 47.656,31.854 45.902,20.692 35.287,20.536 18.677,40.769 23.725,42.145 33.731,30.391   29.958,57.201 25.434,83.805 "/><polygon points="24.802,95.039 22.209,95.039 22.209,85.767 37.702,85.767 37.702,77.793 53.194,77.793 53.194,69.818   68.687,69.818 68.687,61.843 81.323,61.843 81.323,64.437 71.28,64.437 71.28,72.412 55.788,72.412 55.788,80.386 40.295,80.386   40.295,88.36 24.802,88.36 24.802,95.039 "/></svg>