<svg xmlns="http://www.w3.org/2000/svg" xmlns:xlink="http://www.w3.org/1999/xlink" version="1.1" x="0px" y="0px" viewBox="0 0 100 125" enable-background="new 0 0 100 100" xml:space="preserve"><path d="M29.5,94.3c0.5,0.5,1.1,0.7,1.8,0.7h61.3c1.4,0,2.5-1.1,2.5-2.5V31.3c0-0.7-0.3-1.3-0.7-1.8L70.5,5.7C70,5.3,69.4,5,68.8,5  H47.5C46.1,5,45,6.1,45,7.5V25H27.5c-1.4,0-2.5,1.1-2.5,2.5V45H7.5C6.1,45,5,46.1,5,47.5v21.2c0,0.7,0.3,1.3,0.7,1.8L29.5,94.3z   M10,67.7V51.8l20,20v15.9L10,67.7z M32.5,90V72.5h18.8c0.2,0,0.3,0,0.5-0.1c0.3-0.1,0.5-0.4,0.7-0.7c0.1-0.2,0.1-0.3,0.1-0.5V52.5  h18.8c0.2,0,0.3,0,0.5-0.1c0.3-0.1,0.5-0.4,0.7-0.7c0.1-0.2,0.1-0.3,0.1-0.5V32.5H90V90H32.5z M30,47.5V31.8l20,20v16.5L29.9,48.1  C30,47.9,30,47.7,30,47.5z M50,27.5V11.8l20,20v16.5L49.9,28.1C50,27.9,50,27.7,50,27.5z M87.7,30H71.8l-20-20h15.9L87.7,30z   M47.5,30c0.2,0,0.4,0,0.6-0.1L68.2,50H51.8l-20-20H47.5z M27.5,50c0.2,0,0.4,0,0.6-0.1L48.2,70H31.8l-20-20H27.5z"/></svg>