<?xml version="1.0" encoding="UTF-8"?>
<svg width="25px" height="25px" viewBox="0 0 25 25" version="1.1" xmlns="http://www.w3.org/2000/svg" xmlns:xlink="http://www.w3.org/1999/xlink">
    <!-- Generator: Sketch 49 (51002) - http://www.bohemiancoding.com/sketch -->
    
    <desc>Created with Sketch.</desc>
    <defs>
        <path d="M9.63990668,22.1100606 C5.23094893,20.8647301 2,16.8118309 2,12.004303 C2,6.20531318 6.70101013,1.50430305 12.5,1.50430305 C18.2989899,1.50430305 23,6.20531318 23,12.004303 C23,16.7813496 19.8098917,20.8133064 15.4438133,22.0860352 L12.5298485,25 L9.63991004,22.1100616 L9.63990668,22.1100606 Z" id="path-1"></path>
    </defs>
    <g id="yesWithArrow" stroke="none" stroke-width="1" fill="none" fill-rule="evenodd">
        <g>
            <path stroke-opacity="0.268738678" stroke="#000000" stroke-width="0.5" d="M12.5298485,24.6464466 L15.2670366,21.9092585 L15.3738493,21.8460247 C19.711144,20.5816865 22.75,16.590593 22.75,12.004303 C22.75,6.34338436 18.1609187,1.75430305 12.5,1.75430305 C6.83908132,1.75430305 2.25,6.34338436 2.25,12.004303 C2.25,16.6215942 5.32981498,20.632874 9.70786161,21.8694736 L9.81668674,21.9332849 L12.5298485,24.6464466 Z"></path>
        </g>
    </g>
</svg>