<svg width="14" height="14" viewBox="0 0 14 14" fill="none" xmlns="http://www.w3.org/2000/svg">
<g clip-path="url(#clip0_1320_42)">
<path d="M1.51939 2.0367C1.43082 2.0367 1.34322 1.99338 1.2893 1.91444C1.20362 1.78736 1.23828 1.61504 1.36536 1.53031C1.52132 1.42538 1.61085 1.26941 1.61085 1.09998C1.61085 0.798634 1.3259 0.554125 0.975461 0.554125C0.753074 0.554125 0.54993 0.652323 0.432494 0.815984C0.343922 0.940176 0.170634 0.969055 0.0464448 0.880486C-0.0777444 0.791918 -0.106627 0.618627 -0.0180576 0.494438C0.202405 0.185407 0.574004 0.000564575 0.975456 0.000564575C1.63108 0.000564575 2.16537 0.493477 2.16537 1.09998C2.16537 1.45042 1.98245 1.7835 1.67534 1.98954C1.62624 2.02131 1.57234 2.0367 1.51939 2.0367Z" fill="black"/>
<path d="M2.25407 2.03671C2.20112 2.03671 2.14721 2.02131 2.10004 1.98954C1.79293 1.78352 1.61001 1.45042 1.61001 1.09998C1.61001 0.493476 2.14336 0.000564575 2.79992 0.000564575C3.20138 0.000564575 3.57202 0.185407 3.79344 0.494438C3.88201 0.61863 3.85313 0.79191 3.72893 0.880486C3.60378 0.969058 3.43146 0.940176 3.34288 0.815984C3.22543 0.652323 3.02326 0.554125 2.80088 0.554125C2.45044 0.554125 2.16549 0.798656 2.16549 1.09998C2.16549 1.26845 2.25502 1.42537 2.41098 1.53031C2.53806 1.616 2.57176 1.78737 2.48704 1.91444C2.4312 1.99338 2.3436 2.03671 2.25407 2.03671Z" fill="black"/>
<path d="M5.16052 4.83718C5.07195 4.83718 4.98434 4.79386 4.93043 4.71491C4.84475 4.58784 4.87941 4.41552 5.00649 4.33079C5.16245 4.22585 5.25198 4.06989 5.25198 3.90045C5.25198 3.59911 4.96703 3.3546 4.61659 3.3546C4.3942 3.3546 4.19106 3.4528 4.07458 3.61646C3.98601 3.74065 3.81272 3.76953 3.68854 3.68096C3.56434 3.59239 3.53546 3.4191 3.62403 3.29491C3.8445 2.98588 4.21609 2.80104 4.61755 2.80104C5.27317 2.80104 5.80746 3.29395 5.80746 3.90046C5.80746 4.25089 5.62454 4.58398 5.31743 4.79002C5.26737 4.82179 5.21443 4.83718 5.16052 4.83718Z" fill="black"/>
<path d="M5.89595 4.83719C5.843 4.83719 5.78909 4.82178 5.74191 4.79001C5.4348 4.58399 5.25188 4.25089 5.25188 3.90046C5.25188 3.29395 5.78524 2.80104 6.4418 2.80104C6.84325 2.80104 7.2139 2.98588 7.43531 3.29491C7.52388 3.41911 7.495 3.59239 7.37081 3.68096C7.24662 3.76953 7.07334 3.74065 6.98476 3.61646C6.86731 3.4528 6.66417 3.3546 6.44275 3.3546C6.09232 3.3546 5.80737 3.59913 5.80737 3.90045C5.80737 4.06893 5.8969 4.22585 6.05286 4.33079C6.17994 4.41647 6.21363 4.58784 6.12891 4.71491C6.07211 4.79386 5.98452 4.83719 5.89595 4.83719Z" fill="black"/>
<path d="M13.8433 13.6856H13.9119C13.9989 13.6856 14.0695 13.7556 14.07 13.8426C14.07 13.9295 13.9995 14.0001 13.9125 14.0001H0.0880954C0.0011428 14.0001 -0.0694046 13.9295 -0.0694046 13.8431C-0.0694046 13.7561 0.0011428 13.6856 0.0880954 13.6856L8.48505 13.6851C8.50857 13.1469 8.95155 12.7171 9.49569 12.7171C9.50717 12.7171 9.51811 12.7182 9.52904 12.7187C9.57936 12.2063 10.0114 11.806 10.5369 11.806C10.6944 11.806 10.8421 11.8437 10.9744 11.9077V10.418C9.58207 10.3365 8.47739 9.18485 8.47739 7.77169C8.47739 4.72613 9.98021 1.40714 11.1319 0.000564575C12.2837 1.4077 13.7865 4.72669 13.7865 7.77225C13.7865 9.18478 12.6818 10.3365 11.2894 10.4185V12.145C11.3315 12.192 11.3709 12.2413 11.4037 12.2959C11.5355 12.233 11.6832 12.1964 11.839 12.1964C12.3197 12.1964 12.7212 12.5311 12.8251 12.9801C12.8437 12.979 12.8617 12.9774 12.8803 12.9774C13.3331 12.9774 13.7137 13.2754 13.8433 13.6856Z" fill="black"/>
<path fill-rule="evenodd" clip-rule="evenodd" d="M7.62252 12.4757H6.70929V13.685H1.50545V12.4757H0.59223C0.265422 12.4757 0 12.2111 0 11.8835C0 11.5567 0.264594 11.2913 0.59223 11.2913H1.50545V10.8027H0.735728V9.11148C0.735728 8.67519 1.08908 8.32101 1.5262 8.32101H6.68855C7.12484 8.32101 7.47902 8.67437 7.47902 9.11148V10.8027H6.70929V11.2913H7.62252C7.94932 11.2913 8.21475 11.5559 8.21475 11.8835C8.21475 12.2103 7.95015 12.4757 7.62252 12.4757ZM6.23245 10.8035H1.9823V11.2913L6.23245 11.2921V10.8035ZM1.9823 12.4587H6.23245V13.685L1.9823 13.683V12.4587Z" fill="black"/>
</g>
<defs>
<clipPath id="clip0_1320_42">
<rect width="14" height="14" fill="white"/>
</clipPath>
</defs>
</svg>
