<?xml version="1.0" encoding="UTF-8" standalone="no"?>
<svg width="15px" height="15px" viewBox="0 0 15 15" version="1.1" xmlns="http://www.w3.org/2000/svg" xmlns:xlink="http://www.w3.org/1999/xlink">
    <!-- Generator: Sketch 41.2 (35397) - http://www.bohemiancoding.com/sketch -->
    <title>public_transport</title>
    <desc>Created with Sketch.</desc>
    <defs></defs>
    <g id="Page-1" stroke="none" stroke-width="1" fill="none" fill-rule="evenodd">
        <g id="public_transport" fill="#000000">
            <g transform="translate(1.000000, 0.000000)" id="svg4619">
                <g>
                    <path d="M3,0 C1.6364,0 0,0.7433 0,2.7461 L0,8.1992 L0,12 C0,12 0,13 1,13 L1,14 C1,14 1,15 2,15 C3,15 3,14 3,14 L3,13 L10,13 L10,14 C10,14 10,15 11,15 C12,15 12,14 12,14 L12,13 C12,13 13,13 13,12 L13,2.7461 C13,0.7006 11.764,0 10.4004,0 L3,0 Z M3.25,1.5 L9.75,1.5 C9.8885,1.5 10,1.6115 10,1.75 C10,1.8885 9.8885,2 9.75,2 L3.25,2 C3.1115,2 3,1.8885 3,1.75 C3,1.6115 3.1115,1.5 3.25,1.5 Z M2,3 L11,3 C12,3 12,3.9668 12,3.9668 L12,7 C12,7 12,8 11,8 L2,8 C1,8 1,7 1,7 L1,4 C1,4 1,3 2,3 Z M2,10 C2.5523,10 3,10.4477 3,11 C3,11.5523 2.5523,12 2,12 C1.4477,12 1,11.5523 1,11 C1,10.4477 1.4477,10 2,10 Z M11,10 C11.5523,10 12,10.4477 12,11 C12,11.5523 11.5523,12 11,12 C10.4477,12 10,11.5523 10,11 C10,10.4477 10.4477,10 11,10 Z" id="path8043"></path>
                </g>
            </g>
        </g>
    </g>
</svg>