<?xml version="1.0" encoding="UTF-8"?>
<svg width="296px" height="72px" viewBox="0 0 296 72" version="1.1" xmlns="http://www.w3.org/2000/svg" xmlns:xlink="http://www.w3.org/1999/xlink">
    <!-- Generator: Sketch 46.1 (44463) - http://www.bohemiancoding.com/sketch -->
    <title>Logo</title>
    <desc>Created with Sketch.</desc>
    <defs>
        <path d="M88.8621604,24.7054336 L94.1428111,24.7054336 C93.3666998,27.3457441 91.8879629,29.3587794 89.7066004,30.7399358 C87.5226594,32.187848 84.7766179,32.9095021 81.4684759,32.9095021 C77.4551298,32.9095021 74.3210327,31.7470289 72.0674738,29.4197805 C69.8126256,27.1558351 68.6871354,23.9193255 68.6871354,19.7067987 C68.6871354,15.6841809 69.7778167,12.5408994 71.9617576,10.276954 C74.2153166,7.95200749 77.3494137,6.7883833 81.3627598,6.7883833 C85.5875381,6.7883833 88.8621604,7.91978051 91.1853373,10.1825749 C93.437607,12.5086724 94.5656757,15.746333 94.5656757,19.8955567 L94.5656757,20.9325749 C94.5656757,21.247939 94.5295775,21.467773 94.4599595,21.5920771 L76.186536,21.5920771 C76.256154,23.5418094 76.7834455,24.9862687 77.7709891,25.9300589 C78.685047,26.9360011 80.0580677,27.4389722 81.8900513,27.4389722 C83.0864487,27.4389722 84.1088012,27.2202891 84.9532412,26.77947 C85.1646735,26.718469 85.3567675,26.6068255 85.5346801,26.4491435 L86.1161189,25.9300589 C86.1857369,25.7413009 86.4500272,25.4903908 86.90899,25.1761777 C87.3653744,24.8631156 88.0164312,24.7054336 88.8621604,24.7054336 L88.8621604,24.7054336 Z M76.186536,17.3507762 L86.9605589,17.3507762 C86.8187445,15.6531049 86.3275512,14.3962527 85.481822,13.5790685 C84.5664748,12.6997323 83.263072,12.2589133 81.5741921,12.2589133 C80.024548,12.2589133 78.7572434,12.6997323 77.7722783,13.5790685 C76.7847347,14.4595557 76.256154,15.7164079 76.186536,17.3507762 Z" id="path-1"></path>
        <path d="M116.891122,24.7054336 L122.171773,24.7054336 C121.395661,27.3457441 119.916924,29.3587794 117.734273,30.7399358 C115.550332,32.187848 112.805579,32.9095021 109.496148,32.9095021 C105.482802,32.9095021 102.348705,31.7470289 100.096435,29.4197805 C97.8415871,27.1558351 96.7160969,23.9193255 96.7160969,19.7067987 C96.7160969,15.6841809 97.8067782,12.5408994 99.9907191,10.276954 C102.244278,7.95200749 105.378375,6.7883833 109.391721,6.7883833 C113.6165,6.7883833 116.891122,7.91978051 119.214299,10.1825749 C121.466568,12.5086724 122.593348,15.746333 122.593348,19.8955567 L122.593348,20.9325749 C122.593348,21.247939 122.55725,21.467773 122.487632,21.5920771 L104.214208,21.5920771 C104.283826,23.5418094 104.811118,24.9862687 105.798661,25.9300589 C106.714008,26.9360011 108.08574,27.4389722 109.917724,27.4389722 C111.114121,27.4389722 112.136474,27.2202891 112.980914,26.77947 C113.192346,26.718469 113.38444,26.6068255 113.562352,26.4491435 L114.142502,25.9300589 C114.210831,25.7413009 114.47641,25.4903908 114.934084,25.1761777 C115.393047,24.8631156 116.045393,24.7054336 116.891122,24.7054336 L116.891122,24.7054336 Z M104.215498,17.3507762 L114.98952,17.3507762 C114.847706,15.6531049 114.356513,14.3962527 113.510783,13.5790685 C112.594147,12.6997323 111.292034,12.2589133 109.601864,12.2589133 C108.053509,12.2589133 106.784916,12.6997323 105.799951,13.5790685 C104.812407,14.4595557 104.285115,15.7164079 104.215498,17.3507762 L104.215498,17.3507762 Z" id="path-2"></path>
        <path d="M214.325315,40.7372056 C213.662039,41.349804 212.744977,41.6908659 211.790706,41.6798448 L208.198935,41.6798448 L208.198935,18.2001874 C208.198935,13.8012045 209.641574,10.7983405 212.52943,9.19504818 C215.415996,7.59175589 218.550093,6.79068522 221.930432,6.79068522 C223.68893,6.79068522 225.468055,7.08993576 227.26523,7.6861349 C229.061115,8.28463597 230.485705,9.14785867 231.542866,10.2792559 C233.654611,12.7308084 234.711772,15.8752409 234.711772,19.7091006 C234.711772,23.6695664 233.654611,26.876151 231.542866,29.3277034 C229.429832,31.7171039 226.7186,32.9118041 223.409169,32.9118041 C221.648092,32.9118041 220.097159,32.6275161 218.761526,32.0623929 C217.352407,31.4351178 216.225627,30.4591006 215.381187,29.1389454 L215.381187,38.4732602 C215.382477,39.3525964 215.02923,40.1076285 214.325315,40.7372056 Z M227.425093,19.9910867 C227.425093,17.5395343 226.896512,15.6531049 225.84064,14.3329497 C224.783479,13.0127944 223.268644,12.3532923 221.298713,12.3532923 C219.398401,12.3532923 217.919664,13.0127944 216.862503,14.3329497 C215.876248,15.5276499 215.383766,17.4140792 215.383766,19.9910867 C215.383766,22.3804872 215.912347,24.1725375 216.968219,25.3660867 C218.02538,26.686242 219.538926,27.3468951 221.510146,27.3468951 C223.34084,27.3468951 224.784768,26.6873929 225.84064,25.3660867 C226.896512,24.0459315 227.425093,22.2538812 227.425093,19.9910867 L227.425093,19.9910867 Z" id="path-3"></path>
        <path d="M200.346288,31.4005889 C198.884115,32.0873215 197.288898,32.5193302 195.645787,32.6735546 C194.190244,32.8200404 192.727147,32.8987961 191.262434,32.9095021 C188.727825,32.9095021 186.510364,32.2960385 184.607474,31.0702623 C182.707161,29.8444861 181.757005,27.8164882 181.757005,24.9874197 C181.757005,22.3471092 182.618205,20.4618308 184.344472,19.3292827 C186.068161,18.1978854 188.268862,17.4428533 190.945286,17.0664882 C191.297243,17.0664882 191.718819,17.0192987 192.21388,16.9249197 C192.705073,16.8305407 193.269752,16.7522752 193.90276,16.6889722 C197.002048,16.3114561 198.550403,15.4954229 198.550403,14.2374197 C198.550403,13.2947805 198.005062,12.6813169 196.913091,12.3981799 C195.821121,12.1150428 194.818107,11.9734743 193.90276,11.9734743 C192.916505,11.9734743 192.037256,12.1000803 191.262434,12.3509904 C190.487612,12.6030514 189.924222,13.0749465 189.573554,13.7655246 L182.495729,13.7655246 C182.776779,11.8180942 183.763034,10.2148019 185.453203,8.95679872 C187.354804,7.51118844 190.064748,6.7883833 193.585611,6.7883833 C197.529339,6.7883833 200.486813,7.38688437 202.458032,8.57928266 C204.500159,9.83728587 205.521222,11.5971092 205.521222,13.8599036 L205.521222,22.4426392 C205.521222,24.9574946 205.008112,26.9210385 203.989627,28.3355728 C202.968564,29.7501071 201.754118,30.7733137 200.346288,31.4005889 L200.346288,31.4005889 Z M198.656119,19.8023287 C197.669864,20.2431478 196.295554,20.6505889 194.537056,21.0281049 L192.106874,21.5 C190.83957,21.815364 189.922933,22.2239561 189.360833,22.7257762 C188.867061,23.4186563 188.62082,24.1092345 188.62082,24.7998126 C188.62082,25.7424518 188.937968,26.4974839 189.572265,27.0626071 C190.205273,27.5667291 191.119331,27.8176392 192.318307,27.8176392 C194.289526,27.8176392 195.83917,27.3146681 196.96595,26.3087259 C198.09144,25.3039347 198.656119,23.9204764 198.656119,22.1595021 L198.656119,19.8023287 L198.656119,19.8023287 Z" id="path-4"></path>
        <path d="M31.1591909,32.438758 L23.7655065,32.438758 L19.4350119,14.5217077 L15.1045174,32.438758 L7.71083293,32.438758 L-7.10542736e-15,7.35465739 L7.18225217,7.35465739 L11.6184629,24.7054336 L15.6318089,7.35465739 L23.1312096,7.35465739 L26.9344126,24.7054336 L30.8420425,9.61745182 C31.2649071,8.10853854 32.3903973,7.35465739 34.2223809,7.35465739 L38.8700239,7.35465739 L31.1591909,32.438758 L31.1591909,32.438758 Z" id="path-5"></path>
        <path d="M57.8757251,14.4273287 C56.8198528,13.1071734 55.3759249,12.4465203 53.5452306,12.4465203 C51.5727219,12.4465203 50.059176,13.0760974 49.0033037,14.3329497 C47.9474314,15.5909529 47.4188507,17.3197002 47.4188507,19.5191916 L47.4188507,32.438758 L40.2365985,32.438758 L40.2365985,0 L43.8283692,0 C44.8133343,0 45.6590635,0.315364026 46.3629784,0.942639186 C47.065604,1.57221627 47.4188507,2.32609743 47.4188507,3.20543362 L47.4188507,10.65447 C48.6861553,8.76804069 50.4820406,7.57449143 52.8052175,7.07152034 C55.1283944,6.56854925 57.3471443,6.69400428 59.4601781,7.4490364 C61.4313976,8.20291756 63.0854686,9.39876874 64.4249696,11.0319861 C65.7618921,12.6675054 66.430998,14.9302998 66.430998,17.8215203 L66.430998,32.4376071 L59.354462,32.4376071 L59.354462,19.4248126 C59.354462,18.4821734 59.2655057,17.6189507 59.0901716,16.8316916 C58.9135483,16.0467345 58.510022,15.2445128 57.8757251,14.4273287 Z" id="path-6"></path>
        <path d="M125.695215,0 L129.497128,0 C130.482093,0 131.327823,0.299250535 132.033027,0.895449679 C132.735652,1.49395075 133.088899,2.23171842 133.088899,3.1110546 L133.088899,32.4376071 L125.695215,32.4376071 L125.695215,0 Z" id="path-7"></path>
        <path d="M154.256624,32.438758 L154.256624,16.4069861 C154.256624,14.8980728 153.743514,13.7989026 152.725029,13.1060225 C151.743355,12.4271046 150.534871,12.0619376 149.293122,12.0690043 C148.066158,12.0566171 146.872057,12.4229428 145.912784,13.1060225 C144.926529,13.7989026 144.434047,14.8980728 144.434047,16.4069861 L144.434047,32.4376071 L137.039073,32.4376071 L137.039073,17.7271413 C137.039073,13.4524625 138.289618,10.593469 140.789418,9.14555675 C143.28664,7.69994647 146.05202,6.91498929 149.080401,6.7883833 C150.699663,6.7883833 152.282827,6.94606531 153.832471,7.26027837 C155.389716,7.57870597 156.838848,8.22556875 158.058538,9.14670771 C159.114411,8.33067452 160.363666,7.74828694 161.807594,7.4018469 C163.274616,7.05286443 164.779845,6.84754987 166.296663,6.78953426 C169.394662,6.78953426 172.246419,7.51349036 174.853225,8.95794968 C177.457452,10.4047109 178.760855,13.3281585 178.760855,17.7271413 L178.760855,32.4376071 L175.063368,32.4376071 C174.007496,32.4376071 173.145007,32.1395075 172.475901,31.5421574 C171.805506,30.9448073 171.472886,30.1748126 171.472886,29.2310225 L171.472886,16.4069861 C171.472886,14.8980728 170.961066,13.7989026 169.941291,13.1060225 C168.959617,12.4271046 167.751133,12.0619376 166.509384,12.0690043 C165.24208,12.0690043 164.095962,12.4154443 163.077477,13.1060225 C162.056414,13.7989026 161.545882,14.8980728 161.545882,16.4069861 L161.545882,32.438758 L154.256624,32.438758 Z" id="path-8"></path>
    </defs>
    <g id="Page-1" stroke="none" stroke-width="1" fill="none" fill-rule="evenodd">
        <g id="Logo" transform="translate(-1.000000, 0.000000)">
            <g id="Group-2" transform="translate(61.000000, 17.000000)">
                <g id="Combined-Shape">
                    <use fill="#455668" fill-rule="evenodd" xlink:href="#path-1"></use>
                    <path stroke="#FFFFFF" stroke-width="1" d="M76.7169828,22.0920771 C76.8490803,23.6560146 77.3219484,24.8094596 78.1410387,25.5938101 C78.9512892,26.4855098 80.1891601,26.9389722 81.8900513,26.9389722 C83.0126531,26.9389722 83.9554364,26.7363214 84.8146379,26.2990649 C84.9484796,26.2604497 85.0758828,26.1876559 85.2016926,26.0761564 L85.7083546,25.6238295 C85.8583773,25.3523219 86.1600555,25.0829607 86.6261565,24.7638609 C87.1772097,24.3858596 87.9249034,24.2054336 88.8621604,24.2054336 L94.8109383,24.2054336 L94.622516,24.8464414 C93.8124837,27.6021504 92.2591117,29.715579 89.9828863,31.1566684 C87.7128102,32.6616866 84.8717505,33.4095021 81.4684759,33.4095021 C77.3259978,33.4095021 74.061753,32.1980316 71.7132093,29.7726214 C69.357443,27.4073507 68.1871354,24.0439542 68.1871354,19.7067987 C68.1871354,15.5613945 69.3217135,12.2935359 71.6027353,9.92895543 C73.9570338,7.50007825 77.2218834,6.2883833 81.3627598,6.2883833 C85.7098937,6.2883833 89.1100811,7.46327948 91.5445451,9.83476794 C93.8947484,12.2620091 95.0656757,15.6255609 95.0656757,19.8955567 L95.0656757,20.9325749 C95.0656757,21.3245234 95.0182756,21.618433 94.896201,21.8363993 L94.7530057,22.0920771 L76.7169828,22.0920771 Z M76.7263627,16.8507762 L86.4024783,16.8507762 C86.220212,15.5411421 85.7940163,14.5760013 85.1354325,13.9396435 C84.3211818,13.1574265 83.1419111,12.7589133 81.5741921,12.7589133 C80.1433138,12.7589133 78.9948468,13.1578744 78.1050236,13.9522716 C77.3294879,14.643734 76.8688255,15.6022617 76.7263627,16.8507762 Z"></path>
                </g>
                <g id="Combined-Shape">
                    <use fill="#455668" fill-rule="evenodd" xlink:href="#path-2"></use>
                    <path stroke="#FFFFFF" stroke-width="1" d="M104.744655,22.0920771 C104.87675,23.6560123 105.349598,24.8094344 106.168475,25.5935506 C106.980324,26.4857511 108.217246,26.9389722 109.917724,26.9389722 C111.040325,26.9389722 111.983109,26.7363214 112.84231,26.2990649 C112.976152,26.2604497 113.103555,26.1876559 113.228954,26.0765239 L113.733851,25.6247705 C113.88285,25.3533071 114.183864,25.0847426 114.652334,24.7631197 C115.205608,24.3857271 115.954232,24.2054336 116.891122,24.2054336 L122.8399,24.2054336 L122.651477,24.8464414 C121.841326,27.6025549 120.28772,29.715841 118.010559,31.1566684 C115.740169,32.6618943 112.900232,33.4095021 109.496148,33.4095021 C105.353475,33.4095021 102.089257,32.1979171 99.7421708,29.7726214 C97.3864045,27.4073507 96.2160969,24.0439542 96.2160969,19.7067987 C96.2160969,15.5613945 97.350675,12.2935359 99.6316968,9.92895543 C101.985995,7.50007825 105.250845,6.2883833 109.391721,6.2883833 C113.738855,6.2883833 117.139043,7.46327948 119.573507,9.83476794 C121.923233,12.261517 123.093348,15.6246576 123.093348,19.8955567 L123.093348,20.9325749 C123.093348,21.3245234 123.045948,21.618433 122.923873,21.8363993 L122.780678,22.0920771 L104.744655,22.0920771 Z M104.755275,16.8507762 L114.43144,16.8507762 C114.249177,15.5411453 113.823008,14.5760299 113.164648,13.939887 C112.348681,13.1571238 111.170306,12.7589133 109.601864,12.7589133 C108.171781,12.7589133 107.022199,13.1581599 106.132696,13.9522716 C105.357619,14.6433247 104.897585,15.6015829 104.755275,16.8507762 Z"></path>
                </g>
                <g id="Combined-Shape">
                    <use fill="#455668" fill-rule="evenodd" xlink:href="#path-3"></use>
                    <path stroke="#FFFFFF" stroke-width="1" d="M215.881187,30.6072016 L215.881187,38.4725271 C215.882688,39.4966987 215.467316,40.3866162 214.658641,41.1098897 L214.664558,41.1045124 C213.905957,41.8051528 212.865017,42.1922857 211.790706,42.1798448 L207.698935,42.1798448 L207.698935,18.2001874 C207.698935,13.6318288 209.224946,10.4577564 212.286649,8.75794667 C215.247347,7.1134796 218.464949,6.29068522 221.930432,6.29068522 C223.74213,6.29068522 225.574242,6.59836698 227.423313,7.21178316 C229.295093,7.83557699 230.791146,8.74239327 231.921698,9.9529335 C234.115814,12.5001119 235.211772,15.7610351 235.211772,19.7091006 C235.211772,23.7826393 234.116766,27.1057419 231.917416,29.6589317 C229.708457,32.1568036 226.86038,33.4118041 223.409169,33.4118041 C221.585801,33.4118041 219.96855,33.1160142 218.558186,32.5191783 C217.524217,32.0589028 216.630741,31.4203382 215.881187,30.6072016 Z M226.925093,19.9910867 C226.925093,17.6446898 226.427142,15.8667583 225.450355,14.6454842 C224.492979,13.449938 223.123702,12.8532923 221.298713,12.8532923 C219.545039,12.8532923 218.211466,13.4483124 217.24809,14.6512615 C216.348201,15.7413427 215.883766,17.5189042 215.883766,19.9910867 C215.883766,22.268122 216.377917,23.9441973 217.358504,25.0535522 C218.316545,26.2499292 219.685072,26.8468951 221.510146,26.8468951 C223.193068,26.8468951 224.491821,26.2530502 225.450169,25.0537846 C226.429043,23.8299005 226.925093,22.1473835 226.925093,19.9910867 Z"></path>
                </g>
                <g id="Combined-Shape">
                    <use fill="#455668" fill-rule="evenodd" xlink:href="#path-4"></use>
                    <path stroke="#FFFFFF" stroke-width="1" d="M200.549783,31.857305 L200.558845,31.8531589 C199.044132,32.5645677 197.392787,33.0117768 195.695854,33.1710416 C194.224882,33.3190801 192.746298,33.3986695 191.262434,33.4095021 C188.635317,33.4095021 186.323487,32.7704169 184.336446,31.490434 C182.282885,30.1658063 181.257005,27.976495 181.257005,24.9874197 C181.257005,22.18856 182.191973,20.1434664 184.070106,18.9112839 C185.861035,17.7357512 188.131568,16.9572406 190.945286,16.5664882 C191.262053,16.5664882 191.65318,16.5228072 192.119534,16.4339014 C192.622193,16.3373194 193.199982,16.2567584 193.842303,16.1926406 C196.711705,15.8431264 198.050403,15.1371368 198.050403,14.2374197 C198.050403,13.5376108 197.670961,13.1112223 196.787596,12.8821747 C195.734505,12.6091186 194.773155,12.4734743 193.90276,12.4734743 C192.968964,12.4734743 192.140896,12.5920816 191.417113,12.8264634 C190.766831,13.0380095 190.30905,13.4214323 190.01937,13.9919052 L189.880429,14.2655246 L181.91839,14.2655246 L182.000856,13.6941053 C182.30126,11.6125723 183.359665,9.891736 185.150609,8.55875726 C187.149861,7.0389123 189.964416,6.2883833 193.585611,6.2883833 C197.609574,6.2883833 200.653107,6.90311553 202.720279,8.15357543 C204.907746,9.50111176 206.021222,11.4205253 206.021222,13.8599036 L206.021222,22.4426392 C206.021222,25.0504778 205.48354,27.1164415 204.395041,28.6282155 C203.322892,30.1135221 202.039643,31.1934804 200.549783,31.857305 Z M198.156119,20.5448859 C197.224897,20.890721 196.053692,21.2138833 194.632367,21.5189368 L192.227615,21.9852027 C191.063849,22.2748016 190.231211,22.6400408 189.735011,23.0628434 C189.321119,23.6583341 189.12082,24.234257 189.12082,24.7998126 C189.12082,25.6041684 189.38062,26.2222016 189.883751,26.6714852 C190.417012,27.0961699 191.222824,27.3176392 192.318307,27.3176392 C194.174475,27.3176392 195.605399,26.8531046 196.632962,25.9357388 C197.647918,25.0296278 198.156119,23.7826653 198.156119,22.1595021 L198.156119,20.5448859 Z"></path>
                </g>
                <g id="Path">
                    <use fill="#455668" fill-rule="evenodd" xlink:href="#path-5"></use>
                    <path stroke="#FFFFFF" stroke-width="1" d="M19.4350119,16.6499815 L15.498066,32.938758 L7.34144213,32.938758 L-0.676790012,6.85465739 L7.57049731,6.85465739 L11.5941485,22.5918432 L15.2342608,6.85465739 L23.5334828,6.85465739 L26.9748962,22.554896 L30.3605911,9.48252772 C30.8475038,7.74507061 32.177461,6.85465739 34.2223809,6.85465739 L39.5468139,6.85465739 L31.5285817,32.938758 L23.3719578,32.938758 L19.4350119,16.6499815 Z"></path>
                </g>
                <g id="Path">
                    <use fill="#455668" fill-rule="evenodd" xlink:href="#path-6"></use>
                    <path stroke="#FFFFFF" stroke-width="1" d="M47.9188507,9.21948672 C49.1651857,7.88293608 50.7628733,7.00210674 52.699418,6.58284207 C55.1130031,6.06029746 57.4266003,6.19143454 59.638784,6.98202468 C61.6889317,7.76609146 63.4154077,9.01260251 64.8120908,10.7155416 C66.2293537,12.4493449 66.930998,14.8236237 66.930998,17.8215203 L66.930998,32.9376071 L58.854462,32.9376071 L58.854462,19.4248126 C58.854462,18.5211215 58.7698928,17.6936538 58.6023678,16.9414525 C58.4424591,16.230779 58.0706391,15.4938864 57.4807468,14.7339101 L57.4852544,14.7396308 C56.5264536,13.5408439 55.2272201,12.9465203 53.5452306,12.9465203 C51.7143111,12.9465203 50.3420721,13.516676 49.3862836,14.6543939 C48.4124916,15.8146038 47.9188507,17.4300639 47.9188507,19.5191916 L47.9188507,32.938758 L39.7365985,32.938758 L39.7365985,-0.5 L43.8283692,-0.5 C44.9338317,-0.5 45.8984867,-0.141000706 46.6966442,0.570258823 C47.5038682,1.29355969 47.9188507,2.18196416 47.9188507,3.20543362 L47.9188507,9.21948672 Z"></path>
                </g>
                <g id="Path">
                    <use fill="#455668" fill-rule="evenodd" xlink:href="#path-7"></use>
                    <path stroke="#FFFFFF" stroke-width="1" d="M125.195215,-0.5 L129.497128,-0.5 C130.597688,-0.5 131.558332,-0.160612735 132.35725,0.514819538 C133.17075,1.207764 133.588899,2.08416296 133.588899,3.1110546 L133.588899,32.9376071 L125.195215,32.9376071 L125.195215,-0.5 Z"></path>
                </g>
                <g id="Path">
                    <use fill="#455668" fill-rule="evenodd" xlink:href="#path-8"></use>
                    <path stroke="#FFFFFF" stroke-width="1" d="M158.05574,8.52658232 C159.103297,7.78255878 160.316302,7.24546078 161.69188,6.91542076 C163.190649,6.55888624 164.728234,6.3491583 166.296663,6.28953426 C169.47679,6.28953426 172.412305,7.03378073 175.096042,8.52086879 C177.881362,10.0682347 179.260855,13.1635738 179.260855,17.7271413 L179.260855,32.9376071 L175.063368,32.9376071 C173.889327,32.9376071 172.907861,32.5980583 172.14327,31.9154627 C171.365614,31.222539 170.972886,30.3165675 170.972886,29.2310225 L170.972886,16.4069861 C170.972886,15.0564619 170.535242,14.1140713 169.656886,13.5172564 C168.760501,12.8973246 167.652457,12.5625072 166.509384,12.5690043 C165.34151,12.5690043 164.293223,12.8857917 163.358232,13.5197574 C162.482944,14.1137164 162.045882,15.0554459 162.045882,16.4069861 L162.045882,32.938758 L153.756624,32.938758 L153.756624,16.4069861 C153.756624,15.0574766 153.318398,14.1144281 152.440624,13.5172564 C151.544239,12.8973246 150.436195,12.5625072 149.288075,12.5689788 C148.165646,12.557647 147.075019,12.892229 146.200211,13.5151502 C145.356934,14.1075836 144.934047,15.0515473 144.934047,16.4069861 L144.934047,32.9376071 L136.539073,32.9376071 L136.539073,17.7271413 C136.539073,13.2910853 137.862749,10.2628999 140.538919,8.71283236 C143.105518,7.22706055 145.949438,6.41884113 149.080401,6.2883833 C150.731101,6.2883833 152.34762,6.44902822 153.932639,6.77041474 C155.434886,7.07759619 156.84234,7.6774754 158.05574,8.52658232 Z"></path>
                </g>
            </g>
            <g id="Icon" fill-rule="nonzero" fill="#8BB847">
                <path d="M15.1235475,21.7290146 C18.014007,24.6186371 22.5133468,24.5140013 25.3360024,21.6905086 L15.1235475,21.7290146 Z M29.3322532,53.1616115 L22.2563613,53.1616115 L22.2563613,47.4032937 C22.2563613,46.4070154 21.4487182,45.5993723 20.4524399,45.5993723 C19.4561617,45.5993723 18.6485186,46.4070154 18.6485186,47.4032937 L18.6485186,53.1616115 L11.9317368,53.1616115 C10.9508283,53.1827454 10.1666724,53.9839782 10.1666724,54.9651143 C10.1666724,55.9462504 10.9508283,56.7474831 11.9317368,56.7686171 L18.6485186,56.7686171 L18.6485186,63.0065854 C18.6485186,64.0028636 19.4561617,64.8105067 20.4524399,64.8105067 C21.4487181,64.8105067 22.2563612,64.0028636 22.2563613,63.0065854 L22.2563613,56.7686171 L29.3314161,56.7686171 C29.9757456,56.7687666 30.5712104,56.4251591 30.8935047,55.8672282 C31.2157989,55.3092972 31.2159585,54.6218058 30.8939232,54.0637253 C30.5718879,53.5056448 29.9765827,53.161761 29.3322532,53.1616115 L29.3322532,53.1616115 Z M51.8532275,59.4740805 C51.7068757,59.0185303 51.3852215,58.6399658 50.9592836,58.421971 C50.5333456,58.2039762 50.0381562,58.1644806 49.583049,58.3122045 L45.8739189,59.5084011 L40.8564226,45.2913245 C40.691409,44.8231274 40.340334,44.4438816 39.8862394,44.2432922 C39.4327098,44.0413324 38.9158597,44.0358791 38.4581698,44.2282247 L35.061273,45.6529459 C33.4018982,42.9076025 31.0179028,40.6727697 28.1712142,39.1939867 L26.5003897,33.9965168 C26.0245246,32.5160254 25.2197986,31.1624145 24.1465025,30.0370978 L27.1918231,30.0370978 C32.8848481,30.0370978 37.5172847,25.4054984 37.5172847,19.7116362 L37.5172847,11.2352987 C37.5172847,5.54143651 32.8848481,0.909 27.1918231,0.909 L13.2685639,0.909 C7.57470171,0.909 2.9422652,5.54143651 2.9422652,11.2352987 L2.9422652,19.7116362 C2.9422652,23.7196062 5.23923047,27.1993747 8.58506508,28.9095423 L8.12801587,29.0560325 C2.70788099,30.7980094 -0.28470313,36.6258054 1.45727381,42.0459403 L3.76093577,49.2130746 C3.19372311,50.9465958 2.90469497,52.7590254 2.90459631,54.5829843 C2.90459631,64.1366521 10.6769442,71.909 20.2297749,71.909 C29.7834428,71.909 37.5557906,64.1366521 37.5557906,54.5829843 C37.5557906,52.5990894 37.2125852,50.6955547 36.5964895,48.9200943 L38.0906889,48.2939537 L43.0571229,62.363703 C43.381873,63.2852301 44.3815317,63.7804194 45.3113968,63.4803764 L50.6921886,61.7450961 C51.14738,61.598008 51.5254655,61.2760647 51.7432194,60.8501336 C51.9609734,60.4242024 52.0005464,59.9291973 51.8532275,59.4740805 L51.8532275,59.4740805 Z M6.55010788,19.7116362 L6.55010788,12.5947271 L33.909442,12.5947271 L33.909442,19.7116362 C33.909442,23.4157439 30.8959307,26.4300922 27.190986,26.4300922 L13.2685639,26.4300922 C9.56361916,26.4292551 6.55010788,23.4157439 6.55010788,19.7116362 L6.55010788,19.7116362 Z M4.89183959,40.9418232 C3.75842451,37.4151779 5.70548763,33.6240133 9.23213292,32.4905982 L14.615436,30.7603405 C15.2739427,30.547519 15.9616982,30.4390598 16.6537415,30.4388993 C19.5788639,30.4284409 22.1736266,32.3143094 23.066661,35.0997968 L23.8861686,37.6503992 C22.6847329,37.390389 21.4590238,37.259063 20.2297749,37.2586428 C14.3852372,37.2586428 9.21204284,40.1700295 6.07296859,44.6157957 L4.89183959,40.9418232 L4.89183959,40.9418232 Z M20.2297749,68.3011573 C12.6658616,68.3011573 6.51243899,62.1477347 6.51243899,54.5829843 C6.51243899,47.019071 12.6658616,40.8656484 20.2297749,40.8656484 C27.7936882,40.8656484 33.947948,47.019071 33.947948,54.5829843 C33.947948,62.1477347 27.7936882,68.3011573 20.2297749,68.3011573 Z M15.7036484,18.4970238 C14.7092194,18.4970238 13.9030754,17.6908798 13.9030754,16.6964508 C13.9030754,15.7020218 14.7092194,14.8958778 15.7036484,14.8958778 C16.6980774,14.8958778 17.5042214,15.7020218 17.5042214,16.6964508 C17.5042214,17.6908798 16.6980774,18.4970238 15.7036484,18.4970238 Z M24.7559015,18.4961867 C23.7619348,18.4961867 22.9561656,17.6904175 22.9561656,16.6964508 C22.9561656,15.7024841 23.7619348,14.8967149 24.7559015,14.8967149 C25.7498682,14.8967149 26.5556374,15.7024841 26.5556374,16.6964508 C26.5556374,17.6904175 25.7498682,18.4961867 24.7559015,18.4961867 Z" id="Shape"></path>
            </g>
        </g>
    </g>
</svg>