<?xml version="1.0" encoding="UTF-8"?>
<svg width="25px" height="19px" viewBox="0 0 25 19" version="1.1" xmlns="http://www.w3.org/2000/svg" xmlns:xlink="http://www.w3.org/1999/xlink">
    <!-- Generator: Sketch 50.2 (55047) - http://www.bohemiancoding.com/sketch -->
    <title>Rectangle 984</title>
    <desc>Created with Sketch.</desc>
    <defs></defs>
    <g id="Symbols" stroke="none" stroke-width="1" fill="none" fill-rule="evenodd">
        <g id="icon/photo/blue" transform="translate(-4.000000, -7.000000)" fill="#2D6AE0">
            <path d="M9.92154326,10.6290323 L11.972856,7.63628194 C12.2461739,7.28487313 12.8299243,7 13.2704819,7 L19.7295181,7 C20.1728591,7 20.7537412,7.28476407 21.027144,7.63628194 L23.0784567,10.6290323 L27.3885372,10.6290323 C28.2785235,10.6290323 29,11.3486238 29,12.2398398 L29,23.9375795 C29,24.827204 28.27876,25.5483871 27.3885372,25.5483871 L5.61146277,25.5483871 C4.72147646,25.5483871 4,24.8287956 4,23.9375795 L4,12.2398398 C4,11.3502154 4.72124004,10.6290323 5.61146277,10.6290323 L9.92154326,10.6290323 Z M16.5,23.5322581 C19.6177365,23.5322581 22.1451613,21.0048333 22.1451613,17.8870968 C22.1451613,14.7693603 19.6177365,12.2419355 16.5,12.2419355 C13.3822635,12.2419355 10.8548387,14.7693603 10.8548387,17.8870968 C10.8548387,21.0048333 13.3822635,23.5322581 16.5,23.5322581 Z M16.5,22.3225806 C14.0503499,22.3225806 12.0645161,20.3367469 12.0645161,17.8870968 C12.0645161,15.4374467 14.0503499,13.4516129 16.5,13.4516129 C18.9496501,13.4516129 20.9354839,15.4374467 20.9354839,17.8870968 C20.9354839,20.3367469 18.9496501,22.3225806 16.5,22.3225806 Z M5.61290323,8.61290323 C5.61290323,8.1675123 5.97044611,7.80645161 6.41858926,7.80645161 L8.03302365,7.80645161 C8.47799176,7.80645161 8.83870968,8.16440711 8.83870968,8.61290323 L8.83870968,9.41935484 L5.61290323,9.41935484 L5.61290323,8.61290323 Z M23.3548387,13.4516129 C23.8002296,13.4516129 24.1612903,13.0905522 24.1612903,12.6451613 C24.1612903,12.1997704 23.8002296,11.8387097 23.3548387,11.8387097 C22.9094478,11.8387097 22.5483871,12.1997704 22.5483871,12.6451613 C22.5483871,13.0905522 22.9094478,13.4516129 23.3548387,13.4516129 Z" id="Rectangle-984"></path>
        </g>
    </g>
</svg>