<?xml version="1.0" encoding="UTF-8"?>
<svg width="33px" height="33px" viewBox="0 0 33 33" version="1.1" xmlns="http://www.w3.org/2000/svg" xmlns:xlink="http://www.w3.org/1999/xlink">
    <!-- Generator: Sketch 50.2 (55047) - http://www.bohemiancoding.com/sketch -->
    <title>icon/checkmark/black</title>
    <desc>Created with Sketch.</desc>
    <defs></defs>
    <g id="icon/checkmark/black" stroke="none" stroke-width="1" fill="none" fill-rule="evenodd">
        <path d="M8.31375,15.898 C8.31375,15.4779979 8.4637485,15.1240014 8.76375,14.836 C9.0637515,14.5479986 9.4237479,14.404 9.84375,14.404 C10.2637521,14.404 10.6237485,14.5479986 10.92375,14.836 L14.25375,18.094 L22.26375,10.264 C22.5637515,9.9639985 22.9237479,9.814 23.34375,9.814 C23.7637521,9.814 24.1237485,9.95799856 24.42375,10.246 C24.7237515,10.5340014 24.87375,10.8879979 24.87375,11.308 C24.87375,11.7280021 24.7237515,12.0819986 24.42375,12.37 L15.33375,21.28 C15.0457486,21.5800015 14.6857522,21.73 14.25375,21.73 C13.8217478,21.73 13.4617514,21.5800015 13.17375,21.28 L8.74575,16.978 C8.45774856,16.6779985 8.31375,16.3180021 8.31375,15.898 Z" id="" fill="#000000"></path>
    </g>
</svg>