<?xml version="1.0" encoding="UTF-8"?>
<svg xmlns="http://www.w3.org/2000/svg" xmlns:xlink="http://www.w3.org/1999/xlink" width="15px" height="21px" version="1.1" viewBox="-6 -2 19 25">
<!--Generator: Sketch 51.1 (57501) - http://www.bohemiancoding.com/sketch-->
    <g id="Symbols" fill="none" fill-rule="evenodd" stroke="none" stroke-width="1">
        <g id="ui-icon/problem-flag" fill-rule="nonzero" transform="translate(-9.000000, -5.000000)">
            <path id="path-1" d="M11,16.7736617 L11,26 L9,26 L9,6 C10.5089953,5.64751084 12.1243799,5.64751084 13.8461538,6 C16.4288148,6.52873373 16.279868,7.50967098 18.7692308,8 C20.4288059,8.32688602 22.1723957,8.32688602 24,8 L24,19 C22.2378607,19.3397807 20.494271,19.3397807 18.7692308,19 C16.1816704,18.490329 16.1481083,17.4712663 13.8461538,17 C12.926438,16.8117117 11.9777201,16.7362656 11,16.7736617 Z M18.3827178,9.96229655 C17.0873921,9.70715662 16.3647489,9.38590079 15.3146742,8.73037419 C15.2624808,8.69778035 15.2624808,8.69778035 15.2126219,8.66670056 C14.5800558,8.27288498 14.2310079,8.12027091 13.4450248,7.95936099 C12.5880421,7.78391571 11.7741932,7.71234156 11,7.74219187 L11,14.7723972 C12.1088446,14.7356959 13.1921229,14.824622 14.2472829,15.040639 C15.4197177,15.280665 16.114454,15.5908464 17.1316638,16.2108447 C17.2210591,16.2653884 17.2210591,16.2653884 17.3048869,16.3163432 C17.9571166,16.7116341 18.3537234,16.8797298 19.1557437,17.0377035 C20.0973897,17.2231792 21.0442352,17.2899334 22,17.2375651 L22,10.2308711 C20.7641029,10.2827103 19.5574696,10.193687 18.3827178,9.96229655 Z"/>
        </g>
    </g>
</svg>
