<?xml version="1.0" encoding="UTF-8"?>
<svg xmlns="http://www.w3.org/2000/svg" xmlns:xlink="http://www.w3.org/1999/xlink" width="21px" height="21px" version="1.1" viewBox="-3 -3 26 26">
<!--Generator: Sketch 51.1 (57501) - http://www.bohemiancoding.com/sketch-->
    <title>
        u
    </title>
    <desc>
        Created with Sketch.
    </desc>
    <g id="ui-icon/phone" fill-rule="nonzero" transform="translate(-6.000000, -6.000000)">
        <path id="path-1" d="M10.3272377,14.9425507 C10.4061547,14.8056122 10.567805,14.6251935 10.8928387,14.2624218 C10.9148512,14.257931 10.9363482,14.2535454 10.9573457,14.2492649 C10.9704944,14.3014166 10.9887697,14.3586949 11.0121716,14.4211002 L11.1189968,14.7148695 C11.1368011,14.7682823 11.2080172,14.8929105 11.3326472,15.0887577 C11.4572773,15.2846049 11.5195914,15.373625 11.5195914,15.3558207 C12.2673715,16.726751 13.1308666,17.9018165 14.1101025,18.8810524 C15.0893385,19.8602883 16.2555019,20.7237834 17.6086279,21.4715636 C17.6264322,21.4715636 17.7154523,21.5249756 17.8756909,21.6318014 C18.0359295,21.7386271 18.1605577,21.8098432 18.2495791,21.8454518 L18.5433485,21.9789833 C18.6501742,22.0323962 18.7659003,22.0502002 18.8905304,22.0323959 C19.0685733,22.0323959 19.2911235,21.8988657 19.5581879,21.6318014 C19.8252522,21.364737 20.0923126,21.0531666 20.3593769,20.6970809 C20.6264413,20.3409951 20.9024036,20.0294247 21.1872722,19.7623603 C21.4721409,19.495296 21.7213972,19.3528638 21.9350487,19.3350595 C22.0596787,19.3350595 22.1932089,19.3706676 22.3356432,19.4418847 C22.4780775,19.5131019 22.6561177,19.619926 22.8697692,19.7623603 C23.0834207,19.9047946 23.2080488,19.9938148 23.2436574,20.0294233 L24.9795669,21.0175565 C25.3178484,21.2134036 25.5938108,21.3647378 25.8074623,21.4715636 C26.5018296,21.8098451 26.875714,22.0680034 26.9291269,22.2460463 C26.9647355,22.3172635 26.9825395,22.4240876 26.9825395,22.5665219 C26.9825395,22.8335862 26.9291274,23.1807647 26.8223017,23.6080676 C26.715476,24.0353706 26.6086518,24.373647 26.5018261,24.6229071 C26.3059789,25.1214272 25.7006421,25.6555478 24.6857976,26.2252851 C23.7599746,26.7238052 22.8430674,26.9730615 21.9350487,26.9730615 C21.65018,26.9730615 21.3831197,26.9552575 21.1338596,26.9196489 C20.8845996,26.8840404 20.5997352,26.8217263 20.279258,26.7327048 C19.9587808,26.6436834 19.7273285,26.5724673 19.5848942,26.5190544 L18.0092224,25.9582221 C17.0477908,25.6021363 16.1842957,25.1837418 15.4187113,24.703026 C14.1368024,23.9196372 12.8193048,22.8513959 11.4661788,21.4982699 C10.1130527,20.1451439 9.0448114,18.8276462 8.26142266,17.5457374 C7.78070684,16.7801529 7.37121432,15.9166578 7.03293282,14.9552262 L6.76586981,14.2074498 C6.6234355,13.7979511 6.51661136,13.5219888 6.4453942,13.3795544 C6.37417705,13.2371201 6.30296096,13.0056678 6.2317438,12.6851906 L6.04479969,11.830589 C5.99138682,11.5813289 5.9735828,11.3231706 5.99138709,11.0561063 C5.99138709,10.1302832 6.24954542,9.20447404 6.76586981,8.27865099 C7.31780279,7.28161077 7.84302145,6.67627401 8.34154156,6.46262253 C8.59080161,6.3557968 8.92907804,6.24897266 9.35638099,6.14214692 C9.78368394,6.03532119 10.1308624,5.98190912 10.3979267,5.98190912 C10.540361,5.98190912 10.6471852,5.99971314 10.7184023,6.03532172 C10.8964452,6.08873459 11.1635056,6.47152107 11.5195914,7.18369266 C11.6264171,7.36173555 11.7688493,7.62879589 11.9468922,7.98488168 C12.1249351,8.34096747 12.3029753,8.65253786 12.4810182,8.91960221 C12.6590611,9.18666655 12.8103953,9.45372689 12.9350253,9.72079123 C12.9706339,9.75639981 13.059654,9.88102797 13.2020883,10.0946794 C13.3445226,10.3083309 13.4513468,10.4863711 13.5225639,10.6288055 C13.5937811,10.7712398 13.6293891,10.913672 13.6293891,11.0561063 C13.6293891,11.2519535 13.4869569,11.5012098 13.2020883,11.8038827 C12.9172197,12.1065556 12.6056493,12.3736159 12.2673678,12.6050717 C11.9290863,12.8365275 11.6264179,13.1035878 11.3593535,13.4062607 C11.0922892,13.7089337 10.949857,13.9314839 10.9320527,14.0739183 C10.9320527,14.1183734 10.9387126,14.1694881 10.9520324,14.2272627 C10.7417212,14.3303361 10.5585704,14.4900759 10.4332792,14.6986541 L10.3272377,14.9425507 Z"/>
    </g>
</svg>
