<?xml version="1.0" encoding="UTF-8"?>
<svg width="33px" height="33px" viewBox="0 0 33 33" version="1.1" xmlns="http://www.w3.org/2000/svg" xmlns:xlink="http://www.w3.org/1999/xlink">
    <!-- Generator: Sketch 50.2 (55047) - http://www.bohemiancoding.com/sketch -->
    <title>icon/share/black</title>
    <desc>Created with Sketch.</desc>
    <defs></defs>
    <g id="icon/share/black" stroke="none" stroke-width="1" fill="none" fill-rule="evenodd">
        <path d="M24,23.048584 L24,20.976 L26.0280767,19.3129771 L26.0280767,23.8495605 C26.0280767,24.1695621 25.9080779,24.4495593 25.6680767,24.6895605 C25.4280755,24.9295617 25.1480783,25.0495605 24.8280767,25.0495605 L7.2,25.0495605 C6.8799984,25.0495605 6.6000012,24.9295617 6.36,24.6895605 C6.1199988,24.4495593 6,24.1695621 6,23.8495605 L6,10.32 C6,9.96799824 6.11199888,9.68000112 6.336,9.456 C6.56000112,9.23199888 6.84799824,9.12 7.2,9.12 L14.112,9.12 C13.5999974,9.50400192 13.1280022,9.895998 12.696,10.296 C12.4839314,10.4923599 12.2308946,10.7391841 11.9368898,11.0364726 L8.02819824,11.0123291 L8.02819824,23.048584 L24,23.048584 Z M22.032,13.968 C19.3759867,13.968 17.4400061,14.2959967 16.224,14.952 C15.0079939,15.6080033 13.7280067,17.0559888 12.384,19.296 C12.384,19.1679994 12.3919999,18.9920011 12.408,18.768 C12.4240001,18.5439989 12.4959994,18.0960034 12.624,17.424 C12.7520006,16.7519966 12.9279989,16.120003 13.152,15.528 C13.3760011,14.935997 13.7279976,14.2720037 14.208,13.536 C14.6880024,12.7999963 15.2479968,12.1680026 15.888,11.64 C16.5280032,11.1119974 17.2290166,10.5337725 18.456,10.296 C19.6829834,10.0582275 20.7199934,10.0582275 22.032,10.0582275 L23.0155029,10.0582275 L23.0160887,6.74103066 L30,12 L23.0221798,17.464558 L23.0221798,13.968 L22.032,13.968 Z" id="" fill="#000000"></path>
    </g>
</svg>